<svg xmlns="http://www.w3.org/2000/svg" xmlns:xlink="http://www.w3.org/1999/xlink" version="1.1" width="15.668000221252441" height="61.86699676513672" viewBox="0.015999913215637207 0.2330000400543213 15.668000221252441 61.86699676513672">
  <defs>
    <linearGradient id="grad_1" x1="32" y1="159.1665" x2="32" y2="98.2998" gradientUnits="userSpaceOnUse">
      <stop offset="0" stop-color="#FFDC3C"/>
      <stop offset="1" stop-color="#FFDC3C" stop-opacity="0"/>
    </linearGradient>
  <linearGradient id="grad_1-,0,0,-1,-24.15,159.9" x1="7.85" y1="0.7335" x2="7.85" y2="61.6002" gradientUnits="userSpaceOnUse">
      <stop offset="0" stop-color="#FFDC3C"/>
      <stop offset="1" stop-color="#FFDC3C" stop-opacity="0"/>
    </linearGradient></defs>
  <!-- Exported by Scratch - http://scratch.mit.edu/ -->
  <g id="ID0.04411588842049241">
    <path id="ID0.605877926107496" fill="url(#grad_1-,0,0,-1,-24.15,159.9)" d="M 15.15 0.733 C 15.16 0.789 15.184 0.84 15.184 0.9 C 15.184 1.452 14.736 1.9 14.184 1.9 L 11.05 1.9 L 11.05 3.608 C 11.05 5.089 9.965 6.314 8.55 6.55 L 8.55 8.249 C 9.965 8.485 11.05 9.71 11.05 11.191 L 11.05 14.608 C 11.05 16.089 9.965 17.314 8.55 17.55 L 8.55 19.249 C 9.965 19.485 11.05 20.71 11.05 22.191 L 11.05 25.608 C 11.05 27.089 9.965 28.314 8.55 28.55 L 8.55 30.249 C 9.965 30.485 11.05 31.71 11.05 33.191 L 11.05 36.608 C 11.05 38.089 9.965 39.314 8.55 39.55 L 8.55 41.249 C 9.965 41.485 11.05 42.71 11.05 44.191 L 11.05 47.608 C 11.05 49.089 9.965 50.314 8.55 50.55 L 8.55 52.249 C 9.965 52.485 11.05 53.71 11.05 55.191 L 11.05 58.608 C 11.05 60.257 9.708 61.6 8.058 61.6 L 7.641 61.6 C 5.992 61.6 4.649 60.258 4.649 58.608 L 4.649 55.191 C 4.649 53.71 5.734 52.485 7.149 52.249 L 7.149 50.55 C 5.734 50.314 4.649 49.089 4.649 47.608 L 4.649 44.191 C 4.649 42.71 5.734 41.485 7.149 41.249 L 7.149 39.55 C 5.734 39.314 4.649 38.089 4.649 36.608 L 4.649 33.191 C 4.649 31.71 5.734 30.485 7.149 30.249 L 7.149 28.55 C 5.734 28.314 4.649 27.089 4.649 25.608 L 4.649 22.191 C 4.649 20.71 5.734 19.485 7.149 19.249 L 7.149 17.55 C 5.734 17.314 4.649 16.089 4.649 14.608 L 4.649 11.191 C 4.649 9.71 5.734 8.485 7.149 8.249 L 7.149 6.55 C 5.734 6.314 4.649 5.089 4.649 3.608 L 4.649 1.9 L 1.516 1.9 C 0.964 1.9 0.516 1.452 0.516 0.9 C 0.516 0.841 0.54 0.79 0.55 0.733 L 15.15 0.733 Z M 6.05 55.192 L 6.05 58.609 C 6.05 59.486 6.764 60.2 7.641 60.2 L 8.058 60.2 C 8.935 60.2 9.649 59.486 9.649 58.609 L 9.649 55.192 C 9.649 54.487 9.185 53.895 8.549 53.687 L 8.549 54.4 C 8.549 54.787 8.236 55.1 7.849 55.1 C 7.462 55.1 7.149 54.787 7.149 54.4 L 7.149 53.686 C 6.514 53.894 6.05 54.487 6.05 55.192 Z M 6.05 44.192 L 6.05 47.609 C 6.05 48.314 6.514 48.906 7.15 49.114 L 7.15 48.4 C 7.15 48.013 7.463 47.7 7.85 47.7 C 8.237 47.7 8.55 48.013 8.55 48.4 L 8.55 49.114 C 9.186 48.906 9.65 48.313 9.65 47.609 L 9.65 44.192 C 9.65 43.487 9.186 42.895 8.55 42.687 L 8.55 43.4 C 8.55 43.787 8.237 44.1 7.85 44.1 C 7.463 44.1 7.15 43.787 7.15 43.4 L 7.15 42.686 C 6.514 42.894 6.05 43.487 6.05 44.192 Z M 6.05 33.192 L 6.05 36.609 C 6.05 37.314 6.514 37.906 7.15 38.114 L 7.15 37.4 C 7.15 37.013 7.463 36.7 7.85 36.7 C 8.237 36.7 8.55 37.013 8.55 37.4 L 8.55 38.114 C 9.186 37.906 9.65 37.313 9.65 36.609 L 9.65 33.192 C 9.65 32.487 9.186 31.895 8.55 31.687 L 8.55 32.4 C 8.55 32.787 8.237 33.1 7.85 33.1 C 7.463 33.1 7.15 32.787 7.15 32.4 L 7.15 31.686 C 6.514 31.894 6.05 32.487 6.05 33.192 Z M 6.05 22.192 L 6.05 25.609 C 6.05 26.314 6.514 26.906 7.15 27.114 L 7.15 26.4 C 7.15 26.013 7.463 25.7 7.85 25.7 C 8.237 25.7 8.55 26.013 8.55 26.4 L 8.55 27.114 C 9.186 26.906 9.65 26.313 9.65 25.609 L 9.65 22.192 C 9.65 21.487 9.186 20.895 8.55 20.687 L 8.55 21.4 C 8.55 21.787 8.237 22.1 7.85 22.1 C 7.463 22.1 7.15 21.787 7.15 21.4 L 7.15 20.686 C 6.514 20.894 6.05 21.487 6.05 22.192 Z M 6.05 11.192 L 6.05 14.609 C 6.05 15.314 6.514 15.906 7.15 16.114 L 7.15 15.4 C 7.15 15.013 7.463 14.7 7.85 14.7 C 8.237 14.7 8.55 15.013 8.55 15.4 L 8.55 16.114 C 9.186 15.906 9.65 15.313 9.65 14.609 L 9.65 11.192 C 9.65 10.487 9.186 9.895 8.55 9.687 L 8.55 10.4 C 8.55 10.787 8.237 11.1 7.85 11.1 C 7.463 11.1 7.15 10.787 7.15 10.4 L 7.15 9.686 C 6.514 9.894 6.05 10.487 6.05 11.192 Z M 6.05 3.608 C 6.05 4.313 6.514 4.905 7.15 5.113 L 7.15 4.399 C 7.15 4.012 7.463 3.699 7.85 3.699 C 8.237 3.699 8.55 4.012 8.55 4.399 L 8.55 5.113 C 9.186 4.905 9.65 4.312 9.65 3.608 L 9.65 1.9 L 6.05 1.9 L 6.05 3.608 Z " stroke-width="1"/>
  </g>
</svg>