<svg xmlns="http://www.w3.org/2000/svg" xmlns:xlink="http://www.w3.org/1999/xlink" version="1.1" width="22.561827659606934" height="22.5618257522583" viewBox="-0.0230637788772583 0.613436222076416 22.561827659606934 22.5618257522583">
  <!-- Exported by Scratch - http://scratch.mit.edu/ -->
  <path id="ID0.16053227661177516" fill="none" stroke="#FFFFFF" stroke-width="2.472527503967285" d="M 11.2578 1.8497 C 14.0295 1.8497 16.5404 2.9747 18.3589 4.7933 C 20.1775 6.6118 21.3025 9.1227 21.3025 11.8944 C 21.3025 14.6661 20.1775 17.1769 18.3589 18.9955 C 16.5404 20.814 14.0295 21.939 11.2578 21.939 C 8.4861 21.939 5.9753 20.814 4.1567 18.9955 C 2.3382 17.1769 1.2132 14.6661 1.2132 11.8944 C 1.2132 9.1227 2.3382 6.6118 4.1567 4.7933 C 5.9753 2.9747 8.4861 1.8497 11.2578 1.8497 Z "/>
  <path id="ID0.3912192960269749" fill="#FF00BF" stroke="none" d="M 11.05 7.8 C 12.154 7.8 13.154 8.248 13.878 8.972 C 14.602 9.696 15.05 10.696 15.05 11.8 C 15.05 12.904 14.602 13.904 13.878 14.628 C 13.154 15.352 12.154 15.8 11.05 15.8 C 9.946 15.8 8.946 15.352 8.222 14.628 C 7.498 13.904 7.05 12.904 7.05 11.8 C 7.05 10.696 7.498 9.696 8.222 8.972 C 8.946 8.248 9.946 7.8 11.05 7.8 Z " stroke-width="1"/>
</svg>