<svg version="1.1" xmlns="http://www.w3.org/2000/svg" xmlns:xlink="http://www.w3.org/1999/xlink" width="76.83989" height="61.87015" viewBox="0,0,76.83989,61.87015"><defs><radialGradient cx="237.21818" cy="182.0826" r="38.41995" gradientUnits="userSpaceOnUse" id="color-1"><stop offset="0" stop-color="#fff36a" stop-opacity="0"/><stop offset="1" stop-color="#fff36a"/></radialGradient></defs><g transform="translate(-199.05603,-146.50727)"><g data-paper-data="{&quot;isPaintingLayer&quot;:true}" fill="url(#color-1)" fill-rule="nonzero" stroke="none" stroke-width="0.5" stroke-linecap="butt" stroke-linejoin="miter" stroke-miterlimit="10" stroke-dasharray="" stroke-dashoffset="0" font-family="none" font-weight="none" font-size="none" text-anchor="none" style="mix-blend-mode: normal"><path d="M215.7534,156.49129c-0.95617,-1.15897 -1.57652,-2.85696 -0.96764,-5.29246c1.508,-6.03201 7.54001,-4.52401 7.54001,-4.52401c21.51249,5.37813 50.22342,4.83939 53.49258,33.13759c0.38758,3.35499 -0.75114,6.75691 -1.77531,9.97521c-7.51668,16.53671 -31.59867,16.90432 -47.00765,17.63445c-2.58303,0.12239 -11.3467,2.10651 -13.05396,-0.03086c-6.43735,-8.05906 -5.97488,-12.22726 -2.36248,-16.46175c-0.42929,-0.01492 -0.86,-0.0343 -1.29362,-0.06103l-0.0534,0.26704l-6.1047,-1.22095c-2.90605,-0.52196 -5.1112,-3.06321 -5.1112,-6.11948c0,-2.06005 1.00186,-3.88612 2.54495,-5.01754l2.42916,-1.82187c0.13171,-0.79158 0.99622,-1.1955 1.80908,-1.55448c-0.86346,-1.73395 -1.62437,-4.19755 -2.47952,-7.69331c-0.25709,-1.05091 0.25574,-2.26484 0.93265,-3.10882c3.08798,-3.85014 7.18458,-6.10627 11.46105,-8.10773zM221.28088,195.6187c0.0185,-0.00067 0.03701,-0.00137 0.05551,-0.00209c0.13632,-0.61395 0.26776,-1.03944 0.07762,-0.68867c-0.10267,0.18939 -0.13714,0.428 -0.13313,0.69076z" data-paper-data="{&quot;origPos&quot;:null}"/></g></g></svg>