<svg version="1.1" xmlns="http://www.w3.org/2000/svg" xmlns:xlink="http://www.w3.org/1999/xlink" width="41.4495" height="11.05606" viewBox="0,0,41.4495,11.05606"><g transform="translate(-227.32553,-190.34425)"><g data-paper-data="{&quot;isPaintingLayer&quot;:true}" fill="none" fill-rule="nonzero" stroke="none" stroke-width="none" stroke-linecap="none" stroke-linejoin="miter" stroke-miterlimit="10" stroke-dasharray="" stroke-dashoffset="0" font-family="none" font-weight="none" font-size="none" text-anchor="none" style="mix-blend-mode: normal"><path d="M263.77915,195.25113l-36.45362,1.24837l0.00892,-3.19999z" data-paper-data="{&quot;origRot&quot;:0,&quot;origPos&quot;:null}" id="ID0.09002829575911164" fill="#000000" stroke="none" stroke-width="1" stroke-linecap="round"/><path d="M259.53277,192.13733c0.9539,-0.94817 2.26912,-1.53342 3.71853,-1.52938c1.44941,0.00404 2.76134,0.59662 3.70994,1.55009c0.94817,0.9539 1.53334,2.26912 1.52929,3.71853c-0.00404,1.44941 -0.59653,2.76134 -1.55,3.70995c-0.9539,0.94817 -2.26912,1.53334 -3.71853,1.52929c-1.44941,-0.00404 -2.76134,-0.59653 -3.70995,-1.55c-0.94817,-0.9539 -1.53342,-2.26912 -1.52938,-3.71853c0.00404,-1.44941 0.59662,-2.76134 1.55009,-3.70994z" data-paper-data="{&quot;origRot&quot;:0,&quot;origPos&quot;:null}" id="ID0.3088560909964144" fill="none" stroke="#ffffff" stroke-width="3.62759" stroke-linecap="butt"/></g></g></svg>