<svg xmlns="http://www.w3.org/2000/svg" xmlns:xlink="http://www.w3.org/1999/xlink" version="1.1" width="14.164925932884216" height="14.164925932884216" viewBox="0.9436371922492981 0.7699372172355652 14.164925932884216 14.164925932884216">
  <!-- Exported by Scratch - http://scratch.mit.edu/ -->
  <path id="ID0.16053227661177516" fill="none" stroke="#FFFFFF" stroke-width="1.5523256063461304" d="M 8.0261 1.5461 C 9.7663 1.5461 11.3426 2.2524 12.4844 3.3941 C 13.6261 4.5359 14.3324 6.1122 14.3324 7.8524 C 14.3324 9.5926 13.6261 11.1689 12.4844 12.3107 C 11.3426 13.4524 9.7663 14.1587 8.0261 14.1587 C 6.2859 14.1587 4.7095 13.4524 3.5678 12.3107 C 2.4261 11.1689 1.7198 9.5926 1.7198 7.8524 C 1.7198 6.1122 2.4261 4.5359 3.5678 3.3941 C 4.7095 2.2524 6.2859 1.5461 8.0261 1.5461 Z "/>
  <path id="ID0.3912192960269749" fill="#FFFF00" stroke="none" d="M 8.05 3.8 C 9.154 3.8 10.154 4.248 10.878 4.972 C 11.602 5.696 12.05 6.696 12.05 7.8 C 12.05 8.904 11.602 9.904 10.878 10.628 C 10.154 11.352 9.154 11.8 8.05 11.8 C 6.946 11.8 5.946 11.352 5.222 10.628 C 4.498 9.904 4.05 8.904 4.05 7.8 C 4.05 6.696 4.498 5.696 5.222 4.972 C 5.946 4.248 6.946 3.8 8.05 3.8 Z " stroke-width="1"/>
</svg>