<svg version="1.1" xmlns="http://www.w3.org/2000/svg" xmlns:xlink="http://www.w3.org/1999/xlink" width="38.52166" height="10.53545" viewBox="0,0,38.52166,10.53545"><g transform="translate(-212.6189,-191.54415)"><g data-paper-data="{&quot;isPaintingLayer&quot;:true}" fill="none" fill-rule="nonzero" stroke="none" stroke-width="none" stroke-linecap="none" stroke-linejoin="miter" stroke-miterlimit="10" stroke-dasharray="" stroke-dashoffset="0" font-family="none" font-weight="none" font-size="none" text-anchor="none" style="mix-blend-mode: normal"><path d="M251.13163,194.24952l0.00892,3.19999l-36.45362,-1.24837z" data-paper-data="{&quot;origRot&quot;:0,&quot;origPos&quot;:null,&quot;index&quot;:null}" id="ID0.09002829575911164" fill="#000000" stroke="none" stroke-width="1" stroke-linecap="round"/><path d="M215.45171,194.36336c0.62709,-0.62333 1.49172,-1.00807 2.44456,-1.00542c0.95284,0.00266 1.81531,0.39222 2.43892,1.01903c0.62333,0.62709 1.00802,1.49172 1.00536,2.44456c-0.00266,0.95284 -0.39216,1.81531 -1.01897,2.43892c-0.62709,0.62333 -1.49172,1.00802 -2.44456,1.00536c-0.95284,-0.00266 -1.81531,-0.39216 -2.43892,-1.01897c-0.62333,-0.62709 -1.00807,-1.49172 -1.00542,-2.44456c0.00266,-0.95284 0.39222,-1.81531 1.01903,-2.43892z" data-paper-data="{&quot;origRot&quot;:0,&quot;origPos&quot;:null}" id="ID0.3088560909964144" fill="none" stroke="#ffffff" stroke-width="3.62759" stroke-linecap="butt"/></g></g></svg>