<svg version="1.1" xmlns="http://www.w3.org/2000/svg" xmlns:xlink="http://www.w3.org/1999/xlink" width="36.77166" height="8.78546" viewBox="0,0,36.77166,8.78546"><g transform="translate(-214.36889,-192.29415)"><g data-paper-data="{&quot;isPaintingLayer&quot;:true}" fill="none" fill-rule="nonzero" stroke="none" stroke-width="none" stroke-linecap="none" stroke-linejoin="miter" stroke-miterlimit="10" stroke-dasharray="" stroke-dashoffset="0" font-family="none" font-weight="none" font-size="none" text-anchor="none" style="mix-blend-mode: normal"><path d="M251.13163,194.24952l0.00892,3.19999l-36.45362,-1.24837z" data-paper-data="{&quot;origRot&quot;:0,&quot;origPos&quot;:null,&quot;index&quot;:null}" id="ID0.09002829575911164" fill="#000000" stroke="none" stroke-width="1" stroke-linecap="round"/><path d="M216.94355,194.85865c0.46823,-0.46542 1.11382,-0.75269 1.82527,-0.75071c0.71145,0.00199 1.35543,0.29286 1.82106,0.76088c0.46542,0.46823 0.75266,1.11382 0.75067,1.82527c-0.00199,0.71145 -0.29281,1.35543 -0.76083,1.82106c-0.46823,0.46542 -1.11382,0.75266 -1.82527,0.75067c-0.71145,-0.00199 -1.35543,-0.29281 -1.82106,-0.76083c-0.46542,-0.46823 -0.75269,-1.11382 -0.75071,-1.82527c0.00199,-0.71145 0.29286,-1.35543 0.76088,-1.82106z" data-paper-data="{&quot;origRot&quot;:0,&quot;origPos&quot;:null}" id="ID0.3088560909964144" fill="none" stroke="#ffffff" stroke-width="3.62759" stroke-linecap="butt"/></g></g></svg>