<svg version="1.1" xmlns="http://www.w3.org/2000/svg" xmlns:xlink="http://www.w3.org/1999/xlink" width="21.86284" height="25.85331" viewBox="0,0,21.86284,25.85331"><g transform="translate(-242.4632,-194.67337)"><g data-paper-data="{&quot;isPaintingLayer&quot;:true}" fill="none" fill-rule="nonzero" stroke="none" stroke-width="none" stroke-linecap="none" stroke-linejoin="miter" stroke-miterlimit="10" stroke-dasharray="" stroke-dashoffset="0" font-family="none" font-weight="none" font-size="none" text-anchor="none" style="mix-blend-mode: normal"><path d="M252.99217,200.53979c1.104,0 2.104,0.448 2.828,1.172c0.724,0.724 1.172,1.724 1.172,2.828c0,1.104 -0.448,2.104 -1.172,2.828c-0.724,0.724 -1.724,1.172 -2.828,1.172c-1.104,0 -2.104,-0.448 -2.828,-1.172c-0.724,-0.724 -1.172,-1.724 -1.172,-2.828c0,-1.104 0.448,-2.104 1.172,-2.828c0.724,-0.724 1.724,-1.172 2.828,-1.172z" data-paper-data="{&quot;origPos&quot;:null}" id="ID0.3912192960269749" fill="#00cc44" stroke="none" stroke-width="1" stroke-linecap="butt"/><path d="M263.51716,208.08581l-15.125,11.43598v-23.79421z" data-paper-data="{&quot;origPos&quot;:null}" fill="#ff00a5" stroke="#ffffff" stroke-width="1" stroke-linecap="round"/><path d="M253.25781,197.8497c2.7717,0 5.2826,1.125 7.1011,2.9436c1.8186,1.8185 2.9436,4.3294 2.9436,7.1011c0,2.7717 -1.125,5.2825 -2.9436,7.1011c-1.8185,1.8185 -4.3294,2.9435 -7.1011,2.9435c-2.7717,0 -5.2825,-1.125 -7.1011,-2.9435c-1.8185,-1.8186 -2.9435,-4.3294 -2.9435,-7.1011c0,-2.7717 1.125,-5.2826 2.9435,-7.1011c1.8186,-1.8186 4.3294,-2.9436 7.1011,-2.9436z" data-paper-data="{&quot;origPos&quot;:null}" id="ID0.16053227661177516" fill="none" stroke="#ffffff" stroke-width="1.5" stroke-linecap="butt"/></g></g></svg>