<svg xmlns="http://www.w3.org/2000/svg" xmlns:xlink="http://www.w3.org/1999/xlink" version="1.1" width="25.057636976242065" height="25.05753779411316" viewBox="0.5672813653945923 0.39218127727508545 25.057636976242065 25.05753779411316">
  <!-- Exported by Scratch - http://scratch.mit.edu/ -->
  <path id="ID0.16053227661177516" fill="none" stroke="#FFFFFF" stroke-width="2.746037244796753" d="M 13.0961 1.7652 C 16.1744 1.7652 18.963 3.0146 20.9827 5.0343 C 23.0024 7.0541 24.2519 9.8427 24.2519 12.921 C 24.2519 15.9993 23.0024 18.7879 20.9827 20.8076 C 18.963 22.8273 16.1744 24.0767 13.0961 24.0767 C 10.0178 24.0767 7.2292 22.8273 5.2095 20.8076 C 3.1898 18.7879 1.9403 15.9993 1.9403 12.921 C 1.9403 9.8427 3.1898 7.0541 5.2095 5.0343 C 7.2292 3.0146 10.0178 1.7652 13.0961 1.7652 Z "/>
  <path id="ID0.3912192960269749" fill="#FFFF00" stroke="none" d="M 13.0875 8.2344 C 14.3985 8.2344 15.586 8.7664 16.4457 9.6261 C 17.3055 10.4859 17.8375 11.6734 17.8375 12.9844 C 17.8375 14.2954 17.3055 15.4829 16.4457 16.3426 C 15.586 17.2024 14.3985 17.7344 13.0875 17.7344 C 11.7765 17.7344 10.589 17.2024 9.7292 16.3426 C 8.8695 15.4829 8.3375 14.2954 8.3375 12.9844 C 8.3375 11.6734 8.8695 10.4859 9.7292 9.6261 C 10.589 8.7664 11.7765 8.2344 13.0875 8.2344 Z " stroke-width="1.1875"/>
</svg>