<svg xmlns="http://www.w3.org/2000/svg" xmlns:xlink="http://www.w3.org/1999/xlink" version="1.1" width="22.561827659606934" height="22.5618257522583" viewBox="0.926936149597168 0.613436222076416 22.561827659606934 22.5618257522583">
  <!-- Exported by Scratch - http://scratch.mit.edu/ -->
  <path id="ID0.16053227661177516" fill="none" stroke="#FFFFFF" stroke-width="2.472527503967285" d="M 12.2078 1.8497 C 14.9795 1.8497 17.4904 2.9747 19.3089 4.7933 C 21.1275 6.6118 22.2525 9.1227 22.2525 11.8944 C 22.2525 14.6661 21.1275 17.1769 19.3089 18.9955 C 17.4904 20.814 14.9795 21.939 12.2078 21.939 C 9.4361 21.939 6.9253 20.814 5.1067 18.9955 C 3.2882 17.1769 2.1632 14.6661 2.1632 11.8944 C 2.1632 9.1227 3.2882 6.6118 5.1067 4.7933 C 6.9253 2.9747 9.4361 1.8497 12.2078 1.8497 Z "/>
  <path id="ID0.3912192960269749" fill="#FFFF00" stroke="none" d="M 12.05 7.8 C 13.154 7.8 14.154 8.248 14.878 8.972 C 15.602 9.696 16.05 10.696 16.05 11.8 C 16.05 12.904 15.602 13.904 14.878 14.628 C 14.154 15.352 13.154 15.8 12.05 15.8 C 10.946 15.8 9.946 15.352 9.222 14.628 C 8.498 13.904 8.05 12.904 8.05 11.8 C 8.05 10.696 8.498 9.696 9.222 8.972 C 9.946 8.248 10.946 7.8 12.05 7.8 Z " stroke-width="1"/>
</svg>