<svg version="1.1" xmlns="http://www.w3.org/2000/svg" xmlns:xlink="http://www.w3.org/1999/xlink" width="36.45362" height="6.78547" viewBox="0,0,36.45362,6.78547"><g transform="translate(-214.68692,-193.04415)"><g data-paper-data="{&quot;isPaintingLayer&quot;:true}" fill="none" fill-rule="nonzero" stroke="none" stroke-width="none" stroke-linecap="none" stroke-linejoin="miter" stroke-miterlimit="10" stroke-dasharray="" stroke-dashoffset="0" font-family="none" font-weight="none" font-size="none" text-anchor="none" style="mix-blend-mode: normal"><path d="M251.13163,194.24952l0.00892,3.19999l-36.45362,-1.24837z" data-paper-data="{&quot;origRot&quot;:0,&quot;origPos&quot;:null,&quot;index&quot;:null}" id="ID0.09002829575911164" fill="#000000" stroke="none" stroke-width="1" stroke-linecap="round"/><path d="M218.64851,195.31755c0.28667,-0.28495 0.68193,-0.46083 1.11751,-0.45962c0.43558,0.00122 0.82986,0.1793 1.11493,0.46584c0.28495,0.28667 0.46081,0.68193 0.45959,1.11751c-0.00122,0.43558 -0.17927,0.82986 -0.46581,1.11493c-0.28667,0.28495 -0.68193,0.46081 -1.11751,0.45959c-0.43558,-0.00122 -0.82986,-0.17927 -1.11494,-0.46581c-0.28495,-0.28667 -0.46083,-0.68193 -0.45962,-1.11751c0.00122,-0.43558 0.1793,-0.82986 0.46584,-1.11494z" data-paper-data="{&quot;origRot&quot;:0,&quot;origPos&quot;:null}" id="ID0.3088560909964144" fill="none" stroke="#ffffff" stroke-width="3.62759" stroke-linecap="butt"/></g></g></svg>