<svg version="1.1" xmlns="http://www.w3.org/2000/svg" xmlns:xlink="http://www.w3.org/1999/xlink" width="39.97882" height="10.02794" viewBox="0,0,39.97882,10.02794"><g transform="translate(-227.32553,-189.7017)"><g data-paper-data="{&quot;isPaintingLayer&quot;:true}" fill="none" fill-rule="nonzero" stroke="none" stroke-width="none" stroke-linecap="none" stroke-linejoin="miter" stroke-miterlimit="10" stroke-dasharray="" stroke-dashoffset="0" font-family="none" font-weight="none" font-size="none" text-anchor="none" style="mix-blend-mode: normal"><path d="M263.77915,195.25113l-36.45362,1.24837l0.00892,-3.19999z" data-paper-data="{&quot;origRot&quot;:0,&quot;origPos&quot;:null}" id="ID0.09002829575911164" fill="#000000" stroke="none" stroke-width="1" stroke-linecap="round"/><path d="M259.09021,191.5007c0.68156,-0.67747 1.62129,-1.09563 2.65689,-1.09274c1.0356,0.00288 1.97298,0.42629 2.65075,1.10754c0.67747,0.68156 1.09557,1.62129 1.09268,2.65689c-0.00288,1.0356 -0.42623,1.97298 -1.10748,2.65076c-0.68156,0.67747 -1.62129,1.09557 -2.65689,1.09268c-1.0356,-0.00288 -1.97298,-0.42623 -2.65076,-1.10748c-0.67747,-0.68156 -1.09563,-1.62129 -1.09274,-2.65689c0.00288,-1.0356 0.42629,-1.97298 1.10754,-2.65075z" data-paper-data="{&quot;origRot&quot;:0,&quot;origPos&quot;:null}" id="ID0.3088560909964144" fill="none" stroke="#ffffff" stroke-width="3.62759" stroke-linecap="butt"/></g></g></svg>