<svg version="1.1" xmlns="http://www.w3.org/2000/svg" xmlns:xlink="http://www.w3.org/1999/xlink" width="36.45362" height="5.87056" viewBox="0,0,36.45362,5.87056"><g transform="translate(-227.32553,-192.09032)"><g data-paper-data="{&quot;isPaintingLayer&quot;:true}" fill="none" fill-rule="nonzero" stroke="none" stroke-width="none" stroke-linecap="none" stroke-linejoin="miter" stroke-miterlimit="10" stroke-dasharray="" stroke-dashoffset="0" font-family="none" font-weight="none" font-size="none" text-anchor="none" style="mix-blend-mode: normal"><path d="M263.77915,195.25113l-36.45362,1.24837l0.00892,-3.19999z" data-paper-data="{&quot;origRot&quot;:0,&quot;origPos&quot;:null}" id="ID0.09002829575911164" fill="#000000" stroke="none" stroke-width="1" stroke-linecap="round"/><path d="M258.55914,193.37672c0.35476,-0.35263 0.84389,-0.57028 1.38292,-0.56878c0.53904,0.0015 1.02695,0.22188 1.37973,0.57648c0.35263,0.35476 0.57025,0.84389 0.56875,1.38292c-0.0015,0.53904 -0.22185,1.02695 -0.57645,1.37973c-0.35476,0.35263 -0.84389,0.57025 -1.38292,0.56875c-0.53904,-0.0015 -1.02695,-0.22185 -1.37973,-0.57645c-0.35263,-0.35476 -0.57028,-0.84389 -0.56878,-1.38292c0.0015,-0.53904 0.22188,-1.02695 0.57648,-1.37973z" data-paper-data="{&quot;origRot&quot;:0,&quot;origPos&quot;:null}" id="ID0.3088560909964144" fill="none" stroke="#ffffff" stroke-width="3.62759" stroke-linecap="butt"/></g></g></svg>