<svg xmlns="http://www.w3.org/2000/svg" xmlns:xlink="http://www.w3.org/1999/xlink" version="1.1" width="18.25" height="18.25" viewBox="0 0.75 18.25 18.25">
  <!-- Exported by Scratch - http://scratch.mit.edu/ -->
  <path id="ID0.16053227661177516" fill="none" stroke="#FFFFFF" stroke-width="2" d="M 9.125 1.75 C 11.367 1.75 13.398 2.66 14.869 4.131 C 16.34 5.602 17.25 7.633 17.25 9.875 C 17.25 12.117 16.34 14.148 14.869 15.619 C 13.398 17.09 11.367 18 9.125 18 C 6.883 18 4.852 17.09 3.381 15.619 C 1.91 14.148 1 12.117 1 9.875 C 1 7.633 1.91 5.602 3.381 4.131 C 4.852 2.66 6.883 1.75 9.125 1.75 Z "/>
  <path id="ID0.3912192960269749" fill="#FFFF00" stroke="none" d="M 9.05 5.8 C 10.154 5.8 11.154 6.248 11.878 6.972 C 12.602 7.696 13.05 8.696 13.05 9.8 C 13.05 10.904 12.602 11.904 11.878 12.628 C 11.154 13.352 10.154 13.8 9.05 13.8 C 7.946 13.8 6.946 13.352 6.222 12.628 C 5.498 11.904 5.05 10.904 5.05 9.8 C 5.05 8.696 5.498 7.696 6.222 6.972 C 6.946 6.248 7.946 5.8 9.05 5.8 Z " stroke-width="1"/>
</svg>