<svg version="1.1" xmlns="http://www.w3.org/2000/svg" xmlns:xlink="http://www.w3.org/1999/xlink" width="42.96326" height="12.32855" viewBox="0,0,42.96326,12.32855"><g transform="translate(-207.67729,-189.38554)"><g data-paper-data="{&quot;isPaintingLayer&quot;:true}" fill="none" fill-rule="nonzero" stroke="none" stroke-width="none" stroke-linecap="none" stroke-linejoin="miter" stroke-miterlimit="10" stroke-dasharray="" stroke-dashoffset="0" font-family="none" font-weight="none" font-size="none" text-anchor="none" style="mix-blend-mode: normal"><path d="M250.63163,193.49951l0.00892,3.19999l-36.45362,-1.24837z" data-paper-data="{&quot;origRot&quot;:0,&quot;origPos&quot;:null,&quot;index&quot;:null}" id="ID0.09002829575911164" fill="#000000" stroke="none" stroke-width="1" stroke-linecap="round"/><path d="M218.16779,191.19933c1.1168,1.11109 1.81089,2.64776 1.81562,4.34545c0.00474,1.69769 -0.68077,3.23821 -1.79136,4.35551c-1.1111,1.1168 -2.64777,1.81079 -4.34546,1.81552c-1.69769,0.00474 -3.23821,-0.68067 -4.35551,-1.79126c-1.1168,-1.1111 -1.81079,-2.64777 -1.81552,-4.34546c-0.00474,-1.69769 0.68067,-3.23821 1.79126,-4.35551c1.11109,-1.1168 2.64776,-1.81089 4.34545,-1.81562c1.69769,-0.00474 3.23821,0.68077 4.35551,1.79136z" data-paper-data="{&quot;origRot&quot;:0,&quot;origPos&quot;:null,&quot;index&quot;:null}" id="ID0.3088560909964144" fill="none" stroke="#ffffff" stroke-width="3.62759" stroke-linecap="butt"/></g></g></svg>