<svg xmlns="http://www.w3.org/2000/svg" xmlns:xlink="http://www.w3.org/1999/xlink" version="1.1" width="106.77487337589264" height="28.2592750787735" viewBox="-0.056838274002075195 0.320661723613739 106.77487337589264 28.2592750787735">
  <!-- Exported by Scratch - http://scratch.mit.edu/ -->
  <path id="ID0.03096994338557124" fill="#FF5695" stroke="none" stroke-linecap="round" d="M 84.4614 24.8419 L 92.333 3.9799 L 76.9769 4.195 L 84.4614 24.8419 Z " stroke-width="0.860288143157959"/>
  <path id="ID0.14459503954276443" fill="#000000" stroke="none" stroke-linecap="round" d="M 0.4624 8.2362 L 4.0856 6.8721 L 7.4956 12.4987 L 10.9057 7.9378 L 13.8895 11.1347 L 16.5323 9.6428 L 21.5621 16.7613 L 26.0378 7.9378 L 27.9559 8.2362 L 27.9559 0.9898 L 0.4624 0.9898 L 0.4624 8.2362 Z " stroke-width="0.8525108695030212"/>
  <g id="ID0.3211635765619576">
    <path id="ID0.03096994338557124" fill="#FF5695" stroke="none" stroke-linecap="round" d="M 42.2518 28.0607 L 51.7538 2.8776 L 33.217 3.1373 L 42.2518 28.0607 Z " stroke-width="1.038476586341858"/>
    <path id="ID0.14459503954276443" fill="#000000" stroke="none" stroke-linecap="round" d="M 26.0816 8.4956 L 28.1518 7.6587 L 31.5435 13.8253 L 35.0673 8.5397 L 37.8422 12.5039 L 41.6743 5.4563 L 44.4493 8.4516 L 47.7529 5.8968 L 51.2766 9.9492 L 54.4921 8.4956 L 54.4921 1.0076 L 26.0816 1.0076 L 26.0816 8.4956 Z " stroke-width="0.8809447288513184"/>
  </g>
  <g id="ID0.3295036111958325">
    <path id="ID0.03096994338557124" fill="#FF5695" stroke="none" stroke-linecap="round" d="M 63.0044 21.2666 L 69.6532 3.6456 L 56.6827 3.8273 L 63.0044 21.2666 Z " stroke-width="0.7266398072242737"/>
    <path id="ID0.14459503954276443" fill="#000000" stroke="none" stroke-linecap="round" d="M 51.8099 8.4879 L 53.9056 7.6407 L 56.7147 10.3161 L 60.0143 8.0866 L 65.8109 9.9594 L 68.3079 9.0676 L 72.1872 15.3993 L 76.5123 7.7299 L 80.57 8.4879 L 80.57 0.9078 L 51.8099 0.9078 L 51.8099 8.4879 Z " stroke-width="0.891785204410553"/>
  </g>
  <path id="ID0.14459503954276443" fill="#000000" stroke="none" stroke-linecap="round" d="M 78.4545 8.1523 L 80.7343 7.292 L 85.1218 16.153 L 89.9394 8.5825 L 93.0794 13.0129 L 96.0905 9.7008 L 99.2305 11.2924 L 101.8974 7.206 L 106.1988 8.1523 L 106.1988 0.8399 L 78.4545 0.8399 L 78.4545 8.1523 Z " stroke-width="0.860288143157959"/>
</svg>