<svg version="1.1" xmlns="http://www.w3.org/2000/svg" xmlns:xlink="http://www.w3.org/1999/xlink" width="42.98752" height="12.32856" viewBox="0,0,42.98752,12.32856"><g transform="translate(-227.32553,-189.20978)"><g data-paper-data="{&quot;isPaintingLayer&quot;:true}" fill="none" fill-rule="nonzero" stroke="none" stroke-width="none" stroke-linecap="none" stroke-linejoin="miter" stroke-miterlimit="10" stroke-dasharray="" stroke-dashoffset="0" font-family="none" font-weight="none" font-size="none" text-anchor="none" style="mix-blend-mode: normal"><path d="M263.77915,195.25113l-36.45362,1.24837l0.00892,-3.19999z" data-paper-data="{&quot;origRot&quot;:0,&quot;origPos&quot;:null}" id="ID0.09002829575911164" fill="#000000" stroke="none" stroke-width="1" stroke-linecap="round"/><path d="M259.7983,190.99932c1.1173,-1.11059 2.65782,-1.7961 4.35551,-1.79136c1.69769,0.00473 3.23436,0.69882 4.34545,1.81562c1.11059,1.1173 1.796,2.65782 1.79126,4.35551c-0.00473,1.69769 -0.69872,3.23436 -1.81552,4.34546c-1.1173,1.11059 -2.65782,1.796 -4.35551,1.79126c-1.69769,-0.00473 -3.23436,-0.69872 -4.34546,-1.81552c-1.11059,-1.1173 -1.7961,-2.65782 -1.79136,-4.35551c0.00473,-1.69769 0.69882,-3.23436 1.81562,-4.34545z" data-paper-data="{&quot;origRot&quot;:0,&quot;origPos&quot;:null}" id="ID0.3088560909964144" fill="none" stroke="#ffffff" stroke-width="3.62759" stroke-linecap="butt"/></g></g></svg>