<svg version="1.1" xmlns="http://www.w3.org/2000/svg" xmlns:xlink="http://www.w3.org/1999/xlink" width="36.83541" height="6.71119" viewBox="0,0,36.83541,6.71119"><g transform="translate(-227.32553,-191.34765)"><g data-paper-data="{&quot;isPaintingLayer&quot;:true}" fill="none" fill-rule="nonzero" stroke="none" stroke-width="none" stroke-linecap="none" stroke-linejoin="miter" stroke-miterlimit="10" stroke-dasharray="" stroke-dashoffset="0" font-family="none" font-weight="none" font-size="none" text-anchor="none" style="mix-blend-mode: normal"><path d="M263.77915,195.25113l-36.45362,1.24837l0.00892,-3.19999z" data-paper-data="{&quot;origRot&quot;:0,&quot;origPos&quot;:null}" id="ID0.09002829575911164" fill="#000000" stroke="none" stroke-width="1" stroke-linecap="round"/><path d="M258.73616,193.15138c0.46369,-0.46091 1.10302,-0.7454 1.80758,-0.74343c0.70456,0.00196 1.34229,0.29002 1.8034,0.7535c0.46091,0.46369 0.74536,1.10302 0.74339,1.80758c-0.00196,0.70456 -0.28998,1.34229 -0.75346,1.80341c-0.46369,0.46091 -1.10302,0.74536 -1.80758,0.74339c-0.70456,-0.00196 -1.34229,-0.28998 -1.80341,-0.75346c-0.46091,-0.46369 -0.7454,-1.10302 -0.74343,-1.80758c0.00196,-0.70456 0.29002,-1.34229 0.7535,-1.8034z" data-paper-data="{&quot;origRot&quot;:0,&quot;origPos&quot;:null}" id="ID0.3088560909964144" fill="none" stroke="#ffffff" stroke-width="3.62759" stroke-linecap="butt"/></g></g></svg>