<svg version="1.1" xmlns="http://www.w3.org/2000/svg" xmlns:xlink="http://www.w3.org/1999/xlink" width="300.87534" height="312" viewBox="0,0,300.87534,312"><g transform="translate(-89.62037,-24)"><g data-paper-data="{&quot;isPaintingLayer&quot;:true}" fill-rule="nonzero" stroke="#000000" stroke-width="10" stroke-linecap="butt" stroke-linejoin="miter" stroke-miterlimit="10" stroke-dasharray="" stroke-dashoffset="0" style="mix-blend-mode: normal"><path d="M200.5,321v-284c0,0 22.30294,-8 36,-8c12.53269,0 43,8 43,8v284c0,0 -25.09274,10 -38,10c-13.40708,0 -41,-10 -41,-10z" fill="#b30000"/><path d="M101.71526,228.20826l232.94484,-162.4583c0,0 19.31992,13.71721 27.15513,24.95193c7.16916,10.27967 18.03573,39.84611 18.03573,39.84611l-232.94484,162.4583c0,0 -22.55624,-14.86141 -29.93966,-25.44831c-7.66934,-10.99687 -15.2512,-39.34972 -15.2512,-39.34972z" fill="#d80000"/><path d="M128.85889,83.19141l256.30793,122.32026c0,0 -2.38605,23.57388 -8.28545,35.93538c-5.39789,11.31066 -25.74026,35.36155 -25.74026,35.36155l-256.30793,-122.32026c0,0 1.78265,-26.95306 7.34187,-38.60177c5.7745,-12.09979 26.68384,-32.69515 26.68384,-32.69515z" fill="#ff0000"/></g></g></svg>