<svg version="1.1" xmlns="http://www.w3.org/2000/svg" xmlns:xlink="http://www.w3.org/1999/xlink" width="515.01502" height="402.4024" viewBox="0,0,515.01502,402.4024"><g transform="translate(17.50751,20.45045)"><g data-paper-data="{&quot;isPaintingLayer&quot;:true}" fill-rule="nonzero" stroke="none" stroke-width="0" stroke-linecap="butt" stroke-linejoin="miter" stroke-miterlimit="10" stroke-dasharray="" stroke-dashoffset="0" style="mix-blend-mode: normal"><path d="M242.30974,277.83784l16.70395,-92.67582l-39.8085,0.61978l39.34883,-113.83494l-24.6186,5.70223l46.85195,-98.01284l50.05342,94.73785l-22.04578,-2.11934l33.51454,119.0118l-37.57207,-4.44656l20.29916,91.01783z" fill="#d70000"/><path d="M144.48968,269.83483l10.38808,-63.23418l-24.75665,0.42288l24.47079,-77.67139l-15.31015,3.89072l29.13693,-66.87572l31.1279,64.64115l-13.71013,-1.44607l20.84248,81.20364l-23.36583,-3.03396l12.62391,62.10291z" fill="#ff0000"/><path d="M41.05105,260.33033l13.03667,-72.32924l-31.06872,0.4837l30.70996,-88.84298l-19.21369,4.45033l36.56581,-76.49455l39.06441,73.93857l-17.20572,-1.65405l26.15657,92.88328l-29.32328,-3.47034l15.84256,71.03527z" fill="#b20000"/><path d="M-17.50751,381.95195v-402.4024h515.01502v402.4024z" fill="none"/><path d="M-0.99099,360.93093v-109.60961h480.48048v109.60961z" fill="#ff0000"/><path d="M371.90124,283.84384l11.61051,-79.56659l-27.66992,0.53211l27.3504,-97.7327l-17.11179,4.89563l32.56564,-84.14868l34.79091,81.33694l-15.32348,-1.81955l23.29514,102.17729l-26.11542,-3.81759l14.10945,78.14314z" fill="#ff0000"/></g></g></svg>