<svg version="1.1" xmlns="http://www.w3.org/2000/svg" xmlns:xlink="http://www.w3.org/1999/xlink" width="1330" height="419.21165" viewBox="0,0,1330,419.21165"><defs><linearGradient x1="438" y1="175.72514" x2="535" y2="175.72514" gradientUnits="userSpaceOnUse" id="color-1"><stop offset="0" stop-color="#ffc500" stop-opacity="0"/><stop offset="1" stop-color="#ffc500"/></linearGradient><linearGradient x1="501.87978" y1="55.37754" x2="517.08709" y2="55.37754" gradientUnits="userSpaceOnUse" id="color-2"><stop offset="0" stop-color="#636363"/><stop offset="1" stop-color="#7e7e7e"/></linearGradient><linearGradient x1="484.17361" y1="55.33543" x2="500.31278" y2="55.33543" gradientUnits="userSpaceOnUse" id="color-3"><stop offset="0" stop-color="#000000"/><stop offset="1" stop-color="#303030"/></linearGradient><linearGradient x1="518.65315" y1="55.29198" x2="534.32638" y2="55.29198" gradientUnits="userSpaceOnUse" id="color-4"><stop offset="0" stop-color="#c7c7c7"/><stop offset="1" stop-color="#ededed"/></linearGradient><linearGradient x1="502.21311" y1="85.51627" x2="517.42042" y2="85.51627" gradientUnits="userSpaceOnUse" id="color-5"><stop offset="0" stop-color="#636363"/><stop offset="1" stop-color="#7e7e7e"/></linearGradient><linearGradient x1="484.50695" y1="85.50129" x2="500.64611" y2="85.50129" gradientUnits="userSpaceOnUse" id="color-6"><stop offset="0" stop-color="#000000"/><stop offset="1" stop-color="#303030"/></linearGradient><linearGradient x1="518.98648" y1="85.48583" x2="534.65972" y2="85.48583" gradientUnits="userSpaceOnUse" id="color-7"><stop offset="0" stop-color="#c7c7c7"/><stop offset="1" stop-color="#ededed"/></linearGradient><linearGradient x1="500.87978" y1="-4.62247" x2="516.08709" y2="-4.62247" gradientUnits="userSpaceOnUse" id="color-8"><stop offset="0" stop-color="#636363"/><stop offset="1" stop-color="#7e7e7e"/></linearGradient><linearGradient x1="483.17361" y1="-4.66458" x2="499.31278" y2="-4.66458" gradientUnits="userSpaceOnUse" id="color-9"><stop offset="0" stop-color="#000000"/><stop offset="1" stop-color="#303030"/></linearGradient><linearGradient x1="517.65315" y1="-4.70803" x2="533.32638" y2="-4.70803" gradientUnits="userSpaceOnUse" id="color-10"><stop offset="0" stop-color="#c7c7c7"/><stop offset="1" stop-color="#ededed"/></linearGradient><linearGradient x1="501.21311" y1="25.51626" x2="516.42042" y2="25.51626" gradientUnits="userSpaceOnUse" id="color-11"><stop offset="0" stop-color="#636363"/><stop offset="1" stop-color="#7e7e7e"/></linearGradient><linearGradient x1="483.50695" y1="25.50128" x2="499.64611" y2="25.50128" gradientUnits="userSpaceOnUse" id="color-12"><stop offset="0" stop-color="#000000"/><stop offset="1" stop-color="#303030"/></linearGradient><linearGradient x1="517.98648" y1="25.48582" x2="533.65972" y2="25.48582" gradientUnits="userSpaceOnUse" id="color-13"><stop offset="0" stop-color="#c7c7c7"/><stop offset="1" stop-color="#ededed"/></linearGradient><linearGradient x1="502.21312" y1="115.37754" x2="517.42043" y2="115.37754" gradientUnits="userSpaceOnUse" id="color-14"><stop offset="0" stop-color="#636363"/><stop offset="1" stop-color="#7e7e7e"/></linearGradient><linearGradient x1="484.50695" y1="115.33543" x2="500.64612" y2="115.33543" gradientUnits="userSpaceOnUse" id="color-15"><stop offset="0" stop-color="#000000"/><stop offset="1" stop-color="#303030"/></linearGradient><linearGradient x1="518.98649" y1="115.29198" x2="534.65972" y2="115.29198" gradientUnits="userSpaceOnUse" id="color-16"><stop offset="0" stop-color="#c7c7c7"/><stop offset="1" stop-color="#ededed"/></linearGradient><linearGradient x1="502.54645" y1="145.51627" x2="517.75376" y2="145.51627" gradientUnits="userSpaceOnUse" id="color-17"><stop offset="0" stop-color="#636363"/><stop offset="1" stop-color="#7e7e7e"/></linearGradient><linearGradient x1="484.84029" y1="145.50129" x2="500.97945" y2="145.50129" gradientUnits="userSpaceOnUse" id="color-18"><stop offset="0" stop-color="#000000"/><stop offset="1" stop-color="#303030"/></linearGradient><linearGradient x1="519.31982" y1="145.48583" x2="534.99306" y2="145.48583" gradientUnits="userSpaceOnUse" id="color-19"><stop offset="0" stop-color="#c7c7c7"/><stop offset="1" stop-color="#ededed"/></linearGradient><linearGradient x1="502.54645" y1="175.37754" x2="517.75376" y2="175.37754" gradientUnits="userSpaceOnUse" id="color-20"><stop offset="0" stop-color="#636363"/><stop offset="1" stop-color="#7e7e7e"/></linearGradient><linearGradient x1="484.84028" y1="175.33543" x2="500.97945" y2="175.33543" gradientUnits="userSpaceOnUse" id="color-21"><stop offset="0" stop-color="#000000"/><stop offset="1" stop-color="#303030"/></linearGradient><linearGradient x1="519.31982" y1="175.29198" x2="534.99305" y2="175.29198" gradientUnits="userSpaceOnUse" id="color-22"><stop offset="0" stop-color="#c7c7c7"/><stop offset="1" stop-color="#ededed"/></linearGradient><linearGradient x1="502.87978" y1="205.51627" x2="518.08709" y2="205.51627" gradientUnits="userSpaceOnUse" id="color-23"><stop offset="0" stop-color="#636363"/><stop offset="1" stop-color="#7e7e7e"/></linearGradient><linearGradient x1="485.17362" y1="205.50129" x2="501.31278" y2="205.50129" gradientUnits="userSpaceOnUse" id="color-24"><stop offset="0" stop-color="#000000"/><stop offset="1" stop-color="#303030"/></linearGradient><linearGradient x1="519.65315" y1="205.48583" x2="535.32639" y2="205.48583" gradientUnits="userSpaceOnUse" id="color-25"><stop offset="0" stop-color="#c7c7c7"/><stop offset="1" stop-color="#ededed"/></linearGradient><linearGradient x1="503.21312" y1="235.37754" x2="518.42043" y2="235.37754" gradientUnits="userSpaceOnUse" id="color-26"><stop offset="0" stop-color="#636363"/><stop offset="1" stop-color="#7e7e7e"/></linearGradient><linearGradient x1="485.50695" y1="235.33543" x2="501.64612" y2="235.33543" gradientUnits="userSpaceOnUse" id="color-27"><stop offset="0" stop-color="#000000"/><stop offset="1" stop-color="#303030"/></linearGradient><linearGradient x1="519.98649" y1="235.29198" x2="535.65972" y2="235.29198" gradientUnits="userSpaceOnUse" id="color-28"><stop offset="0" stop-color="#c7c7c7"/><stop offset="1" stop-color="#ededed"/></linearGradient><linearGradient x1="503.54645" y1="265.51626" x2="518.75376" y2="265.51626" gradientUnits="userSpaceOnUse" id="color-29"><stop offset="0" stop-color="#636363"/><stop offset="1" stop-color="#7e7e7e"/></linearGradient><linearGradient x1="485.84029" y1="265.50129" x2="501.97945" y2="265.50129" gradientUnits="userSpaceOnUse" id="color-30"><stop offset="0" stop-color="#000000"/><stop offset="1" stop-color="#303030"/></linearGradient><linearGradient x1="520.31982" y1="265.48582" x2="535.99306" y2="265.48582" gradientUnits="userSpaceOnUse" id="color-31"><stop offset="0" stop-color="#c7c7c7"/><stop offset="1" stop-color="#ededed"/></linearGradient><linearGradient x1="503.87978" y1="295.71088" x2="519.08709" y2="295.71088" gradientUnits="userSpaceOnUse" id="color-32"><stop offset="0" stop-color="#636363"/><stop offset="1" stop-color="#7e7e7e"/></linearGradient><linearGradient x1="486.17361" y1="295.66877" x2="502.31278" y2="295.66877" gradientUnits="userSpaceOnUse" id="color-33"><stop offset="0" stop-color="#000000"/><stop offset="1" stop-color="#303030"/></linearGradient><linearGradient x1="520.65315" y1="295.62532" x2="536.32638" y2="295.62532" gradientUnits="userSpaceOnUse" id="color-34"><stop offset="0" stop-color="#c7c7c7"/><stop offset="1" stop-color="#ededed"/></linearGradient><linearGradient x1="504.21311" y1="325.84961" x2="519.42042" y2="325.84961" gradientUnits="userSpaceOnUse" id="color-35"><stop offset="0" stop-color="#636363"/><stop offset="1" stop-color="#7e7e7e"/></linearGradient><linearGradient x1="486.50695" y1="325.83463" x2="502.64611" y2="325.83463" gradientUnits="userSpaceOnUse" id="color-36"><stop offset="0" stop-color="#000000"/><stop offset="1" stop-color="#303030"/></linearGradient><linearGradient x1="520.98648" y1="325.81917" x2="536.65972" y2="325.81917" gradientUnits="userSpaceOnUse" id="color-37"><stop offset="0" stop-color="#c7c7c7"/><stop offset="1" stop-color="#ededed"/></linearGradient><linearGradient x1="504.54645" y1="355.71087" x2="519.75376" y2="355.71087" gradientUnits="userSpaceOnUse" id="color-38"><stop offset="0" stop-color="#636363"/><stop offset="1" stop-color="#7e7e7e"/></linearGradient><linearGradient x1="486.84028" y1="355.66876" x2="502.97945" y2="355.66876" gradientUnits="userSpaceOnUse" id="color-39"><stop offset="0" stop-color="#000000"/><stop offset="1" stop-color="#303030"/></linearGradient><linearGradient x1="521.31982" y1="355.62531" x2="536.99305" y2="355.62531" gradientUnits="userSpaceOnUse" id="color-40"><stop offset="0" stop-color="#c7c7c7"/><stop offset="1" stop-color="#ededed"/></linearGradient><linearGradient x1="504.87978" y1="385.8496" x2="520.08709" y2="385.8496" gradientUnits="userSpaceOnUse" id="color-41"><stop offset="0" stop-color="#636363"/><stop offset="1" stop-color="#7e7e7e"/></linearGradient><linearGradient x1="487.17362" y1="385.83462" x2="503.31278" y2="385.83462" gradientUnits="userSpaceOnUse" id="color-42"><stop offset="0" stop-color="#000000"/><stop offset="1" stop-color="#303030"/></linearGradient><linearGradient x1="521.65315" y1="385.81916" x2="537.32639" y2="385.81916" gradientUnits="userSpaceOnUse" id="color-43"><stop offset="0" stop-color="#c7c7c7"/><stop offset="1" stop-color="#ededed"/></linearGradient></defs><g transform="translate(-32,25.60581)"><g data-paper-data="{&quot;isPaintingLayer&quot;:true}" fill-rule="nonzero" stroke-linecap="butt" stroke-linejoin="miter" stroke-miterlimit="10" stroke-dasharray="" stroke-dashoffset="0" style="mix-blend-mode: normal"><path d="M438,367.22514v-383h97v383z" fill="url(#color-1)" stroke="#000000" stroke-width="0"/><g stroke="#000000" stroke-width="1"><path d="M517.08709,75.69663l-14.90966,0.07501l-0.29765,-40.71319l14.90966,-0.07501z" data-paper-data="{&quot;origPos&quot;:null,&quot;origRot&quot;:0}" fill="url(#color-2)"/><path d="M500.31278,75.65218l-15.84152,0.0797l-0.29765,-40.71319l15.84152,-0.0797z" data-paper-data="{&quot;origPos&quot;:null,&quot;origRot&quot;:0}" fill="url(#color-3)"/><path d="M534.32638,75.60989l-15.37559,0.07736l-0.29765,-40.71319l15.37559,-0.07736z" data-paper-data="{&quot;origPos&quot;:null,&quot;origRot&quot;:0}" fill="url(#color-4)"/><path d="M517.42042,92.74495l-14.90966,0.02669l-0.29765,-14.48406l14.90966,-0.02669z" data-paper-data="{&quot;origPos&quot;:null,&quot;origRot&quot;:0}" fill="url(#color-5)"/><path d="M500.64611,92.72914l-15.84152,0.02835l-0.29764,-14.48406l15.84151,-0.02836z" data-paper-data="{&quot;origPos&quot;:null,&quot;origRot&quot;:0}" fill="url(#color-6)"/><path d="M534.65972,92.7141l-15.37559,0.02752l-0.29765,-14.48406l15.37559,-0.02752z" data-paper-data="{&quot;origPos&quot;:null,&quot;origRot&quot;:0}" fill="url(#color-7)"/></g><g stroke="#000000" stroke-width="1"><path d="M516.08709,15.69662l-14.90966,0.07501l-0.29765,-40.71319l14.90966,-0.07501z" data-paper-data="{&quot;origPos&quot;:null,&quot;origRot&quot;:0}" fill="url(#color-8)"/><path d="M499.31278,15.65217l-15.84152,0.0797l-0.29765,-40.71319l15.84152,-0.0797z" data-paper-data="{&quot;origPos&quot;:null,&quot;origRot&quot;:0}" fill="url(#color-9)"/><path d="M533.32638,15.60988l-15.37559,0.07736l-0.29765,-40.71319l15.37559,-0.07736z" data-paper-data="{&quot;origPos&quot;:null,&quot;origRot&quot;:0}" fill="url(#color-10)"/><path d="M516.42042,32.74495l-14.90966,0.02669l-0.29765,-14.48406l14.90966,-0.02669z" data-paper-data="{&quot;origPos&quot;:null,&quot;origRot&quot;:0}" fill="url(#color-11)"/><path d="M499.64611,32.72914l-15.84152,0.02835l-0.29764,-14.48406l15.84151,-0.02836z" data-paper-data="{&quot;origPos&quot;:null,&quot;origRot&quot;:0}" fill="url(#color-12)"/><path d="M533.65972,32.7141l-15.37559,0.02752l-0.29765,-14.48406l15.37559,-0.02752z" data-paper-data="{&quot;origPos&quot;:null,&quot;origRot&quot;:0}" fill="url(#color-13)"/></g><g stroke="#000000" stroke-width="1"><path d="M517.42043,135.69663l-14.90966,0.07501l-0.29765,-40.71319l14.90966,-0.07501z" data-paper-data="{&quot;origPos&quot;:null,&quot;origRot&quot;:0}" fill="url(#color-14)"/><path d="M500.64612,135.65218l-15.84152,0.0797l-0.29765,-40.71319l15.84152,-0.0797z" data-paper-data="{&quot;origPos&quot;:null,&quot;origRot&quot;:0}" fill="url(#color-15)"/><path d="M534.65972,135.60989l-15.37559,0.07736l-0.29765,-40.71319l15.37559,-0.07736z" data-paper-data="{&quot;origPos&quot;:null,&quot;origRot&quot;:0}" fill="url(#color-16)"/><path d="M517.75376,152.74495l-14.90966,0.02669l-0.29765,-14.48406l14.90966,-0.02669z" data-paper-data="{&quot;origPos&quot;:null,&quot;origRot&quot;:0}" fill="url(#color-17)"/><path d="M500.97945,152.72914l-15.84152,0.02835l-0.29764,-14.48406l15.84151,-0.02836z" data-paper-data="{&quot;origPos&quot;:null,&quot;origRot&quot;:0}" fill="url(#color-18)"/><path d="M534.99306,152.71409l-15.37559,0.02752l-0.29765,-14.48406l15.37559,-0.02752z" data-paper-data="{&quot;origPos&quot;:null,&quot;origRot&quot;:0}" fill="url(#color-19)"/></g><g stroke="#000000" stroke-width="1"><path d="M517.75376,195.69663l-14.90966,0.07501l-0.29765,-40.71319l14.90966,-0.07501z" data-paper-data="{&quot;origPos&quot;:null,&quot;origRot&quot;:0}" fill="url(#color-20)"/><path d="M500.97945,195.65218l-15.84152,0.0797l-0.29765,-40.71319l15.84152,-0.0797z" data-paper-data="{&quot;origPos&quot;:null,&quot;origRot&quot;:0}" fill="url(#color-21)"/><path d="M534.99305,195.60989l-15.37559,0.07736l-0.29765,-40.71319l15.37559,-0.07736z" data-paper-data="{&quot;origPos&quot;:null,&quot;origRot&quot;:0}" fill="url(#color-22)"/><path d="M518.08709,212.74495l-14.90966,0.02669l-0.29765,-14.48406l14.90966,-0.02669z" data-paper-data="{&quot;origPos&quot;:null,&quot;origRot&quot;:0}" fill="url(#color-23)"/><path d="M501.31278,212.72914l-15.84152,0.02835l-0.29764,-14.48406l15.84151,-0.02836z" data-paper-data="{&quot;origPos&quot;:null,&quot;origRot&quot;:0}" fill="url(#color-24)"/><path d="M535.32639,212.7141l-15.37559,0.02752l-0.29765,-14.48406l15.37559,-0.02752z" data-paper-data="{&quot;origPos&quot;:null,&quot;origRot&quot;:0}" fill="url(#color-25)"/></g><g stroke="#000000" stroke-width="1"><path d="M518.42043,255.69663l-14.90966,0.07501l-0.29765,-40.71319l14.90966,-0.07501z" data-paper-data="{&quot;origPos&quot;:null,&quot;origRot&quot;:0}" fill="url(#color-26)"/><path d="M501.64612,255.65218l-15.84152,0.0797l-0.29765,-40.71319l15.84152,-0.0797z" data-paper-data="{&quot;origPos&quot;:null,&quot;origRot&quot;:0}" fill="url(#color-27)"/><path d="M535.65972,255.60989l-15.37559,0.07736l-0.29765,-40.71319l15.37559,-0.07736z" data-paper-data="{&quot;origPos&quot;:null,&quot;origRot&quot;:0}" fill="url(#color-28)"/><path d="M518.75376,272.74494l-14.90966,0.02669l-0.29765,-14.48406l14.90966,-0.02669z" data-paper-data="{&quot;origPos&quot;:null,&quot;origRot&quot;:0}" fill="url(#color-29)"/><path d="M501.97945,272.72914l-15.84152,0.02835l-0.29764,-14.48406l15.84151,-0.02836z" data-paper-data="{&quot;origPos&quot;:null,&quot;origRot&quot;:0}" fill="url(#color-30)"/><path d="M535.99306,272.7141l-15.37559,0.02752l-0.29765,-14.48406l15.37559,-0.02752z" data-paper-data="{&quot;origPos&quot;:null,&quot;origRot&quot;:0}" fill="url(#color-31)"/></g><path d="M484,375.22512v-368h1v368z" fill="none" stroke="#000000" stroke-width="3"/><g stroke="#000000" stroke-width="1"><path d="M519.08709,316.02997l-14.90966,0.07501l-0.29765,-40.71319l14.90966,-0.07501z" data-paper-data="{&quot;origPos&quot;:null,&quot;origRot&quot;:0}" fill="url(#color-32)"/><path d="M502.31278,315.98552l-15.84152,0.0797l-0.29765,-40.71319l15.84152,-0.0797z" data-paper-data="{&quot;origPos&quot;:null,&quot;origRot&quot;:0}" fill="url(#color-33)"/><path d="M536.32638,315.94322l-15.37559,0.07736l-0.29765,-40.71319l15.37559,-0.07736z" data-paper-data="{&quot;origPos&quot;:null,&quot;origRot&quot;:0}" fill="url(#color-34)"/><path d="M519.42042,333.07829l-14.90966,0.02669l-0.29765,-14.48406l14.90966,-0.02669z" data-paper-data="{&quot;origPos&quot;:null,&quot;origRot&quot;:0}" fill="url(#color-35)"/><path d="M502.64611,333.06248l-15.84152,0.02835l-0.29764,-14.48406l15.84151,-0.02836z" data-paper-data="{&quot;origPos&quot;:null,&quot;origRot&quot;:0}" fill="url(#color-36)"/><path d="M536.65972,333.04744l-15.37559,0.02752l-0.29765,-14.48406l15.37559,-0.02752z" data-paper-data="{&quot;origPos&quot;:null,&quot;origRot&quot;:0}" fill="url(#color-37)"/></g><g stroke="#000000" stroke-width="1"><path d="M519.75376,376.02996l-14.90966,0.07501l-0.29765,-40.71319l14.90966,-0.07501z" data-paper-data="{&quot;origPos&quot;:null,&quot;origRot&quot;:0}" fill="url(#color-38)"/><path d="M502.97945,375.98551l-15.84152,0.0797l-0.29765,-40.71319l15.84152,-0.0797z" data-paper-data="{&quot;origPos&quot;:null,&quot;origRot&quot;:0}" fill="url(#color-39)"/><path d="M536.99305,375.94322l-15.37559,0.07736l-0.29765,-40.71319l15.37559,-0.07736z" data-paper-data="{&quot;origPos&quot;:null,&quot;origRot&quot;:0}" fill="url(#color-40)"/><path d="M520.08709,393.07828l-14.90966,0.02669l-0.29765,-14.48406l14.90966,-0.02669z" data-paper-data="{&quot;origPos&quot;:null,&quot;origRot&quot;:0}" fill="url(#color-41)"/><path d="M503.31278,393.06247l-15.84152,0.02835l-0.29764,-14.48406l15.84151,-0.02836z" data-paper-data="{&quot;origPos&quot;:null,&quot;origRot&quot;:0}" fill="url(#color-42)"/><path d="M537.32639,393.04743l-15.37559,0.02752l-0.29765,-14.48406l15.37559,-0.02752z" data-paper-data="{&quot;origPos&quot;:null,&quot;origRot&quot;:0}" fill="url(#color-43)"/></g><path d="M32,213.22512v-76h1330v76z" fill="none" stroke="none" stroke-width="0"/></g></g></svg>