<svg version="1.1" xmlns="http://www.w3.org/2000/svg" xmlns:xlink="http://www.w3.org/1999/xlink" width="346.84685" height="342.34234" viewBox="0,0,346.84685,342.34234"><defs><linearGradient x1="223.17255" y1="170.06524" x2="228.04361" y2="170.06524" gradientUnits="userSpaceOnUse" id="color-1"><stop offset="0" stop-color="#000000"/><stop offset="1" stop-color="#000000" stop-opacity="0"/></linearGradient><linearGradient x1="233.96529" y1="169.71784" x2="238.83634" y2="169.71784" gradientUnits="userSpaceOnUse" id="color-2"><stop offset="0" stop-color="#000000" stop-opacity="0"/><stop offset="1" stop-color="#000000"/></linearGradient></defs><g transform="translate(-12.58507,-51.88973)"><g data-paper-data="{&quot;isPaintingLayer&quot;:true}" fill-rule="nonzero" stroke-linejoin="miter" stroke-miterlimit="10" stroke-dasharray="" stroke-dashoffset="0" style="mix-blend-mode: normal"><path d="M12.58507,305.64348v-253.75375l346.84685,88.58859v253.75375z" fill="none" stroke="none" stroke-width="0" stroke-linecap="butt"/><path d="M222.5,215.8079v-53.1342h16.71441v53.1342z" fill="#ff8600" stroke="#000000" stroke-width="2.5" stroke-linecap="butt"/><path d="M223.17255,215.30841v-52.01736h4.87106v52.01736z" fill="url(#color-1)" stroke="none" stroke-width="0" stroke-linecap="butt"/><path d="M233.96529,215.56895v-53.23324h4.87106v53.23324z" fill="url(#color-2)" stroke="none" stroke-width="0" stroke-linecap="butt"/><path d="M224.10833,169.90112l4.8,2l3,3.4" fill="none" stroke="#000000" stroke-width="2.5" stroke-linecap="round"/><path d="M229.70833,171.70112l6,-1.2" fill="none" stroke="#000000" stroke-width="2.5" stroke-linecap="round"/><path d="M237.90833,183.90112l-5.8,5.2l-4,0.2" fill="none" stroke="#000000" stroke-width="2.5" stroke-linecap="round"/><path d="M232.10833,188.70112l-3.2,10l-4.2,3" fill="none" stroke="#000000" stroke-width="2.5" stroke-linecap="round"/><path d="M237.90833,207.50112l-7.4,-1.2l-2.6,1.6" fill="none" stroke="#000000" stroke-width="2.5" stroke-linecap="round"/><path d="M231.50833,206.10112l2.2,-5" fill="none" stroke="#000000" stroke-width="2.5" stroke-linecap="round"/></g></g></svg>