<svg version="1.1" xmlns="http://www.w3.org/2000/svg" xmlns:xlink="http://www.w3.org/1999/xlink" width="310.81081" height="427.06429" viewBox="0,0,310.81081,427.06429"><defs><linearGradient x1="240.3189" y1="199.4315" x2="240.3189" y2="242.4315" gradientUnits="userSpaceOnUse" id="color-1"><stop offset="0" stop-color="#00f8ff" stop-opacity="0"/><stop offset="1" stop-color="#00f8ff"/></linearGradient><linearGradient x1="240.3189" y1="285.4315" x2="240.3189" y2="242.4315" gradientUnits="userSpaceOnUse" id="color-2"><stop offset="0" stop-color="#00f8ff" stop-opacity="0"/><stop offset="1" stop-color="#00f8ff"/></linearGradient><radialGradient cx="240.17839" cy="182.05931" r="19.44349" gradientUnits="userSpaceOnUse" id="color-3"><stop offset="0" stop-color="#00bdbc"/><stop offset="1" stop-color="#00f8ff"/></radialGradient><linearGradient x1="221.54166" y1="243.67856" x2="253.54166" y2="243.67856" gradientUnits="userSpaceOnUse" id="color-4"><stop offset="0" stop-color="#000000"/><stop offset="1" stop-color="#000000" stop-opacity="0"/></linearGradient></defs><g transform="translate(-84.65714,-29.36721)"><g data-paper-data="{&quot;isPaintingLayer&quot;:true}" fill-rule="nonzero" stroke-linejoin="miter" stroke-miterlimit="10" stroke-dasharray="" stroke-dashoffset="0" style="mix-blend-mode: normal"><path d="M84.65714,443.78162v-414.41441h310.81081v414.41441z" fill="none" stroke="none" stroke-width="0" stroke-linecap="butt"/><path d="M221,394.4024v-232.73574h38v232.73574z" fill="#ff009a" stroke="none" stroke-width="0" stroke-linecap="butt"/><g stroke="none" stroke-width="0" stroke-linecap="butt"><path d="M221.3189,242.4315v-43h38v43z" fill="url(#color-1)"/><path d="M259.3189,242.4315v43h-38v-43z" data-paper-data="{&quot;index&quot;:null}" fill="url(#color-2)"/></g><path d="M220.74093,181.55787l19.30738,-18.94204l19.56754,19.94493l-19.30737,18.94205z" data-paper-data="{&quot;index&quot;:null}" fill="url(#color-3)" stroke="none" stroke-width="0" stroke-linecap="butt"/><path d="M221.18055,393.47859v-232.73574l38,0.66667" fill="none" stroke="#000000" stroke-width="3.5" stroke-linecap="round"/><path d="M221.54166,394.74763v-233.06907h32v233.06907z" fill="url(#color-4)" stroke="none" stroke-width="0" stroke-linecap="butt"/><path d="M221.3189,456.4315l-0.5,-174l4.5,-6l8.43243,7.90541l7.03468,-11.38063l6.92153,13.93482l6.56601,-10.12853l5.04535,5.66893l0.5,174z" fill="#000000" stroke="none" stroke-width="0" stroke-linecap="butt"/></g></g></svg>