<svg version="1.1" xmlns="http://www.w3.org/2000/svg" xmlns:xlink="http://www.w3.org/1999/xlink" width="515.01502" height="402.4024" viewBox="0,0,515.01502,402.4024"><g transform="translate(17.50751,20.45045)"><g data-paper-data="{&quot;isPaintingLayer&quot;:true}" fill-rule="nonzero" stroke-linecap="butt" stroke-linejoin="miter" stroke-miterlimit="10" stroke-dasharray="" stroke-dashoffset="0" style="mix-blend-mode: normal"><path d="M297.25252,278.63416l12.24527,-63.70434l-22.66498,3.11219l20.21732,-83.29761l-13.2989,1.48335l30.19423,-66.30802l28.26298,68.60022l-14.85093,-3.99106l23.73679,79.67428l-24.01409,-0.43379l10.0765,64.86478z" data-paper-data="{&quot;index&quot;:null}" fill="#d70000" stroke="#9a0000" stroke-width="5"/><path d="M375.1306,273.03277l7.61525,-43.46648l-14.09521,2.1235l12.57302,-56.83529l-8.2705,1.01212l18.7776,-45.24303l17.57657,46.80702l-9.2357,-2.72315l14.76176,54.36302l-14.93421,-0.29598l6.26651,44.25827z" data-paper-data="{&quot;index&quot;:null}" fill="#ff0000" stroke="#9a0000" stroke-width="5"/><path d="M429.61609,266.38047l9.55687,-49.71833l-17.68898,2.42892l15.7787,-65.00999l-10.37918,1.15769l23.56522,-51.75039l22.05796,53.53934l-11.59047,-3.11483l18.52548,62.18214l-18.7419,-0.33855l7.86424,50.624z" data-paper-data="{&quot;index&quot;:null}" fill="#b20000" stroke="#9a0000" stroke-width="5"/><path d="M234.29474,282.83783l8.51139,-54.69321l-15.75387,2.67197l14.05256,-71.51497l-9.24374,1.27352l20.98727,-56.92858l19.6449,58.89655l-10.32252,-3.4265l16.49886,68.40415l-16.69161,-0.37243l7.00392,55.6895z" data-paper-data="{&quot;index&quot;:null}" fill="#ff0000" stroke="#9a0000" stroke-width="5"/><path d="M158.1026,279.55124l10.28967,-66.23707l-24.52213,0.44297l24.23897,-81.35987l-15.16511,4.07549l28.86091,-70.05153l30.83302,67.71084l-13.58025,-1.51473l20.64503,85.05986l-23.14448,-3.17804l12.50433,65.05207z" fill="#d70000" stroke="#9a0000" stroke-width="5"/><path d="M97.84522,273.83135l6.39908,-45.1946l-15.25015,0.30224l15.07406,-55.51313l-9.43109,2.78077l17.94842,-47.79727l19.17486,46.20019l-8.44547,-1.03353l12.83902,58.03769l-14.39341,-2.16843l7.77636,44.38606z" fill="#ff0000" stroke="#9a0000" stroke-width="5"/><path d="M34.12678,267.03831l8.03062,-51.695l-19.1384,0.34571l18.91741,-63.49767l-11.83568,3.18073l22.52462,-54.67202l24.06377,52.84522l-10.59876,-1.18218l16.11251,66.38534l-18.06321,-2.48031l9.75905,50.77018z" fill="#b20000" stroke="#9a0000" stroke-width="5"/><path d="M-17.50751,381.95195v-402.4024h515.01502v402.4024z" fill="none" stroke="none" stroke-width="0"/><path d="M-0.99099,360.93093v-109.60961h480.48048v109.60961z" fill="#ff0000" stroke="none" stroke-width="0"/></g></g></svg>