<svg version="1.1" xmlns="http://www.w3.org/2000/svg" xmlns:xlink="http://www.w3.org/1999/xlink" width="236" height="268" viewBox="0,0,236,268"><g transform="translate(-118.5,-48)"><g data-paper-data="{&quot;isPaintingLayer&quot;:true}" fill-rule="nonzero" stroke="#000000" stroke-width="10" stroke-linecap="butt" stroke-linejoin="miter" stroke-miterlimit="10" stroke-dasharray="" stroke-dashoffset="0" style="mix-blend-mode: normal"><path d="M264.5,76.5c0,12.97869 -10.74517,23.5 -24,23.5c-13.25483,0 -24,-10.52131 -24,-23.5c0,-12.97869 10.74517,-23.5 24,-23.5c13.25483,0 24,10.52131 24,23.5z" fill="#ff0000"/><path d="M267.5,287.5c0,12.97869 -10.74516,23.5 -24,23.5c-13.25484,0 -24,-10.52131 -24,-23.5c0,-12.97869 10.74516,-23.5 24,-23.5c13.25484,0 24,10.52131 24,23.5z" fill="#ff0000"/><path d="M349.5,122.5c0,12.97869 -10.74516,23.5 -24,23.5c-13.25484,0 -24,-10.52131 -24,-23.5c0,-12.97869 10.74516,-23.5 24,-23.5c13.25484,0 24,10.52131 24,23.5z" fill="#d80000"/><path d="M176.5,238.5c0,12.97869 -10.74516,23.5 -24,23.5c-13.25484,0 -24,-10.52131 -24,-23.5c0,-12.97869 10.74516,-23.5 24,-23.5c13.25484,0 24,10.52131 24,23.5z" fill="#d80000"/><path d="M171.5,135.5c0,12.97869 -10.74516,23.5 -24,23.5c-13.25484,0 -24,-10.52131 -24,-23.5c0,-12.97869 10.74516,-23.5 24,-23.5c13.25484,0 24,10.52131 24,23.5z" fill="#b20000"/><path d="M264,180c0,12.97869 -10.74516,23.5 -24,23.5c-13.25484,0 -24,-10.52131 -24,-23.5c0,-12.97869 10.74516,-23.5 24,-23.5c13.25484,0 24,10.52131 24,23.5z" fill="#b20000"/><path d="M343,219c0,12.97869 -10.74516,23.5 -24,23.5c-13.25484,0 -24,-10.52131 -24,-23.5c0,-12.97869 10.74516,-23.5 24,-23.5c13.25484,0 24,10.52131 24,23.5z" fill="#b20000"/></g></g></svg>