<svg version="1.1" xmlns="http://www.w3.org/2000/svg" xmlns:xlink="http://www.w3.org/1999/xlink" width="39.42014" height="222.02426" viewBox="0,0,39.42014,222.02426"><defs><radialGradient cx="240.43056" cy="182.30931" r="19" gradientUnits="userSpaceOnUse" id="color-1"><stop offset="0" stop-color="#001f28"/><stop offset="1" stop-color="#0047b1"/></radialGradient><radialGradient cx="240.01042" cy="182.16948" r="6.75" gradientUnits="userSpaceOnUse" id="color-2"><stop offset="0" stop-color="#00807e"/><stop offset="1" stop-color="#00afd4"/></radialGradient><radialGradient cx="240.18056" cy="219.30931" r="19" gradientUnits="userSpaceOnUse" id="color-3"><stop offset="0" stop-color="#001f28"/><stop offset="1" stop-color="#0047b1"/></radialGradient><radialGradient cx="239.76042" cy="219.16948" r="6.75" gradientUnits="userSpaceOnUse" id="color-4"><stop offset="0" stop-color="#00807e"/><stop offset="1" stop-color="#00afd4"/></radialGradient><radialGradient cx="239.93056" cy="256.05931" r="19" gradientUnits="userSpaceOnUse" id="color-5"><stop offset="0" stop-color="#001f28"/><stop offset="1" stop-color="#0047b1"/></radialGradient><radialGradient cx="239.51042" cy="255.91948" r="6.75" gradientUnits="userSpaceOnUse" id="color-6"><stop offset="0" stop-color="#00807e"/><stop offset="1" stop-color="#00afd4"/></radialGradient><radialGradient cx="239.68056" cy="292.80931" r="19" gradientUnits="userSpaceOnUse" id="color-7"><stop offset="0" stop-color="#001f28"/><stop offset="1" stop-color="#0047b1"/></radialGradient><radialGradient cx="239.26042" cy="292.66948" r="6.75" gradientUnits="userSpaceOnUse" id="color-8"><stop offset="0" stop-color="#00807e"/><stop offset="1" stop-color="#00afd4"/></radialGradient><radialGradient cx="239.43056" cy="329.55931" r="19" gradientUnits="userSpaceOnUse" id="color-9"><stop offset="0" stop-color="#001f28"/><stop offset="1" stop-color="#0047b1"/></radialGradient><radialGradient cx="239.01042" cy="329.41948" r="6.75" gradientUnits="userSpaceOnUse" id="color-10"><stop offset="0" stop-color="#00807e"/><stop offset="1" stop-color="#00afd4"/></radialGradient><radialGradient cx="239.18056" cy="366.30931" r="19" gradientUnits="userSpaceOnUse" id="color-11"><stop offset="0" stop-color="#001f28"/><stop offset="1" stop-color="#0047b1"/></radialGradient><radialGradient cx="238.76042" cy="366.16948" r="6.75" gradientUnits="userSpaceOnUse" id="color-12"><stop offset="0" stop-color="#00807e"/><stop offset="1" stop-color="#00afd4"/></radialGradient></defs><g transform="translate(-220.01042,-163.40735)"><g data-paper-data="{&quot;isPaintingLayer&quot;:true}" fill-rule="nonzero" stroke="none" stroke-width="0" stroke-linecap="butt" stroke-linejoin="miter" stroke-miterlimit="10" stroke-dasharray="" stroke-dashoffset="0" style="mix-blend-mode: normal"><g><path d="M221.43056,200.95196v-37.28529h38v37.28529z" data-paper-data="{&quot;index&quot;:null}" fill="url(#color-1)"/><path d="M221.26042,183.66948v-4h38v4z" fill="#00afd4"/><path d="M238.1292,163.40735l3.99992,0.025l-0.23749,37.99926l-3.99992,-0.025z" fill="#00afd4"/><path d="M233.26042,188.66948v-13h13.5v13z" fill="url(#color-2)"/></g><g><path d="M221.18056,237.95196v-37.28529h38v37.28529z" data-paper-data="{&quot;index&quot;:null}" fill="url(#color-3)"/><path d="M221.01042,220.66948v-4h38v4z" fill="#00afd4"/><path d="M237.8792,200.40735l3.99992,0.025l-0.23749,37.99926l-3.99992,-0.025z" fill="#00afd4"/><path d="M233.01042,225.66948v-13h13.5v13z" fill="url(#color-4)"/></g><g><path d="M220.93056,274.70196v-37.28529h38v37.28529z" data-paper-data="{&quot;index&quot;:null}" fill="url(#color-5)"/><path d="M220.76042,257.41948v-4h38v4z" fill="#00afd4"/><path d="M237.6292,237.15735l3.99992,0.025l-0.23749,37.99926l-3.99992,-0.025z" fill="#00afd4"/><path d="M232.76042,262.41948v-13h13.5v13z" fill="url(#color-6)"/></g><g><path d="M220.68056,311.45196v-37.28529h38v37.28529z" data-paper-data="{&quot;index&quot;:null}" fill="url(#color-7)"/><path d="M220.51042,294.16948v-4h38v4z" fill="#00afd4"/><path d="M237.3792,273.90735l3.99992,0.025l-0.23749,37.99926l-3.99992,-0.025z" fill="#00afd4"/><path d="M232.51042,299.16948v-13h13.5v13z" fill="url(#color-8)"/></g><g><path d="M220.43056,348.20196v-37.28529h38v37.28529z" data-paper-data="{&quot;index&quot;:null}" fill="url(#color-9)"/><path d="M220.26042,330.91948v-4h38v4z" fill="#00afd4"/><path d="M237.1292,310.65735l3.99992,0.025l-0.23749,37.99926l-3.99992,-0.025z" fill="#00afd4"/><path d="M232.26042,335.91948v-13h13.5v13z" fill="url(#color-10)"/></g><g><path d="M220.18056,384.95196v-37.28529h38v37.28529z" data-paper-data="{&quot;index&quot;:null}" fill="url(#color-11)"/><path d="M220.01042,367.66948v-4h38v4z" fill="#00afd4"/><path d="M236.8792,347.40735l3.99992,0.025l-0.23749,37.99926l-3.99992,-0.025z" fill="#00afd4"/><path d="M232.01042,372.66948v-13h13.5v13z" fill="url(#color-12)"/></g></g></g></svg>