<svg version="1.1" xmlns="http://www.w3.org/2000/svg" xmlns:xlink="http://www.w3.org/1999/xlink" width="515.01502" height="402.4024" viewBox="0,0,515.01502,402.4024"><defs><linearGradient x1="60.12112" y1="197.9893" x2="60.12112" y2="259.72193" gradientUnits="userSpaceOnUse" id="color-1"><stop offset="0" stop-color="#ff0000"/><stop offset="1" stop-color="#e50000"/></linearGradient><radialGradient cx="85.12974" cy="219.82903" r="7.24584" gradientUnits="userSpaceOnUse" id="color-2"><stop offset="0" stop-color="#ffbbbb"/><stop offset="1" stop-color="#ff0000"/></radialGradient><linearGradient x1="397.78306" y1="193.30645" x2="397.78306" y2="259.84409" gradientUnits="userSpaceOnUse" id="color-3"><stop offset="0" stop-color="#ff0000"/><stop offset="1" stop-color="#e50000"/></linearGradient><radialGradient cx="370.82788" cy="216.84609" r="7.80982" gradientUnits="userSpaceOnUse" id="color-4"><stop offset="0" stop-color="#ffbbbb"/><stop offset="1" stop-color="#ff0000"/></radialGradient><linearGradient x1="221.67818" y1="168.43281" x2="221.67818" y2="255.15629" gradientUnits="userSpaceOnUse" id="color-5"><stop offset="0" stop-color="#ff0000"/><stop offset="1" stop-color="#e50000"/></linearGradient><radialGradient cx="186.54547" cy="199.11379" r="10.17912" gradientUnits="userSpaceOnUse" id="color-6"><stop offset="0" stop-color="#ffbbbb"/><stop offset="1" stop-color="#ff0000"/></radialGradient></defs><g transform="translate(17.50751,0.45045)"><g data-paper-data="{&quot;isPaintingLayer&quot;:true}" fill-rule="nonzero" stroke-linejoin="miter" stroke-miterlimit="10" stroke-dasharray="" stroke-dashoffset="0" style="mix-blend-mode: normal"><path d="M-17.50751,401.95195v-402.4024h515.01502v402.4024z" fill="none" stroke="none" stroke-width="0" stroke-linecap="butt"/><path d="M-0.99099,380.93093v-109.60961h480.48048v109.60961z" fill="#ff0000" stroke="none" stroke-width="0" stroke-linecap="butt"/><path d="M19.37166,271v-77.16578h81.32086v77.16578z" fill="#b30000" stroke="none" stroke-width="2.5" stroke-linecap="butt"/><path d="M23.52674,259.72193v-61.73262h73.18877v61.73262z" fill="url(#color-1)" stroke="none" stroke-width="2.5" stroke-linecap="butt"/><path d="M7.5,184.93048c0,0 12.39996,4.54229 16.42976,1.81098c9.12838,-6.18702 39.96062,-26.74146 39.96062,-26.74146c0,0 24.46891,19.13594 33.01168,25.81683c5.4199,4.23864 21.00436,-2.6671 21.00436,-2.6671c0,0 -14.78846,12.52328 -23.14912,12.5716c-12.52368,0.07239 -48.80431,0.28211 -69.45374,0.40146c-8.85506,0.05118 -17.80356,-11.19232 -17.80356,-11.19232z" fill="#b30000" stroke="none" stroke-width="0" stroke-linecap="butt"/><path d="M24.7139,192.72365l39.01052,-26.19424l31.62584,25.84958z" fill="#ff0000" stroke="none" stroke-width="0" stroke-linecap="butt"/><path d="M35.39839,194.42781l32.64706,-22.55615" fill="none" stroke="#b20000" stroke-width="10" stroke-linecap="round"/><path d="M77.54278,178.99465l-20.7754,13.65241" fill="none" stroke="#b20000" stroke-width="10" stroke-linecap="round"/><path d="M88.82086,187.30481l-11.87166,5.93583" fill="none" stroke="#b20000" stroke-width="10" stroke-linecap="round"/><path d="M47.86364,257.94118v-39.17647h24.93048v39.17647z" fill="#b30000" stroke="none" stroke-width="0" stroke-linecap="butt"/><path d="M70.41979,242.21123c0,1.47522 -1.1959,2.67112 -2.67112,2.67112c-1.47522,0 -2.67112,-1.1959 -2.67112,-2.67112c0,-1.47522 1.1959,-2.67112 2.67112,-2.67112c1.47522,0 2.67112,1.1959 2.67112,2.67112z" fill="#ff0000" stroke="none" stroke-width="0" stroke-linecap="butt"/><path d="M81.10428,227.07487v-14.49167h8.05093v14.49167z" fill="url(#color-2)" stroke="#b20000" stroke-width="5" stroke-linecap="butt"/><path d="M85.34924,226.13057l-0.10064,-12.68021" fill="none" stroke="#b20000" stroke-width="2.5" stroke-linecap="round"/><path d="M81.12251,219.68983h7.54774" fill="none" stroke="#b20000" stroke-width="2.5" stroke-linecap="round"/><path d="M88.05522,208.06865c0,2.16762 -1.32917,3.92483 -2.96878,3.92483c-1.63961,0 -2.96878,-1.75721 -2.96878,-3.92483c0,-2.16762 1.32917,-3.92483 2.96878,-3.92483c1.63961,0 2.96878,1.75721 2.96878,3.92483z" fill="none" stroke="#b20000" stroke-width="2.5" stroke-linecap="butt"/><path d="M87.1611,201.17504c0,1.58403 -0.97132,2.86815 -2.16949,2.86815c-1.19818,0 -2.16949,-1.28411 -2.16949,-2.86815c0,-1.58403 0.97132,-2.86815 2.16949,-2.86815c1.19818,0 2.16949,1.28411 2.16949,2.86815z" fill="none" stroke="#b20000" stroke-width="2.5" stroke-linecap="butt"/><path d="M354.05376,272v-83.17204h87.65054v83.17204z" data-paper-data="{&quot;index&quot;:null}" fill="#b30000" stroke="none" stroke-width="2.5" stroke-linecap="butt"/><path d="M358.34032,259.84409v-66.53764h78.88549v66.53764z" data-paper-data="{&quot;index&quot;:null}" fill="url(#color-3)" stroke="none" stroke-width="2.5" stroke-linecap="butt"/><path d="M435.31068,191.29466c-22.2567,-0.12865 -61.36125,-0.35469 -74.85973,-0.43272c-9.01141,-0.05208 -24.95095,-13.55012 -24.95095,-13.55012c0,0 16.79748,7.44325 22.63925,2.87469c9.20771,-7.2009 35.58118,-27.82631 35.58118,-27.82631c0,0 33.23209,22.15432 43.07099,28.8229c4.34346,2.9439 17.70858,-1.95194 17.70858,-1.95194c0,0 -9.64501,12.11865 -19.18932,12.06349z" data-paper-data="{&quot;index&quot;:null}" fill="#b30000" stroke="none" stroke-width="0" stroke-linecap="butt"/><path d="M359.81183,187.25945l34.08746,-27.8616l42.04694,28.23309z" data-paper-data="{&quot;index&quot;:null}" fill="#ff0000" stroke="none" stroke-width="0" stroke-linecap="butt"/><path d="M389.24194,165.15591l35.18817,24.31183" data-paper-data="{&quot;index&quot;:null}" fill="none" stroke="#b20000" stroke-width="10" stroke-linecap="round"/><path d="M401.39785,187.54839l-22.39247,-14.71505" data-paper-data="{&quot;index&quot;:null}" fill="none" stroke="#b20000" stroke-width="10" stroke-linecap="round"/><path d="M366.84946,181.79032l12.7957,6.39785" data-paper-data="{&quot;index&quot;:null}" fill="none" stroke="#b20000" stroke-width="10" stroke-linecap="round"/><path d="M384.12365,257.92473v-42.22581h26.87096v42.22581z" data-paper-data="{&quot;index&quot;:null}" fill="#b30000" stroke="none" stroke-width="0" stroke-linecap="butt"/><path d="M389.56183,238.0914c1.59004,0 2.87904,1.28899 2.87904,2.87904c0,1.59004 -1.28899,2.87904 -2.87904,2.87904c-1.59004,0 -2.87904,-1.28899 -2.87904,-2.87904c0,-1.59004 1.28899,-2.87904 2.87904,-2.87904z" data-paper-data="{&quot;index&quot;:null}" fill="#ff0000" stroke="none" stroke-width="0" stroke-linecap="butt"/><path d="M366.48908,224.65591v-15.61965h8.67758v15.61965z" data-paper-data="{&quot;index&quot;:null}" fill="url(#color-4)" stroke="#b20000" stroke-width="5" stroke-linecap="butt"/><path d="M370.69977,209.97094l-0.10847,13.66719" data-paper-data="{&quot;index&quot;:null}" fill="none" stroke="#b20000" stroke-width="2.5" stroke-linecap="round"/><path d="M375.14703,216.69607h-8.13523" data-paper-data="{&quot;index&quot;:null}" fill="none" stroke="#b20000" stroke-width="2.5" stroke-linecap="round"/><path d="M370.87455,199.94001c1.76724,0 3.19986,1.89398 3.19986,4.23032c0,2.33634 -1.43263,4.23032 -3.19986,4.23032c-1.76724,0 -3.19986,-1.89398 -3.19986,-4.23032c0,-2.33634 1.43263,-4.23032 3.19986,-4.23032z" data-paper-data="{&quot;index&quot;:null}" fill="none" stroke="#b20000" stroke-width="2.5" stroke-linecap="butt"/><path d="M370.97676,193.64877c1.29144,0 2.33836,1.38406 2.33836,3.09139c0,1.70733 -1.04692,3.09138 -2.33836,3.09138c-1.29144,0 -2.33836,-1.38406 -2.33836,-3.09138c0,-1.70733 1.04692,-3.09139 2.33836,-3.09139z" data-paper-data="{&quot;index&quot;:null}" fill="none" stroke="#b20000" stroke-width="2.5" stroke-linecap="butt"/><path d="M164.68251,271v-108.40434h114.2415v108.40435z" data-paper-data="{&quot;index&quot;:null}" fill="#b30000" stroke="none" stroke-width="2.5" stroke-linecap="butt"/><path d="M170.2695,255.15629v-86.72348h102.81736v86.72348z" data-paper-data="{&quot;index&quot;:null}" fill="url(#color-5)" stroke="none" stroke-width="2.5" stroke-linecap="butt"/><path d="M270.59073,165.81071c-29.00882,-0.16767 -79.97671,-0.4623 -97.57029,-0.56399c-11.74524,-0.06789 -32.52044,-17.6609 -32.52044,-17.6609c0,0 21.89341,9.70136 29.50743,3.74681c12.0011,-9.38548 46.37562,-36.26811 46.37562,-36.26811c0,0 43.31387,28.87538 56.13764,37.56705c5.66116,3.83701 23.08092,-2.54411 23.08092,-2.54411c0,0 -12.57107,15.79516 -25.01087,15.72325z" data-paper-data="{&quot;index&quot;:null}" fill="#b30000" stroke="none" stroke-width="0" stroke-linecap="butt"/><path d="M172.18742,160.5513l44.42874,-36.3141l54.80293,36.7983z" data-paper-data="{&quot;index&quot;:null}" fill="#ff0000" stroke="none" stroke-width="0" stroke-linecap="butt"/><path d="M210.5459,131.74211l45.86337,31.68742" data-paper-data="{&quot;index&quot;:null}" fill="none" stroke="#b20000" stroke-width="10" stroke-linecap="round"/><path d="M226.3896,160.92789l-29.18579,-19.17924" data-paper-data="{&quot;index&quot;:null}" fill="none" stroke="#b20000" stroke-width="10" stroke-linecap="round"/><path d="M181.3601,153.42298l16.67759,8.3388" data-paper-data="{&quot;index&quot;:null}" fill="none" stroke="#b20000" stroke-width="10" stroke-linecap="round"/><path d="M203.87485,252.65464v-55.03605h35.02295v55.03605z" data-paper-data="{&quot;index&quot;:null}" fill="#b30000" stroke="none" stroke-width="0" stroke-linecap="butt"/><path d="M210.96282,226.80438c2.07242,0 3.75246,1.68003 3.75246,3.75246c0,2.07242 -1.68004,3.75246 -3.75246,3.75246c-2.07242,0 -3.75246,-1.68004 -3.75246,-3.75246c0,-2.07242 1.68003,-3.75246 3.75246,-3.75246z" data-paper-data="{&quot;index&quot;:null}" fill="#ff0000" stroke="none" stroke-width="0" stroke-linecap="butt"/><path d="M180.8904,209.29291v-20.35825h11.31014v20.35826z" data-paper-data="{&quot;index&quot;:null}" fill="url(#color-6)" stroke="#b20000" stroke-width="5" stroke-linecap="butt"/><path d="M186.23711,207.96636l0.14138,-17.81348" data-paper-data="{&quot;index&quot;:null}" fill="none" stroke="#b20000" stroke-width="2.5" stroke-linecap="round"/><path d="M192.17493,198.91824h-10.60326" data-paper-data="{&quot;index&quot;:null}" fill="none" stroke="#b20000" stroke-width="2.5" stroke-linecap="round"/><path d="M186.6063,177.07883c2.30337,0 4.17061,2.46856 4.17061,5.51369c0,3.04513 -1.86725,5.5137 -4.17061,5.5137c-2.30337,0 -4.17062,-2.46857 -4.17062,-5.5137c0,-3.04513 1.86725,-5.51369 4.17062,-5.51369z" data-paper-data="{&quot;index&quot;:null}" fill="none" stroke="#b20000" stroke-width="2.5" stroke-linecap="butt"/><path d="M186.73953,168.87898c1.68322,0 3.04776,1.80395 3.04776,4.02924c0,2.22529 -1.36453,4.02923 -3.04776,4.02923c-1.68322,0 -3.04776,-1.80394 -3.04776,-4.02923c0,-2.22529 1.36452,-4.02924 3.04776,-4.02924z" data-paper-data="{&quot;index&quot;:null}" fill="none" stroke="#b20000" stroke-width="2.5" stroke-linecap="butt"/></g></g></svg>