<svg version="1.1" xmlns="http://www.w3.org/2000/svg" xmlns:xlink="http://www.w3.org/1999/xlink" width="250.75075" height="377.51473" viewBox="0,0,250.75075,377.51473"><defs><radialGradient cx="240.17841" cy="182.05933" r="19.44349" gradientUnits="userSpaceOnUse" id="color-1"><stop offset="0" stop-color="#00bdbc"/><stop offset="1" stop-color="#00f8ff"/></radialGradient><linearGradient x1="238.81891" y1="199.43151" x2="238.81891" y2="242.43151" gradientUnits="userSpaceOnUse" id="color-2"><stop offset="0" stop-color="#00f8ff" stop-opacity="0"/><stop offset="1" stop-color="#00f8ff"/></linearGradient><linearGradient x1="238.81891" y1="285.43151" x2="238.81891" y2="242.43151" gradientUnits="userSpaceOnUse" id="color-3"><stop offset="0" stop-color="#00f8ff" stop-opacity="0"/><stop offset="1" stop-color="#00f8ff"/></linearGradient><linearGradient x1="230.54169" y1="248.17858" x2="259.54168" y2="248.17858" gradientUnits="userSpaceOnUse" id="color-4"><stop offset="0" stop-color="#000000" stop-opacity="0"/><stop offset="1" stop-color="#000000"/></linearGradient></defs><g transform="translate(-135.70819,-78.91677)"><g data-paper-data="{&quot;isPaintingLayer&quot;:true}" fill-rule="nonzero" stroke-linejoin="miter" stroke-miterlimit="10" stroke-dasharray="" stroke-dashoffset="0" style="mix-blend-mode: normal"><path d="M135.70819,355.19305v-276.27628h250.75075v276.27628z" fill="none" stroke="none" stroke-width="0" stroke-linecap="butt"/><path d="M221.18057,454.95197v-293.28529h38v293.28529z" data-paper-data="{&quot;index&quot;:null}" fill="#ff009a" stroke="none" stroke-width="0" stroke-linecap="butt"/><path d="M220.74096,181.55788l19.30737,-18.94204l19.56754,19.94493l-19.30737,18.94204z" data-paper-data="{&quot;index&quot;:null}" fill="url(#color-1)" stroke="none" stroke-width="0" stroke-linecap="butt"/><path d="M221.00003,161.40954l38,-0.66667v293.28529" data-paper-data="{&quot;index&quot;:null}" fill="none" stroke="#000000" stroke-width="3.5" stroke-linecap="round"/><g stroke="none" stroke-width="0" stroke-linecap="butt"><path d="M220.31891,242.43151v-43h37v43z" fill="url(#color-2)"/><path d="M257.3189,242.43151v43h-37v-43z" data-paper-data="{&quot;index&quot;:null}" fill="url(#color-3)"/></g><path d="M230.54169,454.2972v-293.61862h29v293.61862z" fill="url(#color-4)" stroke="none" stroke-width="0" stroke-linecap="butt"/><path d="M221.3189,456.43149l-0.5,-174l4.5,-6l8.43243,7.90541l7.03468,-11.38062l6.92153,13.93481l6.56601,-10.12852l5.04535,5.66893l0.5,174z" fill="#000000" stroke="none" stroke-width="0" stroke-linecap="butt"/></g></g></svg>