<svg version="1.1" xmlns="http://www.w3.org/2000/svg" xmlns:xlink="http://www.w3.org/1999/xlink" width="515.01502" height="402.4024" viewBox="0,0,515.01502,402.4024"><g transform="translate(17.50751,20.45045)"><g data-paper-data="{&quot;isPaintingLayer&quot;:true}" fill-rule="nonzero" stroke="none" stroke-width="0" stroke-linecap="butt" stroke-linejoin="miter" stroke-miterlimit="10" stroke-dasharray="" stroke-dashoffset="0" style="mix-blend-mode: normal"><path d="M-17.50751,381.95195v-402.4024h515.01502v402.4024z" fill="none"/><path d="M-0.99099,360.93093v-109.60961h480.48048v109.60961z" fill="#ff0000"/><path d="M109.86358,256.04955v-153h24.18179v153z" fill="#ff0000"/><path d="M323.10298,256.04955v-153h24.18179v153z" fill="#ff0000"/><path d="M328.3062,110.81056c-59.49489,-0.2701 -164.02616,-0.74471 -200.10925,-0.90852c-24.08859,-0.10936 -66.69694,-28.4496 -66.69694,-28.4496c0,0 44.90172,15.62773 60.5175,6.03566c24.61335,-15.11889 95.11288,-58.42359 95.11288,-58.42359c0,0 88.83345,46.51478 115.13402,60.51602c11.61061,6.18096 47.33722,-4.09826 47.33722,-4.09826c0,0 -25.78231,25.44411 -51.29539,25.32827z" data-paper-data="{&quot;index&quot;:null}" fill="#b30000"/></g></g></svg>