<svg version="1.1" xmlns="http://www.w3.org/2000/svg" xmlns:xlink="http://www.w3.org/1999/xlink" width="143" height="221" viewBox="0,0,143,221"><defs><linearGradient x1="215.66874" y1="145.07338" x2="215.66874" y2="215.04388" gradientUnits="userSpaceOnUse" id="color-1"><stop offset="0" stop-color="#ff0000"/><stop offset="1" stop-color="#820000"/></linearGradient><linearGradient x1="232.26906" y1="144.89682" x2="232.26906" y2="214.86732" gradientUnits="userSpaceOnUse" id="color-2"><stop offset="0" stop-color="#ff0000"/><stop offset="1" stop-color="#820000"/></linearGradient><linearGradient x1="248.91459" y1="144.8728" x2="248.91459" y2="214.8433" gradientUnits="userSpaceOnUse" id="color-3"><stop offset="0" stop-color="#ff0000"/><stop offset="1" stop-color="#820000"/></linearGradient><linearGradient x1="265.33126" y1="144.95613" x2="265.33126" y2="214.92663" gradientUnits="userSpaceOnUse" id="color-4"><stop offset="0" stop-color="#ff0000"/><stop offset="1" stop-color="#820000"/></linearGradient></defs><g transform="translate(-183.6875,-64)"><g data-paper-data="{&quot;isPaintingLayer&quot;:true}" fill-rule="nonzero" stroke-linecap="butt" stroke-linejoin="miter" stroke-miterlimit="10" stroke-dasharray="" stroke-dashoffset="0" style="mix-blend-mode: normal"><path d="M199.24709,215.04388l21.00444,-34.98526l-21.00444,-34.98525h11.83886l21.00444,35.46124l-21.00444,34.50927z" fill="url(#color-1)" stroke="#000000" stroke-width="2"/><path d="M215.84741,214.86732l21.00444,-34.98526l-21.00444,-34.98525h11.83886l21.00444,35.46124l-21.00444,34.50927z" fill="url(#color-2)" stroke="#000000" stroke-width="2"/><path d="M232.49294,214.8433l21.00444,-34.98526l-21.00444,-34.98525h11.83886l21.00444,35.46124l-21.00444,34.50927z" fill="url(#color-3)" stroke="#000000" stroke-width="2"/><path d="M248.90961,214.92663l21.00444,-34.98526l-21.00444,-34.98525h11.83886l21.00444,35.46124l-21.00444,34.50927z" fill="url(#color-4)" stroke="#000000" stroke-width="2"/><path d="M183.6875,285v-221h143v221z" fill="none" stroke="none" stroke-width="0"/></g></g></svg>