<svg version="1.1" xmlns="http://www.w3.org/2000/svg" xmlns:xlink="http://www.w3.org/1999/xlink" width="310.81081" height="414.41441" viewBox="0,0,310.81081,414.41441"><defs><radialGradient cx="242.53057" cy="180.80932" r="19" gradientUnits="userSpaceOnUse" id="color-1"><stop offset="0" stop-color="#001f28"/><stop offset="1" stop-color="#0047b1"/></radialGradient><radialGradient cx="242.11043" cy="180.66949" r="6.75" gradientUnits="userSpaceOnUse" id="color-2"><stop offset="0" stop-color="#00807e"/><stop offset="1" stop-color="#00afd4"/></radialGradient><radialGradient cx="242.28057" cy="217.80932" r="19" gradientUnits="userSpaceOnUse" id="color-3"><stop offset="0" stop-color="#001f28"/><stop offset="1" stop-color="#0047b1"/></radialGradient><radialGradient cx="241.86043" cy="217.66949" r="6.75" gradientUnits="userSpaceOnUse" id="color-4"><stop offset="0" stop-color="#00807e"/><stop offset="1" stop-color="#00afd4"/></radialGradient><radialGradient cx="242.03057" cy="254.55931" r="19" gradientUnits="userSpaceOnUse" id="color-5"><stop offset="0" stop-color="#001f28"/><stop offset="1" stop-color="#0047b1"/></radialGradient><radialGradient cx="241.61043" cy="254.41949" r="6.75" gradientUnits="userSpaceOnUse" id="color-6"><stop offset="0" stop-color="#00807e"/><stop offset="1" stop-color="#00afd4"/></radialGradient><radialGradient cx="241.78057" cy="291.30932" r="19" gradientUnits="userSpaceOnUse" id="color-7"><stop offset="0" stop-color="#001f28"/><stop offset="1" stop-color="#0047b1"/></radialGradient><radialGradient cx="241.36043" cy="291.16949" r="6.75" gradientUnits="userSpaceOnUse" id="color-8"><stop offset="0" stop-color="#00807e"/><stop offset="1" stop-color="#00afd4"/></radialGradient><radialGradient cx="241.53057" cy="328.05932" r="19" gradientUnits="userSpaceOnUse" id="color-9"><stop offset="0" stop-color="#001f28"/><stop offset="1" stop-color="#0047b1"/></radialGradient><radialGradient cx="241.11043" cy="327.91949" r="6.75" gradientUnits="userSpaceOnUse" id="color-10"><stop offset="0" stop-color="#00807e"/><stop offset="1" stop-color="#00afd4"/></radialGradient><radialGradient cx="241.28057" cy="364.80932" r="19" gradientUnits="userSpaceOnUse" id="color-11"><stop offset="0" stop-color="#001f28"/><stop offset="1" stop-color="#0047b1"/></radialGradient><radialGradient cx="240.86043" cy="364.66949" r="6.75" gradientUnits="userSpaceOnUse" id="color-12"><stop offset="0" stop-color="#00807e"/><stop offset="1" stop-color="#00afd4"/></radialGradient><linearGradient x1="221.54166" y1="243.67856" x2="253.54166" y2="243.67856" gradientUnits="userSpaceOnUse" id="color-13"><stop offset="0" stop-color="#000000"/><stop offset="1" stop-color="#000000" stop-opacity="0"/></linearGradient></defs><g transform="translate(-84.65714,-29.36721)"><g data-paper-data="{&quot;isPaintingLayer&quot;:true}" fill-rule="nonzero" stroke-linejoin="miter" stroke-miterlimit="10" stroke-dasharray="" stroke-dashoffset="0" style="mix-blend-mode: normal"><path d="M221,394.4024v-232.73574h38v232.73574z" fill="#0047b1" stroke="none" stroke-width="0" stroke-linecap="butt"/><g stroke="none" stroke-width="0" stroke-linecap="butt"><path d="M223.53057,199.45197v-37.28529h38v37.28529z" data-paper-data="{&quot;index&quot;:null}" fill="url(#color-1)"/><path d="M223.36043,182.16949v-4h38v4z" fill="#00afd4"/><path d="M240.22921,161.90736l3.99992,0.025l-0.23749,37.99926l-3.99992,-0.025z" fill="#00afd4"/><path d="M235.36043,187.16949v-13h13.5v13z" fill="url(#color-2)"/></g><g stroke="none" stroke-width="0" stroke-linecap="butt"><path d="M223.28057,236.45197v-37.28529h38v37.28529z" data-paper-data="{&quot;index&quot;:null}" fill="url(#color-3)"/><path d="M223.11043,219.16949v-4h38v4z" fill="#00afd4"/><path d="M239.97921,198.90736l3.99992,0.025l-0.23749,37.99926l-3.99992,-0.025z" fill="#00afd4"/><path d="M235.11043,224.16949v-13h13.5v13z" fill="url(#color-4)"/></g><g stroke="none" stroke-width="0" stroke-linecap="butt"><path d="M223.03057,273.20196v-37.28529h38v37.28529z" data-paper-data="{&quot;index&quot;:null}" fill="url(#color-5)"/><path d="M222.86043,255.91949v-4h38v4z" fill="#00afd4"/><path d="M239.72921,235.65736l3.99992,0.025l-0.23749,37.99926l-3.99992,-0.025z" fill="#00afd4"/><path d="M234.86043,260.91949v-13h13.5v13z" fill="url(#color-6)"/></g><g stroke="none" stroke-width="0" stroke-linecap="butt"><path d="M222.78057,309.95196v-37.28529h38v37.28529z" data-paper-data="{&quot;index&quot;:null}" fill="url(#color-7)"/><path d="M222.61043,292.66949v-4h38v4z" fill="#00afd4"/><path d="M239.47921,272.40736l3.99992,0.025l-0.23749,37.99926l-3.99992,-0.025z" fill="#00afd4"/><path d="M234.61043,297.66949v-13h13.5v13z" fill="url(#color-8)"/></g><g stroke="none" stroke-width="0" stroke-linecap="butt"><path d="M222.53057,346.70197v-37.28529h38v37.28529z" data-paper-data="{&quot;index&quot;:null}" fill="url(#color-9)"/><path d="M222.36043,329.41949v-4h38v4z" fill="#00afd4"/><path d="M239.22921,309.15736l3.99992,0.025l-0.23749,37.99926l-3.99992,-0.025z" fill="#00afd4"/><path d="M234.36043,334.41949v-13h13.5v13z" fill="url(#color-10)"/></g><g stroke="none" stroke-width="0" stroke-linecap="butt"><path d="M222.28057,383.45197v-37.28529h38v37.28529z" data-paper-data="{&quot;index&quot;:null}" fill="url(#color-11)"/><path d="M222.11043,366.16949v-4h38v4z" fill="#00afd4"/><path d="M238.97921,345.90736l3.99992,0.025l-0.23749,37.99926l-3.99992,-0.025z" fill="#00afd4"/><path d="M234.11043,371.16949v-13h13.5v13z" fill="url(#color-12)"/></g><path d="M221.18055,393.47859v-232.73574l38,0.66667" fill="none" stroke="#000000" stroke-width="3.5" stroke-linecap="round"/><path d="M221.54166,394.74763v-233.06907h32v233.06907z" fill="url(#color-13)" stroke="none" stroke-width="0" stroke-linecap="butt"/><path d="M84.65714,443.78162v-414.41441h310.81081v414.41441z" fill="none" stroke="none" stroke-width="0" stroke-linecap="butt"/></g></g></svg>