<svg version="1.1" xmlns="http://www.w3.org/2000/svg" xmlns:xlink="http://www.w3.org/1999/xlink" width="41" height="296.26485" viewBox="0,0,41,296.26485"><defs><linearGradient x1="239.5689" y1="199.43151" x2="239.5689" y2="242.43151" gradientUnits="userSpaceOnUse" id="color-1"><stop offset="0" stop-color="#00f8ff" stop-opacity="0"/><stop offset="1" stop-color="#00f8ff"/></linearGradient><linearGradient x1="239.5689" y1="285.43152" x2="239.5689" y2="242.43151" gradientUnits="userSpaceOnUse" id="color-2"><stop offset="0" stop-color="#00f8ff" stop-opacity="0"/><stop offset="1" stop-color="#00f8ff"/></linearGradient><radialGradient cx="240.42839" cy="182.55932" r="18.1931" gradientUnits="userSpaceOnUse" id="color-3"><stop offset="0" stop-color="#00bdbc"/><stop offset="1" stop-color="#00f8ff"/></radialGradient><linearGradient x1="221.3189" y1="227.1815" x2="235.8189" y2="227.1815" gradientUnits="userSpaceOnUse" id="color-4"><stop offset="0" stop-color="#000000"/><stop offset="1" stop-color="#000000" stop-opacity="0"/></linearGradient><linearGradient x1="243.3189" y1="230.9315" x2="258.8189" y2="230.9315" gradientUnits="userSpaceOnUse" id="color-5"><stop offset="0" stop-color="#000000" stop-opacity="0"/><stop offset="1" stop-color="#000000"/></linearGradient></defs><g transform="translate(-219.5,-160.16667)"><g data-paper-data="{&quot;isPaintingLayer&quot;:true}" fill-rule="nonzero" stroke-linecap="butt" stroke-linejoin="miter" stroke-miterlimit="10" stroke-dasharray="" stroke-dashoffset="0" style="mix-blend-mode: normal"><path d="M221,394.40241v-232.73574h38v232.73574z" fill="#ff009a" stroke="#000000" stroke-width="3"/><g stroke="none" stroke-width="0"><path d="M221.3189,242.43151v-43h36.5v43z" fill="url(#color-1)"/><path d="M257.8189,242.43151v43h-36.5v-43z" data-paper-data="{&quot;index&quot;:null}" fill="url(#color-2)"/></g><path d="M221.3189,456.43153l-0.5,-174l4.5,-6l8.43243,7.90541l7.03468,-11.38063l6.92153,13.93482l6.56601,-10.12853l5.04535,5.66893l0.5,174z" fill="#000000" stroke="none" stroke-width="0"/><path d="M222.24093,182.05788l18.06575,-18.94204l18.30917,19.94493l-18.06574,18.94205z" data-paper-data="{&quot;index&quot;:null}" fill="url(#color-3)" stroke="none" stroke-width="0"/><path d="M221.3189,292.43151v-130.5h14.5v130.5z" fill="url(#color-4)" stroke="none" stroke-width="0"/><path d="M243.3189,298.93151v-136h15.5v136z" fill="url(#color-5)" stroke="none" stroke-width="0"/></g></g></svg>