<svg version="1.1" xmlns="http://www.w3.org/2000/svg" xmlns:xlink="http://www.w3.org/1999/xlink" width="467.32432" height="387.66667" viewBox="0,0,467.32432,387.66667"><defs><radialGradient cx="246.17783" cy="121.24475" r="23.2734" gradientUnits="userSpaceOnUse" id="color-1"><stop offset="0" stop-color="#84807a"/><stop offset="1" stop-color="#c7c7c7"/></radialGradient><radialGradient cx="251.17783" cy="236.57808" r="23.2734" gradientUnits="userSpaceOnUse" id="color-2"><stop offset="0" stop-color="#84807a"/><stop offset="1" stop-color="#c7c7c7"/></radialGradient><radialGradient cx="305.51117" cy="175.57808" r="23.27331" gradientUnits="userSpaceOnUse" id="color-3"><stop offset="0" stop-color="#84807a"/><stop offset="1" stop-color="#c7c7c7"/></radialGradient><radialGradient cx="188.51117" cy="183.24475" r="23.27331" gradientUnits="userSpaceOnUse" id="color-4"><stop offset="0" stop-color="#84807a"/><stop offset="1" stop-color="#c7c7c7"/></radialGradient><radialGradient cx="286.17783" cy="138.24475" r="24.71778" gradientUnits="userSpaceOnUse" id="color-5"><stop offset="0" stop-color="#84807a"/><stop offset="1" stop-color="#c7c7c7"/></radialGradient><radialGradient cx="201.51117" cy="220.91141" r="24.84581" gradientUnits="userSpaceOnUse" id="color-6"><stop offset="0" stop-color="#84807a"/><stop offset="1" stop-color="#c7c7c7"/></radialGradient><radialGradient cx="294.51117" cy="217.57808" r="24.69557" gradientUnits="userSpaceOnUse" id="color-7"><stop offset="0" stop-color="#84807a"/><stop offset="1" stop-color="#c7c7c7"/></radialGradient><radialGradient cx="201.8445" cy="139.24475" r="24.8667" gradientUnits="userSpaceOnUse" id="color-8"><stop offset="0" stop-color="#84807a"/><stop offset="1" stop-color="#c7c7c7"/></radialGradient><linearGradient x1="245.99127" y1="146.47363" x2="246.35597" y2="129.47755" gradientUnits="userSpaceOnUse" id="color-9"><stop offset="0" stop-color="#00ff08"/><stop offset="1" stop-color="#01c100"/></linearGradient><linearGradient x1="246.3246" y1="214.64283" x2="246.6893" y2="231.63892" gradientUnits="userSpaceOnUse" id="color-10"><stop offset="0" stop-color="#00ff08"/><stop offset="1" stop-color="#01c100"/></linearGradient><linearGradient x1="210.94568" y1="179.59964" x2="193.95135" y2="179.16049" gradientUnits="userSpaceOnUse" id="color-11"><stop offset="0" stop-color="#00ff08"/><stop offset="1" stop-color="#01c100"/></linearGradient><linearGradient x1="281.51832" y1="180.93298" x2="298.51265" y2="180.49382" gradientUnits="userSpaceOnUse" id="color-12"><stop offset="0" stop-color="#00ff08"/><stop offset="1" stop-color="#01c100"/></linearGradient><linearGradient x1="267.08919" y1="160.84434" x2="281.98421" y2="146.09767" gradientUnits="userSpaceOnUse" id="color-13"><stop offset="0" stop-color="#00ff08"/><stop offset="1" stop-color="#01c100"/></linearGradient><linearGradient x1="267.42252" y1="200.90093" x2="282.31754" y2="215.64761" gradientUnits="userSpaceOnUse" id="color-14"><stop offset="0" stop-color="#00ff08"/><stop offset="1" stop-color="#01c100"/></linearGradient><linearGradient x1="225.11112" y1="200.5676" x2="210.2161" y2="215.31427" gradientUnits="userSpaceOnUse" id="color-15"><stop offset="0" stop-color="#00ff08"/><stop offset="1" stop-color="#01c100"/></linearGradient><linearGradient x1="225.11113" y1="157.511" x2="210.2161" y2="142.76433" gradientUnits="userSpaceOnUse" id="color-16"><stop offset="0" stop-color="#00ff08"/><stop offset="1" stop-color="#01c100"/></linearGradient></defs><g transform="translate(-27.53134,24.58859)"><g data-paper-data="{&quot;isPaintingLayer&quot;:true}" fill-rule="nonzero" stroke-linecap="butt" stroke-linejoin="miter" stroke-miterlimit="10" stroke-dasharray="" stroke-dashoffset="0" style="mix-blend-mode: normal"><path d="M27.53134,363.07808v-387.66667h467.32432v387.66667z" fill="none" stroke="none" stroke-width="0"/><path d="M223.07024,133.29931l22.48221,-46.0313l24.0646,46.0313z" fill="url(#color-1)" stroke="#000000" stroke-width="2"/><path d="M269.86416,226.70069l-24.0646,46.0313l-22.48221,-46.0313z" data-paper-data="{&quot;index&quot;:null}" fill="url(#color-2)" stroke="#000000" stroke-width="2"/><path d="M293.23264,156.73272l45.96873,22.60985l-46.0979,23.93677z" fill="url(#color-3)" stroke="#000000" stroke-width="2"/><path d="M199.70176,203.26728l-45.96434,-24.19224l46.09351,-22.35439z" data-paper-data="{&quot;index&quot;:null}" fill="url(#color-4)" stroke="#000000" stroke-width="2"/><path d="M263.3519,130.56942l48.58198,-16.25181l-15.94084,49.43556z" fill="url(#color-5)" stroke="#000000" stroke-width="2"/><path d="M229.57941,229.42745l-49.69163,15.12371l17.0505,-48.30746z" data-paper-data="{&quot;index&quot;:null}" fill="url(#color-6)" stroke="#000000" stroke-width="2"/><path d="M295.84762,197.02177l16.11694,48.62689l-49.39114,-16.07797z" fill="url(#color-7)" stroke="#000000" stroke-width="2"/><path d="M197.08369,162.97509l-14.98575,-49.7334l48.25996,17.18448z" data-paper-data="{&quot;index&quot;:null}" fill="url(#color-8)" stroke="#000000" stroke-width="2"/><path d="M296.32578,179.38625c0,27.19826 -22.54402,49.2468 -50.35347,49.2468c-27.80945,0 -50.35348,-22.04855 -50.35348,-49.2468c0,-27.19826 22.54402,-49.2468 50.35348,-49.2468c27.80945,0 50.35347,22.04855 50.35347,49.2468z" fill="#ff8600" stroke="#24ab00" stroke-width="2"/><path d="M140.79819,89.80367v0v0z" fill="#000000" stroke="#000000" stroke-width="2"/><path d="M265.10165,129.87979l-0.55709,2.65532l-7.63914,14.17272c0,0 2.63698,-11.92676 0.32052,-13.08057c-1.29486,-0.64496 -5.42908,9.65912 -5.42908,9.65912c0,0 -0.67411,-7.13529 -3.30953,-8.44184c-0.36151,-0.17923 -2.80951,1.21037 -3.21017,3.73072c-0.47892,3.01263 1.11767,7.26523 1.11767,7.26523c0,0 -5.15552,-7.57497 -6.21187,-10.48988c-0.41732,-1.15157 -4.5627,-2.56013 -5.6424,0.23293c-0.98369,2.54467 1.07244,9.26748 1.07244,9.26748l-7.06016,-13.08821l-0.94256,-2.6875z" fill="url(#color-9)" stroke="#565656" stroke-width="0"/><path d="M226.61027,231.04116l0.94256,-4.02083l8.3935,-10.75488c0,0 -2.05613,6.7228 -1.07244,9.26748c1.0797,2.79306 5.22508,1.3845 5.64239,0.23293c1.05635,-2.91491 6.21187,-10.48988 6.21187,-10.48988c0,0 -1.59658,4.2526 -1.11766,7.26523c0.40066,2.52035 2.84866,3.90994 3.21017,3.73072c2.63542,-1.30655 3.30953,-8.44184 3.30953,-8.44184c0,0 4.13422,10.30408 5.42908,9.65912c2.31646,-1.15381 -0.32052,-13.08058 -0.32052,-13.08058l7.63914,14.17272l0.5571,2.65532z" data-paper-data="{&quot;index&quot;:null}" fill="url(#color-10)" stroke="#565656" stroke-width="0"/><path d="M194.43571,160.41674l2.63994,1.06855l12.73983,7.67098c0,0 -6.61809,-2.37163 -9.20642,-1.50934c-2.84098,0.94646 -1.62995,5.15379 -0.49939,5.62508c2.86171,1.19296 10.1845,6.70081 10.1845,6.70081c0,0 -4.17237,-1.79583 -7.20427,-1.45986c-2.53648,0.28107 -4.04024,2.66065 -3.8783,3.03023c1.18051,2.69423 8.27595,3.70489 8.27595,3.70489c0,0 -10.48799,3.6425 -9.90497,4.9664c1.04302,2.36841 13.0811,0.29819 13.0811,0.29819l-14.518,6.96062l-2.67869,0.43095z" data-paper-data="{&quot;index&quot;:null}" fill="url(#color-11)" stroke="#565656" stroke-width="0"/><path d="M298.99701,199.23757l-2.67869,-0.43095l-14.518,-6.96062c0,0 12.03809,2.07022 13.0811,-0.29819c0.58303,-1.3239 -9.90497,-4.9664 -9.90497,-4.9664c0,0 7.09545,-1.01066 8.27596,-3.70489c0.16193,-0.36958 -1.34183,-2.74916 -3.8783,-3.03023c-3.0319,-0.33597 -7.20427,1.45986 -7.20427,1.45986c0,0 7.32279,-5.50784 10.1845,-6.70081c1.13056,-0.47129 2.34158,-4.67861 -0.49939,-5.62507c-2.58833,-0.86229 -9.20642,1.50933 -9.20642,1.50933l12.73982,-7.67098l2.63994,-1.06856z" data-paper-data="{&quot;index&quot;:null}" fill="url(#color-12)" stroke="#565656" stroke-width="0"/><path d="M298.24892,162.526l-2.7702,1.87511l-18.91986,6.00817c0,0 12.5621,-8.30683 11.49884,-11.31522c-0.59434,-1.68163 -13.09183,3.90374 -13.09183,3.90374c0,0 5.52026,-6.90018 4.30535,-10.31736c-0.16666,-0.46875 -3.5271,-1.33634 -6.04297,0.5533c-3.00727,2.25872 -5.23866,7.39559 -5.23866,7.39559c0,0 1.92649,-11.13195 3.48965,-14.62038c0.61755,-1.37814 -1.84779,-6.1803 -5.19913,-4.63122c-3.05331,1.41133 -6.9954,9.13091 -6.9954,9.13091l4.96575,-17.64993l-0.19765,-2.18938c0,0 11.9591,8.5427 17.56726,13.76719c5.78505,5.38928 16.62884,18.08948 16.62884,18.08948z" data-paper-data="{&quot;index&quot;:null}" fill="url(#color-13)" stroke="#565656" stroke-width="0"/><path d="M262.71949,230.74261l-1.80235,-4.52271l-1.29908,-14.98326c0,0 3.94209,7.71958 6.9954,9.13091c3.35134,1.54908 5.81668,-3.25308 5.19913,-4.63122c-1.56317,-3.48843 -3.48965,-14.62038 -3.48965,-14.62038c0,0 2.23138,5.13687 5.23866,7.39559c2.51587,1.88964 5.87631,1.02206 6.04297,0.55331c1.21491,-3.41718 -4.30535,-10.31736 -4.30535,-10.31736c0,0 12.49749,5.58536 13.09184,3.90373c1.06326,-3.00839 -11.49885,-11.31521 -11.49885,-11.31521l18.91986,6.00817l2.7702,1.87511z" data-paper-data="{&quot;index&quot;:null}" fill="url(#color-14)" stroke="#565656" stroke-width="0"/><path d="M193.95139,197.21927l3.10353,-1.87511l18.58653,-4.3415c0,0 -12.5621,8.30683 -11.49884,11.31521c0.59434,1.68163 13.09184,-3.90373 13.09184,-3.90373c0,0 -5.52026,6.90018 -4.30535,10.31736c0.16665,0.46875 3.52709,1.33633 6.04296,-0.5533c3.00727,-2.25872 5.23866,-7.39559 5.23866,-7.39559c0,0 -1.92649,11.13196 -3.48965,14.62038c-0.61755,1.37814 1.84779,6.1803 5.19913,4.63122c3.05331,-1.41133 6.9954,-9.13091 6.9954,-9.13091l-4.96574,17.64993l-1.46902,3.18938z" data-paper-data="{&quot;index&quot;:null}" fill="url(#color-15)" stroke="#565656" stroke-width="0"/><path d="M228.14749,129.33599l3.13569,4.18938l1.63241,13.64993c0,0 -3.94208,-7.71958 -6.9954,-9.13091c-3.35134,-1.54908 -5.81669,3.25308 -5.19913,4.63122c1.56316,3.48843 3.48965,14.62038 3.48965,14.62038c0,0 -2.23138,-5.13686 -5.23866,-7.39559c-2.51587,-1.88964 -5.87631,-1.02206 -6.04297,-0.55331c-1.21491,3.41718 4.30535,10.31736 4.30535,10.31736c0,0 -12.49749,-5.58536 -13.09184,-3.90373c-1.06326,3.00839 11.49884,11.31521 11.49884,11.31521l-16.58653,-4.00817l-4.10353,-1.54178c0,0 10.034,-13.01272 15.68679,-18.49418c5.40111,-5.23742 17.50931,-13.69582 17.50931,-13.69582z" data-paper-data="{&quot;index&quot;:null}" fill="url(#color-16)" stroke="#565656" stroke-width="0"/></g></g></svg>