<svg version="1.1" xmlns="http://www.w3.org/2000/svg" xmlns:xlink="http://www.w3.org/1999/xlink" width="629.8823" height="362.07519" viewBox="0,0,629.8823,362.07519"><defs><linearGradient x1="241.67791" y1="124.57159" x2="241.67791" y2="402.10854" gradientUnits="userSpaceOnUse" id="color-1"><stop offset="0" stop-color="#ff8600"/><stop offset="1" stop-color="#7d7d7d"/></linearGradient><linearGradient x1="129.68358" y1="283.47412" x2="234.35557" y2="283.47412" gradientUnits="userSpaceOnUse" id="color-2"><stop offset="0" stop-color="#000000"/><stop offset="1" stop-color="#000000" stop-opacity="0"/></linearGradient><linearGradient x1="246.6065" y1="282.68375" x2="354.2815" y2="282.68375" gradientUnits="userSpaceOnUse" id="color-3"><stop offset="0" stop-color="#000000" stop-opacity="0"/><stop offset="1" stop-color="#000000"/></linearGradient></defs><g transform="translate(82.00952,-51.88973)"><g data-paper-data="{&quot;isPaintingLayer&quot;:true}" fill-rule="nonzero" stroke-linejoin="miter" stroke-miterlimit="10" stroke-dasharray="" stroke-dashoffset="0" style="mix-blend-mode: normal"><path d="M-82.00952,413.96492l134.97478,-362.07519h494.90752l-134.97478,362.07519z" fill="none" stroke="none" stroke-width="0" stroke-linecap="butt"/><path d="M128.29218,402.10854l94.59459,-237.53695l16.15489,-40l18.42439,40l97.5976,237.53695z" fill="url(#color-1)" stroke="#000000" stroke-width="3.5" stroke-linecap="butt"/><path d="M129.68358,400.97208l94.59459,-234.99592h10.0774l-94.59459,234.99592z" fill="url(#color-2)" stroke="none" stroke-width="0" stroke-linecap="butt"/><path d="M344.2041,401.56489l-97.5976,-237.76228h10.0774l97.5976,237.76228z" fill="url(#color-3)" stroke="none" stroke-width="0" stroke-linecap="butt"/><path d="M211.04166,194.2871l58,1" fill="none" stroke="#000000" stroke-width="2.5" stroke-linecap="round"/><path d="M199.04166,227.2871l84,2" fill="none" stroke="#000000" stroke-width="2.5" stroke-linecap="round"/><path d="M186.04166,261.2871l113,1" fill="none" stroke="#000000" stroke-width="2.5" stroke-linecap="round"/><path d="M172.04166,302.2871l144,2" fill="none" stroke="#000000" stroke-width="2.5" stroke-linecap="round"/><path d="M155.04166,338.2871h172l4,31" fill="none" stroke="#000000" stroke-width="2.5" stroke-linecap="round"/><path d="M140.04166,370.2871l204,1" fill="none" stroke="#000000" stroke-width="2.5" stroke-linecap="round"/><path d="M254.04166,163.2871l-24,-2l-1,31" fill="none" stroke="#000000" stroke-width="2.5" stroke-linecap="round"/><path d="M240.04166,129.2871l-1,31" fill="none" stroke="#000000" stroke-width="2.5" stroke-linecap="round"/><path d="M250.04166,197.2871l1,26" fill="none" stroke="#000000" stroke-width="2.5" stroke-linecap="round"/><path d="M207.04166,229.2871l-1,31" fill="none" stroke="#000000" stroke-width="2.5" stroke-linecap="round"/><path d="M275.04166,229.2871v32" fill="none" stroke="#000000" stroke-width="2.5" stroke-linecap="round"/><path d="M250.04166,262.2871l1,40" fill="none" stroke="#000000" stroke-width="2.5" stroke-linecap="round"/><path d="M205.04166,303.2871l-2,36" fill="none" stroke="#000000" stroke-width="2.5" stroke-linecap="round"/><path d="M281.04166,304.2871l-1,35" fill="none" stroke="#000000" stroke-width="2.5" stroke-linecap="round"/><path d="M205.04166,371.2871l-1,29" fill="none" stroke="#000000" stroke-width="2.5" stroke-linecap="round"/><path d="M283.04166,372.2871l-2,28" fill="none" stroke="#000000" stroke-width="2.5" stroke-linecap="round"/><path d="M249.04166,340.2871l1,31" fill="none" stroke="#000000" stroke-width="2.5" stroke-linecap="round"/><path d="M167.04166,338.2871l1,30" fill="none" stroke="#000000" stroke-width="2.5" stroke-linecap="round"/></g></g></svg>