<svg version="1.1" xmlns="http://www.w3.org/2000/svg" xmlns:xlink="http://www.w3.org/1999/xlink" width="346.84685" height="253.75375" viewBox="0,0,346.84685,253.75375"><defs><linearGradient x1="224.27817" y1="181.38865" x2="234.35557" y2="181.38865" gradientUnits="userSpaceOnUse" id="color-1"><stop offset="0" stop-color="#000000"/><stop offset="1" stop-color="#000000" stop-opacity="0"/></linearGradient><linearGradient x1="246.6065" y1="180.59826" x2="256.68389" y2="180.59826" gradientUnits="userSpaceOnUse" id="color-2"><stop offset="0" stop-color="#000000" stop-opacity="0"/><stop offset="1" stop-color="#000000"/></linearGradient><linearGradient x1="240" y1="161.56243" x2="240" y2="174.45491" gradientUnits="userSpaceOnUse" id="color-3"><stop offset="0" stop-color="#36ff00"/><stop offset="1" stop-color="#1ebf00"/></linearGradient></defs><g transform="translate(-12.58507,-51.88973)"><g data-paper-data="{&quot;isPaintingLayer&quot;:true}" fill-rule="nonzero" stroke-linejoin="miter" stroke-miterlimit="10" stroke-dasharray="" stroke-dashoffset="0" style="mix-blend-mode: normal"><path d="M12.58507,305.64348v-253.75375h346.84685v253.75375z" fill="none" stroke="none" stroke-width="0" stroke-linecap="butt"/><path d="M222.88677,197.93757v-33.36598h34.57928v33.36598z" fill="#ff8600" stroke="#000000" stroke-width="3.5" stroke-linecap="butt"/><path d="M224.27817,196.80111v-30.82495h10.0774v30.82495z" fill="url(#color-1)" stroke="none" stroke-width="0" stroke-linecap="butt"/><path d="M246.6065,197.39392v-33.59131h10.0774v33.59131z" fill="url(#color-2)" stroke="none" stroke-width="0" stroke-linecap="butt"/><path d="M248.56812,167.05166l-11.7715,12.67535l-5.40804,4.68252" fill="none" stroke="#000000" stroke-width="2.5" stroke-linecap="round"/><path d="M245.99207,183.102l-8.3535,-2.11206" fill="none" stroke="#000000" stroke-width="2.5" stroke-linecap="round"/><path d="M221.1875,174.45491v-12.89248h37.625v12.89248l-5.51287,-7.61886l-5.01161,9.46064l-5.52535,-6.5778l-5.09087,6.78312l-4.90738,-7.57245l-2.89423,6.84091l-4.20979,-6.84091z" fill="url(#color-3)" stroke="#0f8200" stroke-width="0.5" stroke-linecap="butt"/></g></g></svg>