<svg version="1.1" xmlns="http://www.w3.org/2000/svg" xmlns:xlink="http://www.w3.org/1999/xlink" width="346.84685" height="253.75375" viewBox="0,0,346.84685,253.75375"><defs><linearGradient x1="242.13432" y1="159.28928" x2="242.13432" y2="257.28928" gradientUnits="userSpaceOnUse" id="color-1"><stop offset="0" stop-color="#137700"/><stop offset="1" stop-color="#29ff00"/></linearGradient><linearGradient x1="236.82116" y1="159.85339" x2="236.82116" y2="255.40417" gradientUnits="userSpaceOnUse" id="color-2"><stop offset="0" stop-color="#137700"/><stop offset="1" stop-color="#29ff00"/></linearGradient><linearGradient x1="242.82905" y1="161.08456" x2="242.82905" y2="254.53387" gradientUnits="userSpaceOnUse" id="color-3"><stop offset="0" stop-color="#137700"/><stop offset="1" stop-color="#29ff00"/></linearGradient></defs><g transform="translate(-12.58507,-51.88973)"><g data-paper-data="{&quot;isPaintingLayer&quot;:true}" fill="none" fill-rule="nonzero" stroke-linejoin="miter" stroke-miterlimit="10" stroke-dasharray="" stroke-dashoffset="0" style="mix-blend-mode: normal"><path d="M12.58507,305.64348v-253.75375h346.84685v253.75375z" stroke="none" stroke-width="0" stroke-linecap="butt"/><path d="M246.27083,159.28928c3.17351,10.07245 -10.73064,13.11162 -12.5,24c-1.76936,10.88838 5.626,8.98745 6,16c0.374,7.01255 -5.59572,13.0862 -4,21.5c1.59572,8.4138 0.61041,30.95526 15,36.5" stroke="url(#color-1)" stroke-width="3.5" stroke-linecap="round"/><path d="M243.97055,159.85339c-4.95096,9.3281 8.16946,14.84322 7.93082,25.87184c-0.23864,11.02862 -7.16546,7.81552 -8.8075,14.64336c-1.64203,6.82784 3.12465,13.88515 0.02661,21.86891c-3.09804,7.98377 -6.22518,30.329 -21.38275,33.16667" data-paper-data="{&quot;index&quot;:null}" stroke="url(#color-2)" stroke-width="3.5" stroke-linecap="round"/><path d="M260.70408,254.53387c-15.3369,-1.60744 -20.25388,-23.62815 -23.98498,-31.33641c-3.7311,-7.70826 0.45159,-15.12661 -1.73512,-21.79999c-2.18671,-6.67338 -8.83219,-2.91274 -9.95846,-13.88629c-1.12627,-10.97355 11.50724,-17.52766 5.82095,-26.42662" data-paper-data="{&quot;index&quot;:null}" stroke="url(#color-3)" stroke-width="3.5" stroke-linecap="round"/></g></g></svg>