<svg version="1.1" xmlns="http://www.w3.org/2000/svg" xmlns:xlink="http://www.w3.org/1999/xlink" width="542.04204" height="385.09443" viewBox="0,0,542.04204,385.09443"><defs><radialGradient cx="239.93057" cy="181.30932" r="19" gradientUnits="userSpaceOnUse" id="color-1"><stop offset="0" stop-color="#001f28"/><stop offset="1" stop-color="#0047b1"/></radialGradient><radialGradient cx="239.51043" cy="181.16949" r="6.75" gradientUnits="userSpaceOnUse" id="color-2"><stop offset="0" stop-color="#00807e"/><stop offset="1" stop-color="#00afd4"/></radialGradient><radialGradient cx="239.68057" cy="218.30932" r="19" gradientUnits="userSpaceOnUse" id="color-3"><stop offset="0" stop-color="#001f28"/><stop offset="1" stop-color="#0047b1"/></radialGradient><radialGradient cx="239.26043" cy="218.16949" r="6.75" gradientUnits="userSpaceOnUse" id="color-4"><stop offset="0" stop-color="#00807e"/><stop offset="1" stop-color="#00afd4"/></radialGradient><radialGradient cx="239.43057" cy="255.05932" r="19" gradientUnits="userSpaceOnUse" id="color-5"><stop offset="0" stop-color="#001f28"/><stop offset="1" stop-color="#0047b1"/></radialGradient><radialGradient cx="239.01043" cy="254.91949" r="6.75" gradientUnits="userSpaceOnUse" id="color-6"><stop offset="0" stop-color="#00807e"/><stop offset="1" stop-color="#00afd4"/></radialGradient><radialGradient cx="239.18057" cy="291.80932" r="19" gradientUnits="userSpaceOnUse" id="color-7"><stop offset="0" stop-color="#001f28"/><stop offset="1" stop-color="#0047b1"/></radialGradient><radialGradient cx="238.76043" cy="291.66949" r="6.75" gradientUnits="userSpaceOnUse" id="color-8"><stop offset="0" stop-color="#00807e"/><stop offset="1" stop-color="#00afd4"/></radialGradient><radialGradient cx="238.93057" cy="328.55932" r="19" gradientUnits="userSpaceOnUse" id="color-9"><stop offset="0" stop-color="#001f28"/><stop offset="1" stop-color="#0047b1"/></radialGradient><radialGradient cx="238.51043" cy="328.41949" r="6.75" gradientUnits="userSpaceOnUse" id="color-10"><stop offset="0" stop-color="#00807e"/><stop offset="1" stop-color="#00afd4"/></radialGradient><radialGradient cx="238.68057" cy="365.30932" r="19" gradientUnits="userSpaceOnUse" id="color-11"><stop offset="0" stop-color="#001f28"/><stop offset="1" stop-color="#0047b1"/></radialGradient><radialGradient cx="238.26043" cy="365.16949" r="6.75" gradientUnits="userSpaceOnUse" id="color-12"><stop offset="0" stop-color="#00807e"/><stop offset="1" stop-color="#00afd4"/></radialGradient><radialGradient cx="277.93057" cy="181.30932" r="19" gradientUnits="userSpaceOnUse" id="color-13"><stop offset="0" stop-color="#001f28"/><stop offset="1" stop-color="#0047b1"/></radialGradient><radialGradient cx="277.51043" cy="181.16949" r="6.75" gradientUnits="userSpaceOnUse" id="color-14"><stop offset="0" stop-color="#00807e"/><stop offset="1" stop-color="#00afd4"/></radialGradient><radialGradient cx="277.68057" cy="218.30932" r="19" gradientUnits="userSpaceOnUse" id="color-15"><stop offset="0" stop-color="#001f28"/><stop offset="1" stop-color="#0047b1"/></radialGradient><radialGradient cx="277.26043" cy="218.16949" r="6.75" gradientUnits="userSpaceOnUse" id="color-16"><stop offset="0" stop-color="#00807e"/><stop offset="1" stop-color="#00afd4"/></radialGradient><radialGradient cx="277.43057" cy="255.05931" r="19" gradientUnits="userSpaceOnUse" id="color-17"><stop offset="0" stop-color="#001f28"/><stop offset="1" stop-color="#0047b1"/></radialGradient><radialGradient cx="277.01043" cy="254.91949" r="6.75" gradientUnits="userSpaceOnUse" id="color-18"><stop offset="0" stop-color="#00807e"/><stop offset="1" stop-color="#00afd4"/></radialGradient><radialGradient cx="277.18057" cy="291.80932" r="19" gradientUnits="userSpaceOnUse" id="color-19"><stop offset="0" stop-color="#001f28"/><stop offset="1" stop-color="#0047b1"/></radialGradient><radialGradient cx="276.76043" cy="291.66949" r="6.75" gradientUnits="userSpaceOnUse" id="color-20"><stop offset="0" stop-color="#00807e"/><stop offset="1" stop-color="#00afd4"/></radialGradient><radialGradient cx="276.93057" cy="328.55932" r="19" gradientUnits="userSpaceOnUse" id="color-21"><stop offset="0" stop-color="#001f28"/><stop offset="1" stop-color="#0047b1"/></radialGradient><radialGradient cx="276.51043" cy="328.41949" r="6.75" gradientUnits="userSpaceOnUse" id="color-22"><stop offset="0" stop-color="#00807e"/><stop offset="1" stop-color="#00afd4"/></radialGradient><radialGradient cx="276.68057" cy="365.30932" r="19" gradientUnits="userSpaceOnUse" id="color-23"><stop offset="0" stop-color="#001f28"/><stop offset="1" stop-color="#0047b1"/></radialGradient><radialGradient cx="276.26043" cy="365.16949" r="6.75" gradientUnits="userSpaceOnUse" id="color-24"><stop offset="0" stop-color="#00807e"/><stop offset="1" stop-color="#00afd4"/></radialGradient><radialGradient cx="315.53056" cy="181.30932" r="19" gradientUnits="userSpaceOnUse" id="color-25"><stop offset="0" stop-color="#001f28"/><stop offset="1" stop-color="#0047b1"/></radialGradient><radialGradient cx="315.11042" cy="181.16949" r="6.75" gradientUnits="userSpaceOnUse" id="color-26"><stop offset="0" stop-color="#00807e"/><stop offset="1" stop-color="#00afd4"/></radialGradient><radialGradient cx="315.28056" cy="218.30932" r="19" gradientUnits="userSpaceOnUse" id="color-27"><stop offset="0" stop-color="#001f28"/><stop offset="1" stop-color="#0047b1"/></radialGradient><radialGradient cx="314.86042" cy="218.16949" r="6.75" gradientUnits="userSpaceOnUse" id="color-28"><stop offset="0" stop-color="#00807e"/><stop offset="1" stop-color="#00afd4"/></radialGradient><radialGradient cx="315.03056" cy="255.05931" r="19" gradientUnits="userSpaceOnUse" id="color-29"><stop offset="0" stop-color="#001f28"/><stop offset="1" stop-color="#0047b1"/></radialGradient><radialGradient cx="314.61042" cy="254.91949" r="6.75" gradientUnits="userSpaceOnUse" id="color-30"><stop offset="0" stop-color="#00807e"/><stop offset="1" stop-color="#00afd4"/></radialGradient><radialGradient cx="314.78056" cy="291.80932" r="19" gradientUnits="userSpaceOnUse" id="color-31"><stop offset="0" stop-color="#001f28"/><stop offset="1" stop-color="#0047b1"/></radialGradient><radialGradient cx="314.36042" cy="291.66949" r="6.75" gradientUnits="userSpaceOnUse" id="color-32"><stop offset="0" stop-color="#00807e"/><stop offset="1" stop-color="#00afd4"/></radialGradient><radialGradient cx="314.53056" cy="328.55932" r="19" gradientUnits="userSpaceOnUse" id="color-33"><stop offset="0" stop-color="#001f28"/><stop offset="1" stop-color="#0047b1"/></radialGradient><radialGradient cx="314.11042" cy="328.41949" r="6.75" gradientUnits="userSpaceOnUse" id="color-34"><stop offset="0" stop-color="#00807e"/><stop offset="1" stop-color="#00afd4"/></radialGradient><radialGradient cx="314.28056" cy="365.30932" r="19" gradientUnits="userSpaceOnUse" id="color-35"><stop offset="0" stop-color="#001f28"/><stop offset="1" stop-color="#0047b1"/></radialGradient><radialGradient cx="313.86042" cy="365.16949" r="6.75" gradientUnits="userSpaceOnUse" id="color-36"><stop offset="0" stop-color="#00807e"/><stop offset="1" stop-color="#00afd4"/></radialGradient><radialGradient cx="353.33057" cy="181.30932" r="19" gradientUnits="userSpaceOnUse" id="color-37"><stop offset="0" stop-color="#001f28"/><stop offset="1" stop-color="#0047b1"/></radialGradient><radialGradient cx="352.91043" cy="181.16949" r="6.75" gradientUnits="userSpaceOnUse" id="color-38"><stop offset="0" stop-color="#00807e"/><stop offset="1" stop-color="#00afd4"/></radialGradient><radialGradient cx="353.08057" cy="218.30932" r="19" gradientUnits="userSpaceOnUse" id="color-39"><stop offset="0" stop-color="#001f28"/><stop offset="1" stop-color="#0047b1"/></radialGradient><radialGradient cx="352.66043" cy="218.16949" r="6.75" gradientUnits="userSpaceOnUse" id="color-40"><stop offset="0" stop-color="#00807e"/><stop offset="1" stop-color="#00afd4"/></radialGradient><radialGradient cx="352.83057" cy="255.05931" r="19" gradientUnits="userSpaceOnUse" id="color-41"><stop offset="0" stop-color="#001f28"/><stop offset="1" stop-color="#0047b1"/></radialGradient><radialGradient cx="352.41043" cy="254.91949" r="6.75" gradientUnits="userSpaceOnUse" id="color-42"><stop offset="0" stop-color="#00807e"/><stop offset="1" stop-color="#00afd4"/></radialGradient><radialGradient cx="352.58057" cy="291.80932" r="19" gradientUnits="userSpaceOnUse" id="color-43"><stop offset="0" stop-color="#001f28"/><stop offset="1" stop-color="#0047b1"/></radialGradient><radialGradient cx="352.16043" cy="291.66949" r="6.75" gradientUnits="userSpaceOnUse" id="color-44"><stop offset="0" stop-color="#00807e"/><stop offset="1" stop-color="#00afd4"/></radialGradient><radialGradient cx="352.33057" cy="328.55932" r="19" gradientUnits="userSpaceOnUse" id="color-45"><stop offset="0" stop-color="#001f28"/><stop offset="1" stop-color="#0047b1"/></radialGradient><radialGradient cx="351.91043" cy="328.41949" r="6.75" gradientUnits="userSpaceOnUse" id="color-46"><stop offset="0" stop-color="#00807e"/><stop offset="1" stop-color="#00afd4"/></radialGradient><radialGradient cx="352.08057" cy="365.30932" r="19" gradientUnits="userSpaceOnUse" id="color-47"><stop offset="0" stop-color="#001f28"/><stop offset="1" stop-color="#0047b1"/></radialGradient><radialGradient cx="351.66043" cy="365.16949" r="6.75" gradientUnits="userSpaceOnUse" id="color-48"><stop offset="0" stop-color="#00807e"/><stop offset="1" stop-color="#00afd4"/></radialGradient></defs><g transform="translate(-20.09258,0.66282)"><g data-paper-data="{&quot;isPaintingLayer&quot;:true}" fill-rule="nonzero" stroke-linejoin="miter" stroke-miterlimit="10" stroke-dasharray="" stroke-dashoffset="0" style="mix-blend-mode: normal"><path d="M221,362.65477v-200.98811h149.11111v200.98811z" fill="#0047b1" stroke="none" stroke-width="0" stroke-linecap="butt"/><path d="M221.18055,161.40951h149.11111" fill="none" stroke="#000000" stroke-width="3.5" stroke-linecap="round"/><path d="M131.20369,380.71856l-111.11111,-381.38138h430.93093l111.11111,381.38138z" fill="none" stroke="none" stroke-width="0" stroke-linecap="butt"/><g stroke="none" stroke-width="0" stroke-linecap="butt"><path d="M220.93057,199.95197v-37.28529h38v37.28529z" data-paper-data="{&quot;index&quot;:null}" fill="url(#color-1)"/><path d="M220.76043,182.66949v-4h38v4z" fill="#00afd4"/><path d="M237.62921,162.40736l3.99992,0.025l-0.23749,37.99926l-3.99992,-0.025z" fill="#00afd4"/><path d="M232.76043,187.66949v-13h13.5v13z" fill="url(#color-2)"/></g><g stroke="none" stroke-width="0" stroke-linecap="butt"><path d="M220.68057,236.95197v-37.28529h38v37.28529z" data-paper-data="{&quot;index&quot;:null}" fill="url(#color-3)"/><path d="M220.51043,219.66949v-4h38v4z" fill="#00afd4"/><path d="M237.37921,199.40736l3.99992,0.025l-0.23749,37.99926l-3.99992,-0.025z" fill="#00afd4"/><path d="M232.51043,224.66949v-13h13.5v13z" fill="url(#color-4)"/></g><g stroke="none" stroke-width="0" stroke-linecap="butt"><path d="M220.43057,273.70196v-37.28529h38v37.28529z" data-paper-data="{&quot;index&quot;:null}" fill="url(#color-5)"/><path d="M220.26043,256.41949v-4h38v4z" fill="#00afd4"/><path d="M237.12921,236.15736l3.99992,0.025l-0.23749,37.99926l-3.99992,-0.025z" fill="#00afd4"/><path d="M232.26043,261.41949v-13h13.5v13z" fill="url(#color-6)"/></g><g stroke="none" stroke-width="0" stroke-linecap="butt"><path d="M220.18057,310.45196v-37.28529h38v37.28529z" data-paper-data="{&quot;index&quot;:null}" fill="url(#color-7)"/><path d="M220.01043,293.16949v-4h38v4z" fill="#00afd4"/><path d="M236.87921,272.90736l3.99992,0.025l-0.23749,37.99926l-3.99992,-0.025z" fill="#00afd4"/><path d="M232.01043,298.16949v-13h13.5v13z" fill="url(#color-8)"/></g><g stroke="none" stroke-width="0" stroke-linecap="butt"><path d="M219.93057,347.20197v-37.28529h38v37.28529z" data-paper-data="{&quot;index&quot;:null}" fill="url(#color-9)"/><path d="M219.76043,329.91949v-4h38v4z" fill="#00afd4"/><path d="M236.62921,309.65736l3.99992,0.025l-0.23749,37.99926l-3.99992,-0.025z" fill="#00afd4"/><path d="M231.76043,334.91949v-13h13.5v13z" fill="url(#color-10)"/></g><g stroke="none" stroke-width="0" stroke-linecap="butt"><path d="M219.68057,383.95197v-37.28529h38v37.28529z" data-paper-data="{&quot;index&quot;:null}" fill="url(#color-11)"/><path d="M219.51043,366.66949v-4h38v4z" fill="#00afd4"/><path d="M236.37921,346.40736l3.99992,0.025l-0.23749,37.99926l-3.99992,-0.025z" fill="#00afd4"/><path d="M231.51043,371.66949v-13h13.5v13z" fill="url(#color-12)"/></g><g stroke="none" stroke-width="0" stroke-linecap="butt"><path d="M258.93057,199.95197v-37.28529h38v37.28529z" data-paper-data="{&quot;index&quot;:null}" fill="url(#color-13)"/><path d="M258.76043,182.66949v-4h38v4z" fill="#00afd4"/><path d="M275.62921,162.40736l3.99992,0.025l-0.23749,37.99926l-3.99992,-0.025z" fill="#00afd4"/><path d="M270.76043,187.66949v-13h13.5v13z" fill="url(#color-14)"/></g><g stroke="none" stroke-width="0" stroke-linecap="butt"><path d="M258.68057,236.95197v-37.28529h38v37.28529z" data-paper-data="{&quot;index&quot;:null}" fill="url(#color-15)"/><path d="M258.51043,219.66949v-4h38v4z" fill="#00afd4"/><path d="M275.37921,199.40736l3.99992,0.025l-0.23749,37.99926l-3.99992,-0.025z" fill="#00afd4"/><path d="M270.51043,224.66949v-13h13.5v13z" fill="url(#color-16)"/></g><g stroke="none" stroke-width="0" stroke-linecap="butt"><path d="M258.43057,273.70196v-37.28529h38v37.28529z" data-paper-data="{&quot;index&quot;:null}" fill="url(#color-17)"/><path d="M258.26043,256.41949v-4h38v4z" fill="#00afd4"/><path d="M275.12921,236.15736l3.99992,0.025l-0.23749,37.99926l-3.99992,-0.025z" fill="#00afd4"/><path d="M270.26043,261.41949v-13h13.5v13z" fill="url(#color-18)"/></g><g stroke="none" stroke-width="0" stroke-linecap="butt"><path d="M258.18057,310.45196v-37.28529h38v37.28529z" data-paper-data="{&quot;index&quot;:null}" fill="url(#color-19)"/><path d="M258.01043,293.16949v-4h38v4z" fill="#00afd4"/><path d="M274.87921,272.90736l3.99992,0.025l-0.23749,37.99926l-3.99992,-0.025z" fill="#00afd4"/><path d="M270.01043,298.16949v-13h13.5v13z" fill="url(#color-20)"/></g><g stroke="none" stroke-width="0" stroke-linecap="butt"><path d="M257.93057,347.20197v-37.28529h38v37.28529z" data-paper-data="{&quot;index&quot;:null}" fill="url(#color-21)"/><path d="M257.76043,329.91949v-4h38v4z" fill="#00afd4"/><path d="M274.62921,309.65736l3.99992,0.025l-0.23749,37.99926l-3.99992,-0.025z" fill="#00afd4"/><path d="M269.76043,334.91949v-13h13.5v13z" fill="url(#color-22)"/></g><g stroke="none" stroke-width="0" stroke-linecap="butt"><path d="M257.68057,383.95197v-37.28529h38v37.28529z" data-paper-data="{&quot;index&quot;:null}" fill="url(#color-23)"/><path d="M257.51043,366.66949v-4h38v4z" fill="#00afd4"/><path d="M274.37921,346.40736l3.99992,0.025l-0.23749,37.99926l-3.99992,-0.025z" fill="#00afd4"/><path d="M269.51043,371.66949v-13h13.5v13z" fill="url(#color-24)"/></g><g stroke="none" stroke-width="0" stroke-linecap="butt"><path d="M296.53056,199.95197v-37.28529h38v37.28529z" data-paper-data="{&quot;index&quot;:null}" fill="url(#color-25)"/><path d="M296.36042,182.66949v-4h38v4z" fill="#00afd4"/><path d="M313.2292,162.40736l3.99992,0.025l-0.23749,37.99926l-3.99992,-0.025z" fill="#00afd4"/><path d="M308.36042,187.66949v-13h13.5v13z" fill="url(#color-26)"/></g><g stroke="none" stroke-width="0" stroke-linecap="butt"><path d="M296.28056,236.95197v-37.28529h38v37.28529z" data-paper-data="{&quot;index&quot;:null}" fill="url(#color-27)"/><path d="M296.11042,219.66949v-4h38v4z" fill="#00afd4"/><path d="M312.9792,199.40736l3.99992,0.025l-0.23749,37.99926l-3.99992,-0.025z" fill="#00afd4"/><path d="M308.11042,224.66949v-13h13.5v13z" fill="url(#color-28)"/></g><g stroke="none" stroke-width="0" stroke-linecap="butt"><path d="M296.03056,273.70196v-37.28529h38v37.28529z" data-paper-data="{&quot;index&quot;:null}" fill="url(#color-29)"/><path d="M295.86042,256.41949v-4h38v4z" fill="#00afd4"/><path d="M312.7292,236.15736l3.99992,0.025l-0.23749,37.99926l-3.99992,-0.025z" fill="#00afd4"/><path d="M307.86042,261.41949v-13h13.5v13z" fill="url(#color-30)"/></g><g stroke="none" stroke-width="0" stroke-linecap="butt"><path d="M295.78056,310.45196v-37.28529h38v37.28529z" data-paper-data="{&quot;index&quot;:null}" fill="url(#color-31)"/><path d="M295.61042,293.16949v-4h38v4z" fill="#00afd4"/><path d="M312.4792,272.90736l3.99992,0.025l-0.23749,37.99926l-3.99992,-0.025z" fill="#00afd4"/><path d="M307.61042,298.16949v-13h13.5v13z" fill="url(#color-32)"/></g><g stroke="none" stroke-width="0" stroke-linecap="butt"><path d="M295.53056,347.20197v-37.28529h38v37.28529z" data-paper-data="{&quot;index&quot;:null}" fill="url(#color-33)"/><path d="M295.36042,329.91949v-4h38v4z" fill="#00afd4"/><path d="M312.2292,309.65736l3.99992,0.025l-0.23749,37.99926l-3.99992,-0.025z" fill="#00afd4"/><path d="M307.36042,334.91949v-13h13.5v13z" fill="url(#color-34)"/></g><g stroke="none" stroke-width="0" stroke-linecap="butt"><path d="M295.28056,383.95197v-37.28529h38v37.28529z" data-paper-data="{&quot;index&quot;:null}" fill="url(#color-35)"/><path d="M295.11042,366.66949v-4h38v4z" fill="#00afd4"/><path d="M311.9792,346.40736l3.99992,0.025l-0.23749,37.99926l-3.99992,-0.025z" fill="#00afd4"/><path d="M307.11042,371.66949v-13h13.5v13z" fill="url(#color-36)"/></g><g stroke="none" stroke-width="0" stroke-linecap="butt"><path d="M334.33057,199.95197v-37.28529h38v37.28529z" data-paper-data="{&quot;index&quot;:null}" fill="url(#color-37)"/><path d="M334.16043,182.66949v-4h38v4z" fill="#00afd4"/><path d="M351.02921,162.40736l3.99992,0.025l-0.23749,37.99926l-3.99992,-0.025z" fill="#00afd4"/><path d="M346.16043,187.66949v-13h13.5v13z" fill="url(#color-38)"/></g><g stroke="none" stroke-width="0" stroke-linecap="butt"><path d="M334.08057,236.95197v-37.28529h38v37.28529z" data-paper-data="{&quot;index&quot;:null}" fill="url(#color-39)"/><path d="M333.91043,219.66949v-4h38v4z" fill="#00afd4"/><path d="M350.77921,199.40736l3.99992,0.025l-0.23749,37.99926l-3.99992,-0.025z" fill="#00afd4"/><path d="M345.91043,224.66949v-13h13.5v13z" fill="url(#color-40)"/></g><g stroke="none" stroke-width="0" stroke-linecap="butt"><path d="M333.83057,273.70196v-37.28529h38v37.28529z" data-paper-data="{&quot;index&quot;:null}" fill="url(#color-41)"/><path d="M333.66043,256.41949v-4h38v4z" fill="#00afd4"/><path d="M350.52921,236.15736l3.99992,0.025l-0.23749,37.99926l-3.99992,-0.025z" fill="#00afd4"/><path d="M345.66043,261.41949v-13h13.5v13z" fill="url(#color-42)"/></g><g stroke="none" stroke-width="0" stroke-linecap="butt"><path d="M333.58057,310.45196v-37.28529h38v37.28529z" data-paper-data="{&quot;index&quot;:null}" fill="url(#color-43)"/><path d="M333.41043,293.16949v-4h38v4z" fill="#00afd4"/><path d="M350.27921,272.90736l3.99992,0.025l-0.23749,37.99926l-3.99992,-0.025z" fill="#00afd4"/><path d="M345.41043,298.16949v-13h13.5v13z" fill="url(#color-44)"/></g><g stroke="none" stroke-width="0" stroke-linecap="butt"><path d="M333.33057,347.20197v-37.28529h38v37.28529z" data-paper-data="{&quot;index&quot;:null}" fill="url(#color-45)"/><path d="M333.16043,329.91949v-4h38v4z" fill="#00afd4"/><path d="M350.02921,309.65736l3.99992,0.025l-0.23749,37.99926l-3.99992,-0.025z" fill="#00afd4"/><path d="M345.16043,334.91949v-13h13.5v13z" fill="url(#color-46)"/></g><g stroke="none" stroke-width="0" stroke-linecap="butt"><path d="M333.08057,383.95197v-37.28529h38v37.28529z" data-paper-data="{&quot;index&quot;:null}" fill="url(#color-47)"/><path d="M332.91043,366.66949v-4h38v4z" fill="#00afd4"/><path d="M349.77921,346.40736l3.99992,0.025l-0.23749,37.99926l-3.99992,-0.025z" fill="#00afd4"/><path d="M344.91043,371.66949v-13h13.5v13z" fill="url(#color-48)"/></g></g></g></svg>