<svg version="1.1" xmlns="http://www.w3.org/2000/svg" xmlns:xlink="http://www.w3.org/1999/xlink" width="254.83333" height="302" viewBox="0,0,254.83333,302"><g transform="translate(-113,-30)"><g data-paper-data="{&quot;isPaintingLayer&quot;:true}" fill-rule="nonzero" stroke-linecap="butt" stroke-linejoin="miter" stroke-miterlimit="10" stroke-dasharray="" stroke-dashoffset="0" style="mix-blend-mode: normal"><path d="M302,180c0,33.13708 -27.75835,60 -62,60c-34.24165,0 -62,-26.86292 -62,-60c0,-33.13708 27.75835,-60 62,-60c34.24165,0 62,26.86292 62,60z" fill="#ff0000" stroke="#000000" stroke-width="10"/><path d="M362.83333,83.5c0,15.18783 -12.72257,27.5 -28.41667,27.5c-15.69409,0 -28.41667,-12.31217 -28.41667,-27.5c0,-15.18783 12.72257,-27.5 28.41667,-27.5c15.69409,0 28.41667,12.31217 28.41667,27.5z" fill="#ff0000" stroke="#000000" stroke-width="10"/><path d="M174.83334,275.5c0,15.18783 -12.72258,27.5 -28.41667,27.5c-15.69409,0 -28.41667,-12.31217 -28.41667,-27.5c0,-15.18783 12.72258,-27.5 28.41667,-27.5c15.69409,0 28.41667,12.31217 28.41667,27.5z" fill="#ff0000" stroke="#000000" stroke-width="10"/><path d="M192.5,77v-42h87v42z" fill="#ff0000" stroke="#000000" stroke-width="10"/><path d="M204.5,327v-39h86v39z" fill="#ff0000" stroke="#000000" stroke-width="10"/><path d="M162.5,188c0,9.94113 -7.61116,18 -17,18c-9.38884,0 -17,-8.05887 -17,-18c0,-9.94113 7.61116,-18 17,-18c9.38884,0 17,8.05887 17,18z" fill="#000000" stroke="none" stroke-width="0"/><path d="M351.5,172c0,9.94113 -7.61116,18 -17,18c-9.38884,0 -17,-8.05887 -17,-18c0,-9.94112 7.61116,-18 17,-18c9.38884,0 17,8.05888 17,18z" fill="#000000" stroke="none" stroke-width="0"/></g></g></svg>