<svg version="1.1" xmlns="http://www.w3.org/2000/svg" xmlns:xlink="http://www.w3.org/1999/xlink" width="305.09132" height="195" viewBox="0,0,305.09132,195"><g transform="translate(-88.64184,-27.71238)"><g data-paper-data="{&quot;isPaintingLayer&quot;:true}" fill="#cc0000" fill-rule="nonzero" stroke="#000000" stroke-width="10" stroke-linejoin="miter" stroke-miterlimit="10" stroke-dasharray="" stroke-dashoffset="0" style="mix-blend-mode: normal"><path d="M388.6875,32.71238l-1,110l-106,-110z" stroke-linecap="round"/><path d="M200.6875,33.71238l-106,110l-1,-110z" data-paper-data="{&quot;index&quot;:null}" stroke-linecap="round"/><path d="M209.6875,146.71238c0,18.77768 -14.32689,34 -32,34c-17.67311,0 -32,-15.22232 -32,-34c0,-18.77768 14.32689,-34 32,-34c17.67311,0 32,15.22232 32,34z" stroke-linecap="butt"/><path d="M334.6875,145.71238c0,18.77768 -14.32689,34 -32,34c-17.67311,0 -32,-15.22232 -32,-34c0,-18.77768 14.32689,-34 32,-34c17.67311,0 32,15.22232 32,34z" stroke-linecap="butt"/><path d="M273.6875,201.71238c0,8.83656 -15.44618,16 -34.5,16c-19.05382,0 -34.5,-7.16344 -34.5,-16c0,-8.83656 15.44618,-16 34.5,-16c19.05382,0 34.5,7.16344 34.5,16z" stroke-linecap="butt"/></g></g></svg>