<svg version="1.1" xmlns="http://www.w3.org/2000/svg" xmlns:xlink="http://www.w3.org/1999/xlink" width="308.71609" height="324.96185" viewBox="0,0,308.71609,324.96185"><defs><linearGradient x1="240.90098" y1="9.18238" x2="240.90098" y2="117.63003" gradientUnits="userSpaceOnUse" id="color-1"><stop offset="0" stop-color="#d40000"/><stop offset="1" stop-color="#820303"/></linearGradient><radialGradient cx="152.22471" cy="170.50835" r="31.4848" gradientUnits="userSpaceOnUse" id="color-2"><stop offset="0" stop-color="#ff0000"/><stop offset="1" stop-color="#840303"/></radialGradient><radialGradient cx="307.65051" cy="170.03035" r="31.4848" gradientUnits="userSpaceOnUse" id="color-3"><stop offset="0" stop-color="#ff0000"/><stop offset="1" stop-color="#840303"/></radialGradient></defs><g transform="translate(-86.5981,-5.52904)"><g data-paper-data="{&quot;isPaintingLayer&quot;:true}" fill-rule="nonzero" stroke="#000000" stroke-width="2.5" stroke-linejoin="miter" stroke-miterlimit="10" stroke-dasharray="" stroke-dashoffset="0" style="mix-blend-mode: normal"><path d="M87.84811,117.63003v-108.44765l47.23821,52.49262l53.36279,-33.10153l53.31657,48.21265l53.93918,-43.02666l54.81543,31.46333l43.43355,-56.04041v108.44765z" fill="url(#color-1)" stroke-linecap="butt"/><path d="M188.71842,162.81421c0,12.07539 -14.09623,21.86445 -31.48481,21.86445c-17.38857,0 -31.4848,-9.78904 -31.4848,-21.86445c0,-12.07539 34.98311,-7.8712 34.98311,-7.8712c0,0 27.98648,-4.2042 27.98648,7.8712z" fill="url(#color-2)" stroke-linecap="butt"/><path d="M304.1522,155.51673c0,0 34.98311,-4.2042 34.98311,7.8712c0,12.07539 -14.09622,21.86444 -31.4848,21.86444c-17.38858,0 -31.48481,-9.78904 -31.48481,-21.86444c0,-12.07539 27.98649,-7.8712 27.98649,-7.8712z" data-paper-data="{&quot;index&quot;:null}" fill="url(#color-3)" stroke-linecap="butt"/><path d="M129.62335,212.74712l-22.13382,12.81432l-18.639,-9.3195" fill="none" stroke-linecap="round"/><path d="M117.97397,220.90169l5.82469,24.46369" fill="none" stroke-linecap="round"/><path d="M302.03412,62.47017l9.3195,11.64938l-40.77282,41.93776" fill="none" stroke-linecap="round"/><path d="M309.02375,69.45979l33.7832,-1.16493l22.13382,23.29875" fill="none" stroke-linecap="round"/><path d="M364.94076,104.40792l-19.80394,-8.15457l-18.63901,-24.46369" fill="none" stroke-linecap="round"/><path d="M281.06523,291.96289l27.95851,15.14419l33.7832,-4.65975l50.09232,26.79357" fill="none" stroke-linecap="round"/><path d="M264.75612,155.66518l-15.14419,17.47407l-13.97925,-15.14419" fill="none" stroke-linecap="round"/><path d="M268.25093,176.63406l-8.15457,-9.3195" fill="none" stroke-linecap="round"/><path d="M144.76754,57.81042l23.29876,30.28838l-13.97925,19.80394" fill="none" stroke-linecap="round"/><path d="M162.24159,103.24299l12.81432,11.64938" fill="none" stroke-linecap="round"/><path d="M394.0642,253.51994l-22.13382,-10.48444l-25.62863,-25.62863l18.63901,-15.14419" fill="none" stroke-linecap="round"/><path d="M360.28101,236.04588l-27.95851,8.15457" fill="none" stroke-linecap="round"/><path d="M90.01547,106.7378l54.75207,34.94813l24.46369,34.94813l24.4637,10.48444" fill="none" stroke-linecap="round"/><path d="M121.46879,151.00543l-1.16494,-22.13382" fill="none" stroke-linecap="round"/><path d="M141.27273,134.6963l46.59751,18.639l31.45332,38.44295" fill="none" stroke-linecap="round"/><path d="M169.23123,176.63406l5.82469,29.12344" fill="none" stroke-linecap="round"/><path d="M205.3443,133.53136l-11.64938,9.31951l-23.29876,5.82469" fill="none" stroke-linecap="round"/><path d="M220.48849,163.81974l-24.46369,1.16494" fill="none" stroke-linecap="round"/><path d="M201.84948,291.96289l9.31951,16.30913l-11.64938,18.639" fill="none" stroke-linecap="round"/><path d="M232.13786,50.82079l8.15457,9.3195l3.49481,12.81432" fill="none" stroke-linecap="round"/><path d="M258.93143,61.30523l-17.47407,-3.49481" fill="none" stroke-linecap="round"/></g></g></svg>