<svg version="1.1" xmlns="http://www.w3.org/2000/svg" xmlns:xlink="http://www.w3.org/1999/xlink" width="250.75075" height="376.86139" viewBox="0,0,250.75075,376.86139"><defs><radialGradient cx="239.93056" cy="181.30932" r="19" gradientUnits="userSpaceOnUse" id="color-1"><stop offset="0" stop-color="#001f28"/><stop offset="1" stop-color="#0047b1"/></radialGradient><radialGradient cx="239.51043" cy="181.16949" r="6.75" gradientUnits="userSpaceOnUse" id="color-2"><stop offset="0" stop-color="#00807e"/><stop offset="1" stop-color="#00afd4"/></radialGradient><radialGradient cx="239.68056" cy="218.30932" r="19" gradientUnits="userSpaceOnUse" id="color-3"><stop offset="0" stop-color="#001f28"/><stop offset="1" stop-color="#0047b1"/></radialGradient><radialGradient cx="239.26043" cy="218.16949" r="6.75" gradientUnits="userSpaceOnUse" id="color-4"><stop offset="0" stop-color="#00807e"/><stop offset="1" stop-color="#00afd4"/></radialGradient><radialGradient cx="239.43056" cy="255.05932" r="19" gradientUnits="userSpaceOnUse" id="color-5"><stop offset="0" stop-color="#001f28"/><stop offset="1" stop-color="#0047b1"/></radialGradient><radialGradient cx="239.01043" cy="254.91949" r="6.75" gradientUnits="userSpaceOnUse" id="color-6"><stop offset="0" stop-color="#00807e"/><stop offset="1" stop-color="#00afd4"/></radialGradient><radialGradient cx="239.18056" cy="291.80932" r="19" gradientUnits="userSpaceOnUse" id="color-7"><stop offset="0" stop-color="#001f28"/><stop offset="1" stop-color="#0047b1"/></radialGradient><radialGradient cx="238.76043" cy="291.66949" r="6.75" gradientUnits="userSpaceOnUse" id="color-8"><stop offset="0" stop-color="#00807e"/><stop offset="1" stop-color="#00afd4"/></radialGradient><radialGradient cx="238.93056" cy="328.55932" r="19" gradientUnits="userSpaceOnUse" id="color-9"><stop offset="0" stop-color="#001f28"/><stop offset="1" stop-color="#0047b1"/></radialGradient><radialGradient cx="238.51043" cy="328.41949" r="6.75" gradientUnits="userSpaceOnUse" id="color-10"><stop offset="0" stop-color="#00807e"/><stop offset="1" stop-color="#00afd4"/></radialGradient><radialGradient cx="238.68056" cy="365.30932" r="19" gradientUnits="userSpaceOnUse" id="color-11"><stop offset="0" stop-color="#001f28"/><stop offset="1" stop-color="#0047b1"/></radialGradient><radialGradient cx="238.26043" cy="365.16949" r="6.75" gradientUnits="userSpaceOnUse" id="color-12"><stop offset="0" stop-color="#00807e"/><stop offset="1" stop-color="#00afd4"/></radialGradient><linearGradient x1="230.54166" y1="248.17856" x2="259.54166" y2="248.17856" gradientUnits="userSpaceOnUse" id="color-13"><stop offset="0" stop-color="#000000" stop-opacity="0"/><stop offset="1" stop-color="#000000"/></linearGradient></defs><g transform="translate(-135.70819,-78.91675)"><g data-paper-data="{&quot;isPaintingLayer&quot;:true}" fill-rule="nonzero" stroke-linejoin="miter" stroke-miterlimit="10" stroke-dasharray="" stroke-dashoffset="0" style="mix-blend-mode: normal"><path d="M221.18055,454.95195v-293.28529h38v293.28529z" data-paper-data="{&quot;index&quot;:null}" fill="#0047b1" stroke="none" stroke-width="0" stroke-linecap="butt"/><g stroke="none" stroke-width="0" stroke-linecap="butt"><path d="M220.93057,199.95197v-37.28529h38v37.28529z" data-paper-data="{&quot;index&quot;:null}" fill="url(#color-1)"/><path d="M220.76043,182.66949v-4h38v4z" fill="#00afd4"/><path d="M237.62921,162.40736l3.99992,0.025l-0.23749,37.99926l-3.99992,-0.025z" fill="#00afd4"/><path d="M232.76043,187.66949v-13h13.5v13z" fill="url(#color-2)"/></g><g stroke="none" stroke-width="0" stroke-linecap="butt"><path d="M220.68057,236.95197v-37.28529h38v37.28529z" data-paper-data="{&quot;index&quot;:null}" fill="url(#color-3)"/><path d="M220.51043,219.66949v-4h38v4z" fill="#00afd4"/><path d="M237.37921,199.40736l3.99992,0.025l-0.23749,37.99926l-3.99992,-0.025z" fill="#00afd4"/><path d="M232.51043,224.66949v-13h13.5v13z" fill="url(#color-4)"/></g><g stroke="none" stroke-width="0" stroke-linecap="butt"><path d="M220.43057,273.70196v-37.28529h38v37.28529z" data-paper-data="{&quot;index&quot;:null}" fill="url(#color-5)"/><path d="M220.26043,256.41949v-4h38v4z" fill="#00afd4"/><path d="M237.12921,236.15736l3.99992,0.025l-0.23749,37.99926l-3.99992,-0.025z" fill="#00afd4"/><path d="M232.26043,261.41949v-13h13.5v13z" fill="url(#color-6)"/></g><g stroke="none" stroke-width="0" stroke-linecap="butt"><path d="M220.18057,310.45196v-37.28529h38v37.28529z" data-paper-data="{&quot;index&quot;:null}" fill="url(#color-7)"/><path d="M220.01043,293.16949v-4h38v4z" fill="#00afd4"/><path d="M236.87921,272.90736l3.99992,0.025l-0.23749,37.99926l-3.99992,-0.025z" fill="#00afd4"/><path d="M232.01043,298.16949v-13h13.5v13z" fill="url(#color-8)"/></g><g stroke="none" stroke-width="0" stroke-linecap="butt"><path d="M219.93057,347.20197v-37.28529h38v37.28529z" data-paper-data="{&quot;index&quot;:null}" fill="url(#color-9)"/><path d="M219.76043,329.91949v-4h38v4z" fill="#00afd4"/><path d="M236.62921,309.65736l3.99992,0.025l-0.23749,37.99926l-3.99992,-0.025z" fill="#00afd4"/><path d="M231.76043,334.91949v-13h13.5v13z" fill="url(#color-10)"/></g><g stroke="none" stroke-width="0" stroke-linecap="butt"><path d="M219.68057,383.95197v-37.28529h38v37.28529z" data-paper-data="{&quot;index&quot;:null}" fill="url(#color-11)"/><path d="M219.51043,366.66949v-4h38v4z" fill="#00afd4"/><path d="M236.37921,346.40736l3.99992,0.025l-0.23749,37.99926l-3.99992,-0.025z" fill="#00afd4"/><path d="M231.51043,371.66949v-13h13.5v13z" fill="url(#color-12)"/></g><path d="M135.70819,355.19303v-276.27628h250.75075v276.27628z" fill="none" stroke="none" stroke-width="0" stroke-linecap="butt"/><path d="M221,161.40952l38,-0.66667v293.28529" data-paper-data="{&quot;index&quot;:null}" fill="none" stroke="#000000" stroke-width="3.5" stroke-linecap="round"/><path d="M230.54166,454.29718v-293.61862h29v293.61862z" fill="url(#color-13)" stroke="none" stroke-width="0" stroke-linecap="butt"/></g></g></svg>