<svg version="1.1" xmlns="http://www.w3.org/2000/svg" xmlns:xlink="http://www.w3.org/1999/xlink" width="770.61746" height="552.39219" viewBox="0,0,770.61746,552.39219"><defs><linearGradient x1="97.9618" y1="157.43253" x2="97.9618" y2="274.54965" gradientUnits="userSpaceOnUse" id="color-1"><stop offset="0" stop-color="#b5b000"/><stop offset="1" stop-color="#000000"/></linearGradient><linearGradient x1="97.9618" y1="152.92803" x2="97.9618" y2="274.54965" gradientUnits="userSpaceOnUse" id="color-2"><stop offset="0" stop-color="#dde000"/><stop offset="1" stop-color="#ff0000"/></linearGradient><linearGradient x1="-15.69001" y1="376.48649" x2="163.82947" y2="376.48649" gradientUnits="userSpaceOnUse" id="color-3"><stop offset="0" stop-color="#000000"/><stop offset="1" stop-color="#000000" stop-opacity="0"/></linearGradient><linearGradient x1="503.9655" y1="378.89078" x2="329.94753" y2="378.89078" gradientUnits="userSpaceOnUse" id="color-4"><stop offset="0" stop-color="#000000"/><stop offset="1" stop-color="#000000" stop-opacity="0"/></linearGradient><linearGradient x1="186.9641" y1="79.3703" x2="284.38048" y2="224.93098" gradientUnits="userSpaceOnUse" id="color-5"><stop offset="0" stop-color="#bababa"/><stop offset="1" stop-color="#896060"/></linearGradient><linearGradient x1="261.63492" y1="191.50495" x2="283.99278" y2="224.91232" gradientUnits="userSpaceOnUse" id="color-6"><stop offset="0" stop-color="#b08c4e"/><stop offset="1" stop-color="#7b7b7b"/></linearGradient><radialGradient cx="206.94451" cy="244.34005" r="7.8664" gradientUnits="userSpaceOnUse" id="color-7"><stop offset="0" stop-color="#844f4f"/><stop offset="1" stop-color="#8a8a8a"/></radialGradient><radialGradient cx="232.24257" cy="228.31905" r="7.8664" gradientUnits="userSpaceOnUse" id="color-8"><stop offset="0" stop-color="#844f4f"/><stop offset="1" stop-color="#8a8a8a"/></radialGradient><radialGradient cx="255.27711" cy="213.80874" r="7.8664" gradientUnits="userSpaceOnUse" id="color-9"><stop offset="0" stop-color="#844f4f"/><stop offset="1" stop-color="#8a8a8a"/></radialGradient><radialGradient cx="276.38138" cy="198.86066" r="7.8664" gradientUnits="userSpaceOnUse" id="color-10"><stop offset="0" stop-color="#844f4f"/><stop offset="1" stop-color="#8a8a8a"/></radialGradient><radialGradient cx="302.41197" cy="181.48776" r="7.8664" gradientUnits="userSpaceOnUse" id="color-11"><stop offset="0" stop-color="#844f4f"/><stop offset="1" stop-color="#8a8a8a"/></radialGradient><radialGradient cx="325.61314" cy="166.00321" r="7.8664" gradientUnits="userSpaceOnUse" id="color-12"><stop offset="0" stop-color="#844f4f"/><stop offset="1" stop-color="#8a8a8a"/></radialGradient><linearGradient x1="173.77037" y1="59.57772" x2="210.93754" y2="115.11335" gradientUnits="userSpaceOnUse" id="color-13"><stop offset="0" stop-color="#b4d400"/><stop offset="1" stop-color="#738103"/></linearGradient><radialGradient cx="187.42536" cy="168.69197" r="18.38749" gradientUnits="userSpaceOnUse" id="color-14"><stop offset="0" stop-color="#00ffda"/><stop offset="1" stop-color="#05cac9"/></radialGradient><radialGradient cx="261.32056" cy="120.30722" r="18.38749" gradientUnits="userSpaceOnUse" id="color-15"><stop offset="0" stop-color="#00ffda"/><stop offset="1" stop-color="#05cac9"/></radialGradient><linearGradient x1="242.82416" y1="165.23253" x2="247.94784" y2="172.88839" gradientUnits="userSpaceOnUse" id="color-16"><stop offset="0" stop-color="#ff0000"/><stop offset="1" stop-color="#650000"/></linearGradient><linearGradient x1="246.81835" y1="271.28778" x2="246.81835" y2="368.55182" gradientTransform="translate(-6.87809,-169.87992) scale(0.46343,0.49347)" gradientUnits="userSpaceOnUse" id="color-17"><stop offset="0" stop-color="#dde000"/><stop offset="1" stop-color="#ff0000"/></linearGradient></defs><g transform="translate(61.11205,69.35836)"><g data-paper-data="{&quot;isPaintingLayer&quot;:true}" fill-rule="nonzero" stroke-linejoin="miter" stroke-miterlimit="10" stroke-dasharray="" stroke-dashoffset="0" style="mix-blend-mode: normal"><path d="M-60.11205,393.99099v-432h591v432z" fill="#610000" stroke="#000000" stroke-width="2" stroke-linecap="butt"/><path d="M47.66149,274.54965l48.04805,-115.61562l52.55255,115.61562z" fill="url(#color-1)" stroke="url(#color-2)" stroke-width="0" stroke-linecap="butt"/><path d="M-34.20352,478.78133v-204.28609h543.92187v204.28609z" fill="#e50000" stroke="none" stroke-width="NaN" stroke-linecap="butt"/><path d="M-13.64644,430.49857v-265.93456h542v265.93456z" fill="none" stroke="none" stroke-width="0" stroke-linecap="butt"/><path d="M-15.69001,479.38028v-205.78759h179.51947v205.78759z" fill="url(#color-3)" stroke="none" stroke-width="NaN" stroke-linecap="butt"/><path d="M329.94753,483.03383v-208.28609h174.01796v208.28609z" data-paper-data="{&quot;index&quot;:null}" fill="url(#color-4)" stroke="none" stroke-width="NaN" stroke-linecap="butt"/><text transform="translate(702.78755,-41.33037) scale(0.56423,0.66094)" font-size="40" xml:space="preserve" fill="#ffffff" fill-rule="nonzero" stroke="none" stroke-width="1" stroke-linecap="butt" stroke-linejoin="miter" stroke-miterlimit="10" stroke-dasharray="" stroke-dashoffset="0" font-family="Sans Serif" font-weight="normal" text-anchor="start" style="mix-blend-mode: normal"><tspan x="0" dy="0"> </tspan></text><g stroke="#000000" stroke-width="2.5"><path d="M209.96696,274.59481l-97.41638,-145.56068l148.82703,-99.32767l97.41638,145.56068z" fill="url(#color-5)" stroke-linecap="butt"/><path d="M209.29632,274.76499l-22.35786,-33.40737l149.39291,-99.70534l22.35786,33.40737z" fill="url(#color-6)" stroke-linecap="butt"/><path d="M211.44269,240.05232c2.54951,3.80951 2.08275,8.58862 -1.04252,10.67444c-3.12528,2.08582 -7.72561,0.6885 -10.27512,-3.12101c-2.54951,-3.80951 -2.08276,-8.58862 1.04252,-10.67444c3.12528,-2.08582 7.72561,-0.6885 10.27512,3.12101z" fill="url(#color-7)" stroke-linecap="butt"/><path d="M236.74076,224.03132c2.54951,3.80951 2.08275,8.58862 -1.04252,10.67444c-3.12528,2.08582 -7.72561,0.6885 -10.27512,-3.12101c-2.54951,-3.80951 -2.08275,-8.58862 1.04252,-10.67444c3.12528,-2.08582 7.72561,-0.6885 10.27512,3.12101z" fill="url(#color-8)" stroke-linecap="butt"/><path d="M258.57755,207.73133c2.54951,3.80951 2.08275,8.58862 -1.04252,10.67444c-3.12528,2.08582 -7.72561,0.6885 -10.27512,-3.12101c-2.54951,-3.80951 -2.08275,-8.58862 1.04252,-10.67444c3.12528,-2.08582 7.72561,-0.6885 10.27512,3.12101z" fill="url(#color-9)" stroke-linecap="butt"/><path d="M281.77872,192.24679c2.54951,3.80951 2.08276,8.58862 -1.04252,10.67444c-3.12528,2.08582 -7.72561,0.6885 -10.27512,-3.12101c-2.54951,-3.80951 -2.08275,-8.58862 1.04252,-10.67444c3.12528,-2.08582 7.72561,-0.6885 10.27512,3.12101z" fill="url(#color-10)" stroke-linecap="butt"/><path d="M306.27829,175.03267c2.54951,3.80951 2.08276,8.58862 -1.04252,10.67444c-3.12528,2.08582 -7.72561,0.6885 -10.27512,-3.12101c-2.54951,-3.80951 -2.08276,-8.58862 1.04252,-10.67444c3.12528,-2.08582 7.72561,-0.6885 10.27512,3.12101z" fill="url(#color-11)" stroke-linecap="butt"/><path d="M330.11132,161.71548c2.54951,3.80951 2.08276,8.58862 -1.04252,10.67444c-3.12528,2.08582 -7.72561,0.6885 -10.27512,-3.12101c-2.54951,-3.80951 -2.08276,-8.58862 1.04252,-10.67444c3.12528,-2.08582 7.72561,-0.6885 10.27512,3.12101z" fill="url(#color-12)" stroke-linecap="butt"/><path d="M136.59031,164.73295l-37.16718,-55.53563l40.93679,11.56668l14.57705,-34.25134l42.42259,7.40433l11.4555,-39.52082l37.41036,-1.65886l1.89219,-42.7792l37.16718,55.53563z" fill="url(#color-13)" stroke-linecap="butt"/><path d="M201.07478,155.16954c4.13848,6.18376 0.64598,15.76668 -7.80073,21.40405c-8.4467,5.63736 -18.64902,5.19442 -22.7875,-0.98935c-4.13848,-6.18376 14.29584,-15.37231 14.29584,-15.37231c0,0 12.1539,-11.22615 16.29239,-5.04238z" fill="url(#color-14)" stroke-linecap="butt"/><path d="M254.64711,114.009c0,0 15.5526,-13.49445 19.69108,-7.31068c4.13848,6.18376 0.64598,15.76668 -7.80073,21.40405c-8.44671,5.63736 -18.64902,5.19442 -22.7875,-0.98935c-4.13848,-6.18376 10.89715,-13.10401 10.89715,-13.10401z" data-paper-data="{&quot;index&quot;:null}" fill="url(#color-15)" stroke-linecap="butt"/><path d="M244.23887,164.28835c7.47285,-4.9874 36.81308,-13.49377 36.81308,-13.49377l-66.20822,44.1876c0,0 21.92229,-25.70643 29.39514,-30.69383z" fill="url(#color-16)" stroke-linecap="round"/><path d="M189.48166,199.89857l-6.36004,13.73793l-12.2481,1.27027" fill="none" stroke-linecap="round"/><path d="M186.61757,207.8512l11.21361,10.6394" fill="none" stroke-linecap="round"/><path d="M221.72931,67.04689l8.51953,2.94423l-5.43297,34.69468" fill="none" stroke-linecap="round"/><path d="M227.52008,68.36022l16.01134,-11.54904l18.73671,4.75544" fill="none" stroke-linecap="round"/><path d="M266.65985,68.12878l-12.41473,2.2445l-17.43831,-6.48501" fill="none" stroke-linecap="round"/><path d="M290.19517,191.36733l18.77139,-1.30884l14.81359,-13.33872l33.51563,-2.519" fill="none" stroke-linecap="round"/><path d="M235.56087,126.85719l-1.36776,13.85814l-11.9808,-3.22322" fill="none" stroke-linecap="round"/><path d="M244.44497,136.46226l-7.15516,-2.12878" fill="none" stroke-linecap="round"/><path d="M143.73821,115.64633l21.69808,7.95713l-0.00338,14.67358" fill="none" stroke-linecap="round"/><path d="M167.7971,133.2471l10.21718,1.81121" fill="none" stroke-linecap="round"/><path d="M331.91058,135.04668l-14.34499,1.80672l-21.23285,-4.81554l3.8639,-13.79803" fill="none" stroke-linecap="round"/><path d="M309.51129,137.05076l-10.78644,13.24004" fill="none" stroke-linecap="round"/><path d="M133.91014,158.45243l38.57389,0.14623l23.86095,9.9657l15.47675,-2.56207" fill="none" stroke-linecap="round"/><path d="M164.36037,170.92458l-8.15158,-10.95697" fill="none" stroke-linecap="round"/><path d="M168.3909,156.15232l29.02325,-5.56191l28.45399,9.48935" fill="none" stroke-linecap="round"/><path d="M196.34498,168.56436l12.8106,13.02564" fill="none" stroke-linecap="round"/><path d="M199.11517,134.78381l-2.46484,8.5492l-9.32141,10.53624" fill="none" stroke-linecap="round"/><path d="M216.85208,145.38464l-11.48428,8.52767" fill="none" stroke-linecap="round"/><path d="M251.71518,217.04901l10.11652,5.33047l0.72914,13.32168" fill="none" stroke-linecap="round"/><path d="M183.7839,83.74159l7.15516,2.12878l6.08937,5.42915" fill="none" stroke-linecap="round"/><path d="M200.39242,80.42418l-9.68598,3.8754" fill="none" stroke-linecap="round"/></g><text transform="translate(14.84181,344.25316) scale(2.15784,2.02645)" font-size="40" xml:space="preserve" fill="#838383" fill-rule="nonzero" stroke="url(#color-17)" stroke-width="2" stroke-linecap="butt" stroke-linejoin="miter" stroke-miterlimit="10" stroke-dasharray="" stroke-dashoffset="0" font-family="Pixel" font-weight="normal" text-anchor="start" style="mix-blend-mode: normal"><tspan x="0" dy="0">UNbroKen</tspan></text><text transform="translate(4.78302,69.99256) scale(1.50041,1.75761)" font-size="40" xml:space="preserve" fill="#02ff00" fill-rule="nonzero" stroke="#00aaff" stroke-width="2" stroke-linecap="butt" stroke-linejoin="miter" stroke-miterlimit="10" stroke-dasharray="" stroke-dashoffset="0" font-family="Pixel" font-weight="normal" text-anchor="start" style="mix-blend-mode: normal"><tspan x="0" dy="0">geometry dash</tspan></text><path d="M212.64872,274.51337l27,-10" fill="none" stroke="#fff700" stroke-width="2.5" stroke-linecap="round"/><path d="M234.64872,271.01337l38,-12" fill="none" stroke="#fff700" stroke-width="2.5" stroke-linecap="round"/><path d="M283.14872,242.51337l8,-6.5" fill="none" stroke="#fff700" stroke-width="2.5" stroke-linecap="round"/><path d="M303.14872,256.51337l-5,4l1,-4.5" fill="none" stroke="#fff700" stroke-width="2.5" stroke-linecap="round"/><path d="M325.64872,239.51337l7,-7" fill="none" stroke="#fff700" stroke-width="2.5" stroke-linecap="round"/><path d="M324.64872,216.01337l4.5,-4" fill="none" stroke="#fff700" stroke-width="2.5" stroke-linecap="round"/><path d="M275.64872,271.01337l39.5,-31.5" fill="none" stroke="#fff700" stroke-width="2.5" stroke-linecap="round"/><path d="M243.64872,259.51337l59.5,-28.5" fill="none" stroke="#fff700" stroke-width="2.5" stroke-linecap="round"/><path d="M208.64872,277.01337l-47.5,-47" fill="none" stroke="#fff700" stroke-width="2.5" stroke-linecap="round"/><path d="M197.64872,277.01337l-41,-25.5" fill="none" stroke="#fff700" stroke-width="2.5" stroke-linecap="round"/><path d="M180.14872,276.51337l-8,-6" fill="none" stroke="#fff700" stroke-width="2.5" stroke-linecap="round"/><path d="M169.14872,224.51337l-23,-27" fill="none" stroke="#fff700" stroke-width="2.5" stroke-linecap="round"/><path d="M140.14872,215.01337l-12.5,-13.5" fill="none" stroke="#fff700" stroke-width="2.5" stroke-linecap="round"/><path d="M125.14872,179.51337l-6,-6" fill="none" stroke="#fff700" stroke-width="2.5" stroke-linecap="round"/></g></g></svg>