<svg version="1.1" xmlns="http://www.w3.org/2000/svg" xmlns:xlink="http://www.w3.org/1999/xlink" width="449.92946" height="284.50552" viewBox="0,0,449.92946,284.50552"><g transform="translate(-16.24119,-26)"><g data-paper-data="{&quot;isPaintingLayer&quot;:true}" fill-rule="nonzero" stroke="#000000" stroke-width="10" stroke-linecap="butt" stroke-linejoin="miter" stroke-miterlimit="10" stroke-dasharray="" stroke-dashoffset="0" style="mix-blend-mode: normal"><path d="M135.5,132l1,-101h172v148h-129z" fill="none"/><path d="M25.5,233l41.70162,6.08547l-17.32379,-60.476l-24.23985,-25.30765l1.31927,-20.08077l41.1577,1.80761l0.39882,-20.51366l54.98622,2.48501l57,63h129l28.68796,-30.53641l118.94171,100.4878l-78.62967,39.04861l-176.01664,16.46243l-152.53534,-28.28654z" fill="none"/><path d="M186.5,144.76271v-74.61017h71v74.61017z" fill="#ff0000"/><path d="M107.5,248v-20h268v20z" fill="#ff0000"/><path d="M186.5,299v-112h47v112z" fill="#ff0000"/><path d="M71.5,275l23,-42l-23,-117h44l15.58386,125.00819l-14.58386,47.99181z" fill="#ff0000"/><path d="M312.03801,183.61917l26.32065,-28.75567l113.60333,93.51734l-72.32065,38.75567z" fill="#ff0000"/><path d="M27.5,153v-18h46v18z" fill="#ff0000"/></g></g></svg>