<svg version="1.1" xmlns="http://www.w3.org/2000/svg" xmlns:xlink="http://www.w3.org/1999/xlink" width="609.60961" height="537" viewBox="0,0,609.60961,537"><defs><linearGradient x1="240" y1="307.48348" x2="240" y2="345.48348" gradientUnits="userSpaceOnUse" id="color-1"><stop offset="0" stop-color="#ff0000" stop-opacity="0"/><stop offset="1" stop-color="#ff0000"/></linearGradient><linearGradient x1="432.48949" y1="172" x2="470.48949" y2="172" gradientUnits="userSpaceOnUse" id="color-2"><stop offset="0" stop-color="#ff0000" stop-opacity="0"/><stop offset="1" stop-color="#ff0000"/></linearGradient><linearGradient x1="229" y1="48.01502" x2="229" y2="10.01502" gradientUnits="userSpaceOnUse" id="color-3"><stop offset="0" stop-color="#ff0000" stop-opacity="0"/><stop offset="1" stop-color="#ff0000"/></linearGradient><linearGradient x1="51.51652" y1="184" x2="13.51652" y2="184" gradientUnits="userSpaceOnUse" id="color-4"><stop offset="0" stop-color="#ff0000" stop-opacity="0"/><stop offset="1" stop-color="#ff0000"/></linearGradient></defs><g transform="translate(57.26051,90.5)"><g data-paper-data="{&quot;isPaintingLayer&quot;:true}" fill-rule="nonzero" stroke="none" stroke-width="0" stroke-linecap="butt" stroke-linejoin="miter" stroke-miterlimit="10" stroke-dasharray="" stroke-dashoffset="0" style="mix-blend-mode: normal"><path d="M-22.5,345.48348v-38h525v38z" fill="url(#color-1)"/><path d="M470.48949,434.5h-38v-525h38z" data-paper-data="{&quot;index&quot;:null}" fill="url(#color-2)"/><path d="M491.5,10.01502v38h-525v-38z" data-paper-data="{&quot;index&quot;:null}" fill="url(#color-3)"/><path d="M13.51652,-78.5h38v525h-38z" data-paper-data="{&quot;index&quot;:null}" fill="url(#color-4)"/><path d="M-40.74399,367.95345v-414.41441h57.05706v414.41441z" fill="#ff0000"/><path d="M-46.75,385.97147v-43.54354h599.0991v43.54354z" fill="#ff0000"/><path d="M463.76051,379.96547v-435.43544h85.58559v435.43544z" fill="#ff0000"/><path d="M-57.26051,13.5991v-81.08108h599.0991v81.08108z" fill="#ff0000"/></g></g></svg>