<svg version="1.1" xmlns="http://www.w3.org/2000/svg" xmlns:xlink="http://www.w3.org/1999/xlink" width="430.93093" height="457.09431" viewBox="0,0,430.93093,457.09431"><defs><radialGradient cx="240.17839" cy="182.05931" r="19.44349" gradientUnits="userSpaceOnUse" id="color-1"><stop offset="0" stop-color="#00bdbc"/><stop offset="1" stop-color="#00f8ff"/></radialGradient><linearGradient x1="240.3189" y1="199.4315" x2="240.3189" y2="242.4315" gradientUnits="userSpaceOnUse" id="color-2"><stop offset="0" stop-color="#00f8ff" stop-opacity="0"/><stop offset="1" stop-color="#00f8ff"/></linearGradient><linearGradient x1="240.3189" y1="285.4315" x2="240.3189" y2="242.4315" gradientUnits="userSpaceOnUse" id="color-3"><stop offset="0" stop-color="#00f8ff" stop-opacity="0"/><stop offset="1" stop-color="#00f8ff"/></linearGradient></defs><g transform="translate(-20.09258,0.66282)"><g data-paper-data="{&quot;isPaintingLayer&quot;:true}" fill-rule="nonzero" stroke-linejoin="miter" stroke-miterlimit="10" stroke-dasharray="" stroke-dashoffset="0" style="mix-blend-mode: normal"><path d="M20.09258,380.71856v-381.38138h430.93093v381.38138z" fill="none" stroke="none" stroke-width="0" stroke-linecap="butt"/><path d="M221,362.65477v-200.98811h38v200.98811z" fill="#ff009a" stroke="none" stroke-width="0" stroke-linecap="butt"/><path d="M220.74093,181.55787l19.30738,-18.94204l19.56754,19.94493l-19.30737,18.94205z" data-paper-data="{&quot;index&quot;:null}" fill="url(#color-1)" stroke="none" stroke-width="0" stroke-linecap="butt"/><path d="M259.18055,161.40951h-38" fill="none" stroke="#000000" stroke-width="3.5" stroke-linecap="round"/><g stroke="none" stroke-width="0" stroke-linecap="butt"><path d="M220.3189,242.4315v-43h40v43z" fill="url(#color-2)"/><path d="M260.3189,242.4315v43h-40v-43z" data-paper-data="{&quot;index&quot;:null}" fill="url(#color-3)"/></g><path d="M221.3189,456.4315l-0.5,-174l4.5,-6l8.43243,7.90541l7.03468,-11.38063l6.92153,13.93482l6.56601,-10.12853l5.04535,5.66893l0.5,174z" fill="#000000" stroke="none" stroke-width="0" stroke-linecap="butt"/></g></g></svg>