<svg version="1.1" xmlns="http://www.w3.org/2000/svg" xmlns:xlink="http://www.w3.org/1999/xlink" width="346.84685" height="253.75375" viewBox="0,0,346.84685,253.75375"><defs><linearGradient x1="221.60986" y1="170.32545" x2="229.5886" y2="170.32545" gradientUnits="userSpaceOnUse" id="color-1"><stop offset="0" stop-color="#000000"/><stop offset="1" stop-color="#000000" stop-opacity="0"/></linearGradient><linearGradient x1="250.44572" y1="169.94995" x2="259.26997" y2="169.94995" gradientUnits="userSpaceOnUse" id="color-2"><stop offset="0" stop-color="#000000" stop-opacity="0"/><stop offset="1" stop-color="#000000"/></linearGradient></defs><g transform="translate(-12.58507,-51.88973)"><g data-paper-data="{&quot;isPaintingLayer&quot;:true}" fill-rule="nonzero" stroke-linejoin="miter" stroke-miterlimit="10" stroke-dasharray="" stroke-dashoffset="0" style="mix-blend-mode: normal"><path d="M12.58507,305.64348v-253.75375h346.84685v253.75375z" fill="none" stroke="none" stroke-width="0" stroke-linecap="butt"/><path d="M220.88677,178.18757v-15.85163h38.98313v15.85163z" fill="#ff8600" stroke="#000000" stroke-width="1.5" stroke-linecap="butt"/><path d="M221.60986,177.64766v-14.64442h7.97874v14.64442z" fill="url(#color-1)" stroke="none" stroke-width="0" stroke-linecap="butt"/><path d="M250.44572,177.92929v-15.95868h8.82426v15.95868z" fill="url(#color-2)" stroke="none" stroke-width="0" stroke-linecap="butt"/><path d="M221.86776,168.71368l8.64306,0.1879" fill="none" stroke="#000000" stroke-width="0.5" stroke-linecap="round"/><path d="M242.34805,166.64686l-10.33409,0.1879" fill="none" stroke="#000000" stroke-width="0.5" stroke-linecap="round"/><path d="M235.77182,171.90785h10.70987" fill="none" stroke="#000000" stroke-width="0.5" stroke-linecap="round"/><path d="M228.06821,173.41099h10.33409" fill="none" stroke="#000000" stroke-width="0.5" stroke-linecap="round"/><path d="M259.07048,169.46525h-13.52826" fill="none" stroke="#000000" stroke-width="0.5" stroke-linecap="round"/><path d="M246.48169,166.83475l5.26099,0.37578" fill="none" stroke="#000000" stroke-width="0.5" stroke-linecap="round"/><path d="M258.8826,175.28992l-12.02513,0.37578" fill="none" stroke="#000000" stroke-width="0.5" stroke-linecap="round"/><path d="M226.1893,163.82847l7.5157,0.1879" fill="none" stroke="#000000" stroke-width="0.5" stroke-linecap="round"/><path d="M241.0328,175.6657h1.87893" fill="none" stroke="#000000" stroke-width="0.5" stroke-linecap="round"/><path d="M223.74669,175.47781h6.76413" fill="none" stroke="#000000" stroke-width="0.5" stroke-linecap="round"/></g></g></svg>