<svg version="1.1" xmlns="http://www.w3.org/2000/svg" xmlns:xlink="http://www.w3.org/1999/xlink" width="143" height="221" viewBox="0,0,143,221"><defs><radialGradient cx="228.6387" cy="178.24004" r="49.00093" gradientUnits="userSpaceOnUse" id="color-1"><stop offset="0" stop-color="#e5e5e5"/><stop offset="1" stop-color="#e5e5e5" stop-opacity="0"/></radialGradient></defs><g transform="translate(-183.6875,-64)"><g data-paper-data="{&quot;isPaintingLayer&quot;:true}" fill-rule="nonzero" stroke-linejoin="miter" stroke-miterlimit="10" stroke-dasharray="" stroke-dashoffset="0" style="mix-blend-mode: normal"><path d="M268.97023,183.02538c0,25.40401 -7.49657,45.99802 -16.74405,45.99802c-9.24748,0 -16.74404,-20.59401 -16.74404,-45.99802c0,-25.404 7.49657,-45.99802 16.74405,-45.99802c9.24748,0 16.74405,20.59401 16.74405,45.99802z" fill="none" stroke="#000000" stroke-width="4" stroke-linecap="butt"/><path d="M259.34721,181.4857c0,25.40401 -7.49657,45.99801 -16.74405,45.99801c-9.24748,0 -16.74404,-20.59401 -16.74404,-45.99801c0,-25.404 7.49657,-45.99802 16.74405,-45.99802c9.24748,0 16.74405,20.59401 16.74405,45.99802z" fill="none" stroke="#000000" stroke-width="4" stroke-linecap="butt"/><path d="M221.24006,205.54324l43.88096,1.53968" fill="none" stroke="#000000" stroke-width="5.5" stroke-linecap="round"/><path d="M267.04563,183.98768l-50.4246,-0.38492" fill="none" stroke="#000000" stroke-width="5.5" stroke-linecap="round"/><path d="M217.77578,161.66228l48.88492,0.38493" fill="none" stroke="#000000" stroke-width="5.5" stroke-linecap="round"/><path d="M228.45436,135.92419l24.52778,1.66667" fill="none" stroke="#000000" stroke-width="5.5" stroke-linecap="round"/><path d="M247.51785,180c0,29.1854 -8.16814,52.84483 -18.24405,52.84483c-10.07591,0 -18.24404,-23.65943 -18.24404,-52.84483c0,-29.18539 8.16814,-52.84483 18.24405,-52.84483c10.07591,0 18.24405,23.65944 18.24405,52.84483z" fill="none" stroke="#ffffff" stroke-width="3.5" stroke-linecap="butt"/><path d="M243.27289,179.98866c0,27.06248 -6.46477,49.00094 -14.43946,49.00094c-7.97469,0 -14.43946,-21.93847 -14.43946,-49.00093c0,-27.06247 6.46477,-49.00094 14.43946,-49.00094c7.97469,0 14.43946,21.93846 14.43946,49.00094z" fill="url(#color-1)" stroke="#e5e5e5" stroke-width="6.5" stroke-linecap="butt"/><path d="M183.6875,285v-221h143v221z" fill="none" stroke="none" stroke-width="0" stroke-linecap="butt"/></g></g></svg>