<svg version="1.1" xmlns="http://www.w3.org/2000/svg" xmlns:xlink="http://www.w3.org/1999/xlink" width="375.37538" height="267.26727" viewBox="0,0,375.37538,267.26727"><defs><radialGradient cx="241.175" cy="178.12266" r="39.00374" gradientUnits="userSpaceOnUse" id="color-1"><stop offset="0" stop-color="#001cff"/><stop offset="1" stop-color="#001cff" stop-opacity="0"/></radialGradient><radialGradient cx="241.175" cy="178.12266" r="39.00374" gradientUnits="userSpaceOnUse" id="color-2"><stop offset="0" stop-color="#001cff"/><stop offset="1" stop-color="#001cff" stop-opacity="0"/></radialGradient><radialGradient cx="228.35365" cy="127.71317" r="15.75956" gradientUnits="userSpaceOnUse" id="color-3"><stop offset="0" stop-color="#001cff"/><stop offset="1" stop-color="#001cff" stop-opacity="0"/></radialGradient><radialGradient cx="264.94697" cy="135.32063" r="15.75956" gradientUnits="userSpaceOnUse" id="color-4"><stop offset="0" stop-color="#001cff"/><stop offset="1" stop-color="#001cff" stop-opacity="0"/></radialGradient><radialGradient cx="249.34277" cy="127.24155" r="15.75956" gradientUnits="userSpaceOnUse" id="color-5"><stop offset="0" stop-color="#001cff"/><stop offset="1" stop-color="#001cff" stop-opacity="0"/></radialGradient><radialGradient cx="210.76401" cy="136.4564" r="15.75955" gradientUnits="userSpaceOnUse" id="color-6"><stop offset="0" stop-color="#001cff"/><stop offset="1" stop-color="#001cff" stop-opacity="0"/></radialGradient><radialGradient cx="281.56694" cy="143.24133" r="15.75956" gradientUnits="userSpaceOnUse" id="color-7"><stop offset="0" stop-color="#001cff"/><stop offset="1" stop-color="#001cff" stop-opacity="0"/></radialGradient><radialGradient cx="292.94315" cy="178.84366" r="15.75956" gradientUnits="userSpaceOnUse" id="color-8"><stop offset="0" stop-color="#001cff"/><stop offset="1" stop-color="#001cff" stop-opacity="0"/></radialGradient><radialGradient cx="292.30179" cy="161.28374" r="15.75955" gradientUnits="userSpaceOnUse" id="color-9"><stop offset="0" stop-color="#001cff"/><stop offset="1" stop-color="#001cff" stop-opacity="0"/></radialGradient><radialGradient cx="291.23131" cy="201.88671" r="15.75956" gradientUnits="userSpaceOnUse" id="color-10"><stop offset="0" stop-color="#001cff"/><stop offset="1" stop-color="#001cff" stop-opacity="0"/></radialGradient><radialGradient cx="263.2334" cy="226.64678" r="15.75956" gradientUnits="userSpaceOnUse" id="color-11"><stop offset="0" stop-color="#001cff"/><stop offset="1" stop-color="#001cff" stop-opacity="0"/></radialGradient><radialGradient cx="279.04556" cy="218.98269" r="15.75956" gradientUnits="userSpaceOnUse" id="color-12"><stop offset="0" stop-color="#001cff"/><stop offset="1" stop-color="#001cff" stop-opacity="0"/></radialGradient><radialGradient cx="246.03526" cy="233.00257" r="15.75956" gradientUnits="userSpaceOnUse" id="color-13"><stop offset="0" stop-color="#001cff"/><stop offset="1" stop-color="#001cff" stop-opacity="0"/></radialGradient><radialGradient cx="210.20583" cy="222.36318" r="15.75955" gradientUnits="userSpaceOnUse" id="color-14"><stop offset="0" stop-color="#001cff"/><stop offset="1" stop-color="#001cff" stop-opacity="0"/></radialGradient><radialGradient cx="225.08017" cy="231.71821" r="15.75956" gradientUnits="userSpaceOnUse" id="color-15"><stop offset="0" stop-color="#001cff"/><stop offset="1" stop-color="#001cff" stop-opacity="0"/></radialGradient><radialGradient cx="197.54275" cy="213.09999" r="15.75956" gradientUnits="userSpaceOnUse" id="color-16"><stop offset="0" stop-color="#001cff"/><stop offset="1" stop-color="#001cff" stop-opacity="0"/></radialGradient><radialGradient cx="185.06645" cy="177.8681" r="15.75955" gradientUnits="userSpaceOnUse" id="color-17"><stop offset="0" stop-color="#001cff"/><stop offset="1" stop-color="#001cff" stop-opacity="0"/></radialGradient><radialGradient cx="186.25279" cy="195.39965" r="15.75956" gradientUnits="userSpaceOnUse" id="color-18"><stop offset="0" stop-color="#001cff"/><stop offset="1" stop-color="#001cff" stop-opacity="0"/></radialGradient><radialGradient cx="191.02048" cy="150.46993" r="15.75956" gradientUnits="userSpaceOnUse" id="color-19"><stop offset="0" stop-color="#001cff"/><stop offset="1" stop-color="#001cff" stop-opacity="0"/></radialGradient><radialGradient cx="240.78831" cy="177.93031" r="39.00374" gradientUnits="userSpaceOnUse" id="color-20"><stop offset="0" stop-color="#ff8e00"/><stop offset="1" stop-color="#ff8e00" stop-opacity="0"/></radialGradient><radialGradient cx="240" cy="180" r="53.12874" gradientUnits="userSpaceOnUse" id="color-21"><stop offset="0" stop-color="#ff8e00"/><stop offset="1" stop-color="#ff8e00" stop-opacity="0"/></radialGradient><radialGradient cx="218.42727" cy="130.96769" r="15.75956" gradientUnits="userSpaceOnUse" id="color-22"><stop offset="0" stop-color="#ff8e00"/><stop offset="1" stop-color="#ff8e00" stop-opacity="0"/></radialGradient><radialGradient cx="255.80125" cy="131.32847" r="15.75956" gradientUnits="userSpaceOnUse" id="color-23"><stop offset="0" stop-color="#ff8e00"/><stop offset="1" stop-color="#ff8e00" stop-opacity="0"/></radialGradient><radialGradient cx="238.92576" cy="126.43148" r="15.75956" gradientUnits="userSpaceOnUse" id="color-24"><stop offset="0" stop-color="#ff8e00"/><stop offset="1" stop-color="#ff8e00" stop-opacity="0"/></radialGradient><radialGradient cx="202.86897" cy="142.95847" r="15.75956" gradientUnits="userSpaceOnUse" id="color-25"><stop offset="0" stop-color="#ff8e00"/><stop offset="1" stop-color="#ff8e00" stop-opacity="0"/></radialGradient><radialGradient cx="273.64245" cy="135.87296" r="15.75956" gradientUnits="userSpaceOnUse" id="color-26"><stop offset="0" stop-color="#ff8e00"/><stop offset="1" stop-color="#ff8e00" stop-opacity="0"/></radialGradient><radialGradient cx="291.71205" cy="168.59045" r="15.75955" gradientUnits="userSpaceOnUse" id="color-27"><stop offset="0" stop-color="#ff8e00"/><stop offset="1" stop-color="#ff8e00" stop-opacity="0"/></radialGradient><radialGradient cx="287.67486" cy="151.48888" r="15.75956" gradientUnits="userSpaceOnUse" id="color-28"><stop offset="0" stop-color="#ff8e00"/><stop offset="1" stop-color="#ff8e00" stop-opacity="0"/></radialGradient><radialGradient cx="294.50495" cy="191.52758" r="15.75956" gradientUnits="userSpaceOnUse" id="color-29"><stop offset="0" stop-color="#ff8e00"/><stop offset="1" stop-color="#ff8e00" stop-opacity="0"/></radialGradient><radialGradient cx="271.84484" cy="221.25069" r="15.75955" gradientUnits="userSpaceOnUse" id="color-30"><stop offset="0" stop-color="#ff8e00"/><stop offset="1" stop-color="#ff8e00" stop-opacity="0"/></radialGradient><radialGradient cx="285.86889" cy="210.66351" r="15.75956" gradientUnits="userSpaceOnUse" id="color-31"><stop offset="0" stop-color="#ff8e00"/><stop offset="1" stop-color="#ff8e00" stop-opacity="0"/></radialGradient><radialGradient cx="256.20723" cy="230.82344" r="15.75956" gradientUnits="userSpaceOnUse" id="color-32"><stop offset="0" stop-color="#ff8e00"/><stop offset="1" stop-color="#ff8e00" stop-opacity="0"/></radialGradient><radialGradient cx="218.99419" cy="227.34012" r="15.75955" gradientUnits="userSpaceOnUse" id="color-33"><stop offset="0" stop-color="#ff8e00"/><stop offset="1" stop-color="#ff8e00" stop-opacity="0"/></radialGradient><radialGradient cx="235.40132" cy="233.63047" r="15.75956" gradientUnits="userSpaceOnUse" id="color-34"><stop offset="0" stop-color="#ff8e00"/><stop offset="1" stop-color="#ff8e00" stop-opacity="0"/></radialGradient><radialGradient cx="204.77409" cy="220.71072" r="15.75956" gradientUnits="userSpaceOnUse" id="color-35"><stop offset="0" stop-color="#ff8e00"/><stop offset="1" stop-color="#ff8e00" stop-opacity="0"/></radialGradient><radialGradient cx="185.69722" cy="188.57014" r="15.75956" gradientUnits="userSpaceOnUse" id="color-36"><stop offset="0" stop-color="#ff8e00"/><stop offset="1" stop-color="#ff8e00" stop-opacity="0"/></radialGradient><radialGradient cx="190.26352" cy="205.53809" r="15.75956" gradientUnits="userSpaceOnUse" id="color-37"><stop offset="0" stop-color="#ff8e00"/><stop offset="1" stop-color="#ff8e00" stop-opacity="0"/></radialGradient><radialGradient cx="186.2206" cy="160.53736" r="15.75956" gradientUnits="userSpaceOnUse" id="color-38"><stop offset="0" stop-color="#ff8e00"/><stop offset="1" stop-color="#ff8e00" stop-opacity="0"/></radialGradient></defs><g transform="translate(-54.62711,-32.37021)"><g data-paper-data="{&quot;isPaintingLayer&quot;:true}" fill-rule="nonzero" stroke="none" stroke-width="0" stroke-linecap="butt" stroke-linejoin="miter" stroke-miterlimit="10" stroke-dasharray="" stroke-dashoffset="0" style="mix-blend-mode: normal"><path d="M279.09851,185.62552c-4.18071,21.13158 -24.54878,34.90296 -45.49335,30.75925c-20.94457,-4.14371 -34.53437,-24.63338 -30.35366,-45.76496c4.18071,-21.13158 24.54878,-34.90297 45.49335,-30.75926c20.94457,4.14371 34.53438,24.63338 30.35367,45.76496z" fill="url(#color-1)"/><path d="M279.09851,185.62552c-4.18071,21.13158 -24.54878,34.90296 -45.49335,30.75925c-20.94457,-4.14371 -34.53437,-24.63338 -30.35366,-45.76496c4.18071,-21.13158 24.54878,-34.90297 45.49335,-30.75926c20.94457,4.14371 34.53438,24.63338 30.35367,45.76496z" fill="url(#color-2)"/><path d="M223.62357,154.82655l3.84588,-33.38665l15.44347,28.67249z" fill="url(#color-3)"/><path d="M243.6997,152.81528l24.6618,-22.831l-6.95382,31.81598z" fill="url(#color-4)"/><path d="M234.18205,150.21245l16.85437,-29.07558l2.7132,32.45383z" fill="url(#color-5)"/><path d="M216.40621,163.39476l-8.78569,-32.43872l24.95989,20.91927z" fill="url(#color-6)"/><path d="M255.63374,152.45972l30.96015,-13.07395l-17.36757,27.54959z" fill="url(#color-7)"/><path d="M267.26003,168.94989l32.00881,10.2418l-31.12138,9.5954z" fill="url(#color-8)"/><path d="M264.84462,159.38295l33.60536,0.37257l-26.92166,18.32584z" fill="url(#color-9)"/><path d="M272.34297,181.86822l24.4429,23.0652l-32.21266,-4.79136z" fill="url(#color-10)"/><path d="M261.93708,199.15444l3.52724,33.42181l-21.32435,-24.61471z" fill="url(#color-11)"/><path d="M269.71914,193.08815l13.2029,30.90538l-27.62175,-17.25258z" fill="url(#color-12)"/><path d="M253.01498,206.3794l-6.62295,32.94837l-12.99293,-29.86296z" fill="url(#color-13)"/><path d="M232.841,206.70563l-26.48377,20.68982l9.58874,-31.12343z" fill="url(#color-14)"/><path d="M242.10779,210.09486l-19.22559,27.56511l0.00885,-32.56705z" fill="url(#color-15)"/><path d="M223.17718,203.08073l-30.53922,14.02907l16.50368,-28.07563z" fill="url(#color-16)"/><path d="M211.04441,186.95955l-32.31141,-9.24288l30.8084,-10.5572z" fill="url(#color-17)"/><path d="M213.75575,196.44686l-33.60073,0.67118l26.33959,-19.15302z" fill="url(#color-18)"/><path d="M207.59428,172.44305l-21.75987,-25.61185l31.49093,8.30265z" fill="url(#color-19)"/><path d="M279.44688,177.93031c0,21.54117 -17.30803,39.00374 -38.65857,39.00374c-21.35054,0 -38.65857,-17.46257 -38.65857,-39.00374c0,-21.54117 17.30803,-39.00374 38.65857,-39.00374c21.35054,0 38.65857,17.46257 38.65857,39.00374z" fill="url(#color-20)"/><path d="M292.65857,180c0,29.34219 -23.57605,53.12874 -52.65857,53.12874c-29.08252,0 -52.65857,-23.78655 -52.65857,-53.12874c0,-29.34219 23.57605,-53.12874 52.65857,-53.12874c29.08252,0 52.65857,23.78655 52.65857,53.12874z" fill="url(#color-21)"/><path d="M219.0493,158.48354l-2.70692,-33.49823l20.71458,25.13004z" fill="url(#color-22)"/><path d="M238.35334,152.61414l19.76183,-27.18324l-0.64676,32.56062z" fill="url(#color-23)"/><path d="M228.51151,151.90799l10.89091,-31.79382l8.96025,31.31016z" fill="url(#color-24)"/><path d="M213.63208,168.28957l-14.91435,-30.11679l28.54531,15.67729z" fill="url(#color-25)"/><path d="M249.99146,149.94919l27.83407,-18.8341l-11.69052,30.39645z" fill="url(#color-26)"/><path d="M264.5971,163.86937l33.38792,3.8348l-28.66736,15.45299z" fill="url(#color-27)"/><path d="M260.37086,154.95313l33.03869,-6.15664l-22.85309,23.20234z" fill="url(#color-28)"/><path d="M272.09057,175.55557l28.45463,17.88276l-32.53007,1.55157z" fill="url(#color-29)"/><path d="M265.23745,194.53269l9.94667,32.10175l-25.69611,-20.00805z" fill="url(#color-30)"/><path d="M271.6942,187.0714l18.94997,27.75532l-30.44492,-11.5637z" fill="url(#color-31)"/><path d="M257.88722,203.35187l-0.1024,33.60727l-18.54167,-26.77347z" fill="url(#color-32)"/><path d="M238.16014,207.58726l-21.96472,25.43638l3.36599,-32.39263z" fill="url(#color-33)"/><path d="M247.90852,209.11355l-13.5102,30.77228l-6.31192,-31.94952z" fill="url(#color-34)"/><path d="M227.97655,205.90683l-27.23578,19.68937l10.74096,-30.74483z" fill="url(#color-35)"/><path d="M212.94569,192.44692l-33.49089,-2.79614l28.17366,-16.33575z" fill="url(#color-36)"/><path d="M217.44677,201.22762l-32.83157,7.17964l22.12155,-23.90082z" fill="url(#color-37)"/><path d="M206.7438,178.87604l-26.31686,-20.90171l32.50353,2.03302z" fill="url(#color-38)"/><path d="M54.62711,299.63747v-267.26727h375.37538v267.26727z" fill="none"/></g></g></svg>