<svg version="1.1" xmlns="http://www.w3.org/2000/svg" xmlns:xlink="http://www.w3.org/1999/xlink" width="345.34535" height="393.10194" viewBox="0,0,345.34535,393.10194"><defs><radialGradient cx="240.03057" cy="181.80932" r="19" gradientUnits="userSpaceOnUse" id="color-1"><stop offset="0" stop-color="#001f28"/><stop offset="1" stop-color="#0047b1"/></radialGradient><radialGradient cx="239.61043" cy="181.66949" r="6.75" gradientUnits="userSpaceOnUse" id="color-2"><stop offset="0" stop-color="#00807e"/><stop offset="1" stop-color="#00afd4"/></radialGradient><radialGradient cx="239.78057" cy="218.80932" r="19" gradientUnits="userSpaceOnUse" id="color-3"><stop offset="0" stop-color="#001f28"/><stop offset="1" stop-color="#0047b1"/></radialGradient><radialGradient cx="239.36043" cy="218.66949" r="6.75" gradientUnits="userSpaceOnUse" id="color-4"><stop offset="0" stop-color="#00807e"/><stop offset="1" stop-color="#00afd4"/></radialGradient><radialGradient cx="239.53057" cy="255.55931" r="19" gradientUnits="userSpaceOnUse" id="color-5"><stop offset="0" stop-color="#001f28"/><stop offset="1" stop-color="#0047b1"/></radialGradient><radialGradient cx="239.11043" cy="255.41949" r="6.75" gradientUnits="userSpaceOnUse" id="color-6"><stop offset="0" stop-color="#00807e"/><stop offset="1" stop-color="#00afd4"/></radialGradient><radialGradient cx="239.28057" cy="292.30932" r="19" gradientUnits="userSpaceOnUse" id="color-7"><stop offset="0" stop-color="#001f28"/><stop offset="1" stop-color="#0047b1"/></radialGradient><radialGradient cx="238.86043" cy="292.16949" r="6.75" gradientUnits="userSpaceOnUse" id="color-8"><stop offset="0" stop-color="#00807e"/><stop offset="1" stop-color="#00afd4"/></radialGradient><radialGradient cx="239.03057" cy="329.05932" r="19" gradientUnits="userSpaceOnUse" id="color-9"><stop offset="0" stop-color="#001f28"/><stop offset="1" stop-color="#0047b1"/></radialGradient><radialGradient cx="238.61043" cy="328.91949" r="6.75" gradientUnits="userSpaceOnUse" id="color-10"><stop offset="0" stop-color="#00807e"/><stop offset="1" stop-color="#00afd4"/></radialGradient><radialGradient cx="238.78057" cy="365.80932" r="19" gradientUnits="userSpaceOnUse" id="color-11"><stop offset="0" stop-color="#001f28"/><stop offset="1" stop-color="#0047b1"/></radialGradient><radialGradient cx="238.36043" cy="365.66949" r="6.75" gradientUnits="userSpaceOnUse" id="color-12"><stop offset="0" stop-color="#00807e"/><stop offset="1" stop-color="#00afd4"/></radialGradient><linearGradient x1="223.90833" y1="180.13571" x2="234.10833" y2="180.13571" gradientUnits="userSpaceOnUse" id="color-13"><stop offset="0" stop-color="#000000"/><stop offset="1" stop-color="#000000" stop-opacity="0"/></linearGradient><linearGradient x1="246.50833" y1="179.33571" x2="256.70833" y2="179.33571" gradientUnits="userSpaceOnUse" id="color-14"><stop offset="0" stop-color="#000000" stop-opacity="0"/><stop offset="1" stop-color="#000000"/></linearGradient></defs><g transform="translate(-9.58207,8.17033)"><g data-paper-data="{&quot;isPaintingLayer&quot;:true}" fill-rule="nonzero" stroke-linecap="butt" stroke-linejoin="miter" stroke-miterlimit="10" stroke-dasharray="" stroke-dashoffset="0" style="mix-blend-mode: normal"><g stroke="none" stroke-width="0"><path d="M221.03057,200.45197v-37.28529h38v37.28529z" data-paper-data="{&quot;index&quot;:null}" fill="url(#color-1)"/><path d="M220.86043,183.16949v-4h38v4z" fill="#00afd4"/><path d="M237.72921,162.90736l3.99992,0.025l-0.23749,37.99926l-3.99992,-0.025z" fill="#00afd4"/><path d="M232.86043,188.16949v-13h13.5v13z" fill="url(#color-2)"/></g><g stroke="none" stroke-width="0"><path d="M220.78057,237.45197v-37.28529h38v37.28529z" data-paper-data="{&quot;index&quot;:null}" fill="url(#color-3)"/><path d="M220.61043,220.16949v-4h38v4z" fill="#00afd4"/><path d="M237.47921,199.90736l3.99992,0.025l-0.23749,37.99926l-3.99992,-0.025z" fill="#00afd4"/><path d="M232.61043,225.16949v-13h13.5v13z" fill="url(#color-4)"/></g><g stroke="none" stroke-width="0"><path d="M220.53057,274.20196v-37.28529h38v37.28529z" data-paper-data="{&quot;index&quot;:null}" fill="url(#color-5)"/><path d="M220.36043,256.91949v-4h38v4z" fill="#00afd4"/><path d="M237.22921,236.65736l3.99992,0.025l-0.23749,37.99926l-3.99992,-0.025z" fill="#00afd4"/><path d="M232.36043,261.91949v-13h13.5v13z" fill="url(#color-6)"/></g><g stroke="none" stroke-width="0"><path d="M220.28057,310.95196v-37.28529h38v37.28529z" data-paper-data="{&quot;index&quot;:null}" fill="url(#color-7)"/><path d="M220.11043,293.66949v-4h38v4z" fill="#00afd4"/><path d="M236.97921,273.40736l3.99992,0.025l-0.23749,37.99926l-3.99992,-0.025z" fill="#00afd4"/><path d="M232.11043,298.66949v-13h13.5v13z" fill="url(#color-8)"/></g><g stroke="none" stroke-width="0"><path d="M220.03057,347.70197v-37.28529h38v37.28529z" data-paper-data="{&quot;index&quot;:null}" fill="url(#color-9)"/><path d="M219.86043,330.41949v-4h38v4z" fill="#00afd4"/><path d="M236.72921,310.15736l3.99992,0.025l-0.23749,37.99926l-3.99992,-0.025z" fill="#00afd4"/><path d="M231.86043,335.41949v-13h13.5v13z" fill="url(#color-10)"/></g><g stroke="none" stroke-width="0"><path d="M219.78057,384.45197v-37.28529h38v37.28529z" data-paper-data="{&quot;index&quot;:null}" fill="url(#color-11)"/><path d="M219.61043,367.16949v-4h38v4z" fill="#00afd4"/><path d="M236.47921,346.90736l3.99992,0.025l-0.23749,37.99926l-3.99992,-0.025z" fill="#00afd4"/><path d="M231.61043,372.16949v-13h13.5v13z" fill="url(#color-12)"/></g><path d="M223.90833,333.23571v-168.7h10.2v168.7z" fill="url(#color-13)" stroke="none" stroke-width="0"/><path d="M246.50833,333.83571v-171.5h10.2v171.5z" fill="url(#color-14)" stroke="none" stroke-width="0"/><path d="M141.7142,373.21105v-300.3003h187.68769v300.3003z" fill="none" stroke="none" stroke-width="NaN"/><path d="M9.58207,337.17502v-345.34535h345.34535v345.34535z" fill="none" stroke="none" stroke-width="0"/><path d="M222,334.38598v-171.27193h35.5v171.27193z" fill="none" stroke="#000000" stroke-width="3.5"/></g></g></svg>