<svg version="1.1" xmlns="http://www.w3.org/2000/svg" xmlns:xlink="http://www.w3.org/1999/xlink" width="143" height="221" viewBox="0,0,143,221"><defs><radialGradient cx="235.47035" cy="180.22146" r="45.60098" gradientUnits="userSpaceOnUse" id="color-1"><stop offset="0" stop-color="#38ff00"/><stop offset="1" stop-color="#38ff00" stop-opacity="0"/></radialGradient><radialGradient cx="238.52582" cy="244.33334" r="7.16667" gradientUnits="userSpaceOnUse" id="color-2"><stop offset="0" stop-color="#2bff00"/><stop offset="1" stop-color="#2bff00" stop-opacity="0"/></radialGradient><radialGradient cx="237.85915" cy="114.83335" r="7.16667" gradientUnits="userSpaceOnUse" id="color-3"><stop offset="0" stop-color="#38ff00"/><stop offset="1" stop-color="#38ff00" stop-opacity="0"/></radialGradient></defs><g transform="translate(-183.6875,-64)"><g data-paper-data="{&quot;isPaintingLayer&quot;:true}" fill-rule="nonzero" stroke-linecap="butt" stroke-linejoin="miter" stroke-miterlimit="10" stroke-dasharray="" stroke-dashoffset="0" style="mix-blend-mode: normal"><path d="M236,138.1239v-7.04576h10.33333v7.04576z" data-paper-data="{&quot;index&quot;:null}" fill="#000000" stroke="#ffea00" stroke-width="0"/><path d="M227.66667,149.33306v-7.04575h10.33333v7.04575z" data-paper-data="{&quot;index&quot;:null}" fill="#000000" stroke="#ffea00" stroke-width="0"/><path d="M222,162.78404v-7.04575h10.33334v7.04575z" data-paper-data="{&quot;index&quot;:null}" fill="#000000" stroke="#ffea00" stroke-width="0"/><path d="M220.33333,177.83635v-7.04575h10.33334v7.04575z" data-paper-data="{&quot;index&quot;:null}" fill="#000000" stroke="#ffea00" stroke-width="0"/><path d="M246.66667,222.0324v7.04575h-10.33334v-7.04575z" data-paper-data="{&quot;index&quot;:null}" fill="#000000" stroke="#ffea00" stroke-width="0"/><path d="M238.33333,210.82327v7.04575h-10.33334v-7.04575z" data-paper-data="{&quot;index&quot;:null}" fill="#000000" stroke="#ffea00" stroke-width="0"/><path d="M232.66667,197.37228v7.04576h-10.33334v-7.04576z" data-paper-data="{&quot;index&quot;:null}" fill="#000000" stroke="#ffea00" stroke-width="0"/><path d="M231,182.31998v7.04575h-10.33333v-7.04575z" data-paper-data="{&quot;index&quot;:null}" fill="#000000" stroke="#ffea00" stroke-width="0"/><path d="M237.33333,138.45725v-7.04575h10.33333v7.04575z" fill="#000000" stroke="#ffea00" stroke-width="0"/><path d="M245.66666,149.66641v-7.04576h10.33334v7.04576z" fill="#000000" stroke="#ffea00" stroke-width="0"/><path d="M251.33333,163.11737v-7.04575h10.33334v7.04575z" fill="#000000" stroke="#ffea00" stroke-width="0"/><path d="M253,178.16965v-7.04576h10.33334v7.04576z" fill="#000000" stroke="#ffea00" stroke-width="0"/><path d="M247.33333,222.36575v7.04575h-10.33334v-7.04575z" data-paper-data="{&quot;index&quot;:null}" fill="#000000" stroke="#ffea00" stroke-width="0"/><path d="M255.66667,211.15659v7.04576h-10.33333v-7.04576z" data-paper-data="{&quot;index&quot;:null}" fill="#000000" stroke="#ffea00" stroke-width="0"/><path d="M261.33333,197.70563v7.04576h-10.33334v-7.04576z" data-paper-data="{&quot;index&quot;:null}" fill="#000000" stroke="#ffea00" stroke-width="0"/><path d="M263,182.65333v7.04576h-10.33334v-7.04576z" data-paper-data="{&quot;index&quot;:null}" fill="#000000" stroke="#ffea00" stroke-width="0"/><path d="M249.90981,180.22146c0,25.18473 -6.46477,45.60099 -14.43946,45.60099c-7.97469,0 -14.43946,-20.41626 -14.43946,-45.60098c0,-25.18473 6.46477,-45.60098 14.43946,-45.60098c7.97469,0 14.43946,20.41625 14.43946,45.60098z" fill="url(#color-1)" stroke="#2bff00" stroke-width="6.5"/><path d="M252.65477,180.26671c0,27.16036 -8.16815,49.17816 -18.24405,49.17816c-10.0759,0 -18.24405,-22.0178 -18.24405,-49.17816c0,-27.16035 8.16814,-49.17817 18.24405,-49.17817c10.0759,0 18.24405,22.01782 18.24405,49.17817z" fill="none" stroke="#ffffff" stroke-width="3.5"/><path d="M244.88498,244.33334c0,3.95804 -2.84709,7.16667 -6.35915,7.16667c-3.51206,0 -6.35915,-3.20863 -6.35915,-7.16667c0,-3.95804 2.84709,-7.16667 6.35915,-7.16667c3.51206,0 6.35915,3.20863 6.35915,7.16667z" fill="url(#color-2)" stroke="#38ff00" stroke-width="2"/><path d="M244.21831,114.83335c0,3.95804 -2.84709,7.16667 -6.35915,7.16667c-3.51207,0 -6.35915,-3.20862 -6.35915,-7.16667c0,-3.95804 2.84709,-7.16667 6.35915,-7.16667c3.51207,0 6.35915,3.20863 6.35915,7.16667z" fill="url(#color-3)" stroke="#38ff00" stroke-width="2"/><path d="M183.6875,285v-221h143v221z" fill="none" stroke="none" stroke-width="0"/></g></g></svg>