<svg version="1.1" xmlns="http://www.w3.org/2000/svg" xmlns:xlink="http://www.w3.org/1999/xlink" width="430.93093" height="385.09443" viewBox="0,0,430.93093,385.09443"><defs><radialGradient cx="240.53057" cy="181.30932" r="19" gradientUnits="userSpaceOnUse" id="color-1"><stop offset="0" stop-color="#001f28"/><stop offset="1" stop-color="#0047b1"/></radialGradient><radialGradient cx="240.11043" cy="181.16949" r="6.75" gradientUnits="userSpaceOnUse" id="color-2"><stop offset="0" stop-color="#00807e"/><stop offset="1" stop-color="#00afd4"/></radialGradient><radialGradient cx="240.28057" cy="218.30932" r="19" gradientUnits="userSpaceOnUse" id="color-3"><stop offset="0" stop-color="#001f28"/><stop offset="1" stop-color="#0047b1"/></radialGradient><radialGradient cx="239.86043" cy="218.16949" r="6.75" gradientUnits="userSpaceOnUse" id="color-4"><stop offset="0" stop-color="#00807e"/><stop offset="1" stop-color="#00afd4"/></radialGradient><radialGradient cx="240.03057" cy="255.05931" r="19" gradientUnits="userSpaceOnUse" id="color-5"><stop offset="0" stop-color="#001f28"/><stop offset="1" stop-color="#0047b1"/></radialGradient><radialGradient cx="239.61043" cy="254.91949" r="6.75" gradientUnits="userSpaceOnUse" id="color-6"><stop offset="0" stop-color="#00807e"/><stop offset="1" stop-color="#00afd4"/></radialGradient><radialGradient cx="239.78057" cy="291.80932" r="19" gradientUnits="userSpaceOnUse" id="color-7"><stop offset="0" stop-color="#001f28"/><stop offset="1" stop-color="#0047b1"/></radialGradient><radialGradient cx="239.36043" cy="291.66949" r="6.75" gradientUnits="userSpaceOnUse" id="color-8"><stop offset="0" stop-color="#00807e"/><stop offset="1" stop-color="#00afd4"/></radialGradient><radialGradient cx="239.53057" cy="328.55932" r="19" gradientUnits="userSpaceOnUse" id="color-9"><stop offset="0" stop-color="#001f28"/><stop offset="1" stop-color="#0047b1"/></radialGradient><radialGradient cx="239.11043" cy="328.41949" r="6.75" gradientUnits="userSpaceOnUse" id="color-10"><stop offset="0" stop-color="#00807e"/><stop offset="1" stop-color="#00afd4"/></radialGradient><radialGradient cx="239.28057" cy="365.30932" r="19" gradientUnits="userSpaceOnUse" id="color-11"><stop offset="0" stop-color="#001f28"/><stop offset="1" stop-color="#0047b1"/></radialGradient><radialGradient cx="238.86043" cy="365.16949" r="6.75" gradientUnits="userSpaceOnUse" id="color-12"><stop offset="0" stop-color="#00807e"/><stop offset="1" stop-color="#00afd4"/></radialGradient></defs><g transform="translate(-20.09258,0.66282)"><g data-paper-data="{&quot;isPaintingLayer&quot;:true}" fill-rule="nonzero" stroke-linejoin="miter" stroke-miterlimit="10" stroke-dasharray="" stroke-dashoffset="0" style="mix-blend-mode: normal"><path d="M221,362.65477v-200.98811h38v200.98811z" fill="#0047b1" stroke="none" stroke-width="0" stroke-linecap="butt"/><path d="M20.09258,380.71856v-381.38138h430.93093v381.38138z" fill="none" stroke="none" stroke-width="0" stroke-linecap="butt"/><g stroke="none" stroke-width="0" stroke-linecap="butt"><path d="M221.53057,199.95197v-37.28529h38v37.28529z" data-paper-data="{&quot;index&quot;:null}" fill="url(#color-1)"/><path d="M221.36043,182.66949v-4h38v4z" fill="#00afd4"/><path d="M238.22921,162.40736l3.99992,0.025l-0.23749,37.99926l-3.99992,-0.025z" fill="#00afd4"/><path d="M233.36043,187.66949v-13h13.5v13z" fill="url(#color-2)"/></g><g stroke="none" stroke-width="0" stroke-linecap="butt"><path d="M221.28057,236.95197v-37.28529h38v37.28529z" data-paper-data="{&quot;index&quot;:null}" fill="url(#color-3)"/><path d="M221.11043,219.66949v-4h38v4z" fill="#00afd4"/><path d="M237.97921,199.40736l3.99992,0.025l-0.23749,37.99926l-3.99992,-0.025z" fill="#00afd4"/><path d="M233.11043,224.66949v-13h13.5v13z" fill="url(#color-4)"/></g><g stroke="none" stroke-width="0" stroke-linecap="butt"><path d="M221.03057,273.70196v-37.28529h38v37.28529z" data-paper-data="{&quot;index&quot;:null}" fill="url(#color-5)"/><path d="M220.86043,256.41949v-4h38v4z" fill="#00afd4"/><path d="M237.72921,236.15736l3.99992,0.025l-0.23749,37.99926l-3.99992,-0.025z" fill="#00afd4"/><path d="M232.86043,261.41949v-13h13.5v13z" fill="url(#color-6)"/></g><g stroke="none" stroke-width="0" stroke-linecap="butt"><path d="M220.78057,310.45196v-37.28529h38v37.28529z" data-paper-data="{&quot;index&quot;:null}" fill="url(#color-7)"/><path d="M220.61043,293.16949v-4h38v4z" fill="#00afd4"/><path d="M237.47921,272.90736l3.99992,0.025l-0.23749,37.99926l-3.99992,-0.025z" fill="#00afd4"/><path d="M232.61043,298.16949v-13h13.5v13z" fill="url(#color-8)"/></g><g stroke="none" stroke-width="0" stroke-linecap="butt"><path d="M220.53057,347.20197v-37.28529h38v37.28529z" data-paper-data="{&quot;index&quot;:null}" fill="url(#color-9)"/><path d="M220.36043,329.91949v-4h38v4z" fill="#00afd4"/><path d="M237.22921,309.65736l3.99992,0.025l-0.23749,37.99926l-3.99992,-0.025z" fill="#00afd4"/><path d="M232.36043,334.91949v-13h13.5v13z" fill="url(#color-10)"/></g><g stroke="none" stroke-width="0" stroke-linecap="butt"><path d="M220.28057,383.95197v-37.28529h38v37.28529z" data-paper-data="{&quot;index&quot;:null}" fill="url(#color-11)"/><path d="M220.11043,366.66949v-4h38v4z" fill="#00afd4"/><path d="M236.97921,346.40736l3.99992,0.025l-0.23749,37.99926l-3.99992,-0.025z" fill="#00afd4"/><path d="M232.11043,371.66949v-13h13.5v13z" fill="url(#color-12)"/></g><path d="M259.18055,161.40951h-38" fill="none" stroke="#000000" stroke-width="3.5" stroke-linecap="round"/></g></g></svg>