<svg version="1.1" xmlns="http://www.w3.org/2000/svg" xmlns:xlink="http://www.w3.org/1999/xlink" width="346.84685" height="253.75375" viewBox="0,0,346.84685,253.75375"><defs><linearGradient x1="224.27817" y1="224.09942" x2="234.35557" y2="224.09942" gradientUnits="userSpaceOnUse" id="color-1"><stop offset="0" stop-color="#000000"/><stop offset="1" stop-color="#000000" stop-opacity="0"/></linearGradient><linearGradient x1="246.6065" y1="223.40347" x2="256.68389" y2="223.40347" gradientUnits="userSpaceOnUse" id="color-2"><stop offset="0" stop-color="#000000" stop-opacity="0"/><stop offset="1" stop-color="#000000"/></linearGradient></defs><g transform="translate(-12.58507,-51.88973)"><g data-paper-data="{&quot;isPaintingLayer&quot;:true}" fill-rule="nonzero" stroke-linejoin="miter" stroke-miterlimit="10" stroke-dasharray="" stroke-dashoffset="0" style="mix-blend-mode: normal"><path d="M12.58507,305.64348v-253.75375h346.84685v253.75375z" fill="none" stroke="none" stroke-width="0" stroke-linecap="butt"/><path d="M222.88677,286.03066v-124.36191h34.57928v124.36191z" fill="#ff8600" stroke="#000000" stroke-width="3.5" stroke-linecap="butt"/><path d="M224.27817,285.79484v-123.39096h10.0774v123.39096z" fill="url(#color-1)" stroke="none" stroke-width="0" stroke-linecap="butt"/><path d="M246.6065,286.00437v-125.20176h10.0774v125.20176z" fill="url(#color-2)" stroke="none" stroke-width="0" stroke-linecap="butt"/><path d="M235.77083,161.83928l-2,17.5l-6.5,8" fill="none" stroke="#000000" stroke-width="2.5" stroke-linecap="round"/><path d="M234.27083,178.83928l4,7.5" fill="none" stroke="#000000" stroke-width="2.5" stroke-linecap="round"/><path d="M257.77083,191.33928l-17.5,14l-9,-4.5" fill="none" stroke="#000000" stroke-width="2.5" stroke-linecap="round"/><path d="M243.27083,203.33928l-1,9.5" fill="none" stroke="#000000" stroke-width="2.5" stroke-linecap="round"/><path d="M225.77083,226.83928l20,13.5l-4.5,10.5" fill="none" stroke="#000000" stroke-width="2.5" stroke-linecap="round"/><path d="M251.27083,248.33928l-5,-9" fill="none" stroke="#000000" stroke-width="2.5" stroke-linecap="round"/><path d="M238.27083,272.33928l8.5,-4.5l10,6.5" fill="none" stroke="#000000" stroke-width="2.5" stroke-linecap="round"/><path d="M243.77083,261.33928l3.5,6.5" fill="none" stroke="#000000" stroke-width="2.5" stroke-linecap="round"/></g></g></svg>