<svg version="1.1" xmlns="http://www.w3.org/2000/svg" xmlns:xlink="http://www.w3.org/1999/xlink" width="310.04354" height="327.751" viewBox="0,0,310.04354,327.751"><defs><linearGradient x1="240.82637" y1="47.78525" x2="240.82637" y2="332.03004" gradientUnits="userSpaceOnUse" id="color-1"><stop offset="0" stop-color="#bababa"/><stop offset="1" stop-color="#896060"/></linearGradient><linearGradient x1="240.29242" y1="266.41907" x2="240.29242" y2="331.65558" gradientUnits="userSpaceOnUse" id="color-2"><stop offset="0" stop-color="#b04d4d"/><stop offset="1" stop-color="#7b7b7b"/></linearGradient><radialGradient cx="112.14928" cy="288.46806" r="13.46959" gradientUnits="userSpaceOnUse" id="color-3"><stop offset="0" stop-color="#844f4f"/><stop offset="1" stop-color="#8a8a8a"/></radialGradient><radialGradient cx="163.40654" cy="289.633" r="13.46959" gradientUnits="userSpaceOnUse" id="color-4"><stop offset="0" stop-color="#844f4f"/><stop offset="1" stop-color="#8a8a8a"/></radialGradient><radialGradient cx="210.00405" cy="290.79794" r="13.46959" gradientUnits="userSpaceOnUse" id="color-5"><stop offset="0" stop-color="#844f4f"/><stop offset="1" stop-color="#8a8a8a"/></radialGradient><radialGradient cx="254.27168" cy="289.633" r="13.46959" gradientUnits="userSpaceOnUse" id="color-6"><stop offset="0" stop-color="#844f4f"/><stop offset="1" stop-color="#8a8a8a"/></radialGradient><radialGradient cx="307.8588" cy="289.633" r="13.46959" gradientUnits="userSpaceOnUse" id="color-7"><stop offset="0" stop-color="#844f4f"/><stop offset="1" stop-color="#8a8a8a"/></radialGradient><radialGradient cx="355.62125" cy="289.633" r="13.46959" gradientUnits="userSpaceOnUse" id="color-8"><stop offset="0" stop-color="#844f4f"/><stop offset="1" stop-color="#8a8a8a"/></radialGradient><linearGradient x1="240.90098" y1="9.18237" x2="240.90098" y2="117.63002" gradientUnits="userSpaceOnUse" id="color-9"><stop offset="0" stop-color="#b4d400"/><stop offset="1" stop-color="#738103"/></linearGradient><radialGradient cx="156.41692" cy="168.77072" r="31.4848" gradientUnits="userSpaceOnUse" id="color-10"><stop offset="0" stop-color="#00ffda"/><stop offset="1" stop-color="#05cac9"/></radialGradient><radialGradient cx="307.65051" cy="170.03034" r="31.4848" gradientUnits="userSpaceOnUse" id="color-11"><stop offset="0" stop-color="#00ffda"/><stop offset="1" stop-color="#05cac9"/></radialGradient><linearGradient x1="238.54501" y1="214.00913" x2="238.54501" y2="228.95917" gradientUnits="userSpaceOnUse" id="color-12"><stop offset="0" stop-color="#ff0000"/><stop offset="1" stop-color="#650000"/></linearGradient></defs><g transform="translate(-85.27065,-5.52904)"><g data-paper-data="{&quot;isPaintingLayer&quot;:true}" fill-rule="nonzero" stroke="#000000" stroke-width="2.5" stroke-linejoin="miter" stroke-miterlimit="10" stroke-dasharray="" stroke-dashoffset="0" style="mix-blend-mode: normal"><path d="M87.63706,332.03004v-284.24479h306.3786v284.24479z" fill="url(#color-1)" stroke-linecap="butt"/><path d="M86.52066,331.65558v-65.23651h307.54354v65.23651z" fill="url(#color-2)" stroke-linecap="butt"/><path d="M122.63372,286.73267c0,7.43905 -5.21561,13.46959 -11.64938,13.46959c-6.43378,0 -11.64938,-6.03054 -11.64938,-13.46959c0,-7.43905 5.2156,-13.46959 11.64938,-13.46959c6.43376,0 11.64938,6.03055 11.64938,13.46959z" fill="url(#color-3)" stroke-linecap="butt"/><path d="M173.89098,287.8976c0,7.43905 -5.21562,13.46959 -11.64938,13.46959c-6.43376,0 -11.64938,-6.03055 -11.64938,-13.46959c0,-7.43905 5.21561,-13.46959 11.64938,-13.46959c6.43376,0 11.64938,6.03054 11.64938,13.46959z" fill="url(#color-4)" stroke-linecap="butt"/><path d="M220.48849,285.56773c0,7.43905 -5.21561,13.46959 -11.64938,13.46959c-6.43376,0 -11.64938,-6.03055 -11.64938,-13.46959c0,-7.43906 5.21562,-13.46959 11.64938,-13.46959c6.43376,0 11.64938,6.03053 11.64938,13.46959z" fill="url(#color-5)" stroke-linecap="butt"/><path d="M268.25093,285.56773c0,7.43905 -5.2156,13.46959 -11.64938,13.46959c-6.43376,0 -11.64938,-6.03055 -11.64938,-13.46959c0,-7.43906 5.21561,-13.46959 11.64938,-13.46959c6.43378,0 11.64938,6.03053 11.64938,13.46959z" fill="url(#color-6)" stroke-linecap="butt"/><path d="M319.50818,284.40279c0,7.43905 -5.2156,13.46959 -11.64938,13.46959c-6.43378,0 -11.64938,-6.03054 -11.64938,-13.46959c0,-7.43906 5.2156,-13.46959 11.64938,-13.46959c6.43378,0 11.64938,6.03054 11.64938,13.46959z" fill="url(#color-7)" stroke-linecap="butt"/><path d="M366.10569,287.8976c0,7.43905 -5.2156,13.46959 -11.64938,13.46959c-6.43378,0 -11.64938,-6.03055 -11.64938,-13.46959c0,-7.43905 5.2156,-13.46959 11.64938,-13.46959c6.43378,0 11.64938,6.03054 11.64938,13.46959z" fill="url(#color-8)" stroke-linecap="butt"/><path d="M87.84811,117.63002v-108.44765l47.23821,52.49262l53.36279,-33.10153l53.31657,48.21265l53.93918,-43.02666l54.81543,31.46333l43.43355,-56.04041v108.44765z" fill="url(#color-9)" stroke-linecap="butt"/><path d="M188.71842,162.81421c0,12.07539 -14.09623,21.86445 -31.48481,21.86445c-17.38857,0 -31.4848,-9.78904 -31.4848,-21.86445c0,-12.07539 34.98311,-7.8712 34.98311,-7.8712c0,0 27.98648,-4.2042 27.98648,7.8712z" fill="url(#color-10)" stroke-linecap="butt"/><path d="M304.1522,155.51672c0,0 34.98311,-4.2042 34.98311,7.8712c0,12.07539 -14.09622,21.86444 -31.4848,21.86444c-17.38858,0 -31.48481,-9.78904 -31.48481,-21.86444c0,-12.07539 27.98649,-7.8712 27.98649,-7.8712z" data-paper-data="{&quot;index&quot;:null}" fill="url(#color-11)" stroke-linecap="butt"/><path d="M241.45736,214.00914c15.38377,0 65.23651,14.95003 65.23651,14.95003h-136.29771c0,0 55.67743,-14.95003 71.0612,-14.95003z" fill="url(#color-12)" stroke-linecap="round"/><path d="M129.62335,212.74711l-22.13382,12.81432l-18.639,-9.3195" fill="none" stroke-linecap="round"/><path d="M117.97397,220.90168l5.82469,24.46369" fill="none" stroke-linecap="round"/><path d="M302.03412,62.47016l9.3195,11.64938l-40.77282,41.93776" fill="none" stroke-linecap="round"/><path d="M309.02374,69.45978l33.7832,-1.16493l22.13382,23.29875" fill="none" stroke-linecap="round"/><path d="M364.94076,104.40791l-19.80394,-8.15457l-18.63901,-24.46369" fill="none" stroke-linecap="round"/><path d="M281.06523,291.96288l27.95851,15.14419l33.7832,-4.65975l50.09232,26.79357" fill="none" stroke-linecap="round"/><path d="M264.75611,155.66517l-15.14419,17.47407l-13.97925,-15.14419" fill="none" stroke-linecap="round"/><path d="M268.25093,176.63405l-8.15457,-9.3195" fill="none" stroke-linecap="round"/><path d="M144.76754,57.81041l23.29876,30.28838l-13.97925,19.80394" fill="none" stroke-linecap="round"/><path d="M162.2416,103.24298l12.81432,11.64938" fill="none" stroke-linecap="round"/><path d="M394.0642,253.51993l-22.13382,-10.48444l-25.62863,-25.62863l18.63901,-15.14419" fill="none" stroke-linecap="round"/><path d="M360.28101,236.04587l-27.95851,8.15457" fill="none" stroke-linecap="round"/><path d="M90.01547,106.73779l54.75207,34.94813l24.46369,34.94813l24.4637,10.48444" fill="none" stroke-linecap="round"/><path d="M121.46879,151.00542l-1.16494,-22.13382" fill="none" stroke-linecap="round"/><path d="M141.27272,134.69629l46.59751,18.639l31.45332,38.44295" fill="none" stroke-linecap="round"/><path d="M169.23123,176.63405l5.82469,29.12344" fill="none" stroke-linecap="round"/><path d="M205.3443,133.53135l-11.64938,9.31951l-23.29876,5.82469" fill="none" stroke-linecap="round"/><path d="M220.48848,163.81973l-24.46369,1.16494" fill="none" stroke-linecap="round"/><path d="M201.84948,291.96288l9.31951,16.30913l-11.64938,18.639" fill="none" stroke-linecap="round"/><path d="M232.13786,50.82078l8.15457,9.3195l3.49481,12.81432" fill="none" stroke-linecap="round"/><path d="M258.93143,61.30522l-17.47407,-3.49481" fill="none" stroke-linecap="round"/></g></g></svg>