<svg version="1.1" xmlns="http://www.w3.org/2000/svg" xmlns:xlink="http://www.w3.org/1999/xlink" width="143" height="221" viewBox="0,0,143,221"><defs><linearGradient x1="239.44953" y1="164.73048" x2="239.44953" y2="198.63048" gradientUnits="userSpaceOnUse" id="color-1"><stop offset="0" stop-color="#b1b1b1"/><stop offset="1" stop-color="#585858"/></linearGradient><linearGradient x1="240.17361" y1="182.47559" x2="240.17361" y2="199.47559" gradientUnits="userSpaceOnUse" id="color-2"><stop offset="0" stop-color="#00ff08"/><stop offset="1" stop-color="#01c100"/></linearGradient></defs><g transform="translate(-183.6875,-64)"><g data-paper-data="{&quot;isPaintingLayer&quot;:true}" fill-rule="nonzero" stroke-linecap="butt" stroke-linejoin="miter" stroke-miterlimit="10" stroke-dasharray="" stroke-dashoffset="0" style="mix-blend-mode: normal"><path d="M183.6875,285v-221h143v221z" fill="none" stroke="none" stroke-width="0"/><path d="M222.97731,198.46381l6.69902,-9.26252l5.04967,3.95049l2.72705,-6.1713l5.33302,7.12759l5.90122,-5.68473l8.40113,10.04047z" fill="url(#color-1)" stroke="#565656" stroke-width="2"/><path d="M221.42361,199.47559l0.5,-2.66666l7.33334,-14.33334c0,0 -2.38051,11.98059 -0.03983,13.08444c1.3084,0.61703 5.22061,-9.77337 5.22061,-9.77337c0,0 0.82703,7.11919 3.48987,8.3689c0.36527,0.17143 2.7829,-1.27036 3.1294,-3.79873c0.41418,-3.02221 -1.27327,-7.23958 -1.27327,-7.23958c0,0 5.31684,7.46263 6.43548,10.3542c0.44193,1.14235 4.61657,2.46166 5.6361,-0.35392c0.92887,-2.56519 -1.27101,-9.24234 -1.27101,-9.24234l7.33932,12.93374l1,2.66666z" fill="url(#color-2)" stroke="#565656" stroke-width="0"/></g></g></svg>