<svg version="1.1" xmlns="http://www.w3.org/2000/svg" xmlns:xlink="http://www.w3.org/1999/xlink" width="266.5" height="282.04063" viewBox="0,0,266.5,282.04063"><defs><linearGradient x1="240" y1="58" x2="240" y2="302" gradientUnits="userSpaceOnUse" id="color-1"><stop offset="0" stop-color="#bababa"/><stop offset="1" stop-color="#896060"/></linearGradient><linearGradient x1="239.54166" y1="245.67856" x2="239.54166" y2="301.67856" gradientUnits="userSpaceOnUse" id="color-2"><stop offset="0" stop-color="#b08c4e"/><stop offset="1" stop-color="#7b7b7b"/></linearGradient><radialGradient cx="129.54166" cy="264.60575" r="11.5625" gradientUnits="userSpaceOnUse" id="color-3"><stop offset="0" stop-color="#844f4f"/><stop offset="1" stop-color="#8a8a8a"/></radialGradient><radialGradient cx="173.54166" cy="265.60575" r="11.5625" gradientUnits="userSpaceOnUse" id="color-4"><stop offset="0" stop-color="#844f4f"/><stop offset="1" stop-color="#8a8a8a"/></radialGradient><radialGradient cx="213.54166" cy="266.60575" r="11.5625" gradientUnits="userSpaceOnUse" id="color-5"><stop offset="0" stop-color="#844f4f"/><stop offset="1" stop-color="#8a8a8a"/></radialGradient><radialGradient cx="251.54166" cy="265.60575" r="11.5625" gradientUnits="userSpaceOnUse" id="color-6"><stop offset="0" stop-color="#844f4f"/><stop offset="1" stop-color="#8a8a8a"/></radialGradient><radialGradient cx="297.54166" cy="265.60575" r="11.5625" gradientUnits="userSpaceOnUse" id="color-7"><stop offset="0" stop-color="#844f4f"/><stop offset="1" stop-color="#8a8a8a"/></radialGradient><radialGradient cx="338.54166" cy="265.60575" r="11.5625" gradientUnits="userSpaceOnUse" id="color-8"><stop offset="0" stop-color="#844f4f"/><stop offset="1" stop-color="#8a8a8a"/></radialGradient><linearGradient x1="240.06405" y1="24.86271" x2="240.06405" y2="117.9558" gradientUnits="userSpaceOnUse" id="color-9"><stop offset="0" stop-color="#b4d400"/><stop offset="1" stop-color="#738103"/></linearGradient><radialGradient cx="167.54166" cy="161.85575" r="27.02703" gradientUnits="userSpaceOnUse" id="color-10"><stop offset="0" stop-color="#00ffda"/><stop offset="1" stop-color="#05cac9"/></radialGradient><radialGradient cx="297.36285" cy="162.93703" r="27.02703" gradientUnits="userSpaceOnUse" id="color-11"><stop offset="0" stop-color="#00ffda"/><stop offset="1" stop-color="#05cac9"/></radialGradient><linearGradient x1="238.04166" y1="200.68908" x2="238.04166" y2="213.52242" gradientUnits="userSpaceOnUse" id="color-12"><stop offset="0" stop-color="#ff0000"/><stop offset="1" stop-color="#650000"/></linearGradient></defs><g transform="translate(-106.29165,-21.20937)"><g data-paper-data="{&quot;isPaintingLayer&quot;:true}" fill-rule="nonzero" stroke="#000000" stroke-width="2.5" stroke-linejoin="miter" stroke-miterlimit="10" stroke-dasharray="" stroke-dashoffset="0" style="mix-blend-mode: normal"><path d="M108.5,302v-244h263v244z" fill="url(#color-1)" stroke-linecap="butt"/><path d="M107.54166,301.67856v-56h264v56z" fill="url(#color-2)" stroke-linecap="butt"/><path d="M138.54166,263.11606c0,6.38579 -4.47716,11.5625 -10,11.5625c-5.52285,0 -10,-5.17671 -10,-11.5625c0,-6.38579 4.47715,-11.5625 10,-11.5625c5.52284,0 10,5.17671 10,11.5625z" fill="url(#color-3)" stroke-linecap="butt"/><path d="M182.54166,264.11606c0,6.38579 -4.47716,11.5625 -10,11.5625c-5.52284,0 -10,-5.17671 -10,-11.5625c0,-6.38579 4.47716,-11.5625 10,-11.5625c5.52284,0 10,5.17671 10,11.5625z" fill="url(#color-4)" stroke-linecap="butt"/><path d="M222.54166,262.11606c0,6.38579 -4.47716,11.5625 -10,11.5625c-5.52284,0 -10,-5.17671 -10,-11.5625c0,-6.3858 4.47716,-11.5625 10,-11.5625c5.52284,0 10,5.1767 10,11.5625z" fill="url(#color-5)" stroke-linecap="butt"/><path d="M263.54166,262.11606c0,6.38579 -4.47715,11.5625 -10,11.5625c-5.52284,0 -10,-5.17671 -10,-11.5625c0,-6.3858 4.47716,-11.5625 10,-11.5625c5.52285,0 10,5.1767 10,11.5625z" fill="url(#color-6)" stroke-linecap="butt"/><path d="M307.54166,261.11606c0,6.38579 -4.47715,11.5625 -10,11.5625c-5.52285,0 -10,-5.17671 -10,-11.5625c0,-6.3858 4.47715,-11.5625 10,-11.5625c5.52285,0 10,5.1767 10,11.5625z" fill="url(#color-7)" stroke-linecap="butt"/><path d="M347.54166,264.11606c0,6.38579 -4.47715,11.5625 -10,11.5625c-5.52285,0 -10,-5.17671 -10,-11.5625c0,-6.38579 4.47715,-11.5625 10,-11.5625c5.52285,0 10,5.17671 10,11.5625z" fill="url(#color-8)" stroke-linecap="butt"/><path d="M108.68117,117.9558v-93.09309l40.54999,45.06045l45.80742,-28.41485l45.76775,41.38646l46.3022,-36.93473l47.05439,27.0086l37.28401,-48.10593v93.09309z" fill="url(#color-9)" stroke-linecap="butt"/><path d="M195.26976,156.74259c0,10.3657 -12.10041,18.76877 -27.02703,18.76877c-14.92661,0 -27.02703,-8.40306 -27.02703,-18.76877c0,-10.3657 30.03003,-6.75676 30.03003,-6.75676c0,0 24.02402,-3.60895 24.02402,6.75676z" fill="url(#color-10)" stroke-linecap="butt"/><path d="M294.35985,150.47832c0,0 30.03003,-3.60895 30.03003,6.75676c0,10.3657 -12.10041,18.76877 -27.02703,18.76877c-14.92662,0 -27.02703,-8.40306 -27.02703,-18.76877c0,-10.3657 24.02402,-6.75676 24.02402,-6.75676z" data-paper-data="{&quot;index&quot;:null}" fill="url(#color-11)" stroke-linecap="butt"/><path d="M179.54166,213.52242h117c0,0 -42.79434,-12.83333 -56,-12.83333c-13.20566,0 -61,12.83333 -61,12.83333z" fill="url(#color-12)" stroke-linecap="round"/><path d="M109.54166,202.60575l16,8l19,-11" fill="none" stroke-linecap="round"/><path d="M134.54166,206.60575l5,21" fill="none" stroke-linecap="round"/><path d="M265.54166,116.60575l35,-36l-8,-10" fill="none" stroke-linecap="round"/><path d="M298.54166,76.60575l29,-1l19,20" fill="none" stroke-linecap="round"/><path d="M313.54166,78.60575l16,21l17,7" fill="none" stroke-linecap="round"/><path d="M370.54166,299.60575l-43,-23l-29,4l-24,-13" fill="none" stroke-linecap="round"/><path d="M235.54166,152.60575l12,13l13,-15" fill="none" stroke-linecap="round"/><path d="M256.54166,160.60575l7,8" fill="none" stroke-linecap="round"/><path d="M157.54166,66.60575l20,26l-12,17" fill="none" stroke-linecap="round"/><path d="M172.54166,105.60575l11,10" fill="none" stroke-linecap="round"/><path d="M346.54166,190.60575l-16,13l22,22l19,9" fill="none" stroke-linecap="round"/><path d="M342.54166,219.60575l-24,7" fill="none" stroke-linecap="round"/><path d="M110.54166,108.60575l47,30l21,30l21,9" fill="none" stroke-linecap="round"/><path d="M136.54166,127.60575l1,19" fill="none" stroke-linecap="round"/><path d="M154.54166,132.60575l40,16l27,33" fill="none" stroke-linecap="round"/><path d="M178.54166,168.60575l5,25" fill="none" stroke-linecap="round"/><path d="M179.54166,144.60575l20,-5l10,-8" fill="none" stroke-linecap="round"/><path d="M201.54166,158.60575l21,-1" fill="none" stroke-linecap="round"/><path d="M204.54166,297.60575l10,-16l-8,-14" fill="none" stroke-linecap="round"/><path d="M232.54166,60.60575l7,8l3,11" fill="none" stroke-linecap="round"/><path d="M240.54166,66.60575l15,3" fill="none" stroke-linecap="round"/></g></g></svg>