<svg version="1.1" xmlns="http://www.w3.org/2000/svg" xmlns:xlink="http://www.w3.org/1999/xlink" width="143" height="221" viewBox="0,0,143,221"><g transform="translate(-183.6875,-64)"><g data-paper-data="{&quot;isPaintingLayer&quot;:true}" fill-rule="nonzero" stroke-linecap="butt" stroke-linejoin="miter" stroke-miterlimit="10" stroke-dasharray="" stroke-dashoffset="0" style="mix-blend-mode: normal"><path d="M255.47049,180c0,8.877 -6.92638,16.07324 -15.47049,16.07324c-8.54412,0 -15.47049,-7.19623 -15.47049,-16.07324c0,-8.877 6.92638,-16.07324 15.47049,-16.07324c8.54412,0 15.47049,7.19623 15.47049,16.07324z" fill="none" stroke="#ffffff" stroke-width="2.5"/><path d="M249.77789,180c0,5.57821 -4.37771,10.10024 -9.77789,10.10024c-5.40018,0 -9.77789,-4.52203 -9.77789,-10.10024c0,-5.57821 4.37771,-10.10024 9.77789,-10.10024c5.40018,0 9.77789,4.52203 9.77789,10.10024z" fill="#000000" stroke="none" stroke-width="0"/><path d="M183.6875,285v-221h143v221z" fill="none" stroke="none" stroke-width="0"/></g></g></svg>