<svg version="1.1" xmlns="http://www.w3.org/2000/svg" xmlns:xlink="http://www.w3.org/1999/xlink" width="395.06762" height="255.25375" viewBox="0,0,395.06762,255.25375"><defs><linearGradient x1="224.2013" y1="229.09942" x2="262.67778" y2="229.09942" gradientUnits="userSpaceOnUse" id="color-1"><stop offset="0" stop-color="#000000"/><stop offset="1" stop-color="#000000" stop-opacity="0"/></linearGradient><linearGradient x1="365.58041" y1="228.40347" x2="403.05685" y2="228.40347" gradientUnits="userSpaceOnUse" id="color-2"><stop offset="0" stop-color="#000000" stop-opacity="0"/><stop offset="1" stop-color="#000000"/></linearGradient><linearGradient x1="314.29509" y1="165.06243" x2="314.29509" y2="185.2902" gradientUnits="userSpaceOnUse" id="color-3"><stop offset="0" stop-color="#36ff00"/><stop offset="1" stop-color="#1ebf00"/></linearGradient></defs><g transform="translate(-12.58507,-50.38973)"><g data-paper-data="{&quot;isPaintingLayer&quot;:true}" fill-rule="nonzero" stroke-linejoin="miter" stroke-miterlimit="10" stroke-dasharray="" stroke-dashoffset="0" style="mix-blend-mode: normal"><path d="M12.58507,305.64348v-253.75375l346.84685,-1.5v253.75375z" fill="none" stroke="none" stroke-width="0" stroke-linecap="butt"/><path d="M222.88677,291.03066v-125.86191h181.78184v125.86191z" fill="#ff8600" stroke="#000000" stroke-width="3.5" stroke-linecap="butt"/><path d="M224.2013,290.79484v-124.89096h38.47647v124.89096z" fill="url(#color-1)" stroke="none" stroke-width="0" stroke-linecap="butt"/><path d="M365.58041,291.00437v-126.70176h37.47647v126.70176z" fill="url(#color-2)" stroke="none" stroke-width="0" stroke-linecap="butt"/><path d="M237.27083,166.83928l11,21.5l-2.5,11" fill="none" stroke="#000000" stroke-width="2.5" stroke-linecap="round"/><path d="M243.77083,178.33928l7.5,5.5" fill="none" stroke="#000000" stroke-width="2.5" stroke-linecap="round"/><path d="M274.77083,188.83928l-8.5,-8l18.5,-16.5" fill="none" stroke="#000000" stroke-width="2.5" stroke-linecap="round"/><path d="M270.27083,264.83928l-11,-11.5l12,-38l-13,-23.5l9,-8" fill="none" stroke="#000000" stroke-width="2.5" stroke-linecap="round"/><path d="M288.27083,165.83928l9.5,11.5l-3.5,13.5l13.5,15l-13.5,18l8,16" fill="none" stroke="#000000" stroke-width="2.5" stroke-linecap="round"/><path d="M303.77083,185.83928l-6,-7" fill="none" stroke="#000000" stroke-width="2.5" stroke-linecap="round"/><path d="M256.77083,165.83928l3,4l-2.5,7.5" fill="none" stroke="#000000" stroke-width="2.5" stroke-linecap="round"/><path d="M316.27083,186.83928l-7,-4.5l4,-8.5l-5,-8.5" fill="none" stroke="#000000" stroke-width="2.5" stroke-linecap="round"/><path d="M338.27083,165.33928l4.5,15l-8.5,14" fill="none" stroke="#000000" stroke-width="2.5" stroke-linecap="round"/><path d="M355.27083,242.83928l-12,-19l10,-16.5l-4.5,-11.5l-4,-13.5" fill="none" stroke="#000000" stroke-width="2.5" stroke-linecap="round"/><path d="M362.27083,165.33928l7.5,13.5l-6,9" fill="none" stroke="#000000" stroke-width="2.5" stroke-linecap="round"/><path d="M365.77083,165.33928l10,8.5" fill="none" stroke="#000000" stroke-width="2.5" stroke-linecap="round"/><path d="M385.77083,178.83928l7,-11.5" fill="none" stroke="#000000" stroke-width="2.5" stroke-linecap="round"/><path d="M365.77083,212.83928l-17,-19" fill="none" stroke="#000000" stroke-width="2.5" stroke-linecap="round"/><path d="M269.77083,225.83928l7,10" fill="none" stroke="#000000" stroke-width="2.5" stroke-linecap="round"/><path d="M263.27083,203.83928l-10,15l-10,8.5" fill="none" stroke="#000000" stroke-width="2.5" stroke-linecap="round"/><path d="M253.77083,217.83928l3,13" fill="none" stroke="#000000" stroke-width="2.5" stroke-linecap="round"/><path d="M304.27083,208.83928l12.5,22" fill="none" stroke="#000000" stroke-width="2.5" stroke-linecap="round"/><path d="M348.77083,231.33928l-11,18.5" fill="none" stroke="#000000" stroke-width="2.5" stroke-linecap="round"/><path d="M332.27083,165.26428v3.5l-0.5,7.5l-6,12.5" fill="none" stroke="#000000" stroke-width="2.5" stroke-linecap="round"/><path d="M221.1875,183.7902v-20.22777h186.21519v20.22777l-27.28452,-11.95367l-24.80367,14.84335l-27.34629,-4.32029l-25.19594,1.14243l-12.75586,8.26022l-11.53195,-16.64108l-14.32424,10.7331l-20.83526,-10.7331z" fill="url(#color-3)" stroke="#0f8200" stroke-width="0.5" stroke-linecap="butt"/></g></g></svg>