<svg version="1.1" xmlns="http://www.w3.org/2000/svg" xmlns:xlink="http://www.w3.org/1999/xlink" width="143" height="221" viewBox="0,0,143,221"><defs><radialGradient cx="229.79196" cy="179.12414" r="50.52303" gradientUnits="userSpaceOnUse" id="color-1"><stop offset="0" stop-color="#ff0092"/><stop offset="1" stop-color="#ff0092" stop-opacity="0"/></radialGradient></defs><g transform="translate(-183.6875,-64)"><g data-paper-data="{&quot;isPaintingLayer&quot;:true}" fill-rule="nonzero" stroke-linejoin="miter" stroke-miterlimit="10" stroke-dasharray="" stroke-dashoffset="0" style="mix-blend-mode: normal"><path d="M269.58153,183.53534c0,25.40401 -7.49657,45.99802 -16.74405,45.99802c-9.24748,0 -16.74405,-20.59401 -16.74405,-45.99802c0,-25.40401 7.49657,-45.99802 16.74405,-45.99802c9.24748,0 16.74405,20.59401 16.74405,45.99802z" fill="none" stroke="#000000" stroke-width="4" stroke-linecap="butt"/><path d="M259.95854,181.99566c0,25.40401 -7.49657,45.99801 -16.74405,45.99801c-9.24748,0 -16.74405,-20.59401 -16.74405,-45.99801c0,-25.40401 7.49657,-45.99802 16.74405,-45.99802c9.24748,0 16.74405,20.59401 16.74405,45.99802z" fill="none" stroke="#000000" stroke-width="4" stroke-linecap="butt"/><path d="M253.41486,228.53336l-21.55556,-0.53969" fill="none" stroke="#000000" stroke-width="5.5" stroke-linecap="round"/><path d="M221.85137,206.0532l43.88095,1.53968" fill="none" stroke="#000000" stroke-width="5.5" stroke-linecap="round"/><path d="M217.23232,184.11272l50.4246,0.38492" fill="none" stroke="#000000" stroke-width="5.5" stroke-linecap="round"/><path d="M218.38711,162.17224l48.88492,0.38493" fill="none" stroke="#000000" stroke-width="5.5" stroke-linecap="round"/><path d="M229.06565,136.43415l24.52778,1.66667" fill="none" stroke="#000000" stroke-width="5.5" stroke-linecap="round"/><path d="M249.16545,179.12414c0,28.9833 -8.67381,52.47892 -19.37349,52.47892c-10.69968,0 -19.37349,-23.49562 -19.37349,-52.47892c0,-28.9833 8.67381,-52.47892 19.37349,-52.47892c10.69968,0 19.37349,23.49562 19.37349,52.47892z" fill="url(#color-1)" stroke="none" stroke-width="0" stroke-linecap="butt"/><path d="M248.62915,180.50996c0,29.1854 -8.16815,52.84483 -18.24405,52.84483c-10.0759,0 -18.24405,-23.65943 -18.24405,-52.84483c0,-29.18539 8.16814,-52.84483 18.24405,-52.84483c10.0759,0 18.24405,23.65944 18.24405,52.84483z" fill="none" stroke="#ffffff" stroke-width="3.5" stroke-linecap="butt"/><path d="M244.88419,180.99862c0,27.06248 -6.46477,49.00094 -14.43946,49.00094c-7.97469,0 -14.43946,-21.93847 -14.43946,-49.00093c0,-27.06247 6.46477,-49.00094 14.43946,-49.00094c7.97469,0 14.43946,21.93847 14.43946,49.00094z" fill="none" stroke="#ff00b6" stroke-width="6.5" stroke-linecap="butt"/><path d="M183.6875,285v-221h143v221z" fill="none" stroke="none" stroke-width="0" stroke-linecap="butt"/><path d="M183.6875,285v-221h143v221z" fill="none" stroke="none" stroke-width="0" stroke-linecap="butt"/></g></g></svg>