<svg version="1.1" xmlns="http://www.w3.org/2000/svg" xmlns:xlink="http://www.w3.org/1999/xlink" width="482.15012" height="364.17683" viewBox="0,0,482.15012,364.17683"><g transform="translate(0.49399,3.99814)"><g data-paper-data="{&quot;isPaintingLayer&quot;:true}" fill-rule="nonzero" stroke="#000000" stroke-width="3" stroke-linecap="butt" stroke-linejoin="miter" stroke-miterlimit="10" stroke-dasharray="" stroke-dashoffset="0" style="mix-blend-mode: normal"><path d="M1.67349,358.67869v-50.09322h56.78557v50.09322z" fill="#42ff00"/><path d="M1.00602,306.72645v-40.36915h37.85705v40.36915z" fill="#00fffd"/><path d="M1.00601,264.36483v-26.18351h29.68157v26.18351z" fill="#42ff00"/><path d="M59.66056,320.69615l40.369,-0.11074l0.10385,37.85691l-40.369,0.11074z" data-paper-data="{&quot;index&quot;:null}" fill="#00fffd"/><path d="M102.04445,328.7554l26.18341,-0.07183l0.08143,29.68146l-26.18341,0.07183z" data-paper-data="{&quot;index&quot;:null}" fill="#42ff00"/><path d="M422.70307,357.67268v-50.09322h56.78557v50.09322z" data-paper-data="{&quot;index&quot;:null}" fill="#42ff00"/><path d="M442.29908,305.72044v-40.36915h37.85705v40.36915z" data-paper-data="{&quot;index&quot;:null}" fill="#00fffd"/><path d="M450.47456,263.35882v-26.1835h29.68157v26.1835z" data-paper-data="{&quot;index&quot;:null}" fill="#42ff00"/><path d="M421.39773,357.54706l-40.36899,-0.11075l0.10386,-37.8569l40.36899,0.11074z" data-paper-data="{&quot;index&quot;:null}" fill="#00fffd"/><path d="M379.03627,357.43085l-26.18341,-0.07183l0.08142,-29.68146l26.18341,0.07183z" data-paper-data="{&quot;index&quot;:null}" fill="#42ff00"/><path d="M275.17078,-0.22835v50.09322h-56.78558v-50.09322z" data-paper-data="{&quot;index&quot;:null}" fill="#42ff00"/><path d="M276.56474,-0.10273l74.81491,0.11075l-0.19247,37.8569l-74.81491,-0.11074z" data-paper-data="{&quot;index&quot;:null}" fill="#00fffd"/><path d="M354.87362,-1.48802l26.18341,0.07183l-0.08143,29.68146l-26.18341,-0.07183z" data-paper-data="{&quot;index&quot;:null}" fill="#42ff00"/><path d="M216.38736,33.75831l-71.81962,0.0976l-0.18477,-33.36554l71.81962,-0.09761z" data-paper-data="{&quot;index&quot;:null}" fill="#00fffd"/><path d="M142.47193,27.18743l-26.18341,0.07183l-0.08143,-29.68146l26.18341,-0.07183z" data-paper-data="{&quot;index&quot;:null}" fill="#42ff00"/></g></g></svg>