<svg version="1.1" xmlns="http://www.w3.org/2000/svg" xmlns:xlink="http://www.w3.org/1999/xlink" width="143" height="221" viewBox="0,0,143,221"><defs><radialGradient cx="235.47035" cy="180.22144" r="45.60098" gradientUnits="userSpaceOnUse" id="color-1"><stop offset="0" stop-color="#00c2ff"/><stop offset="1" stop-color="#00c2ff" stop-opacity="0"/></radialGradient></defs><g transform="translate(-183.6875,-64)"><g data-paper-data="{&quot;isPaintingLayer&quot;:true}" fill-rule="nonzero" stroke-linecap="butt" stroke-linejoin="miter" stroke-miterlimit="10" stroke-dasharray="" stroke-dashoffset="0" style="mix-blend-mode: normal"><path d="M236,138.1239v-7.04576h10.33333v7.04576z" data-paper-data="{&quot;index&quot;:null}" fill="#000000" stroke="#ffea00" stroke-width="0"/><path d="M227.66667,149.33305v-7.04575h10.33333v7.04575z" data-paper-data="{&quot;index&quot;:null}" fill="#000000" stroke="#ffea00" stroke-width="0"/><path d="M222,162.78403v-7.04575h10.33334v7.04575z" data-paper-data="{&quot;index&quot;:null}" fill="#000000" stroke="#ffea00" stroke-width="0"/><path d="M220.33333,177.83632v-7.04575h10.33334v7.04575z" data-paper-data="{&quot;index&quot;:null}" fill="#000000" stroke="#ffea00" stroke-width="0"/><path d="M246.66667,222.03239v7.04575h-10.33334v-7.04575z" data-paper-data="{&quot;index&quot;:null}" fill="#000000" stroke="#ffea00" stroke-width="0"/><path d="M238.33333,210.82324v7.04575h-10.33334v-7.04575z" data-paper-data="{&quot;index&quot;:null}" fill="#000000" stroke="#ffea00" stroke-width="0"/><path d="M232.66667,197.37226v7.04576h-10.33334v-7.04576z" data-paper-data="{&quot;index&quot;:null}" fill="#000000" stroke="#ffea00" stroke-width="0"/><path d="M231,182.31998v7.04575h-10.33333v-7.04575z" data-paper-data="{&quot;index&quot;:null}" fill="#000000" stroke="#ffea00" stroke-width="0"/><path d="M237.33333,138.45724v-7.04575h10.33333v7.04575z" fill="#000000" stroke="#ffea00" stroke-width="0"/><path d="M245.66666,149.66639v-7.04576h10.33334v7.04576z" fill="#000000" stroke="#ffea00" stroke-width="0"/><path d="M251.33333,163.11736v-7.04575h10.33334v7.04575z" fill="#000000" stroke="#ffea00" stroke-width="0"/><path d="M253,178.16965v-7.04576h10.33334v7.04576z" fill="#000000" stroke="#ffea00" stroke-width="0"/><path d="M247.33333,222.36573v7.04575h-10.33334v-7.04575z" data-paper-data="{&quot;index&quot;:null}" fill="#000000" stroke="#ffea00" stroke-width="0"/><path d="M255.66667,211.15658v7.04576h-10.33333v-7.04576z" data-paper-data="{&quot;index&quot;:null}" fill="#000000" stroke="#ffea00" stroke-width="0"/><path d="M261.33333,197.7056v7.04576h-10.33334v-7.04576z" data-paper-data="{&quot;index&quot;:null}" fill="#000000" stroke="#ffea00" stroke-width="0"/><path d="M263,182.65331v7.04576h-10.33334v-7.04576z" data-paper-data="{&quot;index&quot;:null}" fill="#000000" stroke="#ffea00" stroke-width="0"/><path d="M249.90981,180.22144c0,25.18473 -6.46477,45.60099 -14.43946,45.60099c-7.97469,0 -14.43946,-20.41626 -14.43946,-45.60098c0,-25.18473 6.46477,-45.60098 14.43946,-45.60098c7.97469,0 14.43946,20.41625 14.43946,45.60098z" fill="url(#color-1)" stroke="#00c2ff" stroke-width="6.5"/><path d="M253.15477,179.76669c0,27.16036 -8.16815,49.17816 -18.24405,49.17816c-10.0759,0 -18.24405,-22.0178 -18.24405,-49.17816c0,-27.16035 8.16814,-49.17817 18.24405,-49.17817c10.0759,0 18.24405,22.01782 18.24405,49.17817z" fill="none" stroke="#ffffff" stroke-width="3.5"/><path d="M183.6875,285v-221h143v221z" fill="none" stroke="none" stroke-width="0"/></g></g></svg>