<svg version="1.1" width="229" height="201" viewBox="6 11 229 201" xmlns="http://www.w3.org/2000/svg" xmlns:xlink="http://www.w3.org/1999/xlink">
  <defs>
    <linearGradient id="grad_1" x2="1">
      <stop offset="0" stop-color="#FAB825" stop-opacity="1"/>
      <stop offset="1" stop-color="#F7B12F" stop-opacity="1"/>
    </linearGradient>
    <linearGradient id="grad_2" x2="1">
      <stop offset="0" stop-color="#DB9137" stop-opacity="1"/>
      <stop offset="1" stop-color="#EEA636" stop-opacity="1"/>
    </linearGradient>
    <radialGradient id="grad_3" cx="0.5588000000000001" cy="0.4243" r="0.7484100000000001">
      <stop offset="0" stop-color="#FF9B4A" stop-opacity="1"/>
      <stop offset="1" stop-color="#F55D14" stop-opacity="1"/>
    </radialGradient>
  </defs>
  <!-- Exported by Scratch - http://scratch.mit.edu/ -->
  <text id="ID0.6790333585813642" fill="#FFF6F6" x="151" y="80.25" text-anchor="start" font-family="Helvetica" font-size="22" transform="matrix(1.971222996711731, 0, 0, 1.971222996711731, 0, 0.15)">rolling  sky</text>
  <path id="ID0.4731142851524055" fill="url(#grad_1)" stroke="url(#grad_2)" stroke-width="5" stroke-linecap="round" d="M 199.500 122.500 L 254.500 123 L 255.500 122 L 281.500 202.500 L 150 201 L 199.500 122.500 Z " transform="matrix(1, 0, 0, 1, -93.5, 7)"/>
  <path id="ID0.9651328376494348" fill="url(#grad_3)" stroke="#000000" stroke-width="1" d="M 215.500 75 C 231.778 75 246.528 81.611 257.208 92.292 C 267.889 102.972 274.500 117.722 274.500 134 C 274.500 150.278 267.889 165.028 257.208 175.708 C 246.528 186.389 231.778 193 215.500 193 C 199.222 193 184.472 186.389 173.792 175.708 C 163.111 165.028 156.500 150.278 156.500 134 C 156.500 117.722 163.111 102.972 173.792 92.292 C 184.472 81.611 199.222 75 215.500 75 Z " transform="matrix(1, 0, 0, 1, -86, -9.5)"/>
</svg>