<svg version="1.1" width="29" height="29" viewBox="-1 -1 29 29" xmlns="http://www.w3.org/2000/svg" xmlns:xlink="http://www.w3.org/1999/xlink">
  <!-- Exported by Scratch - http://scratch.mit.edu/ -->
  <path id="ID0.19642179273068905" d="M 12 0 C 5.373 0 0 5.373 0 12 C 0 18.627 5.373 24 12 24 C 18.627 24 24 18.627 24 12 C 24 5.373 18.627 0 12 0 Z M 17.500 16.084 L 16.097 17.500 L 12.007 13.404 L 7.905 17.500 L 6.500 16.095 L 10.593 12.003 L 6.500 7.905 L 7.905 6.500 L 11.993 10.589 L 16.084 6.500 L 17.500 7.903 L 13.408 11.990 L 17.500 16.084 Z " transform="matrix(1.1576249599456787, 0, 0, 1.1576249599456787, 0.05, 0.05)"/>
</svg>