# Blender v2.93.2 OBJ File: ''
# www.blender.org
mtllib cube_tile.mtl
o Cube
v 2.000000 -0.000000 1.000000
v 0.000000 -0.000000 1.000000
v 0.000000 0.000000 -1.000000
v 2.000000 0.000000 -1.000000
v 2.000000 2.000000 -1.000000
v 0.000000 2.000000 -1.000000
v 0.000000 2.000000 1.000000
v 2.000000 2.000000 1.000000
vt 1.000000 1.000000
vt 0.000000 1.000000
vt 0.000000 0.000000
vt 1.000000 0.000000
vt 1.000000 0.000000
vt 1.000000 1.000000
vt 0.000000 1.000000
vt 0.000000 0.000000
vt 1.000000 1.000000
vt 1.000000 0.000000
vt 0.000000 1.000000
vt 1.000000 1.000000
vt 1.000000 0.000000
vt 0.000000 1.000000
vt 0.000000 0.000000
vt 0.000000 0.000000
vn 0.0000 -1.0000 -0.0000
vn 0.0000 0.0000 -1.0000
vn -1.0000 0.0000 0.0000
vn 0.0000 1.0000 0.0000
vn 1.0000 -0.0000 0.0000
vn 0.0000 -0.0000 1.0000
usemtl Default_OBJ
s 1
f 1/1/1 2/2/1 3/3/1 4/4/1
f 5/5/2 4/6/2 3/7/2 6/8/2
f 6/8/3 3/7/3 2/9/3 7/10/3
f 7/11/4 8/12/4 5/5/4 6/8/4
f 8/13/5 1/1/5 4/14/5 5/15/5
f 7/16/6 2/2/6 1/1/6 8/13/6
