# Blender v2.93.2 OBJ File: ''
# www.blender.org
mtllib head.mtl
o Plane_Plane.001
v 0.000000 0.000000 -0.050000
v 0.000000 -0.500000 -0.050000
v 0.000000 0.500000 -0.050000
v 0.500000 0.000000 -0.050000
v -0.500000 0.000000 -0.050000
v -0.500000 0.500000 -0.050000
v 0.500000 0.500000 -0.050000
v 0.500000 -0.500000 -0.050000
v -0.500000 -0.500000 -0.050000
v 0.000000 -0.750000 -0.050000
v 0.000000 0.250000 -0.050000
v 0.750000 0.000000 -0.050000
v -0.250000 0.000000 -0.050000
v 0.000000 -0.250000 -0.050000
v 0.000000 0.750000 -0.050000
v 0.250000 0.000000 -0.050000
v -0.750000 0.000000 -0.050000
v -0.500000 0.250000 -0.050000
v -0.500000 0.750000 -0.050000
v -0.250000 0.500000 -0.050000
v -0.750000 0.500000 -0.050000
v 0.500000 0.250000 -0.050000
v 0.500000 0.750000 -0.050000
v 0.750000 0.500000 -0.050000
v 0.250000 0.500000 -0.050000
v 0.500000 -0.750000 -0.050000
v 0.500000 -0.250000 -0.050000
v 0.750000 -0.500000 -0.050000
v 0.250000 -0.500000 -0.050000
v -0.500000 -0.750000 -0.050000
v -0.500000 -0.250000 -0.050000
v -0.250000 -0.500000 -0.050000
v -0.750000 -0.500000 -0.050000
v -0.750000 -0.250000 -0.050000
v -0.250000 -0.250000 -0.050000
v -0.250000 -0.750000 -0.050000
v 0.250000 -0.250000 -0.050000
v 0.750000 -0.250000 -0.050000
v 0.250000 0.750000 -0.050000
v 0.750000 0.250000 -0.050000
v -0.250000 0.750000 -0.050000
v -0.250000 0.250000 -0.050000
v -0.750000 0.250000 -0.050000
v 0.250000 0.250000 -0.050000
v 0.250000 -0.750000 -0.050000
v 0.000000 -0.999000 -0.050000
v 0.750000 0.653273 -0.050000
v 0.194895 -0.979804 -0.050000
v 0.250000 -0.963089 -0.050000
v -0.830638 -0.555014 -0.050000
v 0.500000 0.860044 -0.050000
v 0.555015 0.830638 -0.050000
v 0.830638 0.555015 -0.050000
v 0.860044 0.500000 -0.050000
v -0.963089 0.250000 -0.050000
v -0.979804 0.194895 -0.050000
v -0.750000 -0.653273 -0.050000
v -0.706400 -0.706400 -0.050000
v 0.382301 0.922956 -0.050000
v -0.999000 0.000000 -0.050000
v 0.653273 0.750000 -0.050000
v -0.830638 0.555015 -0.050000
v -0.860044 0.500000 -0.050000
v -0.750000 0.653273 -0.050000
v 0.963089 0.250000 -0.050000
v 0.194895 0.979805 -0.050000
v 0.382301 -0.922956 -0.050000
v 0.706400 0.706400 -0.050000
v 0.250000 0.963089 -0.050000
v 0.999000 0.000000 -0.050000
v 0.999000 0.000000 -0.050000
v -0.653273 -0.750000 -0.050000
v 0.979804 0.194895 -0.050000
v 0.653273 -0.750000 -0.050000
v 0.555015 -0.830638 -0.050000
v 0.500000 -0.860044 -0.050000
v 0.000000 0.999000 -0.050000
v -0.000000 0.999000 -0.050000
v -0.555015 -0.830638 -0.050000
v -0.500000 -0.860044 -0.050000
v -0.382301 -0.922956 -0.050000
v -0.250000 -0.963089 -0.050000
v 0.922956 0.382301 -0.050000
v -0.922956 -0.382301 -0.050000
v -0.963089 -0.250000 -0.050000
v -0.194895 0.979805 -0.050000
v -0.653273 0.750000 -0.050000
v -0.706400 0.706400 -0.050000
v -0.860044 -0.500000 -0.050000
v -0.250000 0.963089 -0.050000
v -0.979804 -0.194895 -0.050000
v -0.999000 -0.000000 -0.050000
v -0.555015 0.830638 -0.050000
v -0.500000 0.860044 -0.050000
v -0.382301 0.922956 -0.050000
v 0.706400 -0.706400 -0.050000
v -0.194895 -0.979805 -0.050000
v 0.963089 -0.250000 -0.050000
v 0.922956 -0.382301 -0.050000
v 0.860044 -0.500000 -0.050000
v 0.750000 -0.653273 -0.050000
v 0.830638 -0.555015 -0.050000
v -0.922956 0.382301 -0.050000
v 0.979804 -0.194895 -0.050000
v 0.000000 0.000000 0.050000
v 0.000000 -0.500000 0.050000
v 0.000000 0.500000 0.050000
v 0.500000 0.000000 0.050000
v -0.500000 0.000000 0.050000
v -0.500000 0.500000 0.050000
v 0.500000 0.500000 0.050000
v 0.500000 -0.500000 0.050000
v -0.500000 -0.500000 0.050000
v 0.000000 -0.750000 0.050000
v 0.000000 0.250000 0.050000
v 0.750000 0.000000 0.050000
v -0.250000 0.000000 0.050000
v 0.000000 -0.250000 0.050000
v 0.000000 0.750000 0.050000
v 0.250000 0.000000 0.050000
v -0.750000 0.000000 0.050000
v -0.500000 0.250000 0.050000
v -0.500000 0.750000 0.050000
v -0.250000 0.500000 0.050000
v -0.750000 0.500000 0.050000
v 0.500000 0.250000 0.050000
v 0.500000 0.750000 0.050000
v 0.750000 0.500000 0.050000
v 0.250000 0.500000 0.050000
v 0.500000 -0.750000 0.050000
v 0.500000 -0.250000 0.050000
v 0.750000 -0.500000 0.050000
v 0.250000 -0.500000 0.050000
v -0.500000 -0.750000 0.050000
v -0.500000 -0.250000 0.050000
v -0.250000 -0.500000 0.050000
v -0.750000 -0.500000 0.050000
v -0.750000 -0.250000 0.050000
v -0.250000 -0.250000 0.050000
v -0.250000 -0.750000 0.050000
v 0.250000 -0.250000 0.050000
v 0.750000 -0.250000 0.050000
v 0.250000 0.750000 0.050000
v 0.750000 0.250000 0.050000
v -0.250000 0.750000 0.050000
v -0.250000 0.250000 0.050000
v -0.750000 0.250000 0.050000
v 0.250000 0.250000 0.050000
v 0.250000 -0.750000 0.050000
v 0.000000 -0.999000 0.050000
v 0.750000 0.653273 0.050000
v 0.194895 -0.979804 0.050000
v 0.250000 -0.963089 0.050000
v -0.830638 -0.555014 0.050000
v 0.500000 0.860044 0.050000
v 0.555015 0.830638 0.050000
v 0.830638 0.555015 0.050000
v 0.860044 0.500000 0.050000
v -0.963089 0.250000 0.050000
v -0.979804 0.194895 0.050000
v -0.750000 -0.653273 0.050000
v -0.706400 -0.706400 0.050000
v 0.382301 0.922956 0.050000
v -0.999000 0.000000 0.050000
v 0.653273 0.750000 0.050000
v -0.830638 0.555015 0.050000
v -0.860044 0.500000 0.050000
v -0.750000 0.653273 0.050000
v 0.963089 0.250000 0.050000
v 0.194895 0.979805 0.050000
v 0.382301 -0.922956 0.050000
v 0.706400 0.706400 0.050000
v 0.250000 0.963089 0.050000
v 0.999000 0.000000 0.050000
v 0.999000 0.000000 0.050000
v -0.653273 -0.750000 0.050000
v 0.979804 0.194895 0.050000
v 0.653273 -0.750000 0.050000
v 0.555015 -0.830638 0.050000
v 0.500000 -0.860044 0.050000
v 0.000000 0.999000 0.050000
v -0.000000 0.999000 0.050000
v -0.555015 -0.830638 0.050000
v -0.500000 -0.860044 0.050000
v -0.382301 -0.922956 0.050000
v -0.250000 -0.963089 0.050000
v 0.922956 0.382301 0.050000
v -0.922956 -0.382301 0.050000
v -0.963089 -0.250000 0.050000
v -0.194895 0.979805 0.050000
v -0.653273 0.750000 0.050000
v -0.706400 0.706400 0.050000
v -0.860044 -0.500000 0.050000
v -0.250000 0.963089 0.050000
v -0.979804 -0.194895 0.050000
v -0.999000 -0.000000 0.050000
v -0.555015 0.830638 0.050000
v -0.500000 0.860044 0.050000
v -0.382301 0.922956 0.050000
v 0.706400 -0.706400 0.050000
v -0.194895 -0.979805 0.050000
v 0.963089 -0.250000 0.050000
v 0.922956 -0.382301 0.050000
v 0.860044 -0.500000 0.050000
v 0.750000 -0.653273 0.050000
v 0.830638 -0.555015 0.050000
v -0.922956 0.382301 0.050000
v 0.979804 -0.194895 0.050000
vt 0.402552 0.989902
vt 0.500000 0.875000
vt 0.375000 0.875000
vt 0.375000 0.500000
vt 0.500000 0.375000
vt 0.375000 0.375000
vt 0.989902 0.402552
vt 0.875000 0.375000
vt 0.875000 0.500000
vt 0.625000 0.500000
vt 0.750000 0.375000
vt 0.625000 0.375000
vt 0.625000 0.250000
vt 0.750000 0.125000
vt 0.625000 0.125000
vt 0.915319 0.222493
vt 0.875000 0.250000
vt 0.930022 0.250000
vt 0.125000 0.500000
vt 0.250000 0.375000
vt 0.125000 0.375000
vt 0.125000 0.173364
vt 0.125000 0.250000
vt 0.250000 0.250000
vt 0.375000 0.250000
vt 0.500000 0.125000
vt 0.375000 0.125000
vt 0.222493 0.915319
vt 0.250000 0.875000
vt 0.173364 0.875000
vt 0.125000 0.750000
vt 0.250000 0.625000
vt 0.125000 0.625000
vt 0.375000 0.750000
vt 0.500000 0.625000
vt 0.375000 0.625000
vt 0.691150 0.961478
vt 0.750000 0.875000
vt 0.625000 0.875000
vt 0.625000 0.750000
vt 0.750000 0.625000
vt 0.625000 0.625000
vt 0.961478 0.691150
vt 0.875000 0.625000
vt 0.875000 0.750000
vt 0.750000 0.750000
vt 0.750000 0.500000
vt 0.989902 0.597448
vt 0.500000 0.750000
vt 0.500000 0.500000
vt 0.597448 0.989902
vt 0.250000 0.750000
vt 0.250000 0.500000
vt 0.038522 0.691150
vt 0.010098 0.597448
vt 0.018456 0.625000
vt 0.084681 0.777507
vt 0.069978 0.750000
vt 0.250000 0.125000
vt 0.308850 0.038522
vt 0.402552 0.010098
vt 0.084681 0.222493
vt 0.222493 0.084681
vt 0.250000 0.069978
vt 0.010098 0.402552
vt 0.038522 0.308850
vt 0.826636 0.125000
vt 0.750000 0.250000
vt 0.777507 0.084681
vt 0.500000 0.250000
vt 0.597448 0.010098
vt 0.691150 0.038522
vt 0.961478 0.308850
vt 0.308850 0.961478
vt 0.777507 0.915319
vt 0.750000 0.930022
vt 0.875000 0.826636
vt 0.915319 0.777507
vt 0.500000 0.875000
vt 0.500000 0.999500
vt 0.402552 0.989902
vt 0.500000 0.375000
vt 0.375000 0.500000
vt 0.375000 0.375000
vt 0.875000 0.375000
vt 0.981544 0.375000
vt 0.989902 0.402552
vt 0.750000 0.375000
vt 0.625000 0.500000
vt 0.625000 0.375000
vt 0.750000 0.125000
vt 0.625000 0.250000
vt 0.625000 0.125000
vt 0.915319 0.222493
vt 0.875000 0.250000
vt 0.875000 0.173364
vt 0.250000 0.375000
vt 0.125000 0.500000
vt 0.125000 0.375000
vt 0.146800 0.146800
vt 0.250000 0.250000
vt 0.125000 0.173364
vt 0.500000 0.125000
vt 0.375000 0.250000
vt 0.375000 0.125000
vt 0.250000 0.875000
vt 0.222493 0.915319
vt 0.173364 0.875000
vt 0.250000 0.625000
vt 0.125000 0.750000
vt 0.125000 0.625000
vt 0.500000 0.625000
vt 0.375000 0.750000
vt 0.375000 0.625000
vt 0.750000 0.875000
vt 0.750000 0.930022
vt 0.691150 0.961478
vt 0.750000 0.625000
vt 0.625000 0.750000
vt 0.625000 0.625000
vt 0.875000 0.625000
vt 0.981544 0.625000
vt 0.961478 0.691150
vt 0.750000 0.750000
vt 0.875000 0.500000
vt 0.750000 0.500000
vt 0.999500 0.500000
vt 0.999500 0.500000
vt 0.989902 0.597448
vt 0.500000 0.750000
vt 0.500000 0.500000
vt 0.625000 0.875000
vt 0.625000 0.981544
vt 0.597448 0.989902
vt 0.250000 0.750000
vt 0.250000 0.500000
vt 0.069978 0.750000
vt 0.038522 0.691150
vt 0.018456 0.625000
vt 0.010098 0.597448
vt 0.084681 0.777507
vt 0.125000 0.826636
vt 0.146800 0.853200
vt 0.250000 0.125000
vt 0.250000 0.069978
vt 0.308850 0.038522
vt 0.375000 0.018456
vt 0.402552 0.010098
vt 0.125000 0.250000
vt 0.084681 0.222493
vt 0.222493 0.084681
vt 0.000500 0.500000
vt 0.000500 0.500000
vt 0.010098 0.402552
vt 0.018456 0.375000
vt 0.038522 0.308850
vt 0.853200 0.146800
vt 0.750000 0.250000
vt 0.826636 0.125000
vt 0.777507 0.084681
vt 0.500000 0.250000
vt 0.500000 0.000500
vt 0.500000 0.000500
vt 0.597448 0.010098
vt 0.625000 0.018456
vt 0.691150 0.038522
vt 0.930022 0.250000
vt 0.961478 0.308850
vt 0.375000 0.875000
vt 0.375000 0.981544
vt 0.308850 0.961478
vt 0.777507 0.915319
vt 0.853200 0.853200
vt 0.826636 0.875000
vt 0.875000 0.750000
vt 0.915319 0.777507
vt 0.875000 0.826636
vt 0.125000 0.826636
vt 0.146800 0.853200
vt 0.930022 0.750000
vt 0.500000 0.999500
vt 0.853200 0.146800
vt 0.625000 0.018456
vt 0.375000 0.981544
vt 0.999500 0.500000
vt 0.999500 0.500000
vt 0.930022 0.750000
vt 0.981544 0.625000
vt 0.069978 0.250000
vt 0.069978 0.250000
vt 0.750000 0.069978
vt 0.981544 0.375000
vt 0.173364 0.125000
vt 0.173364 0.125000
vt 0.853200 0.853200
vt 0.875000 0.173364
vt 0.375000 0.018456
vt 0.000500 0.500000
vt 0.625000 0.981544
vt 0.000500 0.500000
vt 0.146800 0.146800
vt 0.250000 0.930022
vt 0.500000 0.000500
vt 0.018456 0.375000
vt 0.826636 0.875000
vt 0.250000 0.930022
vt 0.500000 0.000500
vt 0.750000 0.069978
vn 0.0000 -0.0000 -1.0000
vn 0.0000 0.0000 1.0000
vn 0.8944 0.0000 0.4472
vn 0.0000 1.0000 0.0000
vn 0.7730 -0.6344 0.0000
vn -0.8819 -0.4714 0.0000
vn 0.0980 -0.9952 0.0000
vn -0.6344 0.7730 0.0000
vn -0.8819 0.4714 0.0000
vn -0.2903 0.9569 0.0000
vn 0.2903 -0.9569 0.0000
vn 0.4714 0.8819 0.0000
vn -1.0000 0.0000 0.0000
vn 0.7730 0.6344 0.0000
vn -0.7730 -0.6344 0.0000
vn -0.9569 -0.2903 0.0000
vn 0.8819 0.4714 0.0000
vn -0.4714 0.8819 0.0000
vn -0.9952 -0.0980 0.0000
vn 0.6344 -0.7730 0.0000
vn -0.9952 0.0980 0.0000
vn -0.9569 0.2903 0.0000
vn -0.0980 -0.9952 0.0000
vn 0.6344 0.7730 0.0000
vn 0.8819 -0.4714 0.0000
vn 0.9569 -0.2903 0.0000
vn -0.7730 0.6344 0.0000
vn 0.2903 0.9569 0.0000
vn 0.9952 -0.0980 0.0000
vn -0.2903 -0.9569 0.0000
vn 0.9952 0.0980 0.0000
vn 1.0000 0.0000 0.0000
vn 0.4714 -0.8819 0.0000
vn 0.0980 0.9952 0.0000
vn 0.9569 0.2903 0.0000
vn -0.6344 -0.7730 0.0000
vn -0.4714 -0.8819 0.0000
vn -0.0980 0.9952 0.0000
vn -0.8217 0.0000 -0.5699
vn -0.5672 0.0000 -0.8235
usemtl Material.003
s off
f 48/1/1 10/2/1 45/3/1
f 16/4/1 11/5/1 44/6/1
f 56/7/1 43/8/1 17/9/1
f 13/10/1 18/11/1 42/12/1
f 20/13/1 19/14/1 41/15/1
f 62/16/1 21/17/1 63/18/1
f 12/19/1 22/20/1 40/21/1
f 47/22/1 24/23/1 7/24/1
f 25/25/1 15/26/1 39/27/1
f 75/28/1 26/29/1 74/30/1
f 28/31/1 27/32/1 38/33/1
f 29/34/1 14/35/1 37/36/1
f 81/37/1 30/38/1 36/39/1
f 32/40/1 31/41/1 35/42/1
f 84/43/1 34/44/1 33/45/1
f 9/46/1 34/44/1 31/41/1
f 31/41/1 17/9/1 5/47/1
f 17/9/1 34/44/1 91/48/1
f 2/49/1 35/42/1 14/35/1
f 14/35/1 13/10/1 1/50/1
f 35/42/1 5/47/1 13/10/1
f 97/51/1 36/39/1 10/2/1
f 10/2/1 32/40/1 2/49/1
f 36/39/1 9/46/1 32/40/1
f 8/52/1 37/36/1 27/32/1
f 27/32/1 16/4/1 4/53/1
f 37/36/1 1/50/1 16/4/1
f 99/54/1 28/31/1 38/33/1
f 104/55/1 98/56/1 38/33/1
f 38/33/1 4/53/1 12/19/1
f 102/57/1 28/31/1 100/58/1
f 74/30/1 26/29/1 8/52/1
f 7/24/1 39/27/1 23/59/1
f 59/60/1 23/59/1 39/27/1
f 66/61/1 39/27/1 15/26/1
f 53/62/1 24/23/1 47/22/1
f 52/63/1 23/59/1 51/64/1
f 12/19/1 40/21/1 73/65/1
f 83/66/1 40/21/1 24/23/1
f 40/21/1 7/24/1 24/23/1
f 87/67/1 19/14/1 6/68/1
f 93/69/1 19/14/1 87/67/1
f 3/70/1 41/15/1 15/26/1
f 15/26/1 41/15/1 86/71/1
f 95/72/1 41/15/1 19/14/1
f 1/50/1 42/12/1 11/5/1
f 11/5/1 20/13/1 3/70/1
f 42/12/1 6/68/1 20/13/1
f 5/47/1 43/8/1 18/11/1
f 18/11/1 21/17/1 6/68/1
f 103/73/1 21/17/1 43/8/1
f 4/53/1 44/6/1 22/20/1
f 22/20/1 25/25/1 7/24/1
f 44/6/1 3/70/1 25/25/1
f 67/74/1 45/3/1 26/29/1
f 26/29/1 29/34/1 8/52/1
f 45/3/1 2/49/1 29/34/1
f 79/75/1 30/38/1 80/76/1
f 57/77/1 33/45/1 9/46/1
f 50/78/1 33/45/1 57/77/1
f 114/79/2 150/80/2 152/81/2
f 115/82/2 120/83/2 148/84/2
f 147/85/2 159/86/2 160/87/2
f 122/88/2 117/89/2 146/90/2
f 123/91/2 124/92/2 145/93/2
f 166/94/2 125/95/2 168/96/2
f 126/97/2 116/98/2 144/99/2
f 172/100/2 111/101/2 151/102/2
f 119/103/2 129/104/2 143/105/2
f 130/106/2 179/107/2 178/108/2
f 131/109/2 132/110/2 142/111/2
f 118/112/2 133/113/2 141/114/2
f 134/115/2 184/116/2 185/117/2
f 135/118/2 136/119/2 139/120/2
f 138/121/2 189/122/2 188/123/2
f 138/121/2 113/124/2 135/118/2
f 121/125/2 135/118/2 109/126/2
f 164/127/2 196/128/2 195/129/2
f 139/120/2 106/130/2 118/112/2
f 117/89/2 118/112/2 105/131/2
f 109/126/2 139/120/2 117/89/2
f 140/132/2 186/133/2 201/134/2
f 136/119/2 114/79/2 106/130/2
f 113/124/2 140/132/2 136/119/2
f 141/114/2 112/135/2 131/109/2
f 120/83/2 131/109/2 108/136/2
f 105/131/2 141/114/2 120/83/2
f 132/110/2 204/137/2 203/138/2
f 142/111/2 202/139/2 208/140/2
f 108/136/2 142/111/2 116/98/2
f 206/141/2 132/110/2 205/142/2
f 200/143/2 112/135/2 178/108/2
f 143/105/2 111/101/2 127/144/2
f 127/144/2 155/145/2 163/146/2
f 143/105/2 173/147/2 170/148/2
f 128/149/2 157/150/2 151/102/2
f 127/144/2 156/151/2 155/145/2
f 175/152/3 174/153/3 177/154/3
f 144/99/2 169/155/2 187/156/2
f 111/101/2 144/99/2 128/149/2
f 192/157/2 110/158/2 191/159/2
f 123/91/2 197/160/2 191/159/2
f 145/93/2 107/161/2 119/103/2
f 181/162/4 182/163/4 190/164/4
f 145/93/2 194/165/2 199/166/2
f 146/90/2 105/131/2 115/82/2
f 124/92/2 115/82/2 107/161/2
f 110/158/2 146/90/2 124/92/2
f 147/85/2 109/126/2 122/88/2
f 125/95/2 122/88/2 110/158/2
f 125/95/2 167/167/2 207/168/2
f 148/84/2 108/136/2 126/97/2
f 129/104/2 126/97/2 111/101/2
f 107/161/2 148/84/2 129/104/2
f 149/169/2 153/170/2 171/171/2
f 133/113/2 130/106/2 112/135/2
f 106/130/2 149/169/2 133/113/2
f 134/115/2 183/172/2 184/116/2
f 162/173/2 176/174/2 113/124/2
f 137/175/2 154/176/2 161/177/2
f 101/178/5 200/143/5 96/179/5
f 89/180/6 188/123/6 84/43/6
f 48/1/7 150/80/7 46/181/7
f 88/182/8 191/159/8 87/67/8
f 103/73/9 167/167/9 63/18/9
f 90/183/10 190/164/10 86/71/10
f 49/184/11 152/81/11 48/1/11
f 51/64/12 156/151/12 52/63/12
f 92/185/13 164/127/13 60/186/13
f 47/22/14 157/150/14 53/62/14
f 50/78/6 193/187/6 89/180/6
f 57/77/15 154/176/15 50/78/15
f 85/188/16 195/129/16 91/48/16
f 53/62/17 158/189/17 54/190/17
f 94/191/18 199/166/18 95/72/18
f 91/48/19 196/128/19 92/185/19
f 96/179/20 178/108/20 74/30/20
f 60/186/21 160/87/21 56/7/21
f 87/67/8 197/160/8 93/69/8
f 56/7/22 159/86/22 55/192/22
f 46/181/23 201/134/23 97/51/23
f 52/63/24 165/193/24 61/194/24
f 63/18/9 166/94/9 62/16/9
f 99/54/25 204/137/25 100/58/25
f 58/195/15 161/177/15 57/77/15
f 98/56/26 203/138/26 99/54/26
f 62/16/27 168/96/27 64/196/27
f 102/57/5 205/142/5 101/178/5
f 59/60/12 155/145/12 51/64/12
f 55/192/22 207/168/22 103/73/22
f 66/61/28 173/147/28 69/197/28
f 71/198/29 208/140/29 104/55/29
f 100/58/25 206/141/25 102/57/25
f 104/55/26 202/139/26 98/56/26
f 97/51/30 186/133/30 82/199/30
f 73/65/31 174/153/31 70/200/31
f 67/74/11 153/170/11 49/184/11
f 74/30/20 179/107/20 75/28/20
f 61/194/24 172/100/24 68/201/24
f 70/200/32 175/152/32 71/198/32
f 69/197/28 163/146/28 59/60/28
f 76/202/33 171/171/33 67/74/33
f 77/203/34 170/148/34 66/61/34
f 65/204/35 177/154/35 73/65/35
f 79/75/36 176/174/36 72/205/36
f 75/28/33 180/206/33 76/202/33
f 81/37/37 184/116/37 80/76/37
f 78/207/4 181/162/4 77/203/4
f 80/76/37 183/172/37 79/75/37
f 54/190/17 187/156/17 83/66/17
f 93/69/18 198/208/18 94/191/18
f 84/43/16 189/122/16 85/188/16
f 95/72/10 194/165/10 90/183/10
f 68/201/14 151/102/14 47/22/14
f 82/199/30 185/117/30 81/37/30
f 86/71/38 182/163/38 78/207/38
f 83/66/35 169/155/35 65/204/35
f 64/196/27 192/157/27 88/182/27
f 72/205/36 162/173/36 58/195/36
f 45/3/1 49/184/1 48/1/1
f 48/1/1 46/181/1 10/2/1
f 16/4/1 1/50/1 11/5/1
f 17/9/1 60/186/1 56/7/1
f 56/7/1 55/192/1 43/8/1
f 13/10/1 5/47/1 18/11/1
f 20/13/1 6/68/1 19/14/1
f 62/16/1 64/196/1 21/17/1
f 12/19/1 4/53/1 22/20/1
f 23/59/1 61/194/1 7/24/1
f 61/194/1 68/201/1 7/24/1
f 68/201/1 47/22/1 7/24/1
f 25/25/1 3/70/1 15/26/1
f 75/28/1 76/202/1 26/29/1
f 28/31/1 8/52/1 27/32/1
f 29/34/1 2/49/1 14/35/1
f 36/39/1 82/199/1 81/37/1
f 81/37/1 80/76/1 30/38/1
f 32/40/1 9/46/1 31/41/1
f 33/45/1 89/180/1 84/43/1
f 84/43/1 85/188/1 34/44/1
f 9/46/1 33/45/1 34/44/1
f 31/41/1 34/44/1 17/9/1
f 34/44/1 85/188/1 91/48/1
f 91/48/39 92/185/39 60/186/39
f 60/186/1 17/9/1 91/48/1
f 2/49/1 32/40/1 35/42/1
f 14/35/1 35/42/1 13/10/1
f 35/42/1 31/41/1 5/47/1
f 10/2/1 46/181/1 97/51/1
f 97/51/1 82/199/1 36/39/1
f 10/2/1 36/39/1 32/40/1
f 36/39/1 30/38/1 9/46/1
f 8/52/1 29/34/1 37/36/1
f 27/32/1 37/36/1 16/4/1
f 37/36/1 14/35/1 1/50/1
f 38/33/1 98/56/1 99/54/1
f 99/54/1 100/58/1 28/31/1
f 38/33/1 12/19/1 104/55/1
f 12/19/1 71/198/1 104/55/1
f 38/33/1 27/32/1 4/53/1
f 102/57/1 101/178/1 28/31/1
f 28/31/1 101/178/1 8/52/1
f 101/178/1 96/179/1 8/52/1
f 96/179/1 74/30/1 8/52/1
f 7/24/1 25/25/1 39/27/1
f 39/27/1 69/197/1 59/60/1
f 59/60/1 51/64/1 23/59/1
f 15/26/1 77/203/1 66/61/1
f 66/61/1 69/197/1 39/27/1
f 53/62/1 54/190/1 24/23/1
f 52/63/1 61/194/1 23/59/1
f 40/21/1 65/204/1 73/65/1
f 73/65/40 70/200/40 71/198/40
f 71/198/1 12/19/1 73/65/1
f 24/23/1 54/190/1 83/66/1
f 83/66/1 65/204/1 40/21/1
f 40/21/1 22/20/1 7/24/1
f 21/17/1 64/196/1 6/68/1
f 64/196/1 88/182/1 6/68/1
f 88/182/1 87/67/1 6/68/1
f 93/69/1 94/191/1 19/14/1
f 3/70/1 20/13/1 41/15/1
f 41/15/1 90/183/1 86/71/1
f 86/71/2 78/207/2 77/203/2
f 77/203/1 15/26/1 86/71/1
f 19/14/1 94/191/1 95/72/1
f 95/72/1 90/183/1 41/15/1
f 1/50/1 13/10/1 42/12/1
f 11/5/1 42/12/1 20/13/1
f 42/12/1 18/11/1 6/68/1
f 5/47/1 17/9/1 43/8/1
f 18/11/1 43/8/1 21/17/1
f 43/8/1 55/192/1 103/73/1
f 103/73/1 63/18/1 21/17/1
f 4/53/1 16/4/1 44/6/1
f 22/20/1 44/6/1 25/25/1
f 44/6/1 11/5/1 3/70/1
f 26/29/1 76/202/1 67/74/1
f 67/74/1 49/184/1 45/3/1
f 26/29/1 45/3/1 29/34/1
f 45/3/1 10/2/1 2/49/1
f 79/75/1 72/205/1 30/38/1
f 9/46/1 30/38/1 72/205/1
f 72/205/1 58/195/1 9/46/1
f 58/195/1 57/77/1 9/46/1
f 50/78/1 89/180/1 33/45/1
f 152/81/2 153/170/2 149/169/2
f 149/169/2 114/79/2 152/81/2
f 115/82/2 105/131/2 120/83/2
f 160/87/2 164/127/2 121/125/2
f 121/125/2 147/85/2 160/87/2
f 122/88/2 109/126/2 117/89/2
f 123/91/2 110/158/2 124/92/2
f 166/94/2 167/167/2 125/95/2
f 126/97/2 108/136/2 116/98/2
f 172/100/2 165/193/2 111/101/2
f 165/193/2 127/144/2 111/101/2
f 111/101/2 128/149/2 151/102/2
f 119/103/2 107/161/2 129/104/2
f 130/106/2 180/206/2 179/107/2
f 131/109/2 112/135/2 132/110/2
f 118/112/2 106/130/2 133/113/2
f 185/117/2 186/133/2 140/132/2
f 140/132/2 134/115/2 185/117/2
f 135/118/2 113/124/2 136/119/2
f 188/123/2 193/187/2 137/175/2
f 137/175/2 138/121/2 188/123/2
f 138/121/2 137/175/2 113/124/2
f 121/125/2 138/121/2 135/118/2
f 195/129/2 189/122/2 138/121/2
f 138/121/2 121/125/2 195/129/2
f 121/125/2 164/127/2 195/129/2
f 139/120/2 136/119/2 106/130/2
f 117/89/2 139/120/2 118/112/2
f 109/126/2 135/118/2 139/120/2
f 201/134/2 150/80/2 114/79/2
f 114/79/2 140/132/2 201/134/2
f 136/119/2 140/132/2 114/79/2
f 113/124/2 134/115/2 140/132/2
f 141/114/2 133/113/2 112/135/2
f 120/83/2 141/114/2 131/109/2
f 105/131/2 118/112/2 141/114/2
f 203/138/2 202/139/2 142/111/2
f 142/111/2 132/110/2 203/138/2
f 175/152/2 116/98/2 208/140/2
f 116/98/2 142/111/2 208/140/2
f 108/136/2 131/109/2 142/111/2
f 206/141/2 204/137/2 132/110/2
f 200/143/2 205/142/2 112/135/2
f 205/142/2 132/110/2 112/135/2
f 112/135/2 130/106/2 178/108/2
f 143/105/2 129/104/2 111/101/2
f 163/146/2 173/147/2 143/105/2
f 143/105/2 127/144/2 163/146/2
f 170/148/2 181/162/2 119/103/2
f 119/103/2 143/105/2 170/148/2
f 128/149/2 158/189/2 157/150/2
f 127/144/2 165/193/2 156/151/2
f 177/154/2 169/155/2 144/99/2
f 144/99/2 116/98/2 177/154/2
f 116/98/2 175/152/2 177/154/2
f 187/156/2 158/189/2 128/149/2
f 128/149/2 144/99/2 187/156/2
f 111/101/2 126/97/2 144/99/2
f 192/157/2 168/96/2 110/158/2
f 168/96/2 125/95/2 110/158/2
f 110/158/2 123/91/2 191/159/2
f 123/91/2 198/208/2 197/160/2
f 145/93/2 124/92/2 107/161/2
f 190/164/2 194/165/2 145/93/2
f 145/93/2 119/103/2 190/164/2
f 119/103/2 181/162/2 190/164/2
f 199/166/2 198/208/2 123/91/2
f 123/91/2 145/93/2 199/166/2
f 146/90/2 117/89/2 105/131/2
f 124/92/2 146/90/2 115/82/2
f 110/158/2 122/88/2 146/90/2
f 147/85/2 121/125/2 109/126/2
f 125/95/2 147/85/2 122/88/2
f 207/168/2 159/86/2 147/85/2
f 147/85/2 125/95/2 207/168/2
f 148/84/2 120/83/2 108/136/2
f 129/104/2 148/84/2 126/97/2
f 107/161/2 115/82/2 148/84/2
f 171/171/2 180/206/2 130/106/2
f 130/106/2 149/169/2 171/171/2
f 133/113/2 149/169/2 130/106/2
f 106/130/2 114/79/2 149/169/2
f 134/115/2 176/174/2 183/172/2
f 176/174/2 134/115/2 113/124/2
f 113/124/2 137/175/2 161/177/2
f 161/177/2 162/173/2 113/124/2
f 137/175/2 193/187/2 154/176/2
f 101/178/5 205/142/5 200/143/5
f 89/180/6 193/187/6 188/123/6
f 48/1/7 152/81/7 150/80/7
f 88/182/8 192/157/8 191/159/8
f 103/73/9 207/168/9 167/167/9
f 90/183/10 194/165/10 190/164/10
f 49/184/11 153/170/11 152/81/11
f 51/64/12 155/145/12 156/151/12
f 92/185/13 196/128/13 164/127/13
f 47/22/14 151/102/14 157/150/14
f 50/78/6 154/176/6 193/187/6
f 57/77/15 161/177/15 154/176/15
f 85/188/16 189/122/16 195/129/16
f 53/62/17 157/150/17 158/189/17
f 94/191/18 198/208/18 199/166/18
f 91/48/19 195/129/19 196/128/19
f 96/179/20 200/143/20 178/108/20
f 60/186/21 164/127/21 160/87/21
f 87/67/8 191/159/8 197/160/8
f 56/7/22 160/87/22 159/86/22
f 46/181/23 150/80/23 201/134/23
f 52/63/24 156/151/24 165/193/24
f 63/18/9 167/167/9 166/94/9
f 99/54/25 203/138/25 204/137/25
f 58/195/15 162/173/15 161/177/15
f 98/56/26 202/139/26 203/138/26
f 62/16/27 166/94/27 168/96/27
f 102/57/5 206/141/5 205/142/5
f 59/60/12 163/146/12 155/145/12
f 55/192/22 159/86/22 207/168/22
f 66/61/28 170/148/28 173/147/28
f 71/198/29 175/152/29 208/140/29
f 100/58/25 204/137/25 206/141/25
f 104/55/26 208/140/26 202/139/26
f 97/51/30 201/134/30 186/133/30
f 73/65/31 177/154/31 174/153/31
f 67/74/11 171/171/11 153/170/11
f 74/30/20 178/108/20 179/107/20
f 61/194/24 165/193/24 172/100/24
f 70/200/32 174/153/32 175/152/32
f 69/197/28 173/147/28 163/146/28
f 76/202/33 180/206/33 171/171/33
f 77/203/34 181/162/34 170/148/34
f 65/204/35 169/155/35 177/154/35
f 79/75/36 183/172/36 176/174/36
f 75/28/33 179/107/33 180/206/33
f 81/37/37 185/117/37 184/116/37
f 78/207/4 182/163/4 181/162/4
f 80/76/37 184/116/37 183/172/37
f 54/190/17 158/189/17 187/156/17
f 93/69/18 197/160/18 198/208/18
f 84/43/16 188/123/16 189/122/16
f 95/72/10 199/166/10 194/165/10
f 68/201/14 172/100/14 151/102/14
f 82/199/30 186/133/30 185/117/30
f 86/71/38 190/164/38 182/163/38
f 83/66/35 187/156/35 169/155/35
f 64/196/27 168/96/27 192/157/27
f 72/205/36 176/174/36 162/173/36
