<svg version="1.1" xmlns="http://www.w3.org/2000/svg" xmlns:xlink="http://www.w3.org/1999/xlink" width="23.286" height="38.28193" viewBox="0,0,23.286,38.28193"><g transform="translate(-228.50145,-161.1663)"><g data-paper-data="{&quot;isPaintingLayer&quot;:true}" fill-rule="nonzero" stroke-linejoin="miter" stroke-miterlimit="10" stroke-dasharray="" stroke-dashoffset="0" style="mix-blend-mode: normal"><path d="M245.06912,198.94823c0,0 6.9851,-6.17069 3.3356,-11.21707c-3.59855,-4.97594 -17.83217,-8.80763 -17.86475,-11.72353c-0.07058,-6.31702 14.11946,-13.72679 14.11946,-13.72679" fill="none" stroke="#259e00" stroke-width="1" stroke-linecap="round"/><path d="M234.61584,183.27903c-0.91448,2.66445 -4.53253,4.87665 -4.53253,4.87665c0,0 -1.7295,-4.04755 -0.81502,-6.712c0.91448,-2.66445 2.6135,-3.71606 4.09019,-3.20924c1.47669,0.50682 2.17184,2.38014 1.25736,5.04459z" fill="#35ff00" stroke="#30cc00" stroke-width="1" stroke-linecap="butt"/><path d="M245.06912,198.33369c0,0 6.9851,-6.17069 3.3356,-11.21707c-3.59855,-4.97594 -17.83217,-8.80763 -17.86475,-11.72353c-0.07058,-6.31702 14.11946,-13.72679 14.11946,-13.72679" fill="none" stroke="#3aff00" stroke-width="1" stroke-linecap="round"/><path d="M242.07399,188.07418c-0.91448,2.66446 -4.53253,4.87665 -4.53253,4.87665c0,0 -1.7295,-4.04755 -0.81502,-6.712c0.91448,-2.66446 2.61351,-3.71606 4.09019,-3.20924c1.47669,0.50682 2.17184,2.38013 1.25736,5.04459z" fill="#35ff00" stroke="#30cc00" stroke-width="1" stroke-linecap="butt"/><path d="M248.09822,191.43542c-0.91448,2.66446 -4.53253,4.87665 -4.53253,4.87665c0,0 -1.7295,-4.04755 -0.81502,-6.71201c0.91448,-2.66446 2.6135,-3.71606 4.09019,-3.20924c1.47669,0.50682 2.17184,2.38013 1.25736,5.04459z" fill="#35ff00" stroke="#30cc00" stroke-width="1" stroke-linecap="butt"/><path d="M234.19855,169.67717c1.47669,-0.50682 3.17571,0.54478 4.09019,3.20924c0.91448,2.66446 -0.81502,6.71201 -0.81502,6.71201c0,0 -3.61805,-2.2122 -4.53253,-4.87665c-0.91448,-2.66446 -0.21932,-4.53777 1.25736,-5.04459z" data-paper-data="{&quot;index&quot;:null}" fill="#35ff00" stroke="#30cc00" stroke-width="1" stroke-linecap="butt"/><path d="M242.06639,164.02519c1.47669,-0.50682 3.17571,0.54478 4.09019,3.20924c0.91448,2.66446 -0.81502,6.712 -0.81502,6.712c0,0 -3.61805,-2.21219 -4.53253,-4.87665c-0.91448,-2.66446 -0.21932,-4.53777 1.25736,-5.04459z" data-paper-data="{&quot;index&quot;:null}" fill="#35ff00" stroke="#30cc00" stroke-width="1" stroke-linecap="butt"/><path d="M237.96046,169.30662c0,0.98508 -0.72428,1.78365 -1.61773,1.78365c-0.89345,0 -1.61773,-0.79857 -1.61773,-1.78365c0,-0.98508 0.72428,-1.78365 1.61773,-1.78365c0.89345,0 1.61773,0.79857 1.61773,1.78365z" fill="#ff94d1" stroke="none" stroke-width="0" stroke-linecap="butt"/><path d="M237.97908,171.74044c0,0.98508 -0.72428,1.78365 -1.61773,1.78365c-0.89345,0 -1.61773,-0.79857 -1.61773,-1.78365c0,-0.98508 0.72428,-1.78365 1.61773,-1.78365c0.89345,0 1.61773,0.79857 1.61773,1.78365z" fill="#ff94d1" stroke="none" stroke-width="0" stroke-linecap="butt"/><path d="M235.90149,173.71856c0,0.98508 -0.72428,1.78365 -1.61773,1.78365c-0.89345,0 -1.61773,-0.79857 -1.61773,-1.78365c0,-0.98508 0.72428,-1.78365 1.61773,-1.78365c0.89345,0 1.61773,0.79857 1.61773,1.78365z" fill="#ff94d1" stroke="none" stroke-width="0" stroke-linecap="butt"/><path d="M233.18592,172.82578c0,0.98508 -0.72428,1.78365 -1.61773,1.78365c-0.89345,0 -1.61773,-0.79857 -1.61773,-1.78365c0,-0.98508 0.72428,-1.78365 1.61773,-1.78365c0.89345,0 1.61773,0.79857 1.61773,1.78365z" fill="#ff94d1" stroke="none" stroke-width="0" stroke-linecap="butt"/><path d="M232.24757,170.65705c0,0.98508 -0.72428,1.78365 -1.61773,1.78365c-0.89345,0 -1.61773,-0.79857 -1.61773,-1.78365c0,-0.98508 0.72428,-1.78365 1.61773,-1.78365c0.89345,0 1.61773,0.79857 1.61773,1.78365z" fill="#ff94d1" stroke="none" stroke-width="0" stroke-linecap="butt"/><path d="M233.58772,168.44275c0,0.98508 -0.72428,1.78365 -1.61773,1.78365c-0.89345,0 -1.61773,-0.79857 -1.61773,-1.78365c0,-0.98508 0.72428,-1.78365 1.61773,-1.78365c0.89345,0 1.61773,0.79857 1.61773,1.78365z" fill="#ff94d1" stroke="none" stroke-width="0" stroke-linecap="butt"/><path d="M235.88483,168.27909c0,0.98508 -0.72428,1.78365 -1.61773,1.78365c-0.89345,0 -1.61773,-0.79857 -1.61773,-1.78365c0,-0.98508 0.72428,-1.78365 1.61773,-1.78365c0.89345,0 1.61773,0.79857 1.61773,1.78365z" fill="#ff94d1" stroke="none" stroke-width="0" stroke-linecap="butt"/><path d="M235.62611,170.71542c0,1.0822 -0.83649,1.9595 -1.86836,1.9595c-1.03187,0 -1.86836,-0.8773 -1.86836,-1.9595c0,-1.0822 0.83649,-1.9595 1.86836,-1.9595c1.03187,0 1.86836,0.8773 1.86836,1.9595z" fill="#f7ff00" stroke="none" stroke-width="0" stroke-linecap="butt"/><path d="M251.76883,174.71631c0,0.98508 -0.72429,1.78365 -1.61773,1.78365c-0.89345,0 -1.61772,-0.79857 -1.61772,-1.78365c0,-0.98508 0.72428,-1.78365 1.61772,-1.78365c0.89345,0 1.61773,0.79856 1.61773,1.78365z" fill="#ff94d1" stroke="none" stroke-width="0" stroke-linecap="butt"/><path d="M251.78745,177.15013c0,0.98508 -0.72428,1.78365 -1.61773,1.78365c-0.89345,0 -1.61772,-0.79857 -1.61772,-1.78365c0,-0.98508 0.72427,-1.78365 1.61772,-1.78365c0.89345,0 1.61773,0.79857 1.61773,1.78365z" fill="#ff94d1" stroke="none" stroke-width="0" stroke-linecap="butt"/><path d="M249.70986,179.12825c0,0.98508 -0.72428,1.78365 -1.61773,1.78365c-0.89345,0 -1.61773,-0.79857 -1.61773,-1.78365c0,-0.98508 0.72428,-1.78365 1.61773,-1.78365c0.89345,0 1.61773,0.79856 1.61773,1.78365z" fill="#ff94d1" stroke="none" stroke-width="0" stroke-linecap="butt"/><path d="M246.99429,178.23547c0,0.98508 -0.72428,1.78365 -1.61773,1.78365c-0.89345,0 -1.61773,-0.79857 -1.61773,-1.78365c0,-0.98508 0.72428,-1.78365 1.61773,-1.78365c0.89345,0 1.61773,0.79857 1.61773,1.78365z" fill="#ff94d1" stroke="none" stroke-width="0" stroke-linecap="butt"/><path d="M246.05595,176.06674c0,0.98508 -0.72428,1.78365 -1.61773,1.78365c-0.89345,0 -1.61772,-0.79857 -1.61772,-1.78365c0,-0.98508 0.72427,-1.78365 1.61772,-1.78365c0.89345,0 1.61773,0.79857 1.61773,1.78365z" fill="#ff94d1" stroke="none" stroke-width="0" stroke-linecap="butt"/><path d="M247.39609,173.85244c0,0.98508 -0.72428,1.78365 -1.61773,1.78365c-0.89345,0 -1.61773,-0.79857 -1.61773,-1.78365c0,-0.98508 0.72428,-1.78365 1.61773,-1.78365c0.89345,0 1.61773,0.79857 1.61773,1.78365z" fill="#ff94d1" stroke="none" stroke-width="0" stroke-linecap="butt"/><path d="M249.6932,173.68878c0,0.98508 -0.72428,1.78365 -1.61773,1.78365c-0.89345,0 -1.61773,-0.79857 -1.61773,-1.78365c0,-0.98508 0.72428,-1.78365 1.61773,-1.78365c0.89345,0 1.61773,0.79857 1.61773,1.78365z" fill="#ff94d1" stroke="none" stroke-width="0" stroke-linecap="butt"/><path d="M249.43448,176.12511c0,1.0822 -0.8365,1.9595 -1.86837,1.9595c-1.03187,0 -1.86836,-0.8773 -1.86836,-1.9595c0,-1.0822 0.83649,-1.9595 1.86836,-1.9595c1.03187,0 1.86837,0.8773 1.86837,1.9595z" fill="#f7ff00" stroke="none" stroke-width="0" stroke-linecap="butt"/><path d="M238.7424,185.86168c0,0.98508 -0.72428,1.78365 -1.61773,1.78365c-0.89345,0 -1.61773,-0.79857 -1.61773,-1.78365c0,-0.98508 0.72428,-1.78365 1.61773,-1.78365c0.89345,0 1.61773,0.79856 1.61773,1.78365z" fill="#ff94d1" stroke="none" stroke-width="0" stroke-linecap="butt"/><path d="M238.76102,188.2955c0,0.98508 -0.72428,1.78365 -1.61773,1.78365c-0.89345,0 -1.61773,-0.79857 -1.61773,-1.78365c0,-0.98508 0.72428,-1.78365 1.61773,-1.78365c0.89345,0 1.61773,0.79857 1.61773,1.78365z" fill="#ff94d1" stroke="none" stroke-width="0" stroke-linecap="butt"/><path d="M236.68343,190.27362c0,0.98508 -0.72428,1.78365 -1.61773,1.78365c-0.89345,0 -1.61773,-0.79857 -1.61773,-1.78365c0,-0.98508 0.72428,-1.78364 1.61773,-1.78364c0.89345,0 1.61773,0.79856 1.61773,1.78364z" fill="#ff94d1" stroke="none" stroke-width="0" stroke-linecap="butt"/><path d="M233.96786,189.38084c0,0.98508 -0.72428,1.78365 -1.61773,1.78365c-0.89345,0 -1.61773,-0.79857 -1.61773,-1.78365c0,-0.98508 0.72428,-1.78365 1.61773,-1.78365c0.89345,0 1.61773,0.79857 1.61773,1.78365z" fill="#ff94d1" stroke="none" stroke-width="0" stroke-linecap="butt"/><path d="M233.02951,187.21211c0,0.98508 -0.72428,1.78365 -1.61773,1.78365c-0.89345,0 -1.61773,-0.79857 -1.61773,-1.78365c0,-0.98508 0.72428,-1.78365 1.61773,-1.78365c0.89345,0 1.61773,0.79857 1.61773,1.78365z" fill="#ff94d1" stroke="none" stroke-width="0" stroke-linecap="butt"/><path d="M234.36966,184.99781c0,0.98508 -0.72428,1.78365 -1.61773,1.78365c-0.89345,0 -1.61772,-0.79857 -1.61772,-1.78365c0,-0.98508 0.72427,-1.78365 1.61772,-1.78365c0.89345,0 1.61773,0.79857 1.61773,1.78365z" fill="#ff94d1" stroke="none" stroke-width="0" stroke-linecap="butt"/><path d="M236.66677,184.83415c0,0.98508 -0.72428,1.78365 -1.61773,1.78365c-0.89345,0 -1.61773,-0.79857 -1.61773,-1.78365c0,-0.98508 0.72428,-1.78365 1.61773,-1.78365c0.89345,0 1.61773,0.79857 1.61773,1.78365z" fill="#ff94d1" stroke="none" stroke-width="0" stroke-linecap="butt"/><path d="M236.40805,187.27048c0,1.0822 -0.8365,1.9595 -1.86837,1.9595c-1.03187,0 -1.86836,-0.8773 -1.86836,-1.9595c0,-1.0822 0.83649,-1.9595 1.86836,-1.9595c1.03187,0 1.86837,0.8773 1.86837,1.9595z" fill="#f7ff00" stroke="none" stroke-width="0" stroke-linecap="butt"/><path d="M249.68293,184.51146c0,0.98508 -0.72428,1.78365 -1.61773,1.78365c-0.89345,0 -1.61773,-0.79857 -1.61773,-1.78365c0,-0.98508 0.72428,-1.78365 1.61773,-1.78365c0.89345,0 1.61773,0.79856 1.61773,1.78365z" fill="#ff94d1" stroke="none" stroke-width="0" stroke-linecap="butt"/><path d="M249.70155,186.94528c0,0.98508 -0.72428,1.78365 -1.61773,1.78365c-0.89345,0 -1.61773,-0.79857 -1.61773,-1.78365c0,-0.98508 0.72428,-1.78365 1.61773,-1.78365c0.89345,0 1.61773,0.79857 1.61773,1.78365z" fill="#ff94d1" stroke="none" stroke-width="0" stroke-linecap="butt"/><path d="M247.62396,188.9234c0,0.98508 -0.72428,1.78365 -1.61773,1.78365c-0.89345,0 -1.61773,-0.79857 -1.61773,-1.78365c0,-0.98508 0.72428,-1.78365 1.61773,-1.78365c0.89345,0 1.61773,0.79856 1.61773,1.78365z" fill="#ff94d1" stroke="none" stroke-width="0" stroke-linecap="butt"/><path d="M244.90839,188.03062c0,0.98508 -0.72428,1.78365 -1.61773,1.78365c-0.89345,0 -1.61773,-0.79857 -1.61773,-1.78365c0,-0.98508 0.72428,-1.78365 1.61773,-1.78365c0.89345,0 1.61773,0.79857 1.61773,1.78365z" fill="#ff94d1" stroke="none" stroke-width="0" stroke-linecap="butt"/><path d="M243.97004,185.86189c0,0.98508 -0.72428,1.78365 -1.61773,1.78365c-0.89345,0 -1.61773,-0.79857 -1.61773,-1.78365c0,-0.98508 0.72428,-1.78365 1.61773,-1.78365c0.89345,0 1.61773,0.79857 1.61773,1.78365z" fill="#ff94d1" stroke="none" stroke-width="0" stroke-linecap="butt"/><path d="M245.31019,183.64759c0,0.98508 -0.72428,1.78365 -1.61773,1.78365c-0.89345,0 -1.61772,-0.79857 -1.61772,-1.78365c0,-0.98508 0.72427,-1.78365 1.61772,-1.78365c0.89345,0 1.61773,0.79857 1.61773,1.78365z" fill="#ff94d1" stroke="none" stroke-width="0" stroke-linecap="butt"/><path d="M247.6073,183.48393c0,0.98508 -0.72428,1.78365 -1.61773,1.78365c-0.89345,0 -1.61773,-0.79857 -1.61773,-1.78365c0,-0.98508 0.72428,-1.78365 1.61773,-1.78365c0.89345,0 1.61773,0.79857 1.61773,1.78365z" fill="#ff94d1" stroke="none" stroke-width="0" stroke-linecap="butt"/><path d="M247.34858,185.92026c0,1.0822 -0.8365,1.9595 -1.86837,1.9595c-1.03187,0 -1.86836,-0.8773 -1.86836,-1.9595c0,-1.0822 0.83649,-1.9595 1.86836,-1.9595c1.03187,0 1.86837,0.8773 1.86837,1.9595z" fill="#f7ff00" stroke="none" stroke-width="0" stroke-linecap="butt"/><path d="M245.46487,165.95419c0,0.98508 -0.72428,1.78365 -1.61773,1.78365c-0.89345,0 -1.61773,-0.79857 -1.61773,-1.78365c0,-0.98508 0.72428,-1.78365 1.61773,-1.78365c0.89345,0 1.61773,0.79856 1.61773,1.78365z" fill="#ff94d1" stroke="none" stroke-width="0" stroke-linecap="butt"/><path d="M245.48349,168.38801c0,0.98508 -0.72428,1.78365 -1.61773,1.78365c-0.89345,0 -1.61773,-0.79857 -1.61773,-1.78365c0,-0.98508 0.72428,-1.78365 1.61773,-1.78365c0.89345,0 1.61773,0.79857 1.61773,1.78365z" fill="#ff94d1" stroke="none" stroke-width="0" stroke-linecap="butt"/><path d="M243.4059,170.36613c0,0.98508 -0.72428,1.78365 -1.61773,1.78365c-0.89345,0 -1.61773,-0.79857 -1.61773,-1.78365c0,-0.98508 0.72428,-1.78364 1.61773,-1.78364c0.89345,0 1.61773,0.79856 1.61773,1.78364z" fill="#ff94d1" stroke="none" stroke-width="0" stroke-linecap="butt"/><path d="M240.69033,169.47336c0,0.98508 -0.72428,1.78365 -1.61773,1.78365c-0.89345,0 -1.61773,-0.79857 -1.61773,-1.78365c0,-0.98508 0.72428,-1.78365 1.61773,-1.78365c0.89345,0 1.61773,0.79857 1.61773,1.78365z" fill="#ff94d1" stroke="none" stroke-width="0" stroke-linecap="butt"/><path d="M239.75198,167.30463c0,0.98508 -0.72428,1.78365 -1.61773,1.78365c-0.89345,0 -1.61773,-0.79857 -1.61773,-1.78365c0,-0.98508 0.72428,-1.78365 1.61773,-1.78365c0.89345,0 1.61773,0.79857 1.61773,1.78365z" fill="#ff94d1" stroke="none" stroke-width="0" stroke-linecap="butt"/><path d="M241.09213,165.09033c0,0.98508 -0.72428,1.78365 -1.61773,1.78365c-0.89345,0 -1.61773,-0.79857 -1.61773,-1.78365c0,-0.98508 0.72428,-1.78365 1.61773,-1.78365c0.89345,0 1.61773,0.79857 1.61773,1.78365z" fill="#ff94d1" stroke="none" stroke-width="0" stroke-linecap="butt"/><path d="M243.38924,164.92667c0,0.98508 -0.72428,1.78365 -1.61773,1.78365c-0.89345,0 -1.61773,-0.79857 -1.61773,-1.78365c0,-0.98508 0.72428,-1.78365 1.61773,-1.78365c0.89345,0 1.61773,0.79857 1.61773,1.78365z" fill="#ff94d1" stroke="none" stroke-width="0" stroke-linecap="butt"/><path d="M243.13052,167.36299c0,1.0822 -0.8365,1.9595 -1.86837,1.9595c-1.03187,0 -1.86836,-0.8773 -1.86836,-1.9595c0,-1.0822 0.83649,-1.9595 1.86836,-1.9595c1.03187,0 1.86837,0.8773 1.86837,1.9595z" fill="#f7ff00" stroke="none" stroke-width="0" stroke-linecap="butt"/></g></g></svg>