<svg version="1.1" xmlns="http://www.w3.org/2000/svg" xmlns:xlink="http://www.w3.org/1999/xlink" width="515.01502" height="402.4024" viewBox="0,0,515.01502,402.4024"><defs><radialGradient cx="57.56757" cy="177.74775" r="10.51051" gradientUnits="userSpaceOnUse" id="color-1"><stop offset="0" stop-color="#ff5050"/><stop offset="1" stop-color="#ff5050" stop-opacity="0"/></radialGradient><radialGradient cx="95.85586" cy="216.78679" r="15.01502" gradientUnits="userSpaceOnUse" id="color-2"><stop offset="0" stop-color="#ff5050"/><stop offset="1" stop-color="#ff5050" stop-opacity="0"/></radialGradient><radialGradient cx="98.10811" cy="147.71772" r="12.01201" gradientUnits="userSpaceOnUse" id="color-3"><stop offset="0" stop-color="#ff5050"/><stop offset="1" stop-color="#ff5050" stop-opacity="0"/></radialGradient><radialGradient cx="35.04505" cy="223.54354" r="18.01802" gradientUnits="userSpaceOnUse" id="color-4"><stop offset="0" stop-color="#ff5050"/><stop offset="1" stop-color="#ff5050" stop-opacity="0"/></radialGradient><radialGradient cx="191.2012" cy="169.48949" r="8.25826" gradientUnits="userSpaceOnUse" id="color-5"><stop offset="0" stop-color="#ff5050"/><stop offset="1" stop-color="#ff5050" stop-opacity="0"/></radialGradient><radialGradient cx="237.74775" cy="196.51652" r="15.01502" gradientUnits="userSpaceOnUse" id="color-6"><stop offset="0" stop-color="#ff5050"/><stop offset="1" stop-color="#ff5050" stop-opacity="0"/></radialGradient><radialGradient cx="192.7027" cy="228.04805" r="9.00901" gradientUnits="userSpaceOnUse" id="color-7"><stop offset="0" stop-color="#ff5050"/><stop offset="1" stop-color="#ff5050" stop-opacity="0"/></radialGradient><radialGradient cx="252.76276" cy="224.29429" r="6.00601" gradientUnits="userSpaceOnUse" id="color-8"><stop offset="0" stop-color="#ff5050"/><stop offset="1" stop-color="#ff5050" stop-opacity="0"/></radialGradient><radialGradient cx="368.37838" cy="191.26126" r="15.01502" gradientUnits="userSpaceOnUse" id="color-9"><stop offset="0" stop-color="#ff5050"/><stop offset="1" stop-color="#ff5050" stop-opacity="0"/></radialGradient><radialGradient cx="423.18318" cy="173.24324" r="13.51351" gradientUnits="userSpaceOnUse" id="color-10"><stop offset="0" stop-color="#ff5050"/><stop offset="1" stop-color="#ff5050" stop-opacity="0"/></radialGradient><radialGradient cx="403.66366" cy="218.28829" r="15.76577" gradientUnits="userSpaceOnUse" id="color-11"><stop offset="0" stop-color="#ff5050"/><stop offset="1" stop-color="#ff5050" stop-opacity="0"/></radialGradient><radialGradient cx="359.36937" cy="228.04805" r="6.75676" gradientUnits="userSpaceOnUse" id="color-12"><stop offset="0" stop-color="#ff5050"/><stop offset="1" stop-color="#ff5050" stop-opacity="0"/></radialGradient><radialGradient cx="438.94895" cy="224.29429" r="12.01201" gradientUnits="userSpaceOnUse" id="color-13"><stop offset="0" stop-color="#ff5050"/><stop offset="1" stop-color="#ff5050" stop-opacity="0"/></radialGradient></defs><g transform="translate(17.50751,20.45045)"><g data-paper-data="{&quot;isPaintingLayer&quot;:true}" fill-rule="nonzero" stroke="none" stroke-width="0" stroke-linecap="butt" stroke-linejoin="miter" stroke-miterlimit="10" stroke-dasharray="" stroke-dashoffset="0" style="mix-blend-mode: normal"><path d="M-17.50751,381.95195v-402.4024h515.01502v402.4024z" fill="none"/><path d="M330.84084,263.33333v-105.10511l127.62763,-36.03604v141.14114z" fill="#cb0000"/><path d="M166.66667,285.34534l4.5045,-183.18318l123.12313,78.07808v105.10511z" data-paper-data="{&quot;index&quot;:null}" fill="#cb0000"/><path d="M5,260.31531v-105.10511l123.12312,-78.07808l4.5045,183.18319z" data-paper-data="{&quot;index&quot;:null}" fill="#cb0000"/><path d="M-0.99099,360.93093v-109.60961h480.48048v109.60961z" fill="#ff0000"/><path d="M66.57658,177.74775c0,5.80479 -4.03347,10.51051 -9.00901,10.51051c-4.97554,0 -9.00901,-4.70572 -9.00901,-10.51051c0,-5.80479 4.03347,-10.51051 9.00901,-10.51051c4.97554,0 9.00901,4.70572 9.00901,10.51051z" fill="url(#color-1)"/><path d="M105.61562,216.78679c0,8.29256 -4.36959,15.01502 -9.75976,15.01502c-5.39017,0 -9.75976,-6.72245 -9.75976,-15.01502c0,-8.29256 4.36959,-15.01502 9.75976,-15.01502c5.39017,0 9.75976,6.72245 9.75976,15.01502z" fill="url(#color-2)"/><path d="M107.11712,147.71772c0,6.63405 -4.03347,12.01201 -9.00901,12.01201c-4.97554,0 -9.00901,-5.37796 -9.00901,-12.01201c0,-6.63405 4.03347,-12.01201 9.00901,-12.01201c4.97554,0 9.00901,5.37796 9.00901,12.01201z" fill="url(#color-3)"/><path d="M53.06306,223.54354c0,5.39017 -8.06694,9.75976 -18.01802,9.75976c-9.95108,0 -18.01802,-4.36959 -18.01802,-9.75976c0,-5.39017 8.06694,-9.75976 18.01802,-9.75976c9.95108,0 18.01802,4.36959 18.01802,9.75976z" fill="url(#color-4)"/><path d="M195.70571,169.48949c0,4.56091 -2.01674,8.25826 -4.5045,8.25826c-2.48777,0 -4.5045,-3.69735 -4.5045,-8.25826c0,-4.56091 2.01674,-8.25826 4.5045,-8.25826c2.48777,0 4.5045,3.69735 4.5045,8.25826z" fill="url(#color-5)"/><path d="M252.76276,196.51652c0,3.73165 -6.72245,6.75676 -15.01502,6.75676c-8.29256,0 -15.01502,-3.0251 -15.01502,-6.75676c0,-3.73165 6.72245,-6.75676 15.01502,-6.75676c8.29256,0 15.01502,3.0251 15.01502,6.75676z" fill="url(#color-6)"/><path d="M201.71171,228.04805c0,4.56091 -4.03347,8.25826 -9.00901,8.25826c-4.97554,0 -9.00901,-3.69735 -9.00901,-8.25826c0,-4.56091 4.03347,-8.25826 9.00901,-8.25826c4.97554,0 9.00901,3.69735 9.00901,8.25826z" fill="url(#color-7)"/><path d="M258.76877,224.29429c0,1.65851 -2.68898,3.003 -6.00601,3.003c-3.31703,0 -6.00601,-1.34449 -6.00601,-3.003c0,-1.65851 2.68898,-3.003 6.00601,-3.003c3.31703,0 6.00601,1.34449 6.00601,3.003z" fill="url(#color-8)"/><path d="M383.39339,191.26126c0,6.63405 -6.72245,12.01201 -15.01502,12.01201c-8.29256,0 -15.01502,-5.37796 -15.01502,-12.01201c0,-6.63405 6.72245,-12.01201 15.01502,-12.01201c8.29256,0 15.01502,5.37796 15.01502,12.01201z" fill="url(#color-9)"/><path d="M432.94294,173.24324c0,7.46331 -4.36959,13.51351 -9.75976,13.51351c-5.39017,0 -9.75976,-6.05021 -9.75976,-13.51351c0,-7.46331 4.36959,-13.51351 9.75976,-13.51351c5.39017,0 9.75976,6.05021 9.75976,13.51351z" fill="url(#color-10)"/><path d="M419.42943,218.28829c0,6.63405 -7.05857,12.01201 -15.76577,12.01201c-8.70719,0 -15.76577,-5.37796 -15.76577,-12.01201c0,-6.63405 7.05857,-12.01201 15.76577,-12.01201c8.70719,0 15.76577,5.37796 15.76577,12.01201z" fill="url(#color-11)"/><path d="M362.37237,228.04805c0,3.73165 -1.34449,6.75676 -3.003,6.75676c-1.65851,0 -3.003,-3.0251 -3.003,-6.75676c0,-3.73165 1.34449,-6.75676 3.003,-6.75676c1.65851,0 3.003,3.0251 3.003,6.75676z" fill="url(#color-12)"/><path d="M449.45946,224.29429c0,6.63405 -4.70572,12.01201 -10.51051,12.01201c-5.80479,0 -10.51051,-5.37796 -10.51051,-12.01201c0,-6.63405 4.70572,-12.01201 10.51051,-12.01201c5.80479,0 10.51051,5.37796 10.51051,12.01201z" fill="url(#color-13)"/></g></g></svg>