<svg version="1.1" xmlns="http://www.w3.org/2000/svg" xmlns:xlink="http://www.w3.org/1999/xlink" width="49.77851" height="105.35242" viewBox="0,0,49.77851,105.35242"><defs><radialGradient cx="244.76577" cy="180.19729" r="52.47892" gradientUnits="userSpaceOnUse" id="color-1"><stop offset="0" stop-color="#000000"/><stop offset="1" stop-color="#000000" stop-opacity="0"/></radialGradient><radialGradient cx="235.23423" cy="179.80271" r="52.47892" gradientUnits="userSpaceOnUse" id="color-2"><stop offset="0" stop-color="#ffbd00" stop-opacity="0"/><stop offset="1" stop-color="#ffbd00"/></radialGradient></defs><g transform="translate(-215.11075,-127.32379)"><g data-paper-data="{&quot;isPaintingLayer&quot;:true}" fill-rule="nonzero" stroke="none" stroke-width="0" stroke-linecap="butt" stroke-linejoin="miter" stroke-miterlimit="10" stroke-dasharray="" stroke-dashoffset="0" style="mix-blend-mode: normal"><path d="M264.88926,180.19729c0,28.98331 -9.0096,52.47892 -20.12349,52.47892c-11.1139,0 -20.12349,-23.49561 -20.12349,-52.47892c0,-28.98331 9.0096,-52.47892 20.12349,-52.47892c11.1139,0 20.12349,23.49561 20.12349,52.47892z" fill="url(#color-1)"/><path d="M255.35773,179.80271c0,28.9833 -9.0096,52.47892 -20.12349,52.47892c-11.1139,0 -20.12349,-23.49562 -20.12349,-52.47892c0,-28.9833 9.0096,-52.47892 20.12349,-52.47892c11.1139,0 20.12349,23.49562 20.12349,52.47892z" fill="url(#color-2)"/></g></g></svg>