<svg version="1.1" xmlns="http://www.w3.org/2000/svg" xmlns:xlink="http://www.w3.org/1999/xlink" width="74.69484" height="85.31867" viewBox="0,0,74.69484,85.31867"><defs><linearGradient x1="240.82782" y1="178.75322" x2="240.82782" y2="220.74845" gradientUnits="userSpaceOnUse" id="color-1"><stop offset="0" stop-color="#ff0000" stop-opacity="0"/><stop offset="1" stop-color="#ff0000"/></linearGradient><linearGradient x1="257.99694" y1="177.9949" x2="257.99694" y2="200.66614" gradientUnits="userSpaceOnUse" id="color-2"><stop offset="0" stop-color="#ff0000" stop-opacity="0"/><stop offset="1" stop-color="#ff0000"/></linearGradient><linearGradient x1="223.67416" y1="179.58848" x2="223.67416" y2="200.80979" gradientUnits="userSpaceOnUse" id="color-3"><stop offset="0" stop-color="#ff0000" stop-opacity="0"/><stop offset="1" stop-color="#ff0000"/></linearGradient><linearGradient x1="239.65712" y1="139.25154" x2="239.65712" y2="181.12234" gradientUnits="userSpaceOnUse" id="color-4"><stop offset="0" stop-color="#ff0000" stop-opacity="0"/><stop offset="1" stop-color="#ff0000"/></linearGradient><linearGradient x1="258.93474" y1="157.53814" x2="258.93474" y2="179.42961" gradientUnits="userSpaceOnUse" id="color-5"><stop offset="0" stop-color="#ff0000" stop-opacity="0"/><stop offset="1" stop-color="#ff0000"/></linearGradient><linearGradient x1="223.06756" y1="159.70092" x2="223.06756" y2="180.79321" gradientUnits="userSpaceOnUse" id="color-6"><stop offset="0" stop-color="#ff0000" stop-opacity="0"/><stop offset="1" stop-color="#ff0000"/></linearGradient><linearGradient x1="240.34475" y1="160.33952" x2="240.34475" y2="201.11153" gradientUnits="userSpaceOnUse" id="color-7"><stop offset="0" stop-color="#ff0000" stop-opacity="0"/><stop offset="1" stop-color="#ff0000"/></linearGradient></defs><g transform="translate(-202.61762,-137.34282)"><g data-paper-data="{&quot;isPaintingLayer&quot;:true}" fill-rule="nonzero" stroke="#ff7878" stroke-width="2" stroke-linejoin="miter" stroke-miterlimit="10" stroke-dasharray="" stroke-dashoffset="0" style="mix-blend-mode: normal"><path d="M241.55284,178.75322l11.4626,21.85474l-12.9178,20.14049l-11.45744,-19.57491z" data-paper-data="{&quot;origRot&quot;:0,&quot;index&quot;:null}" fill="url(#color-1)" stroke-linecap="butt"/><path d="M240.30704,177.9949l24.64473,1.28744l10.73508,21.3838l-22.68112,-0.12906z" data-paper-data="{&quot;origRot&quot;:0,&quot;index&quot;:null}" fill="url(#color-2)" stroke-linecap="butt"/><path d="M241.9341,179.58848l-12.59669,21.22131l-23.92318,-0.43632l10.65825,-20.02128z" data-paper-data="{&quot;origRot&quot;:0,&quot;index&quot;:null}" fill="url(#color-3)" stroke-linecap="butt"/><path d="M227.47053,159.3723l10.46924,-20.12076l13.90395,19.47278l-10.36096,22.39802z" data-paper-data="{&quot;origRot&quot;:0,&quot;index&quot;:null}" fill="url(#color-4)" stroke-linecap="butt"/><path d="M251.83755,158.7956l22.64661,-1.25746l-9.65777,21.89147l-21.44107,-1.17991z" data-paper-data="{&quot;origRot&quot;:0,&quot;index&quot;:null}" fill="url(#color-5)" stroke-linecap="butt"/><path d="M215.9544,180.79321l-11.64126,-19.46615l23.87183,-1.62614l13.63701,20.56824z" data-paper-data="{&quot;origRot&quot;:0,&quot;index&quot;:null}" fill="url(#color-6)" stroke-linecap="butt"/><path d="M237.12092,173.04522l4.36166,-12.70569l4.36166,11.94715l11.37823,-3.79274l-7.39585,10.61968l8.34404,11.37823l-12.13678,-3.22383l-6.25803,13.84352l-2.27565,-14.60207l-14.98134,5.12021l10.80932,-11.56787l-10.61968,-9.29222l14.03316,2.27565z" fill="url(#color-7)" stroke-linecap="round"/></g></g></svg>