<svg version="1.1" xmlns="http://www.w3.org/2000/svg" xmlns:xlink="http://www.w3.org/1999/xlink" width="515.01502" height="402.4024" viewBox="0,0,515.01502,402.4024"><defs><radialGradient cx="213.72372" cy="86.15616" r="103.6036" gradientUnits="userSpaceOnUse" id="color-1"><stop offset="0" stop-color="#ff6565"/><stop offset="1" stop-color="#e60000"/></radialGradient><radialGradient cx="179.18919" cy="152.22222" r="18.76877" gradientUnits="userSpaceOnUse" id="color-2"><stop offset="0" stop-color="#ff6565"/><stop offset="1" stop-color="#ff0000"/></radialGradient><radialGradient cx="146.15616" cy="180.75075" r="24.77477" gradientUnits="userSpaceOnUse" id="color-3"><stop offset="0" stop-color="#ff6565"/><stop offset="1" stop-color="#ff0000"/></radialGradient><radialGradient cx="180.69069" cy="227.2973" r="27.02703" gradientUnits="userSpaceOnUse" id="color-4"><stop offset="0" stop-color="#ff6565"/><stop offset="1" stop-color="#ff0000"/></radialGradient><radialGradient cx="161.17117" cy="224.29429" r="17.26727" gradientUnits="userSpaceOnUse" id="color-5"><stop offset="0" stop-color="#ff6565"/><stop offset="1" stop-color="#ff0000"/></radialGradient><radialGradient cx="159.66967" cy="107.17718" r="5.25526" gradientUnits="userSpaceOnUse" id="color-6"><stop offset="0" stop-color="#ff6565"/><stop offset="1" stop-color="#ff0000"/></radialGradient><radialGradient cx="201.71171" cy="140.21021" r="30.78078" gradientUnits="userSpaceOnUse" id="color-7"><stop offset="0" stop-color="#ff6565"/><stop offset="1" stop-color="#ff0000"/></radialGradient><radialGradient cx="134.14414" cy="228.7988" r="15.01502" gradientUnits="userSpaceOnUse" id="color-8"><stop offset="0" stop-color="#ff6565"/><stop offset="1" stop-color="#ff0000"/></radialGradient></defs><g transform="translate(17.50751,20.45045)"><g data-paper-data="{&quot;isPaintingLayer&quot;:true}" fill-rule="nonzero" stroke-linejoin="miter" stroke-miterlimit="10" stroke-dasharray="" stroke-dashoffset="0" style="mix-blend-mode: normal"><path d="M-17.50751,381.95195v-402.4024h515.01502v402.4024z" fill="none" stroke="none" stroke-width="0" stroke-linecap="butt"/><path d="M-3.99399,264.83483v-186.18619l156.03308,16.66421l190.81376,-48.19574l136.63664,31.53153v186.18619z" fill="#b20000" stroke="none" stroke-width="0" stroke-linecap="butt"/><path d="M-3.99399,129.6997v-58.55856l148.87529,26.17468l200.95579,-48.69721l139.62556,24.02402l1.53435,57.05706l-57.33911,-32.76763l-32.654,22.50021l-34.31333,-40.18623l-36.89475,54.60968l-39.41345,-47.69523l-3.24424,53.53966l-41.6417,-34.45704l-15.42366,23.96291l-24.5337,-22.63593l-35.21938,58.24698l-16.95404,-34.46634l-29.29389,30.35569l-16.6135,-50.97358l-35.33931,27.49681l-10.81281,-32.53424l-19.87276,15.99529l-19.94651,-27.02703z" fill="#ff0000" stroke="#9a0000" stroke-width="0" stroke-linecap="butt"/><path d="M111.62162,270.84084l15.01502,-172.67267l93.09309,-18.01802l-13.51351,207.20721z" fill="url(#color-1)" stroke="none" stroke-width="0" stroke-linecap="butt"/><path d="M-0.99099,360.93093v-109.60961h480.48048v109.60961z" fill="#ff0000" stroke="none" stroke-width="0" stroke-linecap="butt"/><path d="M180.69069,125.19519l-4.5045,37.53754" fill="none" stroke="url(#color-2)" stroke-width="10" stroke-linecap="round"/><path d="M152.16216,144.71471l-9.00901,49.54955" fill="none" stroke="url(#color-3)" stroke-width="10" stroke-linecap="round"/><path d="M185.1952,185.25525l-9.00901,54.05405" fill="none" stroke="url(#color-4)" stroke-width="10" stroke-linecap="round"/><path d="M162.67267,204.77477l-3.003,34.53453" fill="none" stroke="url(#color-5)" stroke-width="10" stroke-linecap="round"/><path d="M159.66967,110.18018v-10.51051" fill="none" stroke="url(#color-6)" stroke-width="10" stroke-linecap="round"/><path d="M206.21622,92.16216l-7.50751,61.56156" fill="none" stroke="url(#color-7)" stroke-width="10" stroke-linecap="round"/><path d="M134.14414,210.78078l-4.5045,30.03003" fill="none" stroke="url(#color-8)" stroke-width="10" stroke-linecap="round"/></g></g></svg>