<svg version="1.1" xmlns="http://www.w3.org/2000/svg" xmlns:xlink="http://www.w3.org/1999/xlink" width="449.92946" height="284.50552" viewBox="0,0,449.92946,284.50552"><g transform="translate(-16.2412,-25.95692)"><g data-paper-data="{&quot;isPaintingLayer&quot;:true}" fill-rule="nonzero" stroke="#000000" stroke-width="10" stroke-linecap="butt" stroke-linejoin="miter" stroke-miterlimit="10" stroke-dasharray="" stroke-dashoffset="0" style="mix-blend-mode: normal"><path d="M179.50001,157.46244h129v148h-172l-1,-101z" data-paper-data="{&quot;index&quot;:null}" fill="none"/><path d="M49.94802,59.28654l152.53534,-28.28654l176.01664,16.46243l78.62967,39.04861l-118.94171,100.4878l-28.68796,-30.53641h-129l-57,63l-54.98622,2.48501l-0.39882,-20.51366l-41.1577,1.80761l-1.31927,-20.08077l24.23985,-25.30765l17.32379,-60.476l-41.70162,6.08547z" data-paper-data="{&quot;index&quot;:null}" fill="none"/><path d="M257.50001,191.69973v74.61017h-71v-74.61017z" data-paper-data="{&quot;index&quot;:null}" fill="#ff0000"/><path d="M375.50001,88.46244v20h-268v-20z" data-paper-data="{&quot;index&quot;:null}" fill="#ff0000"/><path d="M233.50001,37.46244v112h-47v-112z" data-paper-data="{&quot;index&quot;:null}" fill="#ff0000"/><path d="M116.50001,47.46244l14.58386,47.99181l-15.58386,125.00819h-44l23,-117l-23,-42z" data-paper-data="{&quot;index&quot;:null}" fill="#ff0000"/><path d="M379.64135,49.32593l72.32065,38.75567l-113.60333,93.51734l-26.32065,-28.75567z" data-paper-data="{&quot;index&quot;:null}" fill="#ff0000"/><path d="M73.50001,183.46244v18h-46v-18z" data-paper-data="{&quot;index&quot;:null}" fill="#ff0000"/></g></g></svg>