<svg version="1.1" xmlns="http://www.w3.org/2000/svg" xmlns:xlink="http://www.w3.org/1999/xlink" width="21.45884" height="38.28193" viewBox="0,0,21.45884,38.28193"><g transform="translate(-228.50145,-161.1663)"><g data-paper-data="{&quot;isPaintingLayer&quot;:true}" fill-rule="nonzero" stroke-width="1" stroke-linejoin="miter" stroke-miterlimit="10" stroke-dasharray="" stroke-dashoffset="0" style="mix-blend-mode: normal"><path d="M245.06912,198.94823c0,0 6.9851,-6.17069 3.3356,-11.21707c-3.59855,-4.97594 -17.83217,-8.80763 -17.86475,-11.72353c-0.07058,-6.31702 14.11946,-13.72679 14.11946,-13.72679" fill="none" stroke="#259e00" stroke-linecap="round"/><path d="M234.61584,183.27903c-0.91448,2.66445 -4.53253,4.87665 -4.53253,4.87665c0,0 -1.7295,-4.04755 -0.81502,-6.712c0.91448,-2.66445 2.6135,-3.71606 4.09019,-3.20924c1.47669,0.50682 2.17184,2.38014 1.25736,5.04459z" fill="#35ff00" stroke="#30cc00" stroke-linecap="butt"/><path d="M245.06912,198.33369c0,0 6.9851,-6.17069 3.3356,-11.21707c-3.59855,-4.97594 -17.83217,-8.80763 -17.86475,-11.72353c-0.07058,-6.31702 14.11946,-13.72679 14.11946,-13.72679" fill="none" stroke="#3aff00" stroke-linecap="round"/><path d="M242.07399,188.07418c-0.91448,2.66446 -4.53253,4.87665 -4.53253,4.87665c0,0 -1.7295,-4.04755 -0.81502,-6.712c0.91448,-2.66446 2.61351,-3.71606 4.09019,-3.20924c1.47669,0.50682 2.17184,2.38013 1.25736,5.04459z" fill="#35ff00" stroke="#30cc00" stroke-linecap="butt"/><path d="M248.09822,191.43542c-0.91448,2.66446 -4.53253,4.87665 -4.53253,4.87665c0,0 -1.7295,-4.04755 -0.81502,-6.71201c0.91448,-2.66446 2.6135,-3.71606 4.09019,-3.20924c1.47669,0.50682 2.17184,2.38013 1.25736,5.04459z" fill="#35ff00" stroke="#30cc00" stroke-linecap="butt"/><path d="M234.19855,169.67717c1.47669,-0.50682 3.17571,0.54478 4.09019,3.20924c0.91448,2.66446 -0.81502,6.71201 -0.81502,6.71201c0,0 -3.61805,-2.2122 -4.53253,-4.87665c-0.91448,-2.66446 -0.21932,-4.53777 1.25736,-5.04459z" data-paper-data="{&quot;index&quot;:null}" fill="#35ff00" stroke="#30cc00" stroke-linecap="butt"/><path d="M242.06639,164.02519c1.47669,-0.50682 3.17571,0.54478 4.09019,3.20924c0.91448,2.66446 -0.81502,6.712 -0.81502,6.712c0,0 -3.61805,-2.21219 -4.53253,-4.87665c-0.91448,-2.66446 -0.21932,-4.53777 1.25736,-5.04459z" data-paper-data="{&quot;index&quot;:null}" fill="#35ff00" stroke="#30cc00" stroke-linecap="butt"/></g></g></svg>