<svg version="1.1" xmlns="http://www.w3.org/2000/svg" xmlns:xlink="http://www.w3.org/1999/xlink" width="39.32089" height="75.57987" viewBox="0,0,39.32089,75.57987"><g transform="translate(-220.10802,-123.9237)"><g data-paper-data="{&quot;isPaintingLayer&quot;:true}" fill-rule="nonzero" stroke-width="2.5" stroke-linejoin="miter" stroke-miterlimit="10" stroke-dasharray="" stroke-dashoffset="0" style="mix-blend-mode: normal"><path d="M256.77108,198.25356c-12.58457,-0.47727 -19.14473,-0.18061 -31.7362,-0.19319c-11.73447,-0.01173 7.74609,-10.28242 14.85524,-10.23915c7.10915,0.04328 23.10207,10.66828 16.88096,10.43234z" fill="#808080" stroke="#808080" stroke-linecap="round"/><path d="M249.76853,177.38881c0,5.6569 -4.16121,10.24273 -9.29433,10.24273c-5.13312,0 -9.29433,-4.58583 -9.29433,-10.24273c0,-5.6569 4.16121,-10.24273 9.29433,-10.24273c5.13312,0 9.29433,4.58583 9.29433,10.24273z" fill="none" stroke="#808080" stroke-linecap="butt"/><path d="M250.02652,156.5923c0,5.6569 -4.16121,10.24273 -9.29433,10.24273c-5.13312,0 -9.29433,-4.58583 -9.29433,-10.24273c0,-5.6569 4.16121,-10.24273 9.29433,-10.24273c5.13312,0 9.29433,4.58583 9.29433,10.24273z" fill="none" stroke="#808080" stroke-linecap="butt"/><path d="M250.09484,135.41643c0,5.6569 -4.16121,10.24274 -9.29433,10.24274c-5.13312,0 -9.29433,-4.58583 -9.29433,-10.24274c0,-5.6569 4.16121,-10.24273 9.29433,-10.24273c5.13312,0 9.29433,4.58583 9.29433,10.24273z" fill="none" stroke="#808080" stroke-linecap="butt"/></g></g></svg>