<svg version="1.1" xmlns="http://www.w3.org/2000/svg" xmlns:xlink="http://www.w3.org/1999/xlink" width="563" height="576" viewBox="0,0,563,576"><defs><linearGradient x1="241.5" y1="-181.95045" x2="241.5" y2="218.04955" gradientUnits="userSpaceOnUse" id="color-1"><stop offset="0" stop-color="#b10000"/><stop offset="1" stop-color="#ff0000"/></linearGradient><radialGradient cx="80.5" cy="239.54955" r="80" gradientUnits="userSpaceOnUse" id="color-2"><stop offset="0" stop-color="#ffd1d1"/><stop offset="1" stop-color="#ff7b7b"/></radialGradient><radialGradient cx="186.5" cy="239.54955" r="80" gradientUnits="userSpaceOnUse" id="color-3"><stop offset="0" stop-color="#ffd1d1"/><stop offset="1" stop-color="#ff7b7b"/></radialGradient><radialGradient cx="306.5" cy="238.54955" r="80" gradientUnits="userSpaceOnUse" id="color-4"><stop offset="0" stop-color="#ffd1d1"/><stop offset="1" stop-color="#ff7b7b"/></radialGradient><radialGradient cx="409.5" cy="249.54955" r="80" gradientUnits="userSpaceOnUse" id="color-5"><stop offset="0" stop-color="#ffd1d1"/><stop offset="1" stop-color="#ff7b7b"/></radialGradient><radialGradient cx="350.5" cy="318.54955" r="80" gradientUnits="userSpaceOnUse" id="color-6"><stop offset="0" stop-color="#ffd1d1"/><stop offset="1" stop-color="#ff7b7b"/></radialGradient><radialGradient cx="230.5" cy="325.54955" r="80" gradientUnits="userSpaceOnUse" id="color-7"><stop offset="0" stop-color="#ffd1d1"/><stop offset="1" stop-color="#ff7b7b"/></radialGradient><radialGradient cx="117.5" cy="316.54955" r="80" gradientUnits="userSpaceOnUse" id="color-8"><stop offset="0" stop-color="#ffd1d1"/><stop offset="1" stop-color="#ff7b7b"/></radialGradient><radialGradient cx="47.5" cy="302.54955" r="80" gradientUnits="userSpaceOnUse" id="color-9"><stop offset="0" stop-color="#ffd1d1"/><stop offset="1" stop-color="#ff7b7b"/></radialGradient><radialGradient cx="450.5" cy="313.54955" r="80" gradientUnits="userSpaceOnUse" id="color-10"><stop offset="0" stop-color="#ffd1d1"/><stop offset="1" stop-color="#ff7b7b"/></radialGradient></defs><g transform="translate(32.5,181.95045)"><g data-paper-data="{&quot;isPaintingLayer&quot;:true}" fill-rule="nonzero" stroke-width="0" stroke-linecap="butt" stroke-linejoin="miter" stroke-miterlimit="10" stroke-dasharray="" stroke-dashoffset="0" style="mix-blend-mode: normal"><path d="M19.5,218.04955c0,0 57.9695,-64.22189 94.8,-131.67702c36.8305,-67.45512 123.6,-268.32298 123.6,-268.32298c0,0 53.82375,152.05964 123.6,275.7764c69.77625,123.71676 102,124.2236 102,124.2236z" fill="url(#color-1)" stroke="#ff0000"/><path d="M-17.50751,381.95195v-402.4024h515.01502v402.4024z" fill="none" stroke="none"/><path d="M-0.99099,360.93093v-109.60961h480.48048v109.60961z" fill="#ff0000" stroke="none"/><path d="M160.5,239.54955c0,37.83151 -35.81722,68.5 -80,68.5c-44.18278,0 -80,-30.66849 -80,-68.5c0,-37.83151 35.81722,-68.5 80,-68.5c44.18278,0 80,30.66849 80,68.5z" fill="url(#color-2)" stroke="#ff0000"/><path d="M266.5,239.54955c0,37.8315 -35.81722,68.5 -80,68.5c-44.18278,0 -80,-30.6685 -80,-68.5c0,-37.8315 35.81722,-68.5 80,-68.5c44.18278,0 80,30.6685 80,68.5z" fill="url(#color-3)" stroke="#ff0000"/><path d="M386.5,238.54955c0,37.8315 -35.81722,68.5 -80,68.5c-44.18278,0 -80,-30.6685 -80,-68.5c0,-37.8315 35.81722,-68.5 80,-68.5c44.18278,0 80,30.6685 80,68.5z" fill="url(#color-4)" stroke="#ff0000"/><path d="M489.5,249.54955c0,37.8315 -35.81722,68.5 -80,68.5c-44.18278,0 -80,-30.6685 -80,-68.5c0,-37.8315 35.81722,-68.5 80,-68.5c44.18278,0 80,30.6685 80,68.5z" fill="url(#color-5)" stroke="#ff0000"/><path d="M430.5,318.54955c0,37.8315 -35.81722,68.5 -80,68.5c-44.18278,0 -80,-30.6685 -80,-68.5c0,-37.8315 35.81722,-68.5 80,-68.5c44.18278,0 80,30.6685 80,68.5z" fill="url(#color-6)" stroke="#ff0000"/><path d="M310.5,325.54955c0,37.8315 -35.81722,68.5 -80,68.5c-44.18278,0 -80,-30.6685 -80,-68.5c0,-37.8315 35.81722,-68.5 80,-68.5c44.18278,0 80,30.6685 80,68.5z" fill="url(#color-7)" stroke="#ff0000"/><path d="M197.5,316.54955c0,37.8315 -35.81722,68.5 -80,68.5c-44.18278,0 -80,-30.6685 -80,-68.5c0,-37.8315 35.81722,-68.5 80,-68.5c44.18278,0 80,30.6685 80,68.5z" fill="url(#color-8)" stroke="#ff0000"/><path d="M127.5,302.54955c0,37.8315 -35.81722,68.5 -80,68.5c-44.18278,0 -80,-30.6685 -80,-68.5c0,-37.8315 35.81722,-68.5 80,-68.5c44.18278,0 80,30.6685 80,68.5z" fill="url(#color-9)" stroke="#ff0000"/><path d="M530.5,313.54955c0,37.8315 -35.81722,68.5 -80,68.5c-44.18278,0 -80,-30.6685 -80,-68.5c0,-37.8315 35.81722,-68.5 80,-68.5c44.18278,0 80,30.6685 80,68.5z" fill="url(#color-10)" stroke="#ff0000"/></g></g></svg>