<svg version="1.1" xmlns="http://www.w3.org/2000/svg" xmlns:xlink="http://www.w3.org/1999/xlink" width="50.41712" height="97.77866" viewBox="0,0,50.41712,97.77866"><defs><linearGradient x1="243.77279" y1="150.96047" x2="259.9467" y2="150.96047" gradientUnits="userSpaceOnUse" id="color-1"><stop offset="0" stop-color="#000000" stop-opacity="0"/><stop offset="1" stop-color="#000000"/></linearGradient><linearGradient x1="248.55145" y1="163.82609" x2="264.72536" y2="163.82609" gradientUnits="userSpaceOnUse" id="color-2"><stop offset="0" stop-color="#000000" stop-opacity="0"/><stop offset="1" stop-color="#000000"/></linearGradient><linearGradient x1="233.84789" y1="137.72727" x2="250.0218" y2="137.72727" gradientUnits="userSpaceOnUse" id="color-3"><stop offset="0" stop-color="#000000" stop-opacity="0"/><stop offset="1" stop-color="#000000"/></linearGradient><linearGradient x1="249.65421" y1="180.36759" x2="265.82813" y2="180.36759" gradientUnits="userSpaceOnUse" id="color-4"><stop offset="0" stop-color="#000000" stop-opacity="0"/><stop offset="1" stop-color="#000000"/></linearGradient><linearGradient x1="248.91904" y1="194.33597" x2="265.09295" y2="194.33597" gradientUnits="userSpaceOnUse" id="color-5"><stop offset="0" stop-color="#000000" stop-opacity="0"/><stop offset="1" stop-color="#000000"/></linearGradient><linearGradient x1="245.97832" y1="209.40712" x2="262.15224" y2="209.40712" gradientUnits="userSpaceOnUse" id="color-6"><stop offset="0" stop-color="#000000" stop-opacity="0"/><stop offset="1" stop-color="#000000"/></linearGradient><linearGradient x1="234.58307" y1="222.64032" x2="250.75698" y2="222.64032" gradientUnits="userSpaceOnUse" id="color-7"><stop offset="0" stop-color="#000000" stop-opacity="0"/><stop offset="1" stop-color="#000000"/></linearGradient><radialGradient cx="234.15804" cy="180" r="48.88933" gradientUnits="userSpaceOnUse" id="color-8"><stop offset="0" stop-color="#fffd00" stop-opacity="0"/><stop offset="1" stop-color="#fffd00"/></radialGradient></defs><g transform="translate(-215.411,-131.11067)"><g data-paper-data="{&quot;isPaintingLayer&quot;:true}" fill-rule="nonzero" stroke="none" stroke-width="0" stroke-linecap="butt" stroke-linejoin="miter" stroke-miterlimit="10" stroke-dasharray="" stroke-dashoffset="0" style="mix-blend-mode: normal"><path d="M243.77279,156.8419v-11.76285h16.17391v11.76285z" fill="url(#color-1)"/><path d="M248.55145,169.70751v-11.76285h16.17391v11.76285z" fill="url(#color-2)"/><path d="M233.84789,143.6087v-11.76285h16.17391v11.76285z" fill="url(#color-3)"/><path d="M249.65421,186.24901v-11.76285h16.17391v11.76285z" fill="url(#color-4)"/><path d="M248.91904,200.21739v-11.76285h16.17391v11.76285z" fill="url(#color-5)"/><path d="M245.97832,215.28854v-11.76285h16.17391v11.76285z" fill="url(#color-6)"/><path d="M234.58307,228.52174v-11.76285h16.17391v11.76285z" fill="url(#color-7)"/><path d="M252.90507,180c0,27.00083 -8.39333,48.88933 -18.74704,48.88933c-10.3537,0 -18.74704,-21.8885 -18.74704,-48.88933c0,-27.00083 8.39333,-48.88933 18.74704,-48.88933c10.3537,0 18.74704,21.8885 18.74704,48.88933z" fill="url(#color-8)"/></g></g></svg>