<svg version="1.1" xmlns="http://www.w3.org/2000/svg" xmlns:xlink="http://www.w3.org/1999/xlink" width="74.69484" height="85.31867" viewBox="0,0,74.69484,85.31867"><g transform="translate(-202.61762,-137.34281)"><g data-paper-data="{&quot;isPaintingLayer&quot;:true}" fill="none" fill-rule="nonzero" stroke="#ffffff" stroke-width="2" stroke-linecap="butt" stroke-linejoin="miter" stroke-miterlimit="10" stroke-dasharray="" stroke-dashoffset="0" style="mix-blend-mode: normal"><path d="M241.55284,178.75322l11.4626,21.85474l-12.9178,20.14049l-11.45744,-19.57491z" data-paper-data="{&quot;origRot&quot;:0,&quot;index&quot;:null}"/><path d="M240.30704,177.9949l24.64473,1.28744l10.73508,21.3838l-22.68112,-0.12906z" data-paper-data="{&quot;origRot&quot;:0,&quot;index&quot;:null}"/><path d="M241.9341,179.58848l-12.59669,21.22131l-23.92318,-0.43632l10.65825,-20.02128z" data-paper-data="{&quot;origRot&quot;:0,&quot;index&quot;:null}"/><path d="M227.47053,159.3723l10.46924,-20.12076l13.90395,19.47278l-10.36096,22.39802z" data-paper-data="{&quot;origRot&quot;:0,&quot;index&quot;:null}"/><path d="M251.83755,158.7956l22.64661,-1.25746l-9.65777,21.89147l-21.44107,-1.17991z" data-paper-data="{&quot;origRot&quot;:0,&quot;index&quot;:null}"/><path d="M215.9544,180.79321l-11.64126,-19.46615l23.87183,-1.62614l13.63701,20.56824z" data-paper-data="{&quot;origRot&quot;:0,&quot;index&quot;:null}"/><path d="M253.08497,180c0,6.86006 -5.85834,12.42124 -13.08497,12.42124c-7.22663,0 -13.08497,-5.56118 -13.08497,-12.42124c0,-6.86006 5.85834,-12.42124 13.08497,-12.42124c7.22663,0 13.08497,5.56118 13.08497,12.42124z"/></g></g></svg>