<svg version="1.1" xmlns="http://www.w3.org/2000/svg" xmlns:xlink="http://www.w3.org/1999/xlink" width="515.01502" height="411.01715" viewBox="0,0,515.01502,411.01715"><g transform="translate(17.50751,29.0652)"><g data-paper-data="{&quot;isPaintingLayer&quot;:true}" fill-rule="nonzero" stroke-linecap="butt" stroke-linejoin="miter" stroke-miterlimit="10" stroke-dasharray="" stroke-dashoffset="0" style="mix-blend-mode: normal"><path d="M-17.50751,381.95195v-402.4024h515.01502v402.4024z" fill="none" stroke="none" stroke-width="0"/><path d="M-0.99099,360.93093v-109.60961h480.48048v109.60961z" fill="#ff0000" stroke="none" stroke-width="0"/><path d="M79.30964,36.9197c0,0 13.5547,-0.29252 17.25484,-3.84465c4.36517,-4.19056 7.27233,-19.70143 7.27233,-19.70143c0,0 2.25165,15.5677 6.05398,19.52845c3.81548,3.97445 16.79957,4.27733 16.79957,4.27733c0,0 -13.36868,1.36726 -17.49426,5.32782c-4.04869,3.88675 -7.03291,18.21826 -7.03291,18.21826c0,0 1.59318,-14.02099 -2.02049,-17.78523c-3.97052,-4.13596 -20.83306,-6.02054 -20.83306,-6.02054z" fill="#ff7979" stroke="#ff0000" stroke-width="2.5"/><path d="M312.72762,75.61717c0,0 13.38221,2.17533 17.66619,-0.64533c5.05395,-3.32762 10.73115,-18.05203 10.73115,-18.05203c0,0 -0.61458,15.71768 2.40475,20.3034c3.02978,4.60159 15.74268,7.25872 15.74268,7.25872c0,0 -13.39456,-1.08468 -18.17112,2.0603c-4.68754,3.08637 -10.22621,16.63705 -10.22621,16.63705c0,0 4.11436,-13.49809 1.24484,-17.8563c-3.1529,-4.78858 -19.39227,-9.70582 -19.39227,-9.70582z" fill="#ff7979" stroke="#ff0000" stroke-width="2.5"/><path d="M118.16652,135.64496c0,0 9.96065,-9.19788 10.37962,-14.30994c0.49427,-6.03085 -7.60237,-19.57645 -7.60237,-19.57645c0,0 11.99898,10.17092 17.4711,10.61941c5.49105,0.45003 15.41862,-7.92383 15.41862,-7.92383c0,0 -9.10937,9.8798 -9.57651,15.57963c-0.45844,5.59362 6.79926,18.30675 6.79926,18.30675c0,0 -8.0941,-11.55907 -13.29472,-11.9853c-5.71419,-0.46832 -19.595,9.28973 -19.595,9.28973z" fill="#ff7979" stroke="#ff0000" stroke-width="2.5"/><path d="M202.16652,92.64496c0,0 9.96065,-9.19788 10.37962,-14.30993c0.49427,-6.03085 -7.60237,-19.57644 -7.60237,-19.57644c0,0 11.99898,10.17092 17.4711,10.6194c5.49105,0.45003 15.41862,-7.92383 15.41862,-7.92383c0,0 -9.10937,9.8798 -9.57651,15.57963c-0.45844,5.59362 6.79926,18.30675 6.79926,18.30675c0,0 -8.0941,-11.55907 -13.29472,-11.9853c-5.71419,-0.46832 -19.595,9.28973 -19.595,9.28973z" fill="#ff7979" stroke="#ff0000" stroke-width="2.5"/><path d="M241.16652,193.64496c0,0 9.96065,-9.19788 10.37962,-14.30994c0.49427,-6.03085 -7.60237,-19.57644 -7.60237,-19.57644c0,0 11.99898,10.17092 17.4711,10.61941c5.49106,0.45003 15.41862,-7.92383 15.41862,-7.92383c0,0 -9.10937,9.8798 -9.57651,15.57963c-0.45844,5.59362 6.79926,18.30675 6.79926,18.30675c0,0 -8.0941,-11.55907 -13.29472,-11.9853c-5.71419,-0.46832 -19.595,9.28973 -19.595,9.28973z" fill="#ff7979" stroke="#ff0000" stroke-width="2.5"/><path d="M137.16652,233.64496c0,0 9.96065,-9.19788 10.37962,-14.30994c0.49427,-6.03085 -7.60237,-19.57644 -7.60237,-19.57644c0,0 11.99898,10.17092 17.4711,10.61941c5.49105,0.45003 15.41862,-7.92383 15.41862,-7.92383c0,0 -9.10937,9.8798 -9.57651,15.57963c-0.45844,5.59362 6.79926,18.30675 6.79926,18.30675c0,0 -8.0941,-11.55907 -13.29472,-11.9853c-5.71419,-0.46832 -19.595,9.28973 -19.595,9.28973z" fill="#ff7979" stroke="#ff0000" stroke-width="2.5"/><path d="M42.16652,180.64496c0,0 9.96065,-9.19788 10.37962,-14.30994c0.49428,-6.03085 -7.60237,-19.57644 -7.60237,-19.57644c0,0 11.99898,10.17092 17.4711,10.61941c5.49105,0.45003 15.41862,-7.92383 15.41862,-7.92383c0,0 -9.10937,9.8798 -9.57651,15.57963c-0.45844,5.59362 6.79927,18.30675 6.79927,18.30675c0,0 -8.0941,-11.55907 -13.29472,-11.9853c-5.71419,-0.46832 -19.595,9.28973 -19.595,9.28973z" fill="#ff7979" stroke="#ff0000" stroke-width="2.5"/><path d="M332.16652,231.64496c0,0 9.96065,-9.19788 10.37962,-14.30994c0.49428,-6.03085 -7.60237,-19.57644 -7.60237,-19.57644c0,0 11.99898,10.17092 17.4711,10.61941c5.49106,0.45003 15.41862,-7.92383 15.41862,-7.92383c0,0 -9.10937,9.8798 -9.57651,15.57963c-0.45844,5.59362 6.79926,18.30675 6.79926,18.30675c0,0 -8.0941,-11.55907 -13.29472,-11.9853c-5.71419,-0.46832 -19.595,9.28973 -19.595,9.28973z" fill="#ff7979" stroke="#ff0000" stroke-width="2.5"/><path d="M384.16652,168.64496c0,0 9.96065,-9.19788 10.37962,-14.30994c0.49428,-6.03085 -7.60237,-19.57644 -7.60237,-19.57644c0,0 11.99898,10.17092 17.4711,10.61941c5.49106,0.45003 15.41862,-7.92383 15.41862,-7.92383c0,0 -9.10937,9.8798 -9.57651,15.57963c-0.45844,5.59362 6.79926,18.30675 6.79926,18.30675c0,0 -8.0941,-11.55907 -13.29472,-11.9853c-5.71419,-0.46832 -19.595,9.28973 -19.595,9.28973z" fill="#ff7979" stroke="#ff0000" stroke-width="2.5"/><path d="M416.16652,69.64496c0,0 9.96065,-9.19788 10.37962,-14.30993c0.49428,-6.03085 -7.60237,-19.57644 -7.60237,-19.57644c0,0 11.99898,10.17092 17.4711,10.61941c5.49106,0.45003 15.41862,-7.92384 15.41862,-7.92384c0,0 -9.10937,9.8798 -9.57651,15.57964c-0.45844,5.59362 6.79926,18.30675 6.79926,18.30675c0,0 -8.0941,-11.55907 -13.29472,-11.9853c-5.71419,-0.46833 -19.595,9.28973 -19.595,9.28973z" fill="#ff7979" stroke="#ff0000" stroke-width="2.5"/><path d="M276.16652,38.64496c0,0 9.96065,-9.19788 10.37962,-14.30994c0.49428,-6.03085 -7.60237,-19.57644 -7.60237,-19.57644c0,0 11.99898,10.17092 17.4711,10.61941c5.49106,0.45003 15.41862,-7.92384 15.41862,-7.92384c0,0 -9.10937,9.87979 -9.57651,15.57964c-0.45844,5.59362 6.79926,18.30675 6.79926,18.30675c0,0 -8.0941,-11.55907 -13.29472,-11.9853c-5.71419,-0.46833 -19.595,9.28973 -19.595,9.28973z" fill="#ff7979" stroke="#ff0000" stroke-width="2.5"/><path d="M365.16652,10.64496c0,0 9.96065,-9.19788 10.37962,-14.30993c0.49428,-6.03085 -7.60237,-19.57644 -7.60237,-19.57644c0,0 11.99898,10.17092 17.4711,10.61941c5.49106,0.45003 15.41862,-7.92383 15.41862,-7.92383c0,0 -9.10937,9.8798 -9.57651,15.57964c-0.45844,5.59362 6.79926,18.30675 6.79926,18.30675c0,0 -8.0941,-11.55907 -13.29472,-11.9853c-5.71419,-0.46832 -19.595,9.28973 -19.595,9.28973z" fill="#ff7979" stroke="#ff0000" stroke-width="2.5"/><path d="M169.16652,14.64496c0,0 9.96065,-9.19788 10.37962,-14.30993c0.49427,-6.03085 -7.60237,-19.57644 -7.60237,-19.57644c0,0 11.99898,10.17092 17.4711,10.61941c5.49105,0.45003 15.41862,-7.92383 15.41862,-7.92383c0,0 -9.10937,9.8798 -9.57651,15.57964c-0.45844,5.59362 6.79926,18.30675 6.79926,18.30675c0,0 -8.0941,-11.55907 -13.29472,-11.9853c-5.71419,-0.46833 -19.595,9.28973 -19.595,9.28973z" fill="#ff7979" stroke="#ff0000" stroke-width="2.5"/><path d="M25.16652,92.64496c0,0 9.96065,-9.19788 10.37962,-14.30993c0.49428,-6.03085 -7.60237,-19.57644 -7.60237,-19.57644c0,0 11.99898,10.17092 17.4711,10.6194c5.49106,0.45003 15.41862,-7.92383 15.41862,-7.92383c0,0 -9.10937,9.8798 -9.57651,15.57963c-0.45844,5.59362 6.79926,18.30675 6.79926,18.30675c0,0 -8.0941,-11.55907 -13.29472,-11.9853c-5.71419,-0.46832 -19.595,9.28973 -19.595,9.28973z" fill="#ff7979" stroke="#ff0000" stroke-width="2.5"/></g></g></svg>