<svg version="1.1" xmlns="http://www.w3.org/2000/svg" xmlns:xlink="http://www.w3.org/1999/xlink" width="770.61746" height="552.39219" viewBox="0,0,770.61746,552.39219"><defs><linearGradient x1="93.34471" y1="156.12031" x2="93.34471" y2="273.23743" gradientUnits="userSpaceOnUse" id="color-1"><stop offset="0" stop-color="#b5b000"/><stop offset="1" stop-color="#000000"/></linearGradient><linearGradient x1="93.34471" y1="151.61581" x2="93.34471" y2="273.23743" gradientUnits="userSpaceOnUse" id="color-2"><stop offset="0" stop-color="#dde000"/><stop offset="1" stop-color="#ff0000"/></linearGradient><linearGradient x1="-20.3071" y1="375.17427" x2="159.21238" y2="375.17427" gradientUnits="userSpaceOnUse" id="color-3"><stop offset="0" stop-color="#000000"/><stop offset="1" stop-color="#000000" stop-opacity="0"/></linearGradient><linearGradient x1="499.34841" y1="377.57856" x2="325.33044" y2="377.57856" gradientUnits="userSpaceOnUse" id="color-4"><stop offset="0" stop-color="#000000"/><stop offset="1" stop-color="#000000" stop-opacity="0"/></linearGradient><linearGradient x1="182.34701" y1="78.05808" x2="279.76339" y2="223.61876" gradientUnits="userSpaceOnUse" id="color-5"><stop offset="0" stop-color="#bababa"/><stop offset="1" stop-color="#896060"/></linearGradient><linearGradient x1="257.01783" y1="190.19273" x2="279.37569" y2="223.6001" gradientUnits="userSpaceOnUse" id="color-6"><stop offset="0" stop-color="#b08c4e"/><stop offset="1" stop-color="#7b7b7b"/></linearGradient><radialGradient cx="202.32742" cy="243.02783" r="7.8664" gradientUnits="userSpaceOnUse" id="color-7"><stop offset="0" stop-color="#844f4f"/><stop offset="1" stop-color="#8a8a8a"/></radialGradient><radialGradient cx="227.62548" cy="227.00683" r="7.8664" gradientUnits="userSpaceOnUse" id="color-8"><stop offset="0" stop-color="#844f4f"/><stop offset="1" stop-color="#8a8a8a"/></radialGradient><radialGradient cx="250.66002" cy="212.49652" r="7.8664" gradientUnits="userSpaceOnUse" id="color-9"><stop offset="0" stop-color="#844f4f"/><stop offset="1" stop-color="#8a8a8a"/></radialGradient><radialGradient cx="271.76429" cy="197.54844" r="7.8664" gradientUnits="userSpaceOnUse" id="color-10"><stop offset="0" stop-color="#844f4f"/><stop offset="1" stop-color="#8a8a8a"/></radialGradient><radialGradient cx="297.79488" cy="180.17554" r="7.8664" gradientUnits="userSpaceOnUse" id="color-11"><stop offset="0" stop-color="#844f4f"/><stop offset="1" stop-color="#8a8a8a"/></radialGradient><radialGradient cx="320.99605" cy="164.69099" r="7.8664" gradientUnits="userSpaceOnUse" id="color-12"><stop offset="0" stop-color="#844f4f"/><stop offset="1" stop-color="#8a8a8a"/></radialGradient><linearGradient x1="169.15328" y1="58.2655" x2="206.32045" y2="113.80113" gradientUnits="userSpaceOnUse" id="color-13"><stop offset="0" stop-color="#b4d400"/><stop offset="1" stop-color="#738103"/></linearGradient><radialGradient cx="182.80827" cy="167.37975" r="18.38749" gradientUnits="userSpaceOnUse" id="color-14"><stop offset="0" stop-color="#00ffda"/><stop offset="1" stop-color="#05cac9"/></radialGradient><radialGradient cx="256.70347" cy="118.995" r="18.38749" gradientUnits="userSpaceOnUse" id="color-15"><stop offset="0" stop-color="#00ffda"/><stop offset="1" stop-color="#05cac9"/></radialGradient><linearGradient x1="238.20707" y1="163.92031" x2="243.33075" y2="171.57617" gradientUnits="userSpaceOnUse" id="color-16"><stop offset="0" stop-color="#ff0000"/><stop offset="1" stop-color="#650000"/></linearGradient><linearGradient x1="242.20318" y1="269.97346" x2="242.20318" y2="367.23675" gradientTransform="translate(-4.73841,-169.23237) scale(0.46343,0.49347)" gradientUnits="userSpaceOnUse" id="color-17"><stop offset="0" stop-color="#dde000"/><stop offset="1" stop-color="#ff0000"/></linearGradient></defs><g transform="translate(65.72914,70.67058)"><g data-paper-data="{&quot;isPaintingLayer&quot;:true}" fill-rule="nonzero" stroke-linejoin="miter" stroke-miterlimit="10" stroke-dasharray="" stroke-dashoffset="0" style="mix-blend-mode: normal"><path d="M-64.72914,392.67877v-432h591v432z" fill="#610000" stroke="#000000" stroke-width="2" stroke-linecap="butt"/><path d="M43.0444,273.23743l48.04805,-115.61562l52.55255,115.61562z" fill="url(#color-1)" stroke="url(#color-2)" stroke-width="0" stroke-linecap="butt"/><path d="M-38.82061,477.46911v-204.28609h543.92187v204.28609z" fill="#e50000" stroke="none" stroke-width="NaN" stroke-linecap="butt"/><path d="M-18.26353,429.18635v-265.93456h542v265.93456z" fill="none" stroke="none" stroke-width="0" stroke-linecap="butt"/><path d="M-20.3071,478.06806v-205.78759h179.51947v205.78759z" fill="url(#color-3)" stroke="none" stroke-width="NaN" stroke-linecap="butt"/><path d="M325.33044,481.72161v-208.28609h174.01796v208.28609z" data-paper-data="{&quot;index&quot;:null}" fill="url(#color-4)" stroke="none" stroke-width="NaN" stroke-linecap="butt"/><text transform="translate(698.17046,-42.64259) scale(0.56423,0.66094)" font-size="40" xml:space="preserve" fill="#ffffff" fill-rule="nonzero" stroke="none" stroke-width="1" stroke-linecap="butt" stroke-linejoin="miter" stroke-miterlimit="10" stroke-dasharray="" stroke-dashoffset="0" font-family="Sans Serif" font-weight="normal" text-anchor="start" style="mix-blend-mode: normal"><tspan x="0" dy="0"> </tspan></text><g stroke="#000000" stroke-width="2.5"><path d="M205.34987,273.28259l-97.41638,-145.56068l148.82703,-99.32767l97.41638,145.56068z" fill="url(#color-5)" stroke-linecap="butt"/><path d="M204.67923,273.45277l-22.35786,-33.40737l149.39291,-99.70534l22.35786,33.40737z" fill="url(#color-6)" stroke-linecap="butt"/><path d="M206.8256,238.7401c2.54951,3.80951 2.08275,8.58862 -1.04252,10.67444c-3.12528,2.08582 -7.72561,0.6885 -10.27512,-3.12101c-2.54951,-3.80951 -2.08276,-8.58862 1.04252,-10.67444c3.12528,-2.08582 7.72561,-0.6885 10.27512,3.12101z" fill="url(#color-7)" stroke-linecap="butt"/><path d="M232.12367,222.7191c2.54951,3.80951 2.08275,8.58862 -1.04252,10.67444c-3.12528,2.08582 -7.72561,0.6885 -10.27512,-3.12101c-2.54951,-3.80951 -2.08275,-8.58862 1.04252,-10.67444c3.12528,-2.08582 7.72561,-0.6885 10.27512,3.12101z" fill="url(#color-8)" stroke-linecap="butt"/><path d="M253.96046,206.41911c2.54951,3.80951 2.08275,8.58862 -1.04252,10.67444c-3.12528,2.08582 -7.72561,0.6885 -10.27512,-3.12101c-2.54951,-3.80951 -2.08275,-8.58862 1.04252,-10.67444c3.12528,-2.08582 7.72561,-0.6885 10.27512,3.12101z" fill="url(#color-9)" stroke-linecap="butt"/><path d="M277.16163,190.93457c2.54951,3.80951 2.08276,8.58862 -1.04252,10.67444c-3.12528,2.08582 -7.72561,0.6885 -10.27512,-3.12101c-2.54951,-3.80951 -2.08275,-8.58862 1.04252,-10.67444c3.12528,-2.08582 7.72561,-0.6885 10.27512,3.12101z" fill="url(#color-10)" stroke-linecap="butt"/><path d="M301.6612,173.72045c2.54951,3.80951 2.08276,8.58862 -1.04252,10.67444c-3.12528,2.08582 -7.72561,0.6885 -10.27512,-3.12101c-2.54951,-3.80951 -2.08276,-8.58862 1.04252,-10.67444c3.12528,-2.08582 7.72561,-0.6885 10.27512,3.12101z" fill="url(#color-11)" stroke-linecap="butt"/><path d="M325.49423,160.40326c2.54951,3.80951 2.08276,8.58862 -1.04252,10.67444c-3.12528,2.08582 -7.72561,0.6885 -10.27512,-3.12101c-2.54951,-3.80951 -2.08276,-8.58862 1.04252,-10.67444c3.12528,-2.08582 7.72561,-0.6885 10.27512,3.12101z" fill="url(#color-12)" stroke-linecap="butt"/><path d="M131.97322,163.42073l-37.16718,-55.53563l40.93679,11.56668l14.57705,-34.25134l42.42259,7.40433l11.4555,-39.52082l37.41036,-1.65886l1.89219,-42.7792l37.16718,55.53563z" fill="url(#color-13)" stroke-linecap="butt"/><path d="M196.45769,153.85732c4.13848,6.18376 0.64598,15.76668 -7.80073,21.40405c-8.4467,5.63736 -18.64902,5.19442 -22.7875,-0.98935c-4.13848,-6.18376 14.29584,-15.37231 14.29584,-15.37231c0,0 12.1539,-11.22615 16.29239,-5.04238z" fill="url(#color-14)" stroke-linecap="butt"/><path d="M250.03002,112.69678c0,0 15.5526,-13.49445 19.69108,-7.31068c4.13848,6.18376 0.64598,15.76668 -7.80073,21.40405c-8.44671,5.63736 -18.64902,5.19442 -22.7875,-0.98935c-4.13848,-6.18376 10.89715,-13.10401 10.89715,-13.10401z" data-paper-data="{&quot;index&quot;:null}" fill="url(#color-15)" stroke-linecap="butt"/><path d="M239.62178,162.97613c7.47285,-4.9874 36.81308,-13.49377 36.81308,-13.49377l-66.20822,44.1876c0,0 21.92229,-25.70643 29.39514,-30.69383z" fill="url(#color-16)" stroke-linecap="round"/><path d="M184.86457,198.58635l-6.36004,13.73793l-12.2481,1.27027" fill="none" stroke-linecap="round"/><path d="M182.00048,206.53898l11.21361,10.6394" fill="none" stroke-linecap="round"/><path d="M217.11222,65.73467l8.51953,2.94423l-5.43297,34.69468" fill="none" stroke-linecap="round"/><path d="M222.90299,67.048l16.01134,-11.54904l18.73671,4.75544" fill="none" stroke-linecap="round"/><path d="M262.04276,66.81656l-12.41473,2.2445l-17.43831,-6.48501" fill="none" stroke-linecap="round"/><path d="M285.57808,190.05511l18.77139,-1.30884l14.81359,-13.33872l33.51563,-2.519" fill="none" stroke-linecap="round"/><path d="M230.94378,125.54497l-1.36776,13.85814l-11.9808,-3.22322" fill="none" stroke-linecap="round"/><path d="M239.82788,135.15004l-7.15516,-2.12878" fill="none" stroke-linecap="round"/><path d="M139.12112,114.33411l21.69808,7.95713l-0.00338,14.67358" fill="none" stroke-linecap="round"/><path d="M163.18001,131.93488l10.21718,1.81121" fill="none" stroke-linecap="round"/><path d="M327.29349,133.73446l-14.34499,1.80672l-21.23285,-4.81554l3.8639,-13.79803" fill="none" stroke-linecap="round"/><path d="M304.8942,135.73854l-10.78644,13.24004" fill="none" stroke-linecap="round"/><path d="M129.29305,157.14021l38.57389,0.14623l23.86095,9.9657l15.47675,-2.56207" fill="none" stroke-linecap="round"/><path d="M159.74328,169.61236l-8.15158,-10.95697" fill="none" stroke-linecap="round"/><path d="M163.77381,154.8401l29.02325,-5.56191l28.45399,9.48935" fill="none" stroke-linecap="round"/><path d="M191.72789,167.25214l12.8106,13.02564" fill="none" stroke-linecap="round"/><path d="M194.49808,133.47159l-2.46484,8.5492l-9.32141,10.53624" fill="none" stroke-linecap="round"/><path d="M200.75071,152.60009l11.48428,-8.52767" fill="none" stroke-linecap="round"/><path d="M247.09809,215.73679l10.11652,5.33047l0.72914,13.32168" fill="none" stroke-linecap="round"/><path d="M179.16681,82.42937l7.15516,2.12878l6.08937,5.42915" fill="none" stroke-linecap="round"/><path d="M195.77533,79.11196l-9.68598,3.8754" fill="none" stroke-linecap="round"/></g><text transform="translate(10.22472,342.94094) scale(2.15784,2.02645)" font-size="40" xml:space="preserve" fill="#838383" fill-rule="nonzero" stroke="url(#color-17)" stroke-width="2" stroke-linecap="butt" stroke-linejoin="miter" stroke-miterlimit="10" stroke-dasharray="" stroke-dashoffset="0" font-family="Pixel" font-weight="normal" text-anchor="start" style="mix-blend-mode: normal"><tspan x="0" dy="0">UNbroKen</tspan></text><text transform="translate(0.16593,68.68034) scale(1.50041,1.75761)" font-size="40" xml:space="preserve" fill="#02ff00" fill-rule="nonzero" stroke="#00aaff" stroke-width="2" stroke-linecap="butt" stroke-linejoin="miter" stroke-miterlimit="10" stroke-dasharray="" stroke-dashoffset="0" font-family="Pixel" font-weight="normal" text-anchor="start" style="mix-blend-mode: normal"><tspan x="0" dy="0">geometry dash</tspan></text><path d="M235.03163,263.20115l-27,10" fill="none" stroke="#fff700" stroke-width="2.5" stroke-linecap="round"/><path d="M230.03163,269.70115l38,-12" fill="none" stroke="#fff700" stroke-width="2.5" stroke-linecap="round"/><path d="M278.53163,241.20115l8,-6.5" fill="none" stroke="#fff700" stroke-width="2.5" stroke-linecap="round"/><path d="M298.53163,255.20115l-5,4l1,-4.5" fill="none" stroke="#fff700" stroke-width="2.5" stroke-linecap="round"/><path d="M321.03163,238.20115l7,-7" fill="none" stroke="#fff700" stroke-width="2.5" stroke-linecap="round"/><path d="M320.03163,214.70115l4.5,-4" fill="none" stroke="#fff700" stroke-width="2.5" stroke-linecap="round"/><path d="M271.03163,269.70115l39.5,-31.5" fill="none" stroke="#fff700" stroke-width="2.5" stroke-linecap="round"/><path d="M298.53163,229.70115l-59.5,28.5" fill="none" stroke="#fff700" stroke-width="2.5" stroke-linecap="round"/><path d="M204.03163,275.70115l-47.5,-47" fill="none" stroke="#fff700" stroke-width="2.5" stroke-linecap="round"/><path d="M193.03163,275.70115l-41,-25.5" fill="none" stroke="#fff700" stroke-width="2.5" stroke-linecap="round"/><path d="M175.53163,275.20115l-8,-6" fill="none" stroke="#fff700" stroke-width="2.5" stroke-linecap="round"/><path d="M164.53163,223.20115l-23,-27" fill="none" stroke="#fff700" stroke-width="2.5" stroke-linecap="round"/><path d="M135.53163,213.70115l-12.5,-13.5" fill="none" stroke="#fff700" stroke-width="2.5" stroke-linecap="round"/><path d="M120.53163,178.20115l-6,-6" fill="none" stroke="#fff700" stroke-width="2.5" stroke-linecap="round"/></g></g></svg>