<?xml version="1.0" encoding="utf-8"?>
<svg viewBox="19.313 -7.833 452.492 499.142" width="452.492" height="499.142" xmlns="http://www.w3.org/2000/svg">
  <path fill="rgb(255,0,0)" stroke="rgb(255,0,0)" stroke-width="0" d="M 196.483 61.818 C 201.491 61.422 205.22 62.476 209.874 62.488 C 214.795 62.501 219.061 61.359 225.275 61.818 C 233.449 62.423 247.026 67.019 255.406 67.175 C 262.022 67.298 266.377 64.433 272.145 64.497 C 278.188 64.564 285.256 65.552 290.893 67.845 C 296.384 70.077 300.143 76.831 305.625 77.888 C 311.268 78.977 319.229 73.819 324.372 73.871 C 328.398 73.911 331.117 74.832 334.416 76.549 C 338.162 78.499 342.93 82.972 345.464 85.588 C 347.283 87.467 347.229 89.211 349.147 90.61 C 351.594 92.396 356.467 94.125 359.86 94.627 C 362.906 95.079 364.646 93.297 368.565 93.958 C 374.864 95.021 388.128 100.194 395.348 104.002 C 401.313 107.148 407.789 112.783 409.744 114.38 C 410.456 114.962 410.056 114.78 410.748 115.385 C 412.643 117.041 420.604 122.204 424.474 126.433 C 428.281 130.591 431.845 135.641 433.849 140.494 C 435.723 145.036 436.321 150.827 436.527 154.555 C 436.679 157.312 435.82 158.646 435.857 161.251 C 435.904 164.474 437.299 169.418 437.197 172.634 C 437.113 175.248 435.438 176.902 435.857 179.33 C 436.367 182.277 438.665 187.232 441.214 189.038 C 443.573 190.71 446.967 188.915 450.253 190.378 C 454.578 192.301 461.297 197.551 464.649 201.425 C 467.431 204.641 468.876 207.613 470.006 211.469 C 471.261 215.752 472.501 220.937 471.345 226.199 C 469.961 232.502 464.315 242.095 460.297 246.622 C 457.253 250.052 452.038 250.13 450.588 252.983 C 449.218 255.678 451.792 259.482 451.258 263.027 C 450.656 267.019 448.914 271.52 446.571 275.748 C 443.965 280.451 438.747 283.961 435.857 289.81 C 432.46 296.686 431.631 307.083 428.492 315.254 C 425.374 323.371 421.295 332.226 417.11 338.689 C 413.495 344.27 408.891 349.338 405.391 352.416 C 402.83 354.667 400.171 354.635 398.361 356.767 C 396.392 359.086 396.468 362.958 394.343 366.142 C 391.793 369.964 387.706 374.911 383.296 377.859 C 378.805 380.861 371.094 381.463 367.561 383.886 C 364.958 385.67 363.909 388.607 362.538 389.912 C 361.621 390.785 360.766 390.977 360.195 391.585 C 359.706 392.107 359.962 392.567 359.19 393.26 C 357.596 394.692 351.82 396.727 348.812 399.285 C 345.79 401.856 345.182 405.713 341.112 408.66 C 335.384 412.806 322.981 417.874 314.998 420.043 C 308.231 421.881 298.817 422.324 296.25 422.051 C 295.319 421.952 295.889 421.439 294.911 421.382 C 291.956 421.208 276.887 425.316 271.475 425.399 C 268.068 425.451 265.726 423.998 264.111 424.06 C 263.135 424.098 262.687 424.763 262.102 424.73 C 261.591 424.7 261.534 424.045 260.763 424.06 C 259.117 424.092 254.855 426.823 251.388 427.408 C 247.564 428.054 241.225 427.675 238.666 427.408 C 237.278 427.263 237.255 426.554 235.988 426.739 C 233.779 427.06 229.927 430.493 225.945 431.426 C 221.247 432.525 212.718 432.504 209.205 432.095 C 207.178 431.859 207.152 430.623 205.187 430.756 C 201.748 430.989 194.245 435.569 189.117 436.782 C 184.465 437.883 180.711 438.645 175.726 438.121 C 169.773 437.496 162.003 432.427 155.638 432.095 C 149.777 431.789 144.315 435.701 138.899 435.443 C 133.609 435.191 129.901 434.022 123.499 430.756 C 113.661 425.738 93.978 413.398 84.998 403.638 C 77.547 395.54 75.633 383.667 70.602 377.859 C 66.826 373.501 62.589 373.999 58.884 369.49 C 53.822 363.327 47.558 350.336 44.823 341.367 C 42.414 333.464 41.728 325.306 42.144 318.602 C 42.506 312.808 46.631 308.336 46.162 303.201 C 45.673 297.846 40.229 292.444 38.796 287.132 C 37.464 282.183 37.186 274.601 37.457 272.4 C 37.566 271.521 38.251 271.917 38.127 271.061 C 37.792 268.734 30.938 260.345 29.423 254.992 C 28.032 250.079 27.845 246.893 28.753 240.261 C 30.184 229.808 35.545 210.04 41.475 196.069 C 47.386 182.146 61.561 165.181 64.241 156.563 C 65.704 151.859 63.621 150.408 64.241 146.52 C 65.028 141.587 66.77 134.395 69.598 129.111 C 72.446 123.786 76.962 118.347 81.315 114.715 C 85.294 111.396 90.538 111.28 94.372 107.685 C 98.722 103.605 101.316 94.787 105.42 90.61 C 108.91 87.06 112.33 84.918 116.803 83.245 C 121.77 81.388 129.419 80.637 134.212 80.567 C 137.952 80.512 139.845 82.306 143.586 81.906 C 148.535 81.378 156.137 78.613 161.665 75.88 C 167.047 73.218 170.793 68.172 176.396 65.836 C 182.317 63.367 190.55 62.288 196.483 61.818 Z M 249.714 126.098 C 241.413 124.773 218.995 127.7 209.539 130.785 C 202.928 132.942 200.388 137.713 195.479 139.489 C 190.773 141.192 185.091 138.88 180.748 141.498 C 175.759 144.506 170.191 152.307 168.025 158.238 C 166.017 163.739 168.956 169.86 167.356 175.646 C 165.623 181.915 161.191 189.436 157.313 194.395 C 153.924 198.728 147.17 201.25 145.93 204.439 C 145.029 206.754 146.329 210.029 147.269 211.134 C 147.922 211.904 148.937 211.771 149.947 211.804 C 151.126 211.841 152.855 211.788 153.965 211.134 C 155.097 210.467 155.585 208.862 156.643 207.786 C 157.788 206.622 159.238 206.169 160.661 204.439 C 162.72 201.932 164.441 196.186 167.356 193.056 C 170.253 189.945 174.686 189.444 178.069 185.69 C 182.393 180.893 188.616 167.668 190.122 164.934 C 190.618 164.033 189.969 164.357 190.792 163.595 C 193.89 160.721 214.963 146.013 225.609 141.498 C 234.281 137.821 243.804 138.171 249.714 136.141 C 253.909 134.702 259.052 133.117 259.088 131.454 C 259.126 129.772 254.608 126.88 249.714 126.098 Z M 368.23 170.29 C 367.017 170.021 363.725 170.259 362.204 171.629 C 360.41 173.245 357.633 177.529 358.856 180.334 C 360.596 184.323 376.53 193.234 378.273 191.717 C 379.998 190.216 371.225 174.322 369.569 171.629 C 368.947 170.618 368.986 170.458 368.23 170.29 Z M 244.358 325.632 C 244.023 325.521 243.763 325.632 243.019 326.301 C 240.787 328.311 228.414 342.923 228.288 344.38 C 228.248 344.845 229.117 344.692 229.627 344.38 C 230.54 343.821 231.056 341.285 232.975 339.693 C 235.855 337.305 245.77 334.921 247.036 332.328 C 247.879 330.603 245.515 328.112 245.028 326.971 C 244.742 326.304 244.692 325.744 244.358 325.632 Z M 330.064 346.389 C 328.56 346.134 320.54 349.934 318.681 351.076 C 317.801 351.616 317.034 352.323 317.342 352.416 C 318.03 352.623 329.833 348.96 330.734 347.728 C 331.099 347.227 330.712 346.498 330.064 346.389 Z M 317.342 352.416 L 317.342 353.085 L 317.342 352.416 Z M 198.827 359.78 C 196.748 360.885 193.919 367.258 193.47 368.485 C 193.319 368.898 193.208 369.057 193.47 369.154 C 194.187 369.423 199.718 368.683 201.505 367.146 C 203.196 365.691 204.823 361.634 204.183 360.45 C 203.613 359.396 200.437 358.926 198.827 359.78 Z M 272.48 361.119 C 271.151 361.494 270.931 363.066 270.471 363.798 C 270.138 364.329 269.65 364.989 269.802 365.137 C 269.976 365.308 270.787 364.564 271.811 364.467 C 273.614 364.297 278.132 365.353 280.515 365.137 C 282.402 364.966 285.424 364.307 285.202 363.798 C 284.873 363.044 274.768 360.477 272.48 361.119 Z" style="fill: rgb(37, 146, 255); fill-opacity: 1; fill-rule: nonzero; stroke: none; stroke-dasharray: none; stroke-dashoffset: 0px; stroke-linecap: round; stroke-linejoin: round; stroke-miterlimit: 4; stroke-opacity: 1; stroke-width: 38.2508px; paint-order: stroke; vector-effect: none; opacity: 1; mix-blend-mode: normal; isolation: auto;"/>
  <path fill="rgb(255,0,0)" stroke="rgb(255,0,0)" stroke-width="0" d="M 420.277 -7.649 C 425.403 -8.096 428.585 -7.766 432.229 -6.243 C 435.989 -4.671 440.134 -2.003 442.424 1.843 C 445.027 6.215 446.071 14.536 445.939 19.42 C 445.834 23.324 443.443 25.536 443.127 29.263 C 442.76 33.585 444.658 38.566 444.533 44.028 C 444.388 50.338 443.643 58.881 441.721 65.12 C 439.965 70.82 436.637 77.076 433.987 80.236 C 432.147 82.431 430.223 81.695 428.362 84.103 C 425.397 87.941 423.838 100.104 419.574 104.141 C 415.961 107.561 406.408 107.489 405.864 108.711 C 405.561 109.39 407.694 109.378 408.676 110.469 C 410.208 112.17 412.655 116.071 413.597 119.257 C 414.558 122.506 415.254 125.73 414.301 129.804 C 413.026 135.251 407.082 146.023 404.106 149.138 C 402.452 150.87 400.457 150.401 399.536 151.248 C 398.856 151.872 399.088 152.793 398.481 153.357 C 397.774 154.015 396.293 153.597 395.317 154.763 C 393.694 156.702 391.583 162.914 391.099 166.364 C 390.697 169.23 392.64 170.838 391.802 174.098 C 390.505 179.144 383.38 190.946 380.201 194.135 C 378.475 195.868 376.641 194.859 375.631 196.245 C 374.403 197.93 375.6 201.082 374.225 204.33 C 372.202 209.109 365.349 219.316 362.272 222.259 C 360.597 223.861 359.86 222.618 358.054 224.368 C 354.286 228.017 346.347 243.699 341.531 248.976 C 338.288 252.53 335.179 253.406 332.743 255.655 C 330.605 257.63 329.681 259.973 327.47 261.631 C 325.073 263.429 321.231 263.298 318.681 265.85 C 315.521 269.012 312.512 278.577 310.947 280.614 C 310.311 281.443 310.581 280.907 309.541 281.669 C 305.994 284.27 286.754 300.272 278.957 303.816 C 274.006 306.067 268.772 305.95 267.005 305.925 C 266.326 305.916 266.323 305.229 265.95 305.574 C 264.938 306.509 264.298 315.584 262.435 318.581 C 260.981 320.919 258.745 321.151 256.81 323.151 C 254.44 325.6 251.387 330.629 249.428 332.643 C 248.165 333.94 247.316 333.669 246.264 335.103 C 244.617 337.348 244.352 341.764 241.342 346.353 C 236.72 353.398 225.759 367.467 217.789 373.421 C 211.305 378.265 203.051 380.735 198.103 381.858 C 194.81 382.606 191.84 382.148 190.369 381.858 C 189.591 381.705 189.735 380.807 188.962 381.155 C 186.684 382.181 178.626 396.589 174.198 399.435 C 171.29 401.304 167.409 398.954 166.112 400.841 C 164.55 403.116 168.588 409.66 167.518 413.848 C 166.368 418.354 162.541 422.694 158.73 426.855 C 154.451 431.528 149.267 435.967 142.559 440.214 C 134.501 445.316 118.465 449.936 112.678 454.627 C 109.007 457.602 110.017 460.775 106.702 463.416 C 102.213 466.991 89.99 469.084 85.961 472.556 C 83.2 474.934 83.92 478.137 81.742 480.29 C 79.308 482.696 75.749 484.538 71.548 485.914 C 66.417 487.595 56.864 488.606 52.564 488.727 C 49.925 488.8 49.103 488.064 46.94 488.023 C 44.317 487.974 41.037 489.46 37.8 488.727 C 33.965 487.858 28.502 485.136 25.496 482.047 C 22.616 479.089 20.775 474.559 19.871 470.798 C 19.028 467.293 19.233 463.491 19.871 460.252 C 20.474 457.193 23.111 453.97 23.386 451.815 C 23.576 450.332 22.58 449.996 22.683 448.299 C 22.861 445.39 25.955 439.483 26.199 434.941 C 26.445 430.345 22.817 426.348 24.09 420.879 C 25.844 413.341 35.013 398.594 40.612 393.811 C 44.436 390.543 49.04 392.628 52.213 389.944 C 55.792 386.915 57.383 377.892 60.298 375.53 C 62.303 373.906 64.676 373.812 66.626 374.124 C 68.536 374.43 70.771 375.575 71.899 377.288 C 73.187 379.243 73.921 382.7 73.305 385.725 C 72.558 389.396 66.708 393.344 66.275 397.678 C 65.82 402.216 71.146 408.001 71.196 412.442 C 71.24 416.324 68.037 421.173 67.681 422.988 C 67.525 423.782 67.751 423.617 67.681 424.395 C 67.531 426.047 67.557 430.447 66.275 433.535 C 64.789 437.112 57.622 442.744 58.541 444.432 C 59.45 446.103 68.908 443.536 71.548 443.729 C 72.995 443.835 73.487 444.6 74.36 444.432 C 75.247 444.262 75.83 443.637 76.821 442.675 C 78.387 441.154 79.783 437.318 82.797 435.292 C 86.642 432.709 95.786 432.143 99.319 429.668 C 101.88 427.874 102.021 425.095 103.889 423.34 C 105.767 421.576 108.513 421.365 110.569 419.121 C 113.189 416.263 115.527 408.898 117.6 406.466 C 118.874 404.971 119.826 405.234 121.115 404.005 C 122.886 402.316 124.519 398.977 127.091 396.623 C 130.065 393.902 134.693 390.373 138.341 388.889 C 141.462 387.619 144.277 387.129 147.481 387.483 C 151.037 387.875 156.656 392.618 158.73 391.701 C 160.392 390.967 159.174 387.238 160.488 385.022 C 162.094 382.311 166.654 378.168 168.573 376.937 C 169.628 376.26 170.105 376.887 171.034 376.234 C 172.516 375.191 174.868 371.276 176.307 369.906 C 177.27 368.988 178.523 368.845 178.768 368.148 C 178.984 367.532 177.888 367.31 178.065 366.039 C 178.509 362.84 182.55 352.971 187.205 345.65 C 193.017 336.507 202.162 323.983 212.164 315.769 C 222.366 307.39 240.773 298.593 248.021 296.082 C 251.682 294.814 254.291 296.727 255.404 295.379 C 256.517 294.032 253.949 290.741 254.701 287.997 C 255.689 284.386 259.261 279.432 262.786 275.693 C 266.613 271.634 272.839 269.204 277.199 264.795 C 281.794 260.149 285.851 251.425 289.503 248.273 C 291.927 246.181 293.799 247.178 296.183 245.109 C 299.705 242.051 306.051 231.839 307.783 229.29 C 308.485 228.257 308.027 228.813 308.838 227.532 C 311.647 223.096 331.009 192.906 333.798 189.214 C 334.507 188.275 334.3 188.81 334.852 188.159 C 336.082 186.711 339.837 181.081 341.531 179.371 C 342.541 178.352 343.236 178.848 343.992 177.613 C 345.38 175.347 345.434 168.444 347.508 164.255 C 349.681 159.863 353.04 155.109 356.999 151.951 C 360.994 148.764 369.431 147.433 371.412 145.271 C 372.505 144.08 372.179 143.433 372.116 141.756 C 372.01 138.951 369.031 133.424 369.303 129.1 C 369.591 124.53 372.143 118.647 374.225 115.039 C 375.923 112.094 377.3 110.055 380.201 108.36 C 383.823 106.243 394.295 106.795 395.317 104.493 C 396.157 102.6 390.86 99.522 389.693 96.759 C 388.576 94.116 387.69 91.791 388.286 88.322 C 389.142 83.346 396.315 74.583 397.427 69.339 C 398.247 65.467 396.369 63.356 396.723 59.495 C 397.175 54.577 401.403 43.095 400.942 41.918 C 400.791 41.533 400.526 42.026 399.887 42.27 C 398.288 42.881 392.454 44.07 389.693 46.488 C 386.736 49.078 385.702 55.058 383.013 57.738 C 380.669 60.074 377.178 60.386 374.928 62.308 C 372.755 64.163 371.221 67.403 369.655 68.987 C 368.496 70.159 367.651 70.119 366.491 71.448 C 364.74 73.453 362.384 78.766 360.515 80.939 C 359.162 82.512 358.093 82.644 356.648 84.103 C 354.704 86.066 353.13 90.274 349.968 92.189 C 346.303 94.409 340.122 96.415 335.204 95.704 C 329.927 94.942 322.706 90.36 319.384 86.916 C 316.757 84.191 315.855 80.883 315.166 77.776 C 314.502 74.785 314.094 71.979 315.166 68.635 C 316.548 64.324 322.451 56.093 324.657 54.222 C 325.686 53.351 326.416 54.134 327.118 53.519 C 328.014 52.734 327.555 51.057 329.227 49.301 C 332.514 45.849 345.604 39.557 350.32 34.888 C 353.827 31.415 354.033 27.099 356.999 24.693 C 359.916 22.327 364.803 22.893 367.897 20.474 C 371.209 17.885 372.427 12.514 375.983 9.225 C 379.874 5.626 384.524 2.693 390.747 0.085 C 398.546 -3.183 412.838 -7 420.277 -7.649 Z M 256.107 295.379 L 256.107 296.082 Z" style="fill: rgb(37, 255, 66); fill-opacity: 1; fill-rule: nonzero; stroke: rgb(37, 255, 66); stroke-dasharray: none; stroke-dashoffset: 0px; stroke-linecap: round; stroke-linejoin: round; stroke-miterlimit: 4; stroke-opacity: 1; stroke-width: 0px; paint-order: stroke; vector-effect: none; opacity: 1; mix-blend-mode: normal; isolation: auto;"/>
  <path fill="rgb(255,0,0)" stroke="rgb(255,0,0)" stroke-width="0" d="M 276.845 106.367 C 283.406 104.874 289.285 106.065 293.97 107.856 C 298.125 109.444 301.838 112.035 304.021 115.673 C 306.409 119.651 308.2 125.603 307 131.309 C 305.492 138.472 296.137 146.289 292.109 155.134 C 287.826 164.537 282.087 178.124 282.43 186.405 C 282.692 192.751 286.214 201.661 289.503 201.668 C 293.552 201.677 298.876 184.971 305.883 178.587 C 313.152 171.965 322.891 165.947 332.686 162.952 C 342.706 159.888 357.736 159.684 365.446 160.718 C 370.606 161.411 372.881 162.849 376.615 165.186 C 380.943 167.894 385.816 172.127 389.644 176.726 C 393.695 181.592 397.416 186.905 400.068 193.851 C 403.2 202.052 405.333 214.065 406.024 223.632 C 406.675 232.637 406.606 238.297 404.535 249.691 C 401.413 266.867 391.887 300.106 384.432 319.679 C 378.25 335.912 370.11 351.654 364.33 360.629 C 360.595 366.427 358.745 368.564 354.278 372.169 C 348.93 376.486 340.803 381.603 333.431 384.082 C 326.15 386.53 318.36 388.047 310.35 387.06 C 301.549 385.976 290.212 381.09 282.802 376.636 C 276.384 372.779 271.262 367.221 267.539 362.862 C 264.549 359.362 263.471 352.298 261.21 352.811 C 258.139 353.507 255.927 368.733 251.159 376.264 C 245.996 384.418 237.611 393.914 230.684 399.717 C 224.801 404.645 219.18 408.16 212.814 410.141 C 206.514 412.101 200.286 412.382 192.712 411.63 C 183.562 410.721 172.026 408.401 161.441 403.44 C 149.366 397.781 132.868 388.145 124.586 377.753 C 117.08 368.336 115.933 357.956 111.928 344.993 C 107.014 329.084 104.256 298.388 98.154 288.036 C 94.578 281.967 88.536 282.696 85.869 278.729 C 83.258 274.843 81.682 270.159 82.147 264.582 C 82.749 257.346 87.633 247.157 92.57 238.523 C 97.999 229.029 110.03 219.945 114.162 210.231 C 117.865 201.524 114.568 191.714 117.885 183.427 C 121.286 174.928 128.906 166.096 134.637 159.974 C 139.495 154.784 144.245 150.666 149.528 148.061 C 154.462 145.629 160.396 143.786 165.164 144.338 C 169.652 144.859 174.548 147.232 177.449 150.667 C 180.561 154.353 183.026 161.346 182.66 166.302 C 182.303 171.137 179.075 175.824 175.587 180.077 C 171.674 184.847 163.143 188.526 159.579 193.106 C 156.617 196.913 154.865 199.752 154.368 205.019 C 153.67 212.4 159.811 228.678 159.579 234.801 C 159.45 238.223 157.237 239.405 157.346 241.501 C 157.449 243.486 158.462 247.53 159.952 247.086 C 162.883 246.212 170.701 225.255 175.959 217.676 C 180.103 211.704 184.024 207.266 188.244 203.902 C 191.874 201.009 194.712 199.572 199.413 197.946 C 205.397 195.875 216.156 199.458 222.121 193.478 C 230.496 185.082 237.094 148.262 237.757 141.733 C 237.967 139.659 236.684 140.274 237.012 138.754 C 237.686 135.636 241.108 127.607 246.319 122.747 C 253.014 116.502 268.163 108.342 276.845 106.367 Z M 349.439 200.924 C 344.916 201.198 337.805 204.785 333.803 208.369 C 329.954 211.817 324.437 219.046 325.613 221.771 C 326.774 224.46 336.162 223.012 340.504 224.749 C 344.507 226.35 347.781 227.883 350.928 231.45 C 354.933 235.991 358.929 251.371 361.351 251.553 C 363.216 251.693 364.957 242.596 365.074 240.385 C 365.136 239.223 364.441 239.311 364.33 238.151 C 364.127 236.045 365.141 231.585 365.074 227.727 C 364.997 223.274 364.794 216.889 363.585 212.837 C 362.584 209.482 361.392 206.623 359.118 204.647 C 356.746 202.585 353.122 200.7 349.439 200.924 Z M 257.115 230.706 C 256.212 232.256 256.711 258.559 259.349 261.976 C 260.635 263.644 263.927 262.825 264.56 261.976 C 265.204 261.115 263.276 258.951 263.071 256.765 C 262.798 253.843 264.432 249.471 263.816 245.596 C 263.135 241.314 259.886 234.341 258.604 232.195 C 258.01 231.199 257.421 230.179 257.115 230.706 Z M 287.641 306.649 C 283.812 310.633 292.155 328.265 297.32 334.942 C 301.811 340.746 309.658 345.614 315.19 346.11 C 319.975 346.539 324.611 344.211 328.591 340.154 C 333.936 334.706 341.932 316.028 341.993 312.605 C 342.014 311.433 341.502 311.295 340.504 311.116 C 338.437 310.746 333.715 314.094 327.847 314.095 C 318.568 314.095 291.981 302.134 287.641 306.649 Z M 163.302 322.285 C 158.778 321.11 151.471 323.627 149.9 327.496 C 147.891 332.446 153.202 346.307 158.09 352.811 C 162.793 359.069 171.277 363.096 178.193 366.213 C 184.703 369.146 193.439 371.769 198.296 371.425 C 201.665 371.185 202.992 370.314 205.741 367.702 C 210.238 363.429 221.058 346.987 221.377 343.876 C 221.489 342.779 220.362 342.326 219.888 342.387 C 219.365 342.455 219.501 343.758 218.399 344.621 C 216.167 346.368 208.518 350.637 204.252 351.322 C 200.717 351.89 198.041 351.254 194.573 349.833 C 190.235 348.054 185.241 344.268 180.427 340.154 C 174.851 335.388 168.923 323.744 163.302 322.285 Z" style="fill: rgb(235, 255, 80); fill-opacity: 1; fill-rule: nonzero; stroke: none; stroke-dasharray: none; stroke-dashoffset: 0px; stroke-linecap: round; stroke-linejoin: round; stroke-miterlimit: 4; stroke-opacity: 1; stroke-width: 38.2508px; paint-order: stroke; vector-effect: none; opacity: 1; mix-blend-mode: normal; isolation: auto;"/>
  <path d="M 23.63 -74.394 C 19.509 -74.463 15.799 -72.883 12.571 -69.655 L -0.824 -56.191 C -4.328 -52.619 -6.869 -47.81 -8.312 -41.697 C -11.266 -29.469 -8.793 -17.242 0.275 -9.48 C 9.342 -1.717 25.622 -4.122 32.56 -11.06 L 46.093 -24.592 C 51.863 -30.362 54.061 -39.018 52.069 -45.612 C 50.077 -52.207 43.826 -56.603 32.56 -53.787 C 28.164 -52.619 20.127 -47.192 15.181 -42.246 L 6.182 -33.247 C 2.816 -41.765 3.435 -52.275 6.801 -60.587 C 7.625 -60.793 8.724 -60.931 10.098 -60.931 Z M -4.534 -54.13 C -3.366 -54.886 -4.602 -56.259 -5.633 -55.641 C -8.655 -52.344 -11.884 -44.582 -11.884 -40.254 C -12.365 -39.704 -12.021 -38.262 -10.853 -38.811 C -10.304 -39.018 -9.892 -39.773 -9.617 -41.147 C -9.136 -43.826 -8.106 -48.772 -5.908 -52.344 C -5.495 -52.962 -5.015 -53.512 -4.534 -54.13 Z M 11.197 -25.279 C 10.304 -26.241 9.548 -27.134 8.93 -28.027 L 14.494 -33.591 C 11.746 -33.591 10.579 -34.484 10.991 -36.201 C 14.219 -38.331 16.967 -39.636 19.097 -40.254 C 36.888 -44.719 42.109 -31.049 37.918 -19.509 C 36.476 -18.959 34.965 -18.616 33.453 -18.547 C 27.065 -17.791 21.501 -18.684 16.761 -21.089 L 25.554 -29.95 C 25.073 -30.774 24.18 -31.53 22.875 -32.217 C 21.57 -32.835 20.539 -33.385 19.715 -33.866 Z M 31.461 -35.995 C 30.362 -36.613 29.263 -35.239 30.294 -34.484 C 30.637 -34.14 31.324 -33.591 32.217 -32.835 C 33.66 -31.461 34.484 -29.744 34.621 -27.683 C 34.621 -27.34 34.621 -26.996 34.69 -26.653 L 34.69 -25.485 C 34.69 -24.867 35.033 -24.523 35.652 -24.523 C 36.27 -24.523 36.545 -24.867 36.545 -24.867 C 36.27 -31.187 36.339 -31.187 31.461 -35.377 Z M 36.132 -21.707 C 36.132 -22.325 35.789 -22.669 35.171 -22.669 C 34.553 -22.669 34.278 -22.325 34.278 -22.325 L 34.278 -22.05 C 34.003 -21.57 34.072 -21.157 34.484 -20.883 C 35.308 -19.99 36.132 -21.157 36.132 -22.325 Z" transform="matrix(2.28079, -0.580819, 0.850003, 3.337823, 177.097229, 416.468323)" style="fill: rgb(255, 0, 0); stroke: rgb(255, 0, 0); stroke-width: 1.11433px; white-space: pre;"/>
  <path d="M 76.807 -74.394 C 72.685 -74.463 68.976 -72.883 65.747 -69.655 L 52.352 -56.191 C 48.849 -52.619 46.307 -47.81 44.865 -41.697 C 41.911 -29.469 44.384 -17.242 53.451 -9.48 C 62.519 -1.717 78.799 -4.122 85.737 -11.06 L 99.269 -24.592 C 105.039 -30.362 107.238 -39.018 105.246 -45.612 C 103.253 -52.207 97.002 -56.603 85.737 -53.787 C 81.34 -52.619 73.303 -47.192 68.357 -42.246 L 59.359 -33.247 C 55.993 -41.765 56.611 -52.275 59.977 -60.587 C 60.801 -60.793 61.9 -60.931 63.274 -60.931 Z M 48.643 -54.13 C 49.81 -54.886 48.574 -56.259 47.544 -55.641 C 44.521 -52.344 41.292 -44.582 41.292 -40.254 C 40.812 -39.704 41.155 -38.262 42.323 -38.811 C 42.872 -39.018 43.285 -39.773 43.559 -41.147 C 44.04 -43.826 45.071 -48.772 47.269 -52.344 C 47.681 -52.962 48.162 -53.512 48.643 -54.13 Z M 64.373 -25.279 C 63.48 -26.241 62.725 -27.134 62.106 -28.027 L 67.671 -33.591 C 64.923 -33.591 63.755 -34.484 64.167 -36.201 C 67.396 -38.331 70.143 -39.636 72.273 -40.254 C 90.064 -44.719 95.285 -31.049 91.095 -19.509 C 89.652 -18.959 88.141 -18.616 86.63 -18.547 C 80.241 -17.791 74.677 -18.684 69.937 -21.089 L 78.73 -29.95 C 78.249 -30.774 77.356 -31.53 76.051 -32.217 C 74.746 -32.835 73.716 -33.385 72.891 -33.866 Z M 84.638 -35.995 C 83.539 -36.613 82.44 -35.239 83.47 -34.484 C 83.813 -34.14 84.5 -33.591 85.393 -32.835 C 86.836 -31.461 87.66 -29.744 87.798 -27.683 C 87.798 -27.34 87.798 -26.996 87.866 -26.653 L 87.866 -25.485 C 87.866 -24.867 88.21 -24.523 88.828 -24.523 C 89.446 -24.523 89.721 -24.867 89.721 -24.867 C 89.446 -31.187 89.515 -31.187 84.638 -35.377 Z M 89.309 -21.707 C 89.309 -22.325 88.965 -22.669 88.347 -22.669 C 87.729 -22.669 87.454 -22.325 87.454 -22.325 L 87.454 -22.05 C 87.179 -21.57 87.248 -21.157 87.66 -20.883 C 88.484 -19.99 89.309 -21.157 89.309 -22.325 Z" transform="matrix(2.28079, -0.580819, 0.850003, 3.337823, 177.097229, 416.468323)" style="fill: rgb(255, 0, 0); stroke: rgb(255, 0, 0); stroke-width: 1.11433px; white-space: pre;"/>
</svg>