<svg viewBox="19.313 -7.833 452.492 499.142" width="452.492" height="499.142" xmlns="http://www.w3.org/2000/svg">
  <path fill="red" d="M196.483 61.818c5.008-.396 8.737.658 13.391.67 4.921.013 9.187-1.129 15.401-.67 8.174.605 21.751 5.201 30.131 5.357 6.616.123 10.971-2.742 16.739-2.678 6.043.067 13.111 1.055 18.748 3.348 5.491 2.232 9.25 8.986 14.732 10.043 5.643 1.089 13.604-4.069 18.747-4.017 4.026.04 6.745.961 10.044 2.678 3.746 1.95 8.514 6.423 11.048 9.039 1.819 1.879 1.765 3.623 3.683 5.022 2.447 1.786 7.32 3.515 10.713 4.017 3.046.452 4.786-1.33 8.705-.669 6.299 1.063 19.563 6.236 26.783 10.044 5.965 3.146 12.441 8.781 14.396 10.378.712.582.312.4 1.004 1.005 1.895 1.656 9.856 6.819 13.726 11.048 3.807 4.158 7.371 9.208 9.375 14.061 1.874 4.542 2.472 10.333 2.678 14.061.152 2.757-.707 4.091-.67 6.696.047 3.223 1.442 8.167 1.34 11.383-.084 2.614-1.759 4.268-1.34 6.696.51 2.947 2.808 7.902 5.357 9.708 2.359 1.672 5.753-.123 9.039 1.34 4.325 1.923 11.044 7.173 14.396 11.047 2.782 3.216 4.227 6.188 5.357 10.044 1.255 4.283 2.495 9.468 1.339 14.73-1.384 6.303-7.03 15.896-11.048 20.423-3.044 3.43-8.259 3.508-9.709 6.361-1.37 2.695 1.204 6.499.67 10.044-.602 3.992-2.344 8.493-4.687 12.721-2.606 4.703-7.824 8.213-10.714 14.062-3.397 6.876-4.226 17.273-7.365 25.444-3.118 8.117-7.197 16.972-11.382 23.435-3.615 5.581-8.219 10.649-11.719 13.727-2.561 2.251-5.22 2.219-7.03 4.351-1.969 2.319-1.893 6.191-4.018 9.375-2.55 3.822-6.637 8.769-11.047 11.717-4.491 3.002-12.202 3.604-15.735 6.027-2.603 1.784-3.652 4.721-5.023 6.026-.917.873-1.772 1.065-2.343 1.673-.489.522-.233.982-1.005 1.675-1.594 1.432-7.37 3.467-10.378 6.025-3.022 2.571-3.63 6.428-7.7 9.375-5.728 4.146-18.131 9.214-26.114 11.383-6.767 1.838-16.181 2.281-18.748 2.008-.931-.099-.361-.612-1.339-.669-2.955-.174-18.024 3.934-23.436 4.017-3.407.052-5.749-1.401-7.364-1.339-.976.038-1.424.703-2.009.67-.511-.03-.568-.685-1.339-.67-1.646.032-5.908 2.763-9.375 3.348-3.824.646-10.163.267-12.722 0-1.388-.145-1.411-.854-2.678-.669-2.209.321-6.061 3.754-10.043 4.687-4.698 1.099-13.227 1.078-16.74.669-2.027-.236-2.053-1.472-4.018-1.339-3.439.233-10.942 4.813-16.07 6.026-4.652 1.101-8.406 1.863-13.391 1.339-5.953-.625-13.723-5.694-20.088-6.026-5.861-.306-11.323 3.606-16.739 3.348-5.29-.252-8.998-1.421-15.4-4.687-9.838-5.018-29.521-17.358-38.501-27.118-7.451-8.098-9.365-19.971-14.396-25.779-3.776-4.358-8.013-3.86-11.718-8.369-5.062-6.163-11.326-19.154-14.061-28.123-2.409-7.903-3.095-16.061-2.679-22.765.362-5.794 4.487-10.266 4.018-15.401-.489-5.355-5.933-10.757-7.366-16.069-1.332-4.949-1.61-12.531-1.339-14.732.109-.879.794-.483.67-1.339-.335-2.327-7.189-10.716-8.704-16.069-1.391-4.913-1.578-8.099-.67-14.731 1.431-10.453 6.792-30.221 12.722-44.192 5.911-13.923 20.086-30.888 22.766-39.506 1.463-4.704-.62-6.155 0-10.043.787-4.933 2.529-12.125 5.357-17.409 2.848-5.325 7.364-10.764 11.717-14.396 3.979-3.319 9.223-3.435 13.057-7.03 4.35-4.08 6.944-12.898 11.048-17.075 3.49-3.55 6.91-5.692 11.383-7.365 4.967-1.857 12.616-2.608 17.409-2.678 3.74-.055 5.633 1.739 9.374 1.339 4.949-.528 12.551-3.293 18.079-6.026 5.382-2.662 9.128-7.708 14.731-10.044 5.921-2.469 14.154-3.548 20.087-4.018Zm53.231 64.28c-8.301-1.325-30.719 1.602-40.175 4.687-6.611 2.157-9.151 6.928-14.06 8.704-4.706 1.703-10.388-.609-14.731 2.009-4.989 3.008-10.557 10.809-12.723 16.74-2.008 5.501.931 11.622-.669 17.408-1.733 6.269-6.165 13.79-10.043 18.749-3.389 4.333-10.143 6.855-11.383 10.044-.901 2.315.399 5.59 1.339 6.695.653.77 1.668.637 2.678.67 1.179.037 2.908-.016 4.018-.67 1.132-.667 1.62-2.272 2.678-3.348 1.145-1.164 2.595-1.617 4.018-3.347 2.059-2.507 3.78-8.253 6.695-11.383 2.897-3.111 7.33-3.612 10.713-7.366 4.324-4.797 10.547-18.022 12.053-20.756.496-.901-.153-.577.67-1.339 3.098-2.874 24.171-17.582 34.817-22.097 8.672-3.677 18.195-3.327 24.105-5.357 4.195-1.439 9.338-3.024 9.374-4.687.038-1.682-4.48-4.574-9.374-5.356ZM368.23 170.29c-1.213-.269-4.505-.031-6.026 1.339-1.794 1.616-4.571 5.9-3.348 8.705 1.74 3.989 17.674 12.9 19.417 11.383 1.725-1.501-7.048-17.395-8.704-20.088-.622-1.011-.583-1.171-1.339-1.339ZM244.358 325.632c-.335-.111-.595 0-1.339.669-2.232 2.01-14.605 16.622-14.731 18.079-.04.465.829.312 1.339 0 .913-.559 1.429-3.095 3.348-4.687 2.88-2.388 12.795-4.772 14.061-7.365.843-1.725-1.521-4.216-2.008-5.357-.286-.667-.336-1.227-.67-1.339Zm85.706 20.757c-1.504-.255-9.524 3.545-11.383 4.687-.88.54-1.647 1.247-1.339 1.34.688.207 12.491-3.456 13.392-4.688.365-.501-.022-1.23-.67-1.339Zm-12.722 6.027v.669-.669Zm-118.515 7.364c-2.079 1.105-4.908 7.478-5.357 8.705-.151.413-.262.572 0 .669.717.269 6.248-.471 8.035-2.008 1.691-1.455 3.318-5.512 2.678-6.696-.57-1.054-3.746-1.524-5.356-.67Zm73.653 1.339c-1.329.375-1.549 1.947-2.009 2.679-.333.531-.821 1.191-.669 1.339.174.171.985-.573 2.009-.67 1.803-.17 6.321.886 8.704.67 1.887-.171 4.909-.83 4.687-1.339-.329-.754-10.434-3.321-12.722-2.679Z" style="fill:#2592ff;fill-opacity:1;fill-rule:nonzero;stroke:none;stroke-dasharray:none;stroke-dashoffset:0;stroke-linecap:round;stroke-linejoin:round;stroke-miterlimit:4;stroke-opacity:1;stroke-width:38.2508px;paint-order:stroke;vector-effect:none;opacity:1;mix-blend-mode:normal;isolation:auto"/>
  <path fill="red" d="M420.277-7.649c5.126-.447 8.308-.117 11.952 1.406 3.76 1.572 7.905 4.24 10.195 8.086 2.603 4.372 3.647 12.693 3.515 17.577-.105 3.904-2.496 6.116-2.812 9.843-.367 4.322 1.531 9.303 1.406 14.765-.145 6.31-.89 14.853-2.812 21.092-1.756 5.7-5.084 11.956-7.734 15.116-1.84 2.195-3.764 1.459-5.625 3.867-2.965 3.838-4.524 16.001-8.788 20.038-3.613 3.42-13.166 3.348-13.71 4.57-.303.679 1.83.667 2.812 1.758 1.532 1.701 3.979 5.602 4.921 8.788.961 3.249 1.657 6.473.704 10.547-1.275 5.447-7.219 16.219-10.195 19.334-1.654 1.732-3.649 1.263-4.57 2.11-.68.624-.448 1.545-1.055 2.109-.707.658-2.188.24-3.164 1.406-1.623 1.939-3.734 8.151-4.218 11.601-.402 2.866 1.541 4.474.703 7.734-1.297 5.046-8.422 16.848-11.601 20.037-1.726 1.733-3.56.724-4.57 2.11-1.228 1.685-.031 4.837-1.406 8.085-2.023 4.779-8.876 14.986-11.953 17.929-1.675 1.602-2.412.359-4.218 2.109-3.768 3.649-11.707 19.331-16.523 24.608-3.243 3.554-6.352 4.43-8.788 6.679-2.138 1.975-3.062 4.318-5.273 5.976-2.397 1.798-6.239 1.667-8.789 4.219-3.16 3.162-6.169 12.727-7.734 14.764-.636.829-.366.293-1.406 1.055-3.547 2.601-22.787 18.603-30.584 22.147-4.951 2.251-10.185 2.134-11.952 2.109-.679-.009-.682-.696-1.055-.351-1.012.935-1.652 10.01-3.515 13.007-1.454 2.338-3.69 2.57-5.625 4.57-2.37 2.449-5.423 7.478-7.382 9.492-1.263 1.297-2.112 1.026-3.164 2.46-1.647 2.245-1.912 6.661-4.922 11.25-4.622 7.045-15.583 21.114-23.553 27.068-6.484 4.844-14.738 7.314-19.686 8.437-3.293.748-6.263.29-7.734 0-.778-.153-.634-1.051-1.407-.703-2.278 1.026-10.336 15.434-14.764 18.28-2.908 1.869-6.789-.481-8.086 1.406-1.562 2.275 2.476 8.819 1.406 13.007-1.15 4.506-4.977 8.846-8.788 13.007-4.279 4.673-9.463 9.112-16.171 13.359-8.058 5.102-24.094 9.722-29.881 14.413-3.671 2.975-2.661 6.148-5.976 8.789-4.489 3.575-16.712 5.668-20.741 9.14-2.761 2.378-2.041 5.581-4.219 7.734-2.434 2.406-5.993 4.248-10.194 5.624-5.131 1.681-14.684 2.692-18.984 2.813-2.639.073-3.461-.663-5.624-.704-2.623-.049-5.903 1.437-9.14.704-3.835-.869-9.298-3.591-12.304-6.68-2.88-2.958-4.721-7.488-5.625-11.249-.843-3.505-.638-7.307 0-10.546.603-3.059 3.24-6.282 3.515-8.437.19-1.483-.806-1.819-.703-3.516.178-2.909 3.272-8.816 3.516-13.358.246-4.596-3.382-8.593-2.109-14.062 1.754-7.538 10.923-22.285 16.522-27.068 3.824-3.268 8.428-1.183 11.601-3.867 3.579-3.029 5.17-12.052 8.085-14.414 2.005-1.624 4.378-1.718 6.328-1.406 1.91.306 4.145 1.451 5.273 3.164 1.288 1.955 2.022 5.412 1.406 8.437-.747 3.671-6.597 7.619-7.03 11.953-.455 4.538 4.871 10.323 4.921 14.764.044 3.882-3.159 8.731-3.515 10.546-.156.794.07.629 0 1.407-.15 1.652-.124 6.052-1.406 9.14-1.486 3.577-8.653 9.209-7.734 10.897.909 1.671 10.367-.896 13.007-.703 1.447.106 1.939.871 2.812.703.887-.17 1.47-.795 2.461-1.757 1.566-1.521 2.962-5.357 5.976-7.383 3.845-2.583 12.989-3.149 16.522-5.624 2.561-1.794 2.702-4.573 4.57-6.328 1.878-1.764 4.624-1.975 6.68-4.219 2.62-2.858 4.958-10.223 7.031-12.655 1.274-1.495 2.226-1.232 3.515-2.461 1.771-1.689 3.404-5.028 5.976-7.382 2.974-2.721 7.602-6.25 11.25-7.734 3.121-1.27 5.936-1.76 9.14-1.406 3.556.392 9.175 5.135 11.249 4.218 1.662-.734.444-4.463 1.758-6.679 1.606-2.711 6.166-6.854 8.085-8.085 1.055-.677 1.532-.05 2.461-.703 1.482-1.043 3.834-4.958 5.273-6.328.963-.918 2.216-1.061 2.461-1.758.216-.616-.88-.838-.703-2.109.444-3.199 4.485-13.068 9.14-20.389 5.812-9.143 14.957-21.667 24.959-29.881 10.202-8.379 28.609-17.176 35.857-19.687 3.661-1.268 6.27.645 7.383-.703 1.113-1.347-1.455-4.638-.703-7.382.988-3.611 4.56-8.565 8.085-12.304 3.827-4.059 10.053-6.489 14.413-10.898 4.595-4.646 8.652-13.37 12.304-16.522 2.424-2.092 4.296-1.095 6.68-3.164 3.522-3.058 9.868-13.27 11.6-15.819.702-1.033.244-.477 1.055-1.758 2.809-4.436 22.171-34.626 24.96-38.318.709-.939.502-.404 1.054-1.055 1.23-1.448 4.985-7.078 6.679-8.788 1.01-1.019 1.705-.523 2.461-1.758 1.388-2.266 1.442-9.169 3.516-13.358 2.173-4.392 5.532-9.146 9.491-12.304 3.995-3.187 12.432-4.518 14.413-6.68 1.093-1.191.767-1.838.704-3.515-.106-2.805-3.085-8.332-2.813-12.656.288-4.57 2.84-10.453 4.922-14.061 1.698-2.945 3.075-4.984 5.976-6.679 3.622-2.117 14.094-1.565 15.116-3.867.84-1.893-4.457-4.971-5.624-7.734-1.117-2.643-2.003-4.968-1.407-8.437.856-4.976 8.029-13.739 9.141-18.983.82-3.872-1.058-5.983-.704-9.844.452-4.918 4.68-16.4 4.219-17.577-.151-.385-.416.108-1.055.352-1.599.611-7.433 1.8-10.194 4.218-2.957 2.59-3.991 8.57-6.68 11.25-2.344 2.336-5.835 2.648-8.085 4.57-2.173 1.855-3.707 5.095-5.273 6.679-1.159 1.172-2.004 1.132-3.164 2.461-1.751 2.005-4.107 7.318-5.976 9.491-1.353 1.573-2.422 1.705-3.867 3.164-1.944 1.963-3.518 6.171-6.68 8.086-3.665 2.22-9.846 4.226-14.764 3.515-5.277-.762-12.498-5.344-15.82-8.788-2.627-2.725-3.529-6.033-4.218-9.14-.664-2.991-1.072-5.797 0-9.141 1.382-4.311 7.285-12.542 9.491-14.413 1.029-.871 1.759-.088 2.461-.703.896-.785.437-2.462 2.109-4.218 3.287-3.452 16.377-9.744 21.093-14.413 3.507-3.473 3.713-7.789 6.679-10.195 2.917-2.366 7.804-1.8 10.898-4.219 3.312-2.589 4.53-7.96 8.086-11.249 3.891-3.599 8.541-6.532 14.764-9.14 7.799-3.268 22.091-7.085 29.53-7.734Zm-164.17 303.028v.703Z" style="fill:#25ff42;fill-opacity:1;fill-rule:nonzero;stroke:#25ff42;stroke-dasharray:none;stroke-dashoffset:0;stroke-linecap:round;stroke-linejoin:round;stroke-miterlimit:4;stroke-opacity:1;stroke-width:0;paint-order:stroke;vector-effect:none;opacity:1;mix-blend-mode:normal;isolation:auto"/>
  <path fill="red" d="M276.845 106.367c6.561-1.493 12.44-.302 17.125 1.489 4.155 1.588 7.868 4.179 10.051 7.817 2.388 3.978 4.179 9.93 2.979 15.636-1.508 7.163-10.863 14.98-14.891 23.825-4.283 9.403-10.022 22.99-9.679 31.271.262 6.346 3.784 15.256 7.073 15.263 4.049.009 9.373-16.697 16.38-23.081 7.269-6.622 17.008-12.64 26.803-15.635 10.02-3.064 25.05-3.268 32.76-2.234 5.16.693 7.435 2.131 11.169 4.468 4.328 2.708 9.201 6.941 13.029 11.54 4.051 4.866 7.772 10.179 10.424 17.125 3.132 8.201 5.265 20.214 5.956 29.781.651 9.005.582 14.665-1.489 26.059-3.122 17.176-12.648 50.415-20.103 69.988-6.182 16.233-14.322 31.975-20.102 40.95-3.735 5.798-5.585 7.935-10.052 11.54-5.348 4.317-13.475 9.434-20.847 11.913-7.281 2.448-15.071 3.965-23.081 2.978-8.801-1.084-20.138-5.97-27.548-10.424-6.418-3.857-11.54-9.415-15.263-13.774-2.99-3.5-4.068-10.564-6.329-10.051-3.071.696-5.283 15.922-10.051 23.453-5.163 8.154-13.548 17.65-20.475 23.453-5.883 4.928-11.504 8.443-17.87 10.424-6.3 1.96-12.528 2.241-20.102 1.489-9.15-.909-20.686-3.229-31.271-8.19-12.075-5.659-28.573-15.295-36.855-25.687-7.506-9.417-8.653-19.797-12.658-32.76-4.914-15.909-7.672-46.605-13.774-56.957-3.576-6.069-9.618-5.34-12.285-9.307-2.611-3.886-4.187-8.57-3.722-14.147.602-7.236 5.486-17.425 10.423-26.059 5.429-9.494 17.46-18.578 21.592-28.292 3.703-8.707.406-18.517 3.723-26.804 3.401-8.499 11.021-17.331 16.752-23.453 4.858-5.19 9.608-9.308 14.891-11.913 4.934-2.432 10.868-4.275 15.636-3.723 4.488.521 9.384 2.894 12.285 6.329 3.112 3.686 5.577 10.679 5.211 15.635-.357 4.835-3.585 9.522-7.073 13.775-3.913 4.77-12.444 8.449-16.008 13.029-2.962 3.807-4.714 6.646-5.211 11.913-.698 7.381 5.443 23.659 5.211 29.782-.129 3.422-2.342 4.604-2.233 6.7.103 1.985 1.116 6.029 2.606 5.585 2.931-.874 10.749-21.831 16.007-29.41 4.144-5.972 8.065-10.41 12.285-13.774 3.63-2.893 6.468-4.33 11.169-5.956 5.984-2.071 16.743 1.512 22.708-4.468 8.375-8.396 14.973-45.216 15.636-51.745.21-2.074-1.073-1.459-.745-2.979.674-3.118 4.096-11.147 9.307-16.007 6.695-6.245 21.844-14.405 30.526-16.38Zm72.594 94.557c-4.523.274-11.634 3.861-15.636 7.445-3.849 3.448-9.366 10.677-8.19 13.402 1.161 2.689 10.549 1.241 14.891 2.978 4.003 1.601 7.277 3.134 10.424 6.701 4.005 4.541 8.001 19.921 10.423 20.103 1.865.14 3.606-8.957 3.723-11.168.062-1.162-.633-1.074-.744-2.234-.203-2.106.811-6.566.744-10.424-.077-4.453-.28-10.838-1.489-14.89-1.001-3.355-2.193-6.214-4.467-8.19-2.372-2.062-5.996-3.947-9.679-3.723Zm-92.324 29.782c-.903 1.55-.404 27.853 2.234 31.27 1.286 1.668 4.578.849 5.211 0 .644-.861-1.284-3.025-1.489-5.211-.273-2.922 1.361-7.294.745-11.169-.681-4.282-3.93-11.255-5.212-13.401-.594-.996-1.183-2.016-1.489-1.489Zm30.526 75.943c-3.829 3.984 4.514 21.616 9.679 28.293 4.491 5.804 12.338 10.672 17.87 11.168 4.785.429 9.421-1.899 13.401-5.956 5.345-5.448 13.341-24.126 13.402-27.549.021-1.172-.491-1.31-1.489-1.489-2.067-.37-6.789 2.978-12.657 2.979-9.279 0-35.866-11.961-40.206-7.446Zm-124.339 15.636c-4.524-1.175-11.831 1.342-13.402 5.211-2.009 4.95 3.302 18.811 8.19 25.315 4.703 6.258 13.187 10.285 20.103 13.402 6.51 2.933 15.246 5.556 20.103 5.212 3.369-.24 4.696-1.111 7.445-3.723 4.497-4.273 15.317-20.715 15.636-23.826.112-1.097-1.015-1.55-1.489-1.489-.523.068-.387 1.371-1.489 2.234-2.232 1.747-9.881 6.016-14.147 6.701-3.535.568-6.211-.068-9.679-1.489-4.338-1.779-9.332-5.565-14.146-9.679-5.576-4.766-11.504-16.41-17.125-17.869Z" style="fill:#ebff50;fill-opacity:1;fill-rule:nonzero;stroke:none;stroke-dasharray:none;stroke-dashoffset:0;stroke-linecap:round;stroke-linejoin:round;stroke-miterlimit:4;stroke-opacity:1;stroke-width:38.2508px;paint-order:stroke;vector-effect:none;opacity:1;mix-blend-mode:normal;isolation:auto"/>
  <path d="M23.63-74.394c-4.121-.069-7.831 1.511-11.059 4.739L-.824-56.191c-3.504 3.572-6.045 8.381-7.488 14.494C-11.266-29.469-8.793-17.242.275-9.48c9.067 7.763 25.347 5.358 32.285-1.58l13.533-13.532c5.77-5.77 7.968-14.426 5.976-21.02-1.992-6.595-8.243-10.991-19.509-8.175-4.396 1.168-12.433 6.595-17.379 11.541l-8.999 8.999c-3.366-8.518-2.747-19.028.619-27.34.824-.206 1.923-.344 3.297-.344ZM-4.534-54.13c1.168-.756-.068-2.129-1.099-1.511-3.022 3.297-6.251 11.059-6.251 15.387-.481.55-.137 1.992 1.031 1.443.549-.207.961-.962 1.236-2.336.481-2.679 1.511-7.625 3.709-11.197.413-.618.893-1.168 1.374-1.786Zm15.731 28.851c-.893-.962-1.649-1.855-2.267-2.748l5.564-5.564c-2.748 0-3.915-.893-3.503-2.61 3.228-2.13 5.976-3.435 8.106-4.053 17.791-4.465 23.012 9.205 18.821 20.745-1.442.55-2.953.893-4.465.962-6.388.756-11.952-.137-16.692-2.542l8.793-8.861c-.481-.824-1.374-1.58-2.679-2.267a41.476 41.476 0 0 1-3.16-1.649Zm20.264-10.716c-1.099-.618-2.198.756-1.167 1.511.343.344 1.03.893 1.923 1.649 1.443 1.374 2.267 3.091 2.404 5.152 0 .343 0 .687.069 1.03v1.168c0 .618.343.962.962.962.618 0 .893-.344.893-.344-.275-6.32-.206-6.32-5.084-10.51Zm4.671 14.288c0-.618-.343-.962-.961-.962-.618 0-.893.344-.893.344v.275c-.275.48-.206.893.206 1.167.824.893 1.648-.274 1.648-1.442Z" transform="matrix(2.28079 -.58082 .85 3.33782 177.097 416.468)" style="fill:red;stroke:red;stroke-width:1.11433px;white-space:pre"/>
  <path d="M76.807-74.394c-4.122-.069-7.831 1.511-11.06 4.739L52.352-56.191c-3.503 3.572-6.045 8.381-7.487 14.494-2.954 12.228-.481 24.455 8.586 32.217 9.068 7.763 25.348 5.358 32.286-1.58l13.532-13.532c5.77-5.77 7.969-14.426 5.977-21.02-1.993-6.595-8.244-10.991-19.509-8.175-4.397 1.168-12.434 6.595-17.38 11.541l-8.998 8.999c-3.366-8.518-2.748-19.028.618-27.34.824-.206 1.923-.344 3.297-.344ZM48.643-54.13c1.167-.756-.069-2.129-1.099-1.511-3.023 3.297-6.252 11.059-6.252 15.387-.48.55-.137 1.992 1.031 1.443.549-.207.962-.962 1.236-2.336.481-2.679 1.512-7.625 3.71-11.197.412-.618.893-1.168 1.374-1.786Zm15.73 28.851c-.893-.962-1.648-1.855-2.267-2.748l5.565-5.564c-2.748 0-3.916-.893-3.504-2.61 3.229-2.13 5.976-3.435 8.106-4.053 17.791-4.465 23.012 9.205 18.822 20.745-1.443.55-2.954.893-4.465.962-6.389.756-11.953-.137-16.693-2.542l8.793-8.861c-.481-.824-1.374-1.58-2.679-2.267a41.668 41.668 0 0 1-3.16-1.649Zm20.265-10.716c-1.099-.618-2.198.756-1.168 1.511.343.344 1.03.893 1.923 1.649 1.443 1.374 2.267 3.091 2.405 5.152 0 .343 0 .687.068 1.03v1.168c0 .618.344.962.962.962s.893-.344.893-.344c-.275-6.32-.206-6.32-5.083-10.51Zm4.671 14.288c0-.618-.344-.962-.962-.962s-.893.344-.893.344v.275c-.275.48-.206.893.206 1.167.824.893 1.649-.274 1.649-1.442Z" transform="matrix(2.28079 -.58082 .85 3.33782 177.097 416.468)" style="fill:red;stroke:red;stroke-width:1.11433px;white-space:pre"/>
</svg>
