<svg viewBox="7.9 13.505 479 448.595" width="479" height="448.6" xmlns="http://www.w3.org/2000/svg">
  <path style="fill:#140000;transform-origin:130.9px 212.1px" d="M74.9 144.1c-20-2 101 120 135 123 0 0-92 24-113 11-20-12-51-100-45-123 6-24 23-8 23-11Z"/>
  <path style="fill:#140000" d="M7.9 251.1s53 46 131 59l19 60 33-53c42 5 90 8 138 5l29 43 28-49c34-5 68-35 101-53 0 0-5 104-77 155l-42-26 8 45c-33 16-77 25-134 25-41 0-75-6-103-17l1-47-43 25c-80-55-88-173-89-172Z"/>
  <path style="fill:#140000;transform-origin:363.9px 212.1px" d="M307.9 279.1c-19 2 101-119 136-122 0 0-92-24-113-12-20 13-51 100-45 124s22 7 22 10Z" transform="rotate(180 0 0)"/>
  <path style="fill:#004b00" d="M231.9 101.1s18-96 60-87c0 0 52 38 50 40-1 1-58-15-71 46l-39 1Z"/>
</svg>
