<svg viewBox="-101.258 126.899 733.735 230.162" width="733.735" height="230.162" xmlns="http://www.w3.org/2000/svg" xmlns:bx="https://boxy-svg.com">
  <defs>
    <filter id="a" color-interpolation-filters="sRGB" x="-500%" y="-500%" width="1000%" height="1000%" bx:preset="drop-shadow 1 0 0 6 1 rgba(0,0,0,0.3)">
      <feGaussianBlur in="SourceAlpha" stdDeviation="6"/>
      <feOffset/>
      <feComponentTransfer result="offsetblur">
        <feFuncA type="linear" slope="2"/>
      </feComponentTransfer>
      <feFlood flood-color="rgba(0,0,0,0.3)"/>
      <feComposite in2="offsetblur" operator="in"/>
      <feMerge>
        <feMergeNode/>
        <feMergeNode in="SourceGraphic"/>
      </feMerge>
    </filter>
  </defs>
  <path opacity=".984" d="M294.994 127.058c6.533-.233 10.742-.551 18.765 1.805 12.536 3.685 45.454 20.905 50.562 23.911 1.387.819.354.757 1.565 1.355 3.28 1.624 16.181 7.767 25.021 8.122 9.347.375 24.557-3.816 29.711-6.769 3.002-1.718 1.868-3.974 4.169-5.863 3.07-2.523 8.885-5.711 14.075-7.221 5.372-1.562 12.734-2.137 17.723-1.804 4.093.273 5.56 2.6 10.425 2.706 7.666.171 22.885-6.491 33.36-5.413 10.166 1.046 25.094 9.343 28.67 11.28 1.236.669.332.572 1.562 1.353 3.809 2.415 24.609 10.037 31.799 16.694 6.125 5.673 6.967 15.473 10.946 19.4 2.79 2.754 6.1 1.51 8.862 4.511 4.286 4.662 11.457 16.832 11.466 24.815.01 7.633-7.42 18.648-10.424 22.107-1.509 1.736-3.43.59-4.172 2.257-1.294 2.914 2.842 11.314 2.088 17.144-.803 6.186-3.18 12.777-7.3 18.95-4.638 6.951-10.472 13.968-20.328 20.303-12.843 8.254-41.026 18.622-54.211 22.559-8.423 2.516-14.245.293-19.287 3.156-5.031 2.86-6.481 10.568-10.947 13.989-4.157 3.182-8.745 4.941-14.595 6.316-6.95 1.633-16.372 2.691-25.021 1.804-9.367-.96-21.238-9.276-29.189-8.12-6.899 1.003-9.72 9.031-16.68 11.728-7.919 3.073-21.953 4.665-29.192 4.514-5.021-.106-7.337-3.063-11.467-2.708-4.796.413-9.921 5.236-15.638 6.317-6.041 1.144-12.335.998-19.808 0-9.128-1.219-21.043-4.33-31.276-8.123-10.633-3.939-22.22-15.173-31.275-15.338-7.559-.139-11.21 7.352-19.808 9.926-11.206 3.353-30.149 7.699-43.786 6.315-13.039-1.32-25.819-12.341-36.487-13.534-8.622-.966-15.076 3.428-22.937 3.609-8.11.187-17.012-2.755-25.018-2.706-7.6.046-14.735 3.949-21.895 2.706-7.628-1.323-18.534-8.083-22.413-11.278-2.235-1.842-1.151-3.634-3.127-4.965-2.658-1.789-8.025-3.523-13.033-3.608-5.999-.102-14.627 4.552-20.851 4.512-5.414-.036-8.815-1.066-14.593-3.611-8.347-3.672-24.143-12.621-30.756-19.4-5.235-5.368-5.016-12.085-8.862-16.693-3.573-4.286-9.736-5.596-13.031-10.376-3.905-5.667-8.225-12.811-7.297-22.56 1.368-14.39 17.373-43.372 26.063-57.751 6.427-10.635 12.421-18.037 19.287-23.912 5.772-4.939 15.575-8.584 18.243-10.376 1.069-.719.514-.618 1.564-1.353 2.618-1.837 10.333-8.291 17.724-10.829 8.711-2.992 22.763-4.573 32.317-4.513 8.193.052 15.605 1.468 21.894 3.609 5.689 1.94 8.752 8.265 14.595 8.122 7.446-.182 18.957-11.887 27.105-14.436 6.466-2.026 11.353-2.764 17.724-1.806 7.521 1.131 20.614 7.234 24.499 9.928 1.963 1.358.626 3.428 2.606 3.607 4.045.368 17.766-9.54 26.063-11.729 7.248-1.914 14.383-2.194 20.85-1.806 5.973.358 11.431 3.21 16.681 3.609 4.775.365 9.302-1.396 13.551-.902 4.071.474 8.305 4.294 11.468 3.609 3.044-.659 4.243-5.056 7.298-7.219 3.399-2.406 7.438-4.709 12.51-6.315 6.025-1.91 14.913-3.361 21.893-3.611Z" style="fill-opacity:1;fill-rule:nonzero;stroke:none;stroke-dasharray:none;stroke-dashoffset:0;stroke-linecap:round;stroke-linejoin:round;stroke-miterlimit:4;stroke-opacity:1;stroke-width:38.2508px;paint-order:stroke;vector-effect:none;opacity:1;mix-blend-mode:normal;isolation:auto;fill:#2592ff"/>
  <path fill="red" opacity=".976" d="M601.841 152.827c7.44 2.453 14.92 5.448 19.102 10.789 6.077 7.281 7.844 16.724 10.532 25.886 2.045 6.455.771 10.229-2.111 13.728-2.844 3.541-7.432 6.406-12.154 10.222-1.894 1.715-2.999 5.586-5.045 5.726-4.559 1.287-9.23 2.576-13.807 3.869-2.914 1.22-4.315 3.848-4.92 5.88-.302 1.026-.469 1.876-.711 2.473-.223.55-.147.694-.484.611l-.033-.008-.171.058c-6.942 2.353-15.246 3.475-22.058 7.417-8.307 5.119-12.736 13.391-20.257 17.762-16.838 10.149-33.841 20.331-52.876 26.396-19.974 6.411-41.271 10.198-62.566 10.624-4.46.267-8.572-2.232-13.324-4.7-4.757-2.469-10.295-4.837-16.076-4.06-1.664.341-3.128 1.046-3.924 1.764-.805.825-1.28 1.93-1.434 2.651-.09.465-.125.863-.156 1.169-13.073 3.286-26.557 5.445-39.977 8.2l-.202.041-.012.024c-.112.185-.051.068-.483-.174-.478-.269-1.061-.732-1.851-1.269-1.565-1.055-4.084-2.213-6.701-1.895l-.042.005-.075.021c-3.074.836-7.028 1.2-10.486 2.865-1.944 1.204-3.173 3.257-4.033 4.735-.443.757-.738 1.317-1.06 1.679-.284.319-.227.4-.552.286l-.032-.01-.16.014c-9.463.883-18.534 3.146-27.427 2.496-2.631-.05-5.088-1.565-8.086-3.051-3.009-1.487-6.805-2.847-10.635-2.384-3.574.926-6.059 3.915-7.27 6.104-.384 1.089-1.445 1.594-3.017 2.09-1.594.503-3.495.76-5.335 1.022-8.31 1.197-14.037 2.961-21.018.51-2.079-.663-7.484-2.413-9.346-2.437-4.311.198-8.732 1.752-12.627 2.783-3.892 1.037-6.887 1.721-9.461.156-11.219-5.217-37.392 1.498-40.41 1.807l-.193.019a.463.463 0 0 0-.052-.035c-.286-.169-.691-.488-1.312-.87-1.211-.724-3.324-1.463-5.891-1.17l-.071.008-.069.022c-2.822.836-4.183 2.267-4.544 3.3-.08.277-.122.491-.153.645-3.718 1.465-7.177 2.966-10.848 3.323-6.133.716-13.117 3.012-19.36 4.156-3.112.575-5.852.9-8.29.665-2.408-.232-4.296-.911-5.855-2.585-.957-.911-2.328-2.292-3.892-3.344-1.641-1.062-4.241-1.79-6.552-1.428a20062.97 20062.97 0 0 0-30.545 7.724c-1.138.362-2.363 1.163-3.002 1.904-.426.543-.768 1.27-.956 1.926-.446.092-1.037.143-1.881.182-2.165.106-5.064.007-7.919-.02-2.86-.026-5.86.044-7.813.501-.901.233-1.984.797-2.675 1.469 0 0 .336.172-.029.03a3.119 3.119 0 0 0-.384.456c-.103.206.006-.599.006-.599a9.105 9.105 0 0 0-1.235-.364c-3.62-.446-7.174.276-10.138.367-2.334.425-5.355-2.278-9.54-2.345-4.183.548-7.331 3.167-10.125 4.379-5.598 2.687-9.614 2.513-13.844 1.22-4.255-1.256-8.347-3.852-13.115-6.236-.404-.054-.622-.601-1.33-1.432-.741-.843-2.167-1.877-3.807-2.227l-.075-.016-.091-.002c-4.139-.087-7.819 1.824-10.767 3.834-2.935 2.006-5.393 4.053-8.238 4.611-7.391 1.897-14.296.032-21.842-1.534-3.798-.525-7.365.992-10.055 1.347-6.27 1.275-12.494-3.199-18.563-6.766-4.507-2.501-7.137-7.145-11.156-11.185-2.546-2.521-8.869-7.289-9.753-7.904l-.166-.392c-3.027-7.057-4.859-14.562-3.992-21.895-.018-2.888 3.449-5.009 6.477-7.637l.082-.071.001-.009c.044-.258.356-.169 1.25-.415.869-.239 2.22-.838 3.24-1.753 4.204-4.684 8.077-9.541 12.089-14.239l.054-.063.01-.019c.387-.813 1.461-.973 3.06-1.296 1.607-.323 3.668-.685 5.405-1.556 3.149-1.892 5.233-4.604 7.448-6.534.997-.945 2.132-1.734 3.375-2.405-.178.942-.309 1.84-.39 2.688-.928 9.749 3.392 16.893 7.297 22.56 2.335 3.387 6.11 5.032 9.383 7.228-1.981.55-3.961 1.122-5.93 1.732-.997.323-3.713 1.635-5.675 3.139-.989.772-2.045 1.869-2.546 2.873-.248.562-.401 1.441-.31 2.091.153.651.723 1.536 1.275 2.062 14.959 12.304 29.356 13.545 49.019 17.427 2.097.318 4.155-.047 5.361-.774 1.145-.812 1.965-2.099 2.379-3.066.406-.964.644-1.825.934-2.392.035-.071.065-.135.09-.191l-.32.038c.106-.014.214-.025.322-.04l.043-.094 1.722-.172c8.019-1.391 15.586-4.968 21.885-2.483 2.594.871 7.834 2.749 10.744 2.48 10.927-1.676 21.313-5.001 31.726-7.421l.099-.023.016-.009c.95-.556 1.817.255 3.67 1.256 1.831.986 4.403 2.206 7.05 2.242 8.325-.526 16.213-2.843 23.956-4.191l.243-.043-.002-.024c-.007-.19.276.122 1.205.472.924.347 2.253.766 3.627.753h.063l.074-.012c3.313-.559 6.047-2.496 8.193-4.227 2.146-1.732 3.722-3.232 5.822-3.403 12.766-2.119 26.154-.768 39.656-1.147l.181-.006.023-.015c.207-.15.185-.039.584.248.431.313.947.817 1.674 1.38.709.542 1.759 1.211 2.883 1.584 1.141.326 2.855.34 4.372-.052 7.03-2.157 13.46-5.116 20.307-6.24 14.308-2.449 29.108-2.896 43.854-4.664l.216-.026.014-.023c.115-.19.273.035.983.344.714.31 1.746.742 2.955.892l.071.01.071-.003c5.346-.211 9.26-3.758 13.022-3.987 6.069-.734 12.121-1.088 17.803.169 5.599.938 10.373 7.076 17.712 7.491 7.628.431 13.427-5.595 19.36-6.473 6.021-1.165 12.587-.373 19.337-.558 2.074-.331 4.2 1.602 7.068 3.537 1.426.962 3.042 1.983 4.612 2.599 1.686.614 4 .718 5.857.108 6.774-2.851 12.506-6.919 19.148-8.068 6.421-1.245 13.097-1.352 19.894-1.389 1.531.364 3.121.605 4.804.615 2.229.013 4.985-.273 7.881-.739.034.032.077.065.126.101.416.302.931.788 1.627 1.325.675.516 1.629 1.154 2.603 1.53 1.061.352 2.741.374 4.045.003 4.126-1.532 8.32-3.094 12.44-4.649 1.16-.564 2.395-1.82 3.003-2.934.396-.763.518-1.178.68-1.789l.216-.048.142-.031.137-.071c3.527-1.816 6.565-4.107 9.695-5.814 3.929-.922 8.097-1.91 11.67-2.995 9.993-.656 21.183 1.452 31.254-2.055 15.909-5.925 30.024-14.825 44.528-22.413 3.428-2.11 4.449-5.658 6.93-6.182 9.296-3.489 20.135-5.502 28.99-10.851 5.297-3.545 7.21-9.5 10.339-13.5.668-1.293 2.17-1.484 4.557-1.831 2.373-.352 5.329-.492 7.903-1.145 3.051-1.01 5.393-3.511 6.681-5.925 1.251-2.4 2.011-5.069 2.57-6.673.324-1.5-.245-3.23-1.254-4.188-.991-.814-2.58-1.476-3.931-1.812-2.663-.633-6.127-.629-7.534-.302-1.075.286-2.151.57-3.228.853-2.3-4.697-3.882-11.524-8.604-15.897-4.542-4.205-14.513-8.795-22.203-12.214a484.743 484.743 0 0 1 14.668-3.936c6.773-1.709 27.461-4.828 46.975 1.763ZM403.815 295.865l-.01.003c.023-.005.025-.005-.019.007-.723.189-1.472.385-2.207.573l-.062.015-.008.001c-.047.012-.145.034-.149.036-.022.003-.131.021-.231.032-.089.008-.284.02-.42.012a4.293 4.293 0 0 1-.593-.106l-.204-.049-.115-.078c-.328-.222-.876-.818-1.093-1.191l-.199-.337.144-.375c.16-.416.605-1.123.909-1.395.093-.053.253-.13.299-.152.145-.055.282-.099.315-.108l.257-.068.954-.247c.361-.093.72-.187.95-.245l.225-.059c.018-.005.192-.038.264-.054l.174-.02a5.32 5.32 0 0 1 .319-.009c.106.006.395.045.58.088.356.128 1.174.731 1.466 1.217.122.559-.123 1.511-.339 1.814-.141.143-.35.312-.406.352l-.049.035-.056.031a5.282 5.282 0 0 1-.285.144 2.578 2.578 0 0 1-.174.065c-.037.013-.11.034-.153.047l-.007.002-.018.005-.003.001h-.002l-.038.01-.016.003Z" style="fill:#0f1;fill-opacity:1;fill-rule:nonzero;stroke:#0f1;stroke-dasharray:none;stroke-dashoffset:0;stroke-linecap:butt;stroke-linejoin:miter;stroke-miterlimit:4;stroke-opacity:1;paint-order:normal;vector-effect:none;opacity:1;mix-blend-mode:normal;isolation:auto;stroke-width:0"/>
  <path d="M25.822 159.944c6.109-1.466 11.051-.052 15.906 2.173 5.087 2.333 9.173 9.896 13.783 11.949 3.879 1.729 8.018 2.095 11.664 1.086 3.795-1.049 5.886-5.565 10.602-7.603 6.133-2.651 15.995-5.829 24.387-5.432 8.893.42 19.666 4.955 27.569 8.689 7.023 3.322 10.9 10.875 18.025 11.952 8.101 1.223 21.092-8.111 28.627-7.606 5.772.388 7.77 6.419 13.784 6.521 8.487.139 24.05-10.168 33.929-11.952 8.01-1.445 15.014-2.03 21.208 0 5.925 1.943 12.085 9.422 15.375 11.406 1.768 1.07 1.948.657 3.71 1.631 3.122 1.725 11.129 4.716 14.315 9.234 3.344 4.749 1.634 16.509 4.77 19.011 2.43 1.94 8.571.817 10.074-1.086 1.501-1.901-1.858-6.612-1.061-10.321.964-4.493 4.133-10.649 7.951-14.666 4.013-4.221 10.671-8.243 15.905-9.778 4.649-1.361 10.508-.328 13.784 0 2.164.22 3.409 1.66 4.772 1.088 1.523-.641 1.23-3.817 3.709-5.434 4.204-2.735 16.863-6.995 23.33-6.518 5.297.393 9.999 3.721 13.253 6.518 2.819 2.428 3.478 6.687 5.831 8.693 2.136 1.821 4.276 2.878 7.422 3.259 4.14.5 11.011-2.814 15.904-2.173 4.606.604 8.055-9.51 12.723-9.189 5.138.355 11.488-5.159 16.966-4.345 5.665.842 12.407 10.334 16.434 9.777 3.23-.445 3.513-6.563 6.893-8.69 4.078-2.569 10.911-5.363 16.964-4.345 7.21 1.209 17.515 14.175 23.326 14.122 4.21-.04 5.705-6.125 9.543-7.604 4.172-1.608 10.038-2.539 14.844-1.088 5.299 1.601 12.971 23.998 15.375 26.028 1.025.865.697.772 1.592 1.631 1.83 1.756 6.892 5.2 10.072 9.234 3.785 4.802 7.864 11.038 10.602 18.467 3.223 8.741 7.576 22.838 6.363 31.505-1.017 7.265-6.077 14.019-10.073 17.925-3.283 3.206-7.983 2.78-11.133 5.433-3.245 2.729-3.943 8.339-7.953 10.864-4.782 3.01-16.48 4.376-20.145 4.344-1.775-.013-1.259-1.017-3.183-1.086-4.488-.157-20.058 5.2-27.567 4.346-6.035-.687-10.106-7.016-14.845-6.519-4.81.508-8.016 7.592-13.782 9.778-6.836 2.593-17.453 3.729-25.448 3.261-7.499-.443-17.008-5.261-21.206-5.433-2.206-.091-1.95 1.143-4.242 1.086-4.596-.118-17.219-7.036-24.386-5.433-6.9 1.544-12.098 11.736-18.025 14.123-5.008 2.017-9.025 2.453-14.844 1.087-7.926-1.862-22.56-17.318-28.63-15.21-5.267 1.832-3.224 16.835-7.949 21.727-4.588 4.746-12.42 8.296-19.618 7.607-8.6-.827-22.054-14.684-28.627-16.297-3.841-.94-4.834 1.938-8.484 1.086-5.741-1.339-16.352-11.832-23.326-13.037-5.65-.973-11.034-.096-15.373 3.261-5.182 4.006-7.099 17.486-12.195 21.727-4.235 3.528-9.04 5.521-14.844 4.346-8.066-1.634-24.182-13.887-29.157-20.099-3.209-4.004-.564-9.965-3.713-11.407-4.129-1.891-15.769 7.374-22.266 6.519-5.885-.775-11.101-10.603-15.372-9.777-4.173.809-7.025 11.266-10.073 14.124-2.092 1.954-4.113 1.719-5.832 3.257-1.851 1.652-2.286 4.801-4.773 6.519-3.154 2.181-9.07 4.598-13.783 4.346-4.993-.268-11.473-3.025-15.374-6.519-3.832-3.433-4.171-13.182-7.953-14.123-4.021-.999-10.803 8.27-15.905 9.777-4.388 1.295-8.192 1.584-12.723 0-5.722-2-16.574-11.258-18.555-13.579-.699-.817.026-1.65-.53-1.629-1.253.043-5.571 6.859-9.543 8.69-4.353 2.006-10.914 3.297-15.905 2.173-5.097-1.149-11.209-5.836-14.314-9.234-2.464-2.695-3.452-5.046-4.24-8.692-.998-4.6-1.407-11.958 0-17.381 1.411-5.441 8.175-9.764 8.482-15.209.325-5.739-6.29-12.857-7.421-18.47-.956-4.732-1.354-7.913 0-13.036 1.859-7.043 11.006-22.164 13.251-25.531.819-1.222.812-.579 1.593-1.629 1.748-2.348 7.262-12.316 9.012-14.665.779-1.048.366-.715 1.59-1.63 3.627-2.711 20.91-15.945 29.157-17.925Zm88.537 61.923c-.586.332 1.644 7.731 3.179 8.692 1.15.72 4.134-.136 4.243-1.087.154-1.35-6.801-7.957-7.422-7.605Z" style="fill-opacity:1;fill-rule:nonzero;stroke-dasharray:none;stroke-dashoffset:0;stroke-linecap:round;stroke-linejoin:round;stroke-miterlimit:4;stroke-opacity:1;vector-effect:none;mix-blend-mode:normal;isolation:auto;fill:#ebff50;paint-order:stroke;stroke-width:12px;filter:url(#a)"/>
  <path d="M3.289 220.087c0 14.422.057 21.551-.782 28.517-.898 6.967-2.633 13.932-6.273 27.945-.783 3.115-.84 5.165-.224 6.146.615 1.066.896 2.461.896 4.263l10.697-15.653c0-1.802-.338-3.195-.954-4.261-.615-.983-.56-3.033.282-6.146 2.352-9.262 3.975-15.816 4.815-19.752 1.792 8.852 3.696 17.785 7.112 26.879.84 2.297 1.287 3.363 1.401 3.198l10.693-15.734c.17-.164 0-2.212-.392-6.066-.39-3.852-.39-8.93 0-15.242l.169-2.047c1.623 8.112 3.696 17.7 6.217 28.764.054.327.726 4.259 2.071 11.718 1.287 7.457 2.015 12.948 2.127 16.309l-1.065 1.556c.394.655.674.82.842.491l10.695-15.569c.336-.492.336-2.295 0-5.491-.727-6.229-2.015-14.013-3.136-19.996-.558-2.949-.839-4.507-.839-4.67-4.761-20.98-8.121-36.549-9.969-46.794-1.849-10.244-3.137-14.835-3.807-13.851l-10.696 15.654c-.504.819-1.063 7.621-1.68 20.404-1.065-4.834-2.014-9.587-3.303-14.176l-4.2 6.226v-8.275L3.289 220.087Zm-1.51 15.569c0-.737-.226-1.147-.729-1.147s-.785.41-.785.41c-.223 9.588-.223 12.537-3.359 21.063-.616 1.228.616 2.621 1.232 1.39 3.36-9.176 3.415-12.045 3.641-22.453v.737Zm-2.52 5.982c0-.736-.281-1.064-.785-1.064-.503 0-.785.328-.785.328-.056 3.36-.223 3.276-1.175 6.228-.392 1.394 1.175 2.293 1.399.901 1.123-3.278 1.178-3.278 1.346-7.129v.736Z" style="fill:red;stroke:red;stroke-width:1.11433px;white-space:pre"/>
  <path d="M61.827 258.683a49.878 49.878 0 0 1 6.495-.407l3.304-4.918a134.292 134.292 0 0 1 5.599 11.883c3.361 8.279 6.048 18.029 7.169 33.436.559 7.784 1.008 11.39 1.343 10.981l10.696-15.654c.169-.244.281-2.131.449-5.572l.503-17.372c0-1.557.448-5.162 1.288-10.981.839-5.821 1.231-8.853 1.231-9.18l-7.836 11.473c-4.202-16.636-12.265-29.584-19.656-41.057-7.45-11.473-14.392-21.553-16.019-32.617L45.7 204.351c.839 5.245 3.135 11.227 6.885 17.948l-3.022 4.342c0 12.211.783 45.648 2.519 56.548l10.641-15.735c-.393-2.377-.728-5.328-.896-8.771Zm22.623-25.568c-.169-1.309-1.681-1.228-1.511.329.672 2.459 1.959 5.981 3.861 10.49 1.904 4.59 2.914 7.459 3.026 8.686 0 1.557 1.399 1.721 1.567.163-.168-2.129-1.12-5.242-2.968-9.34-1.848-4.018-3.191-7.458-3.975-10.328Zm-23.743 2.213c.952 1.557 1.96 3.197 3.023 4.753l3.079 4.838-5.374 7.864c-.281-4.67-.561-10.49-.728-17.455Zm-2.184 40.32c-.727 1.065.392 2.623 1.118 1.557l.283-.408c.335-.494.335-.984 0-1.556-.394-.495-.787-.495-1.121 0l-.28.407Zm-6.273 9.998c-.616 1.312.729 2.379 1.401 1.312 1.344-2.869 1.959-4.508 3.919-6.556.953-.329.337-2.787-.615-2.214-2.463 2.542-2.968 3.854-4.705 7.458Z" style="fill:red;stroke:red;stroke-width:1.11433px;white-space:pre"/>
  <path d="M63.415 204.023c11.479-9.75 22.063-3.768 33.991 2.46 6.046 13.767 10.808 31.55 13.719 48.595-.278.165-.504.329-.56.411l-11.59 16.963c.895-1.064 2.183-.654 3.863 1.147 3.305 3.689 6.777 9.424 9.239 14.013 1.232 2.298 1.848 3.444 1.848 3.36l11.591-16.88c.729-16.062-2.464-39.256-8.062-59.989h.391c5.543.984 18.479 4.427 23.407-2.784l11.535-16.965c.897-1.31 1.513-2.95 1.792-4.999l-5.542 8.112c-3.024 1.395-6.497 1.804-10.416 1.146l-9.185-1.391c-7.448-1.066-14.167-4.425-20.439-7.703-3.304-7.375-6.607-13.032-9.911-16.965l-6.775 9.918c-5.656-1.231-11.312-.328-17.304 4.67l-11.592 16.881Zm56.614-15.405c-.671-1.312-2.073 0-1.4 1.31 3.416 5.492 14 6.065 18.48 6.392.559 0 .839-.408.839-1.148 0-.818-.28-1.227-.839-1.227-3.361-.329-14.392-1.148-17.08-5.327Zm19.711 5.49c-.56 0-.84.409-.84 1.231 0 .817.28 1.227.84 1.227.169 0 .502 0 .953-.081 1.062-.329.615-2.706-.336-2.377h-.617Zm-46.814 12.784c-1.12.41-.728 2.784.391 2.375 1.959.495 3.082 1.477 3.304 3.034.168 1.556.729 4.017 1.624 7.539.392 1.394 1.961.738 1.568-.82a231.171 231.171 0 0 1-2.182-8.686c-.504-2.213-2.074-3.359-4.705-3.442ZM126.3 266.88c.392 1.557 1.793.819 1.57-.737l-.06-.245v-.083c0-.819-.278-1.23-.838-1.23-.559 0-.839.411-.839.411 0 .245.056.572.167 1.065v.819Zm2.241 2.623c.056-1.64-1.625-1.721-1.625-.164 0 2.459.111 4.181.393 5.162l-1.511 2.048-1.232 1.559c-.898 1.064.335 2.868 1.063 1.801 2.408-3.112 3.528-4.668 3.304-4.753-.28 0-.392-1.885-.392-5.653Z" style="fill:red;stroke:red;stroke-width:1.11433px;white-space:pre"/>
  <path d="m148.766 194.273-.728-3.442c-.394-1.722-.729-2.869-1.009-3.279l-10.695 15.65c.447.905 1.567 5.822 1.735 6.722l10.697-15.651Zm-9.969 19.421c.056.082.675 3.604 1.848 10.572 1.176 6.965 2.465 14.669 3.92 23.028 1.4 8.359 2.744 16.062 3.921 23.028 1.175 6.966 1.848 10.572 1.958 10.735l10.697-15.653c-.056-.163-.448-2.295-1.176-6.392-.727-4.097-1.625-9.096-2.631-14.914 3.415-2.049 6.719-4.18 8.119-6.229l.616-.9a1259.312 1259.312 0 0 0 13.943 39.419c5.097 13.684 8.231 23.764 9.407 30.155.055 3.279.113 4.836.28 4.672l10.696-15.654.111-.656c.057-.901-.111-2.212-.391-4.013-.224-8.197-.28-25.324.617-34.91.056-.739.113-1.968.113-3.608l-8.625 12.622a6218.693 6218.693 0 0 0-15.064-42.451c-5.376-14.996-8.12-25.405-8.231-31.305l-10.695 15.735c.054 4.834 2.406 13.439 5.823 23.928-3.36 2.212-5.6 4.016-6.776 5.41l-1.008 1.475a3526.99 3526.99 0 0 1-4.592-26.635c-1.456-8.603-2.183-12.947-2.183-13.112l-10.697 15.653Zm27.944 30.321c-.279-1.31-1.736-.738-1.455.656 2.687 9.178 5.542 18.521 9.128 27.127.949.408 1.455-1.476.557-2.131-1.288-4.263-2.687-8.522-4.086-12.785a288.1 288.1 0 0 1-4.144-12.867Z" style="fill:red;stroke:red;stroke-width:1.11433px;white-space:pre"/>
  <path d="M233.683 199.024c-7.391-6.636-17.416-8.275-24.639 2.214l-10.25 15.08c-2.909 4.341-5.148 10.243-6.774 17.701-1.792 8.768-1.734 21.224 1.009 31.467 2.744 10.245 8.176 18.44 17.304 18.193 6.046 0 22.006-1.721 27.55-9.832l6.832-10.082c.448 3.279 1.4 7.704 3.808 13.933.336.9.729 2.211 1.232 3.853.448 1.638.896 2.702 1.4 3.196l10.247-15.08c-.447-.492-.895-1.557-1.343-3.196-.505-1.64-.897-2.951-1.231-3.851-2.69-7.131-4.032-12.211-3.977-15.244.057-6.066-.448-7.046-6.721-5.984-3.134.575-9.184.822-18.198.822l-10.249 15.077c7.337 0 12.376-.245 15.96-.572l-.056.08c.112.083.392.492.895 1.148 1.514 2.541 2.464 4.917 2.968 7.13-3.359 1.394-6.83 2.295-10.471 2.786-7.224 1.067-13.775 2.789-19.376-4.343-5.656-7.13-8.343-17.949-8.51-29.42-.224-11.472 1.68-18.275 3.471-23.52 10.472-6.229 23.241 4.262 27.272 16.965.391 1.885.727 3.358 1.063 4.342l10.304-15.079a37.915 37.915 0 0 0-1.064-4.343 145.29 145.29 0 0 1-1.623-10.408c-.505-3.688-1.066-7.213-1.736-10.491l-5.097 7.458Zm12.04 12.457c-.169-1.393-1.679-1.147-1.512.248.169 1.31.336 2.374.615 3.194.17.575.281.984.449 1.146.166.166.335.656.56 1.476-.055.247-.56.985-1.512 2.05-.448.655-.726 1.145-.896 1.557-.615 1.31.727 2.377 1.344 1.147.055-.247.112-.327.112-.41 2.184-2.623 3.024-4.178 2.407-4.754-.616-.491-1.119-2.376-1.567-5.654Zm-37.966-.162c-.506 0-.784.327-.784 1.062 0 .739.278 1.15.784 1.15h1.23c.505 0 .785-.411.785-1.15 0-.735-.28-1.062-.785-1.062h-1.23Zm4.031 0c-1.063 0-1.176 2.212-.111 2.294 1.96.737 3.751 2.13 5.486 4.179.616 1.228 1.848-.494 1.121-1.474-2.017-2.377-4.199-4.1-6.496-4.999Zm40.432 76.458c.67 1.229 1.455 2.868 2.294 4.916.84 2.05 1.624 3.525 2.297 4.425l10.248-14.995c-.617-.82-1.401-2.295-2.24-4.344a92.944 92.944 0 0 0-2.352-5l-10.247 14.998Zm-30.239-2.867c-1.065.409-.672 2.54.391 2.212 6.496-1.639 5.935-1.394 12.431-4.427.954.247 1.121-1.965.168-2.211l-1.288.41c-6.215 2.621-5.264 2.376-11.702 4.016Zm9.295.165c-.953-.085-1.066 2.208 0 2.208l1.623-.489c0 .083.393-.163 1.121-.574 1.065.247 1.288-1.804.335-2.212l-1.566.574-1.513.493Z" style="fill:red;stroke:red;stroke-width:1.11433px;white-space:pre"/>
  <path d="M269.091 258.683a49.882 49.882 0 0 1 6.496-.407l3.303-4.918a133.448 133.448 0 0 1 5.599 11.883c3.361 8.279 6.048 18.029 7.169 33.436.559 7.784 1.008 11.39 1.343 10.981l10.695-15.654c.17-.244.283-2.131.45-5.572l.503-17.372c0-1.557.447-5.162 1.288-10.981.84-5.821 1.231-8.853 1.231-9.18l-7.839 11.473c-4.199-16.636-12.263-29.584-19.656-41.057-7.447-11.473-14.39-21.553-16.015-32.617l-10.696 15.653c.842 5.245 3.137 11.227 6.889 17.948l-3.024 4.342c0 12.211.784 45.648 2.52 56.548l10.64-15.735c-.391-2.377-.729-5.328-.896-8.771Zm22.623-25.568c-.168-1.309-1.679-1.228-1.512.329.672 2.459 1.96 5.981 3.864 10.49 1.903 4.59 2.913 7.459 3.024 8.686 0 1.557 1.401 1.721 1.568.163-.167-2.129-1.12-5.242-2.969-9.34-1.848-4.018-3.191-7.458-3.975-10.328Zm-23.743 2.213c.952 1.557 1.959 3.197 3.023 4.753l3.08 4.838-5.375 7.864c-.28-4.67-.56-10.49-.728-17.455Zm-2.185 40.32c-.727 1.065.392 2.623 1.121 1.557l.279-.408c.339-.494.339-.984 0-1.556-.392-.495-.783-.495-1.118 0l-.282.407Zm-6.272 9.998c-.615 1.312.728 2.379 1.401 1.312 1.342-2.869 1.959-4.508 3.92-6.556.951-.329.336-2.787-.616-2.214-2.465 2.542-2.968 3.854-4.705 7.458Z" style="fill:red;stroke:red;stroke-width:1.11433px;white-space:pre"/>
  <path d="M303.268 220.087c0 14.422.059 21.551-.783 28.517-.896 6.967-2.631 13.932-6.27 27.945-.784 3.115-.841 5.165-.226 6.146.618 1.066.897 2.461.897 4.263l10.695-15.653c0-1.802-.335-3.195-.951-4.261-.617-.983-.56-3.033.28-6.146 2.351-9.262 3.975-15.816 4.815-19.752 1.793 8.852 3.696 17.785 7.112 26.879.84 2.297 1.288 3.363 1.399 3.198l10.696-15.734c.169-.164 0-2.212-.39-6.066-.394-3.852-.394-8.93 0-15.242l.168-2.047c1.622 8.112 3.695 17.7 6.214 28.764.058.327.73 4.259 2.072 11.718 1.288 7.457 2.016 12.948 2.129 16.309l-1.065 1.556c.393.655.672.82.84.491l10.698-15.569c.335-.492.335-2.295 0-5.491-.73-6.229-2.018-14.013-3.136-19.996-.563-2.949-.842-4.507-.842-4.67-4.758-20.98-8.118-36.549-9.966-46.794-1.85-10.244-3.136-14.835-3.808-13.851l-10.698 15.654c-.503.819-1.062 7.621-1.679 20.404-1.063-4.834-2.017-9.587-3.304-14.176l-4.2 6.226v-8.275l-10.697 15.653Zm-1.511 15.569c0-.737-.222-1.147-.726-1.147s-.785.41-.785.41c-.224 9.588-.224 12.537-3.36 21.063-.616 1.228.616 2.621 1.233 1.39 3.36-9.176 3.416-12.045 3.638-22.453v.737Zm-2.521 5.982c0-.736-.277-1.064-.783-1.064-.503 0-.784.328-.784.328-.055 3.36-.223 3.276-1.175 6.228-.391 1.394 1.175 2.293 1.401.901 1.118-3.278 1.175-3.278 1.341-7.129v.736Z" style="fill:red;stroke:red;stroke-width:1.11433px;white-space:pre"/>
  <path d="M411.758 261.552c-4.09-4.67-5.657-11.227-4.816-19.585l.39-.575c-.056.083-.167.246-.335.329l-10.361 15.242c-.167 1.885-.222 3.687-.055 5.493-4.48-1.395-12.209-2.214-18.759-1.806-3.36.329-8.959 3.115-11.928 7.46l-1.735 2.542c.278-4.92-.169-14.837-.616-22.048 3.472.329 7.11.41 10.919.329 3.809-.081 7.448-.165 10.92-.165l10.304-15.079c-4.089 0-8.4.084-12.88.166-4.48.164-8.679-.082-12.599-.74l-7.112 10.409c-.168-1.231-.28-2.214-.28-2.868-.617-4.015-1.176-7.622-1.624-10.981-.449-3.362-.896-6.475-1.4-9.344a30.07 30.07 0 0 0 3.807.984c10.023 1.966 17.193 1.558 27.047 1.558l10.306-15.081h-12.936c-8.793 0-18.146-1.72-25.817-5.653-3.863-1.967-6.999-3.526-9.519-4.672-1.232-2.459-3.025-5.492-5.376-9.096l-10.305 15.08c1.625 2.457 2.913 4.505 3.753 6.145l-1.287 1.885c.504.082 1.454.492 2.911 1.064 6.665 12.868 7.279 23.768 10.192 43.189.671 4.508 2.071 25.732 1.178 31.634 0 .163 0 .327-.059.409-.055.081-.055.248-.113.411l6.385-9.343c2.632-1.885 5.153-2.868 7.616-3.114 7.615-.575 16.408.327 20.831 2.54 4.424 2.213 9.911 4.343 16.521 6.064 1.232.327 1.902.412 2.016.164l10.302-15.078c.393-.574-1.401-3.196-5.486-7.869Zm-45.304-60.887c.561.409 1.01.573 1.401.573.951-.083.783-2.214-.112-2.214a1.721 1.721 0 0 1-.783-.491c-.506-.164-.842.08-.954.738-.223.737-.057 1.229.448 1.394Zm4.761 2.048c10.527 3.278 6.999 2.95 18.142 3.031.505 0 .729-.327.729-1.065 0-.737-.224-1.147-.729-1.147-2.296 0-3.975 0-5.152-.081-1.175 0-2.183-.084-2.967-.164-.503 0-1.064-.165-1.511-.246a20.352 20.352 0 0 1-2.857-.82c-1.175-.409-2.856-.903-5.152-1.639-.503-.163-.841.083-.951.736-.225.739-.056 1.232.448 1.395Zm21.894 21.059c.448.084 1.232.084 2.297.084l10.303-14.997c-1.064 0-1.849 0-2.296-.082-.447-.08-1.122.328-1.96 1.065l-10.304 15.079c.841-.736 1.513-1.149 1.96-1.149Zm-26.933 39.83c.502 0 .784-.41.784-1.146l-.058-4.674-.335-4.834c-.056-.656-.391-.983-.898-.902-.503.246-.67.656-.615 1.312l.338 4.589v4.509c0 .736.277 1.146.784 1.146Z" style="fill:red;stroke:red;stroke-width:1.11433px;white-space:pre"/>
  <path d="M440.053 230.74c-1.847-.738-7.279-2.049-11.758-3.032l9.969-14.588c.168-.245-.226-1.639-1.289-4.18-.728-3.932-1.68-10.571-1.737-20.651l-5.487 8.031c-4.313-4.589-8.288-3.442-10.975.491l-10.248 15.08c-4.761 7.129-5.657 22.945 2.8 29.255.113.084 1.231.411 3.415.903 2.184.492 4.48.981 6.944 1.475l-6.494 9.507c.055.327.222 1.146.559 2.54.334 1.392.502 2.211.502 2.376l9.24-13.44c1.903.412 3.304.902 4.257 1.312 12.823 5.655 16.127 10.326 16.632 26.716-8.735 2.621-19.657-.737-19.657-26.308l-10.303 15.081c0 19.094 6.16 25.732 12.936 26.717 6.719 1.063 14.112-3.363 16.407-6.722l10.303-15.078c.505-.739.729-1.312.729-1.884 0-21.964-2.186-27.29-16.745-33.601Zm-18.479-4.671c-5.095-3.689-6.774-10.899-6.326-17.538 4.87 1.311 8.959 9.752 11.478 15.406.337 1.805.616 2.951.898 3.525-3.919-.737-5.937-1.229-6.05-1.393Zm25.368 2.54c.111.082.335.082.617.164.278.081.504.246.783.329.056.08.223.164.447.244.506 0 .784-.327.842-1.064 0-.985-.281-1.394-.785-1.313-.448-.244-.952-.408-1.569-.571-.559-.085-.84.243-.894.899-.169.738.054 1.148.559 1.312Zm-2.687 1.968c3.137.982 3.078 1.146 5.767 3.031.952.411 1.289-1.721.224-1.966-1.736-1.887-3.863-2.46-5.881-3.116-1.063 0-1.287 2.051-.11 2.051Zm-11.705 35.321c.505 0 .784-.33.784-1.067v-.49c-.055-.083-.223-.494-.616-1.149-.392-.572-.784-1.721-1.231-3.44-.224-.576-.393-1.476-.56-2.542-.282-1.228-.56-3.279-.785-5.984 0-.737-.223-1.064-.727-1.064-.503 0-.785.327-.785.327.224 2.952.898 11.637 3.193 13.932.111.492.337.736.727.736v.741Zm3.025 2.456c.895.656 1.624-1.393.672-2.049-.56-.327-.897-.573-1.009-.819-.334-.49-.726-.573-1.119-.245-.392.574-.392 1.064-.113 1.557.337.737.841 1.227 1.569 1.556Z" style="fill:red;stroke:red;stroke-width:1.11433px;white-space:pre"/>
  <path d="M476.532 198.613c-3.359-.08-6.383 1.806-9.017 5.658l-10.919 16.06c-2.854 4.262-4.925 9.999-6.103 17.293-2.407 14.586-.391 29.174 7.001 38.434 7.391 9.261 20.661 6.392 26.317-1.884l11.032-16.144c4.705-6.885 6.496-17.21 4.872-25.078-1.624-7.866-6.719-13.112-15.904-9.752-3.583 1.393-10.135 7.867-14.166 13.769l-7.338 10.734c-2.742-10.162-2.239-22.7.505-32.616.673-.245 1.569-.409 2.688-.409l11.032-16.065Zm-22.959 24.178c.952-.902-.055-2.541-.895-1.803-2.464 3.933-5.098 13.193-5.098 18.357-.391.655-.11 2.376.842 1.72.447-.245.783-1.147 1.007-2.786.392-3.195 1.232-9.097 3.024-13.358.336-.736.727-1.392 1.12-2.13Zm12.824 34.419c-.73-1.147-1.345-2.212-1.848-3.279l4.534-6.637c-2.239 0-3.189-1.067-2.854-3.116 2.631-2.54 4.87-4.097 6.606-4.833 14.504-5.326 18.762 10.98 15.345 24.748-1.176.656-2.408 1.064-3.64 1.148-5.209.902-9.746-.164-13.608-3.033l7.169-10.572c-.393-.982-1.12-1.884-2.184-2.703a32.103 32.103 0 0 1-2.577-1.966l-6.943 10.243Zm16.518-12.785c-.894-.737-1.79.902-.952 1.802.281.413.841 1.067 1.567 1.969 1.178 1.638 1.85 3.686 1.961 6.145 0 .41 0 .82.057 1.23v1.392c0 .74.281 1.147.785 1.147.503 0 .727-.407.727-.407-.224-7.541-.17-7.541-4.145-12.54v-.738Zm3.808 17.046c0-.735-.279-1.148-.782-1.148-.506 0-.73.413-.73.413v.325c-.224.575-.167 1.065.169 1.395.671 1.064 1.343-.33 1.343-1.72v.735Z" style="fill:red;stroke:red;stroke-width:1.11433px;white-space:pre"/>
  <path d="M519.507 198.613c-3.36-.08-6.383 1.806-9.016 5.658l-10.919 16.06c-2.855 4.262-4.926 9.999-6.104 17.293-2.408 14.586-.391 29.174 7.001 38.434 7.391 9.261 20.662 6.392 26.318-1.884l11.033-16.144c4.703-6.885 6.496-17.21 4.87-25.078-1.623-7.866-6.718-13.112-15.903-9.752-3.585 1.393-10.134 7.867-14.168 13.769l-7.335 10.734c-2.744-10.162-2.241-22.7.504-32.616.672-.245 1.569-.409 2.688-.409l11.031-16.065Zm-22.958 24.178c.951-.902-.055-2.541-.896-1.803-2.464 3.933-5.097 13.193-5.097 18.357-.392.655-.111 2.376.841 1.72.448-.245.783-1.147 1.007-2.786.393-3.195 1.233-9.097 3.025-13.358.335-.736.727-1.392 1.12-2.13Zm12.824 34.419c-.729-1.147-1.346-2.212-1.848-3.279l4.536-6.637c-2.241 0-3.193-1.067-2.857-3.116 2.632-2.54 4.872-4.097 6.607-4.833 14.504-5.326 18.762 10.98 15.345 24.748-1.177.656-2.408 1.064-3.639 1.148-5.208.902-9.746-.164-13.61-3.033l7.169-10.572c-.392-.982-1.119-1.884-2.184-2.703a31.494 31.494 0 0 1-2.575-1.966l-6.944 10.243Zm16.52-12.785c-.898-.737-1.793.902-.955 1.802.282.413.842 1.067 1.569 1.969 1.176 1.638 1.848 3.686 1.959 6.145 0 .41 0 .82.058 1.23v1.392c0 .74.279 1.147.784 1.147s.728-.407.728-.407c-.223-7.541-.168-7.541-4.143-12.54v-.738Zm3.806 17.046c0-.735-.279-1.148-.783-1.148a.855.855 0 0 0-.729.413v.325c-.223.575-.167 1.065.168 1.395.672 1.064 1.344-.33 1.344-1.72v.735Z" style="fill:red;stroke:red;stroke-width:1.11433px;white-space:pre"/>
</svg>
