<?xml version="1.0" encoding="utf-8"?>
<svg viewBox="-101.258 126.899 733.735 230.162" width="733.735" height="230.162" xmlns="http://www.w3.org/2000/svg" xmlns:bx="https://boxy-svg.com">
  <defs>
    <filter id="drop-shadow-filter-0" color-interpolation-filters="sRGB" x="-500%" y="-500%" width="1000%" height="1000%" bx:preset="drop-shadow 1 0 0 6 1 rgba(0,0,0,0.3)">
      <feGaussianBlur in="SourceAlpha" stdDeviation="6"/>
      <feOffset dx="0" dy="0"/>
      <feComponentTransfer result="offsetblur">
        <feFuncA id="spread-ctrl" type="linear" slope="2"/>
      </feComponentTransfer>
      <feFlood flood-color="rgba(0,0,0,0.3)"/>
      <feComposite in2="offsetblur" operator="in"/>
      <feMerge>
        <feMergeNode/>
        <feMergeNode in="SourceGraphic"/>
      </feMerge>
    </filter>
  </defs>
  <path stroke="rgb(255,0,0)" stroke-width="0" opacity="0.984313725490196" d="M 294.994 127.058 C 301.527 126.825 305.736 126.507 313.759 128.863 C 326.295 132.548 359.213 149.768 364.321 152.774 C 365.708 153.593 364.675 153.531 365.886 154.129 C 369.166 155.753 382.067 161.896 390.907 162.251 C 400.254 162.626 415.464 158.435 420.618 155.482 C 423.62 153.764 422.486 151.508 424.787 149.619 C 427.857 147.096 433.672 143.908 438.862 142.398 C 444.234 140.836 451.596 140.261 456.585 140.594 C 460.678 140.867 462.145 143.194 467.01 143.3 C 474.676 143.471 489.895 136.809 500.37 137.887 C 510.536 138.933 525.464 147.23 529.04 149.167 C 530.276 149.836 529.372 149.739 530.602 150.52 C 534.411 152.935 555.211 160.557 562.401 167.214 C 568.526 172.887 569.368 182.687 573.347 186.614 C 576.137 189.368 579.447 188.124 582.209 191.125 C 586.495 195.787 593.666 207.957 593.675 215.94 C 593.685 223.573 586.255 234.588 583.251 238.047 C 581.742 239.783 579.821 238.637 579.079 240.304 C 577.785 243.218 581.921 251.618 581.167 257.448 C 580.364 263.634 577.987 270.225 573.867 276.398 C 569.229 283.349 563.395 290.366 553.539 296.701 C 540.696 304.955 512.513 315.323 499.328 319.26 C 490.905 321.776 485.083 319.553 480.041 322.416 C 475.01 325.276 473.56 332.984 469.094 336.405 C 464.937 339.587 460.349 341.346 454.499 342.721 C 447.549 344.354 438.127 345.412 429.478 344.525 C 420.111 343.565 408.24 335.249 400.289 336.405 C 393.39 337.408 390.569 345.436 383.609 348.133 C 375.69 351.206 361.656 352.798 354.417 352.647 C 349.396 352.541 347.08 349.584 342.95 349.939 C 338.154 350.352 333.029 355.175 327.312 356.256 C 321.271 357.4 314.977 357.254 307.504 356.256 C 298.376 355.037 286.461 351.926 276.228 348.133 C 265.595 344.194 254.008 332.96 244.953 332.795 C 237.394 332.656 233.743 340.147 225.145 342.721 C 213.939 346.074 194.996 350.42 181.359 349.036 C 168.32 347.716 155.54 336.695 144.872 335.502 C 136.25 334.536 129.796 338.93 121.935 339.111 C 113.825 339.298 104.923 336.356 96.917 336.405 C 89.317 336.451 82.182 340.354 75.022 339.111 C 67.394 337.788 56.488 331.028 52.609 327.833 C 50.374 325.991 51.458 324.199 49.482 322.868 C 46.824 321.079 41.457 319.345 36.449 319.26 C 30.45 319.158 21.822 323.812 15.598 323.772 C 10.184 323.736 6.783 322.706 1.005 320.161 C -7.342 316.489 -23.138 307.54 -29.751 300.761 C -34.986 295.393 -34.767 288.676 -38.613 284.068 C -42.186 279.782 -48.349 278.472 -51.644 273.692 C -55.549 268.025 -59.869 260.881 -58.941 251.132 C -57.573 236.742 -41.568 207.76 -32.878 193.381 C -26.451 182.746 -20.457 175.344 -13.591 169.469 C -7.819 164.53 1.984 160.885 4.652 159.093 C 5.721 158.374 5.166 158.475 6.216 157.74 C 8.834 155.903 16.549 149.449 23.94 146.911 C 32.651 143.919 46.703 142.338 56.257 142.398 C 64.45 142.45 71.862 143.866 78.151 146.007 C 83.84 147.947 86.903 154.272 92.746 154.129 C 100.192 153.947 111.703 142.242 119.851 139.693 C 126.317 137.667 131.204 136.929 137.575 137.887 C 145.096 139.018 158.189 145.121 162.074 147.815 C 164.037 149.173 162.7 151.243 164.68 151.422 C 168.725 151.79 182.446 141.882 190.743 139.693 C 197.991 137.779 205.126 137.499 211.593 137.887 C 217.566 138.245 223.024 141.097 228.274 141.496 C 233.049 141.861 237.576 140.1 241.825 140.594 C 245.896 141.068 250.13 144.888 253.293 144.203 C 256.337 143.544 257.536 139.147 260.591 136.984 C 263.99 134.578 268.029 132.275 273.101 130.669 C 279.126 128.759 288.014 127.308 294.994 127.058 Z" style="fill-opacity: 1; fill-rule: nonzero; stroke: none; stroke-dasharray: none; stroke-dashoffset: 0px; stroke-linecap: round; stroke-linejoin: round; stroke-miterlimit: 4; stroke-opacity: 1; stroke-width: 38.2508px; paint-order: stroke; vector-effect: none; opacity: 1; mix-blend-mode: normal; isolation: auto; fill: rgb(37, 146, 255);"/>
  <path fill="rgb(255,0,0)" stroke="rgb(255,0,0)" opacity="0.9764705882352941" d="M 601.841 152.827 C 609.281 155.28 616.761 158.275 620.943 163.616 C 627.02 170.897 628.787 180.34 631.475 189.502 C 633.52 195.957 632.246 199.731 629.364 203.23 C 626.52 206.771 621.932 209.636 617.21 213.452 C 615.316 215.167 614.211 219.038 612.165 219.178 C 607.606 220.465 602.935 221.754 598.358 223.047 C 595.444 224.267 594.043 226.895 593.438 228.927 C 593.136 229.953 592.969 230.803 592.727 231.4 C 592.504 231.95 592.58 232.094 592.243 232.011 L 592.21 232.003 L 592.039 232.061 C 585.097 234.414 576.793 235.536 569.981 239.478 C 561.674 244.597 557.245 252.869 549.724 257.24 C 532.886 267.389 515.883 277.571 496.848 283.636 C 476.874 290.047 455.577 293.834 434.282 294.26 C 429.822 294.527 425.71 292.028 420.958 289.56 C 416.201 287.091 410.663 284.723 404.882 285.5 C 403.218 285.841 401.754 286.546 400.958 287.264 C 400.153 288.089 399.678 289.194 399.524 289.915 C 399.434 290.38 399.399 290.778 399.368 291.084 C 386.295 294.37 372.811 296.529 359.391 299.284 L 359.189 299.325 L 359.177 299.349 C 359.065 299.534 359.126 299.417 358.694 299.175 C 358.216 298.906 357.633 298.443 356.843 297.906 C 355.278 296.851 352.759 295.693 350.142 296.011 L 350.1 296.016 L 350.025 296.037 C 346.951 296.873 342.997 297.237 339.539 298.902 C 337.595 300.106 336.366 302.159 335.506 303.637 C 335.063 304.394 334.768 304.954 334.446 305.316 C 334.162 305.635 334.219 305.716 333.894 305.602 L 333.862 305.592 L 333.702 305.606 C 324.239 306.489 315.168 308.752 306.275 308.102 C 303.644 308.052 301.187 306.537 298.189 305.051 C 295.18 303.564 291.384 302.204 287.554 302.667 C 283.98 303.593 281.495 306.582 280.284 308.771 C 279.9 309.86 278.839 310.365 277.267 310.861 C 275.673 311.364 273.772 311.621 271.932 311.883 C 263.622 313.08 257.895 314.844 250.914 312.393 C 248.835 311.73 243.43 309.98 241.568 309.956 C 237.257 310.154 232.836 311.708 228.941 312.739 C 225.049 313.776 222.054 314.46 219.48 312.895 C 208.261 307.678 182.088 314.393 179.07 314.702 L 178.877 314.721 C 178.863 314.71 178.847 314.699 178.825 314.686 C 178.539 314.517 178.134 314.198 177.513 313.816 C 176.302 313.092 174.189 312.353 171.622 312.646 L 171.551 312.654 L 171.482 312.676 C 168.66 313.512 167.299 314.943 166.938 315.976 C 166.858 316.253 166.816 316.467 166.785 316.621 C 163.067 318.086 159.608 319.587 155.937 319.944 C 149.804 320.66 142.82 322.956 136.577 324.1 C 133.465 324.675 130.725 325 128.287 324.765 C 125.879 324.533 123.991 323.854 122.432 322.18 C 121.475 321.269 120.104 319.888 118.54 318.836 C 116.899 317.774 114.299 317.046 111.988 317.408 C 101.822 319.972 91.605 322.552 81.443 325.132 C 80.305 325.494 79.08 326.295 78.441 327.036 C 78.015 327.579 77.673 328.306 77.485 328.962 C 77.039 329.054 76.448 329.105 75.604 329.144 C 73.439 329.25 70.54 329.151 67.685 329.124 C 64.825 329.098 61.825 329.168 59.872 329.625 C 58.971 329.858 57.888 330.422 57.197 331.094 C 57.197 331.094 57.533 331.266 57.168 331.124 C 57.02 331.271 56.889 331.425 56.784 331.58 C 56.681 331.786 56.79 330.981 56.79 330.981 C 56.348 330.822 55.916 330.689 55.555 330.617 C 51.935 330.171 48.381 330.893 45.417 330.984 C 43.083 331.409 40.062 328.706 35.877 328.639 C 31.694 329.187 28.546 331.806 25.752 333.018 C 20.154 335.705 16.138 335.531 11.908 334.238 C 7.653 332.982 3.561 330.386 -1.207 328.002 C -1.611 327.948 -1.829 327.401 -2.537 326.57 C -3.278 325.727 -4.704 324.693 -6.344 324.343 L -6.419 324.327 L -6.51 324.325 C -10.649 324.238 -14.329 326.149 -17.277 328.159 C -20.212 330.165 -22.67 332.212 -25.515 332.77 C -32.906 334.667 -39.811 332.802 -47.357 331.236 C -51.155 330.711 -54.722 332.228 -57.412 332.583 C -63.682 333.858 -69.906 329.384 -75.975 325.817 C -80.482 323.316 -83.112 318.672 -87.131 314.632 C -89.677 312.111 -96 307.343 -96.884 306.728 L -97.05 306.336 C -100.077 299.279 -101.909 291.774 -101.042 284.441 C -101.06 281.553 -97.593 279.432 -94.565 276.804 L -94.483 276.733 L -94.482 276.724 C -94.438 276.466 -94.126 276.555 -93.232 276.309 C -92.363 276.07 -91.012 275.471 -89.992 274.556 C -85.788 269.872 -81.915 265.015 -77.903 260.317 L -77.849 260.254 L -77.839 260.235 C -77.452 259.422 -76.378 259.262 -74.779 258.939 C -73.172 258.616 -71.111 258.254 -69.374 257.383 C -66.225 255.491 -64.141 252.779 -61.926 250.849 C -60.929 249.904 -59.794 249.115 -58.551 248.444 C -58.729 249.386 -58.86 250.284 -58.941 251.132 C -59.869 260.881 -55.549 268.025 -51.644 273.692 C -49.309 277.079 -45.534 278.724 -42.261 280.92 C -44.242 281.47 -46.222 282.042 -48.191 282.652 C -49.188 282.975 -51.904 284.287 -53.866 285.791 C -54.855 286.563 -55.911 287.66 -56.412 288.664 C -56.66 289.226 -56.813 290.105 -56.722 290.755 C -56.569 291.406 -55.999 292.291 -55.447 292.817 C -40.488 305.121 -26.091 306.362 -6.428 310.244 C -4.331 310.562 -2.273 310.197 -1.067 309.47 C 0.078 308.658 0.898 307.371 1.312 306.404 C 1.718 305.44 1.956 304.579 2.246 304.012 C 2.281 303.941 2.311 303.877 2.336 303.821 L 2.016 303.859 C 2.122 303.845 2.23 303.834 2.338 303.819 C 2.354 303.785 2.368 303.753 2.381 303.725 L 4.103 303.553 C 12.122 302.162 19.689 298.585 25.988 301.07 C 28.582 301.941 33.822 303.819 36.732 303.55 C 47.659 301.874 58.045 298.549 68.458 296.129 L 68.557 296.106 L 68.573 296.097 C 69.523 295.541 70.39 296.352 72.243 297.353 C 74.074 298.339 76.646 299.559 79.293 299.595 C 87.618 299.069 95.506 296.752 103.249 295.404 L 103.492 295.361 L 103.49 295.337 C 103.483 295.147 103.766 295.459 104.695 295.809 C 105.619 296.156 106.948 296.575 108.322 296.562 L 108.385 296.562 L 108.459 296.55 C 111.772 295.991 114.506 294.054 116.652 292.323 C 118.798 290.591 120.374 289.091 122.474 288.92 C 135.24 286.801 148.628 288.152 162.13 287.773 L 162.311 287.767 L 162.334 287.752 C 162.541 287.602 162.519 287.713 162.918 288 C 163.349 288.313 163.865 288.817 164.592 289.38 C 165.301 289.922 166.351 290.591 167.475 290.964 C 168.616 291.29 170.33 291.304 171.847 290.912 C 178.877 288.755 185.307 285.796 192.154 284.672 C 206.462 282.223 221.262 281.776 236.008 280.008 L 236.224 279.982 L 236.238 279.959 C 236.353 279.769 236.511 279.994 237.221 280.303 C 237.935 280.613 238.967 281.045 240.176 281.195 L 240.247 281.205 L 240.318 281.202 C 245.664 280.991 249.578 277.444 253.34 277.215 C 259.409 276.481 265.461 276.127 271.143 277.384 C 276.742 278.322 281.516 284.46 288.855 284.875 C 296.483 285.306 302.282 279.28 308.215 278.402 C 314.236 277.237 320.802 278.029 327.552 277.844 C 329.626 277.513 331.752 279.446 334.62 281.381 C 336.046 282.343 337.662 283.364 339.232 283.98 C 340.918 284.594 343.232 284.698 345.089 284.088 C 351.863 281.237 357.595 277.169 364.237 276.02 C 370.658 274.775 377.334 274.668 384.131 274.631 C 385.662 274.995 387.252 275.236 388.935 275.246 C 391.164 275.259 393.92 274.973 396.816 274.507 C 396.85 274.539 396.893 274.572 396.942 274.608 C 397.358 274.91 397.873 275.396 398.569 275.933 C 399.244 276.449 400.198 277.087 401.172 277.463 C 402.233 277.815 403.913 277.837 405.217 277.466 C 409.343 275.934 413.537 274.372 417.657 272.817 C 418.817 272.253 420.052 270.997 420.66 269.883 C 421.056 269.12 421.178 268.705 421.34 268.094 C 421.349 268.092 421.398 268.081 421.556 268.046 L 421.698 268.015 L 421.835 267.944 C 425.362 266.128 428.4 263.837 431.53 262.13 C 435.459 261.208 439.627 260.22 443.2 259.135 C 453.193 258.479 464.383 260.587 474.454 257.08 C 490.363 251.155 504.478 242.255 518.982 234.667 C 522.41 232.557 523.431 229.009 525.912 228.485 C 535.208 224.996 546.047 222.983 554.902 217.634 C 560.199 214.089 562.112 208.134 565.241 204.134 C 565.909 202.841 567.411 202.65 569.798 202.303 C 572.171 201.951 575.127 201.811 577.701 201.158 C 580.752 200.148 583.094 197.647 584.382 195.233 C 585.633 192.833 586.393 190.164 586.952 188.56 C 587.276 187.06 586.707 185.33 585.698 184.372 C 584.707 183.558 583.118 182.896 581.767 182.56 C 579.104 181.927 575.64 181.931 574.233 182.258 C 573.158 182.544 572.082 182.828 571.005 183.111 C 568.705 178.414 567.123 171.587 562.401 167.214 C 557.859 163.009 547.888 158.419 540.198 155 C 545.062 153.616 549.949 152.298 554.866 151.064 C 561.639 149.355 582.327 146.236 601.841 152.827 Z M 403.815 295.865 L 403.805 295.868 C 403.828 295.863 403.83 295.863 403.786 295.875 C 403.063 296.064 402.314 296.26 401.579 296.448 C 401.557 296.453 401.541 296.458 401.517 296.463 C 401.518 296.463 401.517 296.463 401.509 296.464 C 401.462 296.476 401.364 296.498 401.36 296.5 C 401.338 296.503 401.229 296.521 401.129 296.532 C 401.04 296.54 400.845 296.552 400.709 296.544 C 400.543 296.534 400.245 296.47 400.116 296.438 L 399.912 296.389 L 399.797 296.311 C 399.469 296.089 398.921 295.493 398.704 295.12 L 398.505 294.783 L 398.649 294.408 C 398.809 293.992 399.254 293.285 399.558 293.013 C 399.651 292.96 399.811 292.883 399.857 292.861 C 400.002 292.806 400.139 292.762 400.172 292.753 C 400.219 292.741 400.316 292.715 400.429 292.685 C 400.656 292.627 401.019 292.532 401.383 292.438 C 401.744 292.345 402.103 292.251 402.333 292.193 C 402.449 292.162 402.534 292.141 402.558 292.134 C 402.576 292.129 402.75 292.096 402.822 292.08 C 402.825 292.08 402.956 292.065 402.996 292.06 C 403.023 292.058 403.182 292.05 403.315 292.051 C 403.421 292.057 403.71 292.096 403.895 292.139 C 404.251 292.267 405.069 292.87 405.361 293.356 C 405.483 293.915 405.238 294.867 405.022 295.17 C 404.881 295.313 404.672 295.482 404.616 295.522 L 404.567 295.557 L 404.511 295.588 C 404.453 295.62 404.316 295.691 404.226 295.732 C 404.164 295.757 404.108 295.779 404.052 295.797 C 404.015 295.81 403.942 295.831 403.899 295.844 L 403.892 295.846 L 403.874 295.851 C 403.872 295.852 403.871 295.852 403.871 295.852 L 403.869 295.852 L 403.831 295.862 C 403.826 295.863 403.821 295.864 403.815 295.865 Z" style="fill: rgb(0, 255, 17); fill-opacity: 1; fill-rule: nonzero; stroke: rgb(0, 255, 17); stroke-dasharray: none; stroke-dashoffset: 0px; stroke-linecap: butt; stroke-linejoin: miter; stroke-miterlimit: 4; stroke-opacity: 1; paint-order: normal; vector-effect: none; opacity: 1; mix-blend-mode: normal; isolation: auto; stroke-width: 0px;"/>
  <path d="M 25.822 159.944 C 31.931 158.478 36.873 159.892 41.728 162.117 C 46.815 164.45 50.901 172.013 55.511 174.066 C 59.39 175.795 63.529 176.161 67.175 175.152 C 70.97 174.103 73.061 169.587 77.777 167.549 C 83.91 164.898 93.772 161.72 102.164 162.117 C 111.057 162.537 121.83 167.072 129.733 170.806 C 136.756 174.128 140.633 181.681 147.758 182.758 C 155.859 183.981 168.85 174.647 176.385 175.152 C 182.157 175.54 184.155 181.571 190.169 181.673 C 198.656 181.812 214.219 171.505 224.098 169.721 C 232.108 168.276 239.112 167.691 245.306 169.721 C 251.231 171.664 257.391 179.143 260.681 181.127 C 262.449 182.197 262.629 181.784 264.391 182.758 C 267.513 184.483 275.52 187.474 278.706 191.992 C 282.05 196.741 280.34 208.501 283.476 211.003 C 285.906 212.943 292.047 211.82 293.55 209.917 C 295.051 208.016 291.692 203.305 292.489 199.596 C 293.453 195.103 296.622 188.947 300.44 184.93 C 304.453 180.709 311.111 176.687 316.345 175.152 C 320.994 173.791 326.853 174.824 330.129 175.152 C 332.293 175.372 333.538 176.812 334.901 176.24 C 336.424 175.599 336.131 172.423 338.61 170.806 C 342.814 168.071 355.473 163.811 361.94 164.288 C 367.237 164.681 371.939 168.009 375.193 170.806 C 378.012 173.234 378.671 177.493 381.024 179.499 C 383.16 181.32 385.3 182.377 388.446 182.758 C 392.586 183.258 399.457 179.944 404.35 180.585 C 408.956 181.189 412.405 171.075 417.073 171.396 C 422.211 171.751 428.561 166.237 434.039 167.051 C 439.704 167.893 446.446 177.385 450.473 176.828 C 453.703 176.383 453.986 170.265 457.366 168.138 C 461.444 165.569 468.277 162.775 474.33 163.793 C 481.54 165.002 491.845 177.968 497.656 177.915 C 501.866 177.875 503.361 171.79 507.199 170.311 C 511.371 168.703 517.237 167.772 522.043 169.223 C 527.342 170.824 535.014 193.221 537.418 195.251 C 538.443 196.116 538.115 196.023 539.01 196.882 C 540.84 198.638 545.902 202.082 549.082 206.116 C 552.867 210.918 556.946 217.154 559.684 224.583 C 562.907 233.324 567.26 247.421 566.047 256.088 C 565.03 263.353 559.97 270.107 555.974 274.013 C 552.691 277.219 547.991 276.793 544.841 279.446 C 541.596 282.175 540.898 287.785 536.888 290.31 C 532.106 293.32 520.408 294.686 516.743 294.654 C 514.968 294.641 515.484 293.637 513.56 293.568 C 509.072 293.411 493.502 298.768 485.993 297.914 C 479.958 297.227 475.887 290.898 471.148 291.395 C 466.338 291.903 463.132 298.987 457.366 301.173 C 450.53 303.766 439.913 304.902 431.918 304.434 C 424.419 303.991 414.91 299.173 410.712 299.001 C 408.506 298.91 408.762 300.144 406.47 300.087 C 401.874 299.969 389.251 293.051 382.084 294.654 C 375.184 296.198 369.986 306.39 364.059 308.777 C 359.051 310.794 355.034 311.23 349.215 309.864 C 341.289 308.002 326.655 292.546 320.585 294.654 C 315.318 296.486 317.361 311.489 312.636 316.381 C 308.048 321.127 300.216 324.677 293.018 323.988 C 284.418 323.161 270.964 309.304 264.391 307.691 C 260.55 306.751 259.557 309.629 255.907 308.777 C 250.166 307.438 239.555 296.945 232.581 295.74 C 226.931 294.767 221.547 295.644 217.208 299.001 C 212.026 303.007 210.109 316.487 205.013 320.728 C 200.778 324.256 195.973 326.249 190.169 325.074 C 182.103 323.44 165.987 311.187 161.012 304.975 C 157.803 300.971 160.448 295.01 157.299 293.568 C 153.17 291.677 141.53 300.942 135.033 300.087 C 129.148 299.312 123.932 289.484 119.661 290.31 C 115.488 291.119 112.636 301.576 109.588 304.434 C 107.496 306.388 105.475 306.153 103.756 307.691 C 101.905 309.343 101.47 312.492 98.983 314.21 C 95.829 316.391 89.913 318.808 85.2 318.556 C 80.207 318.288 73.727 315.531 69.826 312.037 C 65.994 308.604 65.655 298.855 61.873 297.914 C 57.852 296.915 51.07 306.184 45.968 307.691 C 41.58 308.986 37.776 309.275 33.245 307.691 C 27.523 305.691 16.671 296.433 14.69 294.112 C 13.991 293.295 14.716 292.462 14.16 292.483 C 12.907 292.526 8.589 299.342 4.617 301.173 C 0.264 303.179 -6.297 304.47 -11.288 303.346 C -16.385 302.197 -22.497 297.51 -25.602 294.112 C -28.066 291.417 -29.054 289.066 -29.842 285.42 C -30.84 280.82 -31.249 273.462 -29.842 268.039 C -28.431 262.598 -21.667 258.275 -21.36 252.83 C -21.035 247.091 -27.65 239.973 -28.781 234.36 C -29.737 229.628 -30.135 226.447 -28.781 221.324 C -26.922 214.281 -17.775 199.16 -15.53 195.793 C -14.711 194.571 -14.718 195.214 -13.937 194.164 C -12.189 191.816 -6.675 181.848 -4.925 179.499 C -4.146 178.451 -4.559 178.784 -3.335 177.869 C 0.292 175.158 17.575 161.924 25.822 159.944 Z M 114.359 221.867 C 113.773 222.199 116.003 229.598 117.538 230.559 C 118.688 231.279 121.672 230.423 121.781 229.472 C 121.935 228.122 114.98 221.515 114.359 221.867 Z" style="fill-opacity: 1; fill-rule: nonzero; stroke-dasharray: none; stroke-dashoffset: 0px; stroke-linecap: round; stroke-linejoin: round; stroke-miterlimit: 4; stroke-opacity: 1; vector-effect: none; mix-blend-mode: normal; isolation: auto; fill: rgb(235, 255, 80); paint-order: stroke; stroke-width: 12px; filter: url(#drop-shadow-filter-0);"/>
  <path d="M 3.289 220.087 C 3.289 234.509 3.346 241.638 2.507 248.604 C 1.609 255.571 -0.126 262.536 -3.766 276.549 C -4.549 279.664 -4.606 281.714 -3.99 282.695 C -3.375 283.761 -3.094 285.156 -3.094 286.958 L 7.603 271.305 C 7.603 269.503 7.265 268.11 6.649 267.044 C 6.034 266.061 6.089 264.011 6.931 260.898 C 9.283 251.636 10.906 245.082 11.746 241.146 C 13.538 249.998 15.442 258.931 18.858 268.025 C 19.698 270.322 20.145 271.388 20.259 271.223 L 30.952 255.489 C 31.122 255.325 30.952 253.277 30.56 249.423 C 30.17 245.571 30.17 240.493 30.56 234.181 L 30.729 232.134 C 32.352 240.246 34.425 249.834 36.946 260.898 C 37 261.225 37.672 265.157 39.017 272.616 C 40.304 280.073 41.032 285.564 41.144 288.925 L 40.079 290.481 C 40.473 291.136 40.753 291.301 40.921 290.972 L 51.616 275.403 C 51.952 274.911 51.952 273.108 51.616 269.912 C 50.889 263.683 49.601 255.899 48.48 249.916 C 47.922 246.967 47.641 245.409 47.641 245.246 C 42.88 224.266 39.52 208.697 37.672 198.452 C 35.823 188.208 34.535 183.617 33.865 184.601 L 23.169 200.255 C 22.665 201.074 22.106 207.876 21.489 220.659 C 20.424 215.825 19.475 211.072 18.186 206.483 L 13.986 212.709 L 13.986 204.434 L 3.289 220.087 Z M 1.779 235.656 C 1.779 234.919 1.553 234.509 1.05 234.509 C 0.547 234.509 0.265 234.919 0.265 234.919 C 0.042 244.507 0.042 247.456 -3.094 255.982 C -3.71 257.21 -2.478 258.603 -1.862 257.372 C 1.498 248.196 1.553 245.327 1.779 234.919 L 1.779 235.656 Z M -0.741 241.638 C -0.741 240.902 -1.022 240.574 -1.526 240.574 C -2.029 240.574 -2.311 240.902 -2.311 240.902 C -2.367 244.262 -2.534 244.178 -3.486 247.13 C -3.878 248.524 -2.311 249.423 -2.087 248.031 C -0.964 244.753 -0.909 244.753 -0.741 240.902 L -0.741 241.638 Z" style="fill: rgb(255, 0, 0); stroke: rgb(255, 0, 0); stroke-width: 1.11433px; white-space: pre;"/>
  <path d="M 61.827 258.683 C 63.675 258.439 65.859 258.276 68.322 258.276 L 71.626 253.358 C 73.641 257.127 75.49 261.061 77.225 265.241 C 80.586 273.52 83.273 283.27 84.394 298.677 C 84.953 306.461 85.402 310.067 85.737 309.658 L 96.433 294.004 C 96.602 293.76 96.714 291.873 96.882 288.432 L 97.385 271.06 C 97.385 269.503 97.833 265.898 98.673 260.079 C 99.512 254.258 99.904 251.226 99.904 250.899 L 92.068 262.372 C 87.866 245.736 79.803 232.788 72.412 221.315 C 64.962 209.842 58.02 199.762 56.393 188.698 L 45.7 204.351 C 46.539 209.596 48.835 215.578 52.585 222.299 L 49.563 226.641 C 49.563 238.852 50.346 272.289 52.082 283.189 L 62.723 267.454 C 62.33 265.077 61.995 262.126 61.827 258.683 Z M 84.45 233.115 C 84.281 231.806 82.769 231.887 82.939 233.444 C 83.611 235.903 84.898 239.425 86.8 243.934 C 88.704 248.524 89.714 251.393 89.826 252.62 C 89.826 254.177 91.225 254.341 91.393 252.783 C 91.225 250.654 90.273 247.541 88.425 243.443 C 86.577 239.425 85.234 235.985 84.45 233.115 Z M 60.707 235.328 C 61.659 236.885 62.667 238.525 63.73 240.081 L 66.809 244.919 L 61.435 252.783 C 61.154 248.113 60.874 242.293 60.707 235.328 Z M 58.523 275.648 C 57.796 276.713 58.915 278.271 59.641 277.205 L 59.924 276.797 C 60.259 276.303 60.259 275.813 59.924 275.241 C 59.53 274.746 59.137 274.746 58.803 275.241 L 58.523 275.648 Z M 52.25 285.646 C 51.634 286.958 52.979 288.025 53.651 286.958 C 54.995 284.089 55.61 282.45 57.57 280.402 C 58.523 280.073 57.907 277.615 56.955 278.188 C 54.492 280.73 53.987 282.042 52.25 285.646 Z" style="fill: rgb(255, 0, 0); stroke: rgb(255, 0, 0); stroke-width: 1.11433px; white-space: pre;"/>
  <path d="M 63.415 204.023 C 74.894 194.273 85.478 200.255 97.406 206.483 C 103.452 220.25 108.214 238.033 111.125 255.078 C 110.847 255.243 110.621 255.407 110.565 255.489 L 98.975 272.452 C 99.87 271.388 101.158 271.798 102.838 273.599 C 106.143 277.288 109.615 283.023 112.077 287.612 C 113.309 289.91 113.925 291.056 113.925 290.972 L 125.516 274.092 C 126.245 258.03 123.052 234.836 117.454 214.103 L 117.845 214.103 C 123.388 215.087 136.324 218.53 141.252 211.319 L 152.787 194.354 C 153.684 193.044 154.3 191.404 154.579 189.355 L 149.037 197.467 C 146.013 198.862 142.54 199.271 138.621 198.613 L 129.436 197.222 C 121.988 196.156 115.269 192.797 108.997 189.519 C 105.693 182.144 102.39 176.487 99.086 172.554 L 92.311 182.472 C 86.655 181.241 80.999 182.144 75.007 187.142 L 63.415 204.023 Z M 120.029 188.618 C 119.358 187.306 117.956 188.618 118.629 189.928 C 122.045 195.42 132.629 195.993 137.109 196.32 C 137.668 196.32 137.948 195.912 137.948 195.172 C 137.948 194.354 137.668 193.945 137.109 193.945 C 133.748 193.616 122.717 192.797 120.029 188.618 Z M 139.74 194.108 C 139.18 194.108 138.9 194.517 138.9 195.339 C 138.9 196.156 139.18 196.566 139.74 196.566 C 139.909 196.566 140.242 196.566 140.693 196.485 C 141.755 196.156 141.308 193.779 140.357 194.108 L 139.74 194.108 Z M 92.926 206.892 C 91.806 207.302 92.198 209.676 93.317 209.267 C 95.276 209.762 96.399 210.744 96.621 212.301 C 96.789 213.857 97.35 216.318 98.245 219.84 C 98.637 221.234 100.206 220.578 99.813 219.02 C 98.863 215.498 98.134 212.545 97.631 210.334 C 97.127 208.121 95.557 206.975 92.926 206.892 Z M 126.3 266.88 C 126.692 268.437 128.093 267.699 127.87 266.143 L 127.81 265.898 L 127.81 265.815 C 127.81 264.996 127.532 264.585 126.972 264.585 C 126.413 264.585 126.133 264.996 126.133 264.996 C 126.133 265.241 126.189 265.568 126.3 266.061 L 126.3 266.88 Z M 128.541 269.503 C 128.597 267.863 126.916 267.782 126.916 269.339 C 126.916 271.798 127.027 273.52 127.309 274.501 L 125.798 276.549 L 124.566 278.108 C 123.668 279.172 124.901 280.976 125.629 279.909 C 128.037 276.797 129.157 275.241 128.933 275.156 C 128.653 275.156 128.541 273.271 128.541 269.503 Z" style="fill: rgb(255, 0, 0); stroke: rgb(255, 0, 0); stroke-width: 1.11433px; white-space: pre;"/>
  <path d="M 148.766 194.273 L 148.038 190.831 C 147.644 189.109 147.309 187.962 147.029 187.552 L 136.334 203.202 C 136.781 204.107 137.901 209.024 138.069 209.924 L 148.766 194.273 Z M 138.797 213.694 C 138.853 213.776 139.472 217.298 140.645 224.266 C 141.821 231.231 143.11 238.935 144.565 247.294 C 145.965 255.653 147.309 263.356 148.486 270.322 C 149.661 277.288 150.334 280.894 150.444 281.057 L 161.141 265.404 C 161.085 265.241 160.693 263.109 159.965 259.012 C 159.238 254.915 158.34 249.916 157.334 244.098 C 160.749 242.049 164.053 239.918 165.453 237.869 L 166.069 236.969 C 170.268 249.508 174.916 262.7 180.012 276.388 C 185.109 290.072 188.243 300.152 189.419 306.543 C 189.474 309.822 189.532 311.379 189.699 311.215 L 200.395 295.561 L 200.506 294.905 C 200.563 294.004 200.395 292.693 200.115 290.892 C 199.891 282.695 199.835 265.568 200.732 255.982 C 200.788 255.243 200.845 254.014 200.845 252.374 L 192.22 264.996 C 187.571 251.721 182.531 237.541 177.156 222.545 C 171.78 207.549 169.036 197.14 168.925 191.24 L 158.23 206.975 C 158.284 211.809 160.636 220.414 164.053 230.903 C 160.693 233.115 158.453 234.919 157.277 236.313 L 156.269 237.788 C 154.645 228.609 153.132 219.758 151.677 211.153 C 150.221 202.55 149.494 198.206 149.494 198.041 L 138.797 213.694 Z M 166.741 244.015 C 166.462 242.705 165.005 243.277 165.286 244.671 C 167.973 253.849 170.828 263.192 174.414 271.798 C 175.363 272.206 175.869 270.322 174.971 269.667 C 173.683 265.404 172.284 261.145 170.885 256.882 C 169.429 252.702 168.028 248.36 166.741 244.015 Z" style="fill: rgb(255, 0, 0); stroke: rgb(255, 0, 0); stroke-width: 1.11433px; white-space: pre;"/>
  <path d="M 233.683 199.024 C 226.292 192.388 216.267 190.749 209.044 201.238 L 198.794 216.318 C 195.885 220.659 193.646 226.561 192.02 234.019 C 190.228 242.787 190.286 255.243 193.029 265.486 C 195.773 275.731 201.205 283.926 210.333 283.679 C 216.379 283.679 232.339 281.958 237.883 273.847 L 244.715 263.765 C 245.163 267.044 246.115 271.469 248.523 277.698 C 248.859 278.598 249.252 279.909 249.755 281.551 C 250.203 283.189 250.651 284.253 251.155 284.747 L 261.402 269.667 C 260.955 269.175 260.507 268.11 260.059 266.471 C 259.554 264.831 259.162 263.52 258.828 262.62 C 256.138 255.489 254.796 250.409 254.851 247.376 C 254.908 241.31 254.403 240.33 248.13 241.392 C 244.996 241.967 238.946 242.214 229.932 242.214 L 219.683 257.291 C 227.02 257.291 232.059 257.046 235.643 256.719 L 235.587 256.799 C 235.699 256.882 235.979 257.291 236.482 257.947 C 237.996 260.488 238.946 262.864 239.45 265.077 C 236.091 266.471 232.62 267.372 228.979 267.863 C 221.755 268.93 215.204 270.652 209.603 263.52 C 203.947 256.39 201.26 245.571 201.093 234.1 C 200.869 222.628 202.773 215.825 204.564 210.58 C 215.036 204.351 227.805 214.842 231.836 227.545 C 232.227 229.43 232.563 230.903 232.899 231.887 L 243.203 216.808 C 242.979 215.578 242.643 214.103 242.139 212.465 C 241.523 209.267 240.964 205.828 240.516 202.057 C 240.011 198.369 239.45 194.844 238.78 191.566 L 233.683 199.024 Z M 245.723 211.481 C 245.554 210.088 244.044 210.334 244.211 211.729 C 244.38 213.039 244.547 214.103 244.826 214.923 C 244.996 215.498 245.107 215.907 245.275 216.069 C 245.441 216.235 245.61 216.725 245.835 217.545 C 245.78 217.792 245.275 218.53 244.323 219.595 C 243.875 220.25 243.597 220.74 243.427 221.152 C 242.812 222.462 244.154 223.529 244.771 222.299 C 244.826 222.052 244.883 221.972 244.883 221.889 C 247.067 219.266 247.907 217.711 247.29 217.135 C 246.674 216.644 246.171 214.759 245.723 211.481 Z M 207.757 211.319 C 207.251 211.319 206.973 211.646 206.973 212.381 C 206.973 213.12 207.251 213.531 207.757 213.531 L 208.987 213.531 C 209.492 213.531 209.772 213.12 209.772 212.381 C 209.772 211.646 209.492 211.319 208.987 211.319 L 207.757 211.319 Z M 211.788 211.319 C 210.725 211.319 210.612 213.531 211.677 213.613 C 213.637 214.35 215.428 215.743 217.163 217.792 C 217.779 219.02 219.011 217.298 218.284 216.318 C 216.267 213.941 214.085 212.218 211.788 211.319 Z M 252.22 287.777 C 252.89 289.006 253.675 290.645 254.514 292.693 C 255.354 294.743 256.138 296.218 256.811 297.118 L 267.059 282.123 C 266.442 281.303 265.658 279.828 264.819 277.779 C 263.922 275.731 263.138 274.092 262.467 272.779 L 252.22 287.777 Z M 221.981 284.91 C 220.916 285.319 221.309 287.45 222.372 287.122 C 228.868 285.483 228.307 285.728 234.803 282.695 C 235.757 282.942 235.924 280.73 234.971 280.484 L 233.683 280.894 C 227.468 283.515 228.419 283.27 221.981 284.91 Z M 231.276 285.075 C 230.323 284.99 230.21 287.283 231.276 287.283 L 232.899 286.794 C 232.899 286.877 233.292 286.631 234.02 286.22 C 235.085 286.467 235.308 284.416 234.355 284.008 L 232.789 284.582 L 231.276 285.075 Z" style="fill: rgb(255, 0, 0); stroke: rgb(255, 0, 0); stroke-width: 1.11433px; white-space: pre;"/>
  <path d="M 269.091 258.683 C 270.938 258.439 273.124 258.276 275.587 258.276 L 278.89 253.358 C 280.906 257.127 282.756 261.061 284.489 265.241 C 287.85 273.52 290.537 283.27 291.658 298.677 C 292.217 306.461 292.666 310.067 293.001 309.658 L 303.696 294.004 C 303.866 293.76 303.979 291.873 304.146 288.432 L 304.649 271.06 C 304.649 269.503 305.096 265.898 305.937 260.079 C 306.777 254.258 307.168 251.226 307.168 250.899 L 299.329 262.372 C 295.13 245.736 287.066 232.788 279.673 221.315 C 272.226 209.842 265.283 199.762 263.658 188.698 L 252.962 204.351 C 253.804 209.596 256.099 215.578 259.851 222.299 L 256.827 226.641 C 256.827 238.852 257.611 272.289 259.347 283.189 L 269.987 267.454 C 269.596 265.077 269.258 262.126 269.091 258.683 Z M 291.714 233.115 C 291.546 231.806 290.035 231.887 290.202 233.444 C 290.874 235.903 292.162 239.425 294.066 243.934 C 295.969 248.524 296.979 251.393 297.09 252.62 C 297.09 254.177 298.491 254.341 298.658 252.783 C 298.491 250.654 297.538 247.541 295.689 243.443 C 293.841 239.425 292.498 235.985 291.714 233.115 Z M 267.971 235.328 C 268.923 236.885 269.93 238.525 270.994 240.081 L 274.074 244.919 L 268.699 252.783 C 268.419 248.113 268.139 242.293 267.971 235.328 Z M 265.786 275.648 C 265.059 276.713 266.178 278.271 266.907 277.205 L 267.186 276.797 C 267.525 276.303 267.525 275.813 267.186 275.241 C 266.794 274.746 266.403 274.746 266.068 275.241 L 265.786 275.648 Z M 259.514 285.646 C 258.899 286.958 260.242 288.025 260.915 286.958 C 262.257 284.089 262.874 282.45 264.835 280.402 C 265.786 280.073 265.171 277.615 264.219 278.188 C 261.754 280.73 261.251 282.042 259.514 285.646 Z" style="fill: rgb(255, 0, 0); stroke: rgb(255, 0, 0); stroke-width: 1.11433px; white-space: pre;"/>
  <path d="M 303.268 220.087 C 303.268 234.509 303.327 241.638 302.485 248.604 C 301.589 255.571 299.854 262.536 296.215 276.549 C 295.431 279.664 295.374 281.714 295.989 282.695 C 296.607 283.761 296.886 285.156 296.886 286.958 L 307.581 271.305 C 307.581 269.503 307.246 268.11 306.63 267.044 C 306.013 266.061 306.07 264.011 306.91 260.898 C 309.261 251.636 310.885 245.082 311.725 241.146 C 313.518 249.998 315.421 258.931 318.837 268.025 C 319.677 270.322 320.125 271.388 320.236 271.223 L 330.932 255.489 C 331.101 255.325 330.932 253.277 330.542 249.423 C 330.148 245.571 330.148 240.493 330.542 234.181 L 330.71 232.134 C 332.332 240.246 334.405 249.834 336.924 260.898 C 336.982 261.225 337.654 265.157 338.996 272.616 C 340.284 280.073 341.012 285.564 341.125 288.925 L 340.06 290.481 C 340.453 291.136 340.732 291.301 340.9 290.972 L 351.598 275.403 C 351.933 274.911 351.933 273.108 351.598 269.912 C 350.868 263.683 349.58 255.899 348.462 249.916 C 347.899 246.967 347.62 245.409 347.62 245.246 C 342.862 224.266 339.502 208.697 337.654 198.452 C 335.804 188.208 334.518 183.617 333.846 184.601 L 323.148 200.255 C 322.645 201.074 322.086 207.876 321.469 220.659 C 320.406 215.825 319.452 211.072 318.165 206.483 L 313.965 212.709 L 313.965 204.434 L 303.268 220.087 Z M 301.757 235.656 C 301.757 234.919 301.535 234.509 301.031 234.509 C 300.527 234.509 300.246 234.919 300.246 234.919 C 300.022 244.507 300.022 247.456 296.886 255.982 C 296.27 257.21 297.502 258.603 298.119 257.372 C 301.479 248.196 301.535 245.327 301.757 234.919 L 301.757 235.656 Z M 299.236 241.638 C 299.236 240.902 298.959 240.574 298.453 240.574 C 297.95 240.574 297.669 240.902 297.669 240.902 C 297.614 244.262 297.446 244.178 296.494 247.13 C 296.103 248.524 297.669 249.423 297.895 248.031 C 299.013 244.753 299.07 244.753 299.236 240.902 L 299.236 241.638 Z" style="fill: rgb(255, 0, 0); stroke: rgb(255, 0, 0); stroke-width: 1.11433px; white-space: pre;"/>
  <path d="M 411.758 261.552 C 407.668 256.882 406.101 250.325 406.942 241.967 L 407.332 241.392 C 407.276 241.475 407.165 241.638 406.997 241.721 L 396.636 256.963 C 396.469 258.848 396.414 260.65 396.581 262.456 C 392.101 261.061 384.372 260.242 377.822 260.65 C 374.462 260.979 368.863 263.765 365.894 268.11 L 364.159 270.652 C 364.437 265.732 363.99 255.815 363.543 248.604 C 367.015 248.933 370.653 249.014 374.462 248.933 C 378.271 248.852 381.91 248.768 385.382 248.768 L 395.686 233.689 C 391.597 233.689 387.286 233.773 382.806 233.855 C 378.326 234.019 374.127 233.773 370.207 233.115 L 363.095 243.524 C 362.927 242.293 362.815 241.31 362.815 240.656 C 362.198 236.641 361.639 233.034 361.191 229.675 C 360.742 226.313 360.295 223.2 359.791 220.331 C 361.024 220.74 362.31 221.069 363.598 221.315 C 373.621 223.281 380.791 222.873 390.645 222.873 L 400.951 207.792 L 388.015 207.792 C 379.222 207.792 369.869 206.072 362.198 202.139 C 358.335 200.172 355.199 198.613 352.679 197.467 C 351.447 195.008 349.654 191.975 347.303 188.371 L 336.998 203.451 C 338.623 205.908 339.911 207.956 340.751 209.596 L 339.464 211.481 C 339.968 211.563 340.918 211.973 342.375 212.545 C 349.04 225.413 349.654 236.313 352.567 255.734 C 353.238 260.242 354.638 281.466 353.745 287.368 C 353.745 287.531 353.745 287.695 353.686 287.777 C 353.631 287.858 353.631 288.025 353.573 288.188 L 359.958 278.845 C 362.59 276.96 365.111 275.977 367.574 275.731 C 375.189 275.156 383.982 276.058 388.405 278.271 C 392.829 280.484 398.316 282.614 404.926 284.335 C 406.158 284.662 406.828 284.747 406.942 284.499 L 417.244 269.421 C 417.637 268.847 415.843 266.225 411.758 261.552 Z M 366.454 200.665 C 367.015 201.074 367.464 201.238 367.855 201.238 C 368.806 201.155 368.638 199.024 367.743 199.024 C 367.464 198.943 367.182 198.777 366.96 198.533 C 366.454 198.369 366.118 198.613 366.006 199.271 C 365.783 200.008 365.949 200.5 366.454 200.665 Z M 371.215 202.713 C 381.742 205.991 378.214 205.663 389.357 205.744 C 389.862 205.744 390.086 205.417 390.086 204.679 C 390.086 203.942 389.862 203.532 389.357 203.532 C 387.061 203.532 385.382 203.532 384.205 203.451 C 383.03 203.451 382.022 203.367 381.238 203.287 C 380.735 203.287 380.174 203.122 379.727 203.041 C 378.943 202.877 377.991 202.631 376.87 202.221 C 375.695 201.812 374.014 201.318 371.718 200.582 C 371.215 200.419 370.877 200.665 370.767 201.318 C 370.542 202.057 370.711 202.55 371.215 202.713 Z M 393.109 223.772 C 393.557 223.856 394.341 223.856 395.406 223.856 L 405.709 208.859 C 404.645 208.859 403.86 208.859 403.413 208.777 C 402.966 208.697 402.291 209.105 401.453 209.842 L 391.149 224.921 C 391.99 224.185 392.662 223.772 393.109 223.772 Z M 366.176 263.602 C 366.678 263.602 366.96 263.192 366.96 262.456 L 366.902 257.782 L 366.567 252.948 C 366.511 252.292 366.176 251.965 365.669 252.046 C 365.166 252.292 364.999 252.702 365.054 253.358 L 365.392 257.947 L 365.392 262.456 C 365.392 263.192 365.669 263.602 366.176 263.602 Z" style="fill: rgb(255, 0, 0); stroke: rgb(255, 0, 0); stroke-width: 1.11433px; white-space: pre;"/>
  <path d="M 440.053 230.74 C 438.206 230.002 432.774 228.691 428.295 227.708 L 438.264 213.12 C 438.432 212.875 438.038 211.481 436.975 208.94 C 436.247 205.008 435.295 198.369 435.238 188.289 L 429.751 196.32 C 425.438 191.731 421.463 192.878 418.776 196.811 L 408.528 211.891 C 403.767 219.02 402.871 234.836 411.328 241.146 C 411.441 241.23 412.559 241.557 414.743 242.049 C 416.927 242.541 419.223 243.03 421.687 243.524 L 415.193 253.031 C 415.248 253.358 415.415 254.177 415.752 255.571 C 416.086 256.963 416.254 257.782 416.254 257.947 L 425.494 244.507 C 427.397 244.919 428.798 245.409 429.751 245.819 C 442.574 251.474 445.878 256.145 446.383 272.535 C 437.648 275.156 426.726 271.798 426.726 246.227 L 416.423 261.308 C 416.423 280.402 422.583 287.04 429.359 288.025 C 436.078 289.088 443.471 284.662 445.766 281.303 L 456.069 266.225 C 456.574 265.486 456.798 264.913 456.798 264.341 C 456.798 242.377 454.612 237.051 440.053 230.74 Z M 421.574 226.069 C 416.479 222.38 414.8 215.17 415.248 208.531 C 420.118 209.842 424.207 218.283 426.726 223.937 C 427.063 225.742 427.342 226.888 427.624 227.462 C 423.705 226.725 421.687 226.233 421.574 226.069 Z M 446.942 228.609 C 447.053 228.691 447.277 228.691 447.559 228.773 C 447.837 228.854 448.063 229.019 448.342 229.102 C 448.398 229.182 448.565 229.266 448.789 229.346 C 449.295 229.346 449.573 229.019 449.631 228.282 C 449.631 227.297 449.35 226.888 448.846 226.969 C 448.398 226.725 447.894 226.561 447.277 226.398 C 446.718 226.313 446.437 226.641 446.383 227.297 C 446.214 228.035 446.437 228.445 446.942 228.609 Z M 444.255 230.577 C 447.392 231.559 447.333 231.723 450.022 233.608 C 450.974 234.019 451.311 231.887 450.246 231.642 C 448.51 229.755 446.383 229.182 444.365 228.526 C 443.302 228.526 443.078 230.577 444.255 230.577 Z M 432.55 265.898 C 433.055 265.898 433.334 265.568 433.334 264.831 L 433.334 264.341 C 433.279 264.258 433.111 263.847 432.718 263.192 C 432.326 262.62 431.934 261.471 431.487 259.752 C 431.263 259.176 431.094 258.276 430.927 257.21 C 430.645 255.982 430.367 253.931 430.142 251.226 C 430.142 250.489 429.919 250.162 429.415 250.162 C 428.912 250.162 428.63 250.489 428.63 250.489 C 428.854 253.441 429.528 262.126 431.823 264.421 C 431.934 264.913 432.16 265.157 432.55 265.157 L 432.55 265.898 Z M 435.575 268.354 C 436.47 269.01 437.199 266.961 436.247 266.305 C 435.687 265.978 435.35 265.732 435.238 265.486 C 434.904 264.996 434.512 264.913 434.119 265.241 C 433.727 265.815 433.727 266.305 434.006 266.798 C 434.343 267.535 434.847 268.025 435.575 268.354 Z" style="fill: rgb(255, 0, 0); stroke: rgb(255, 0, 0); stroke-width: 1.11433px; white-space: pre;"/>
  <path d="M 476.532 198.613 C 473.173 198.533 470.149 200.419 467.515 204.271 L 456.596 220.331 C 453.742 224.593 451.671 230.33 450.493 237.624 C 448.086 252.21 450.102 266.798 457.494 276.058 C 464.885 285.319 478.155 282.45 483.811 274.174 L 494.843 258.03 C 499.548 251.145 501.339 240.82 499.715 232.952 C 498.091 225.086 492.996 219.84 483.811 223.2 C 480.228 224.593 473.676 231.067 469.645 236.969 L 462.307 247.703 C 459.565 237.541 460.068 225.003 462.812 215.087 C 463.485 214.842 464.381 214.678 465.5 214.678 L 476.532 198.613 Z M 453.573 222.791 C 454.525 221.889 453.518 220.25 452.678 220.988 C 450.214 224.921 447.58 234.181 447.58 239.345 C 447.189 240 447.47 241.721 448.422 241.065 C 448.869 240.82 449.205 239.918 449.429 238.279 C 449.821 235.084 450.661 229.182 452.453 224.921 C 452.789 224.185 453.18 223.529 453.573 222.791 Z M 466.397 257.21 C 465.667 256.063 465.052 254.998 464.549 253.931 L 469.083 247.294 C 466.844 247.294 465.894 246.227 466.229 244.178 C 468.86 241.638 471.099 240.081 472.835 239.345 C 487.339 234.019 491.597 250.325 488.18 264.093 C 487.004 264.749 485.772 265.157 484.54 265.241 C 479.331 266.143 474.794 265.077 470.932 262.208 L 478.101 251.636 C 477.708 250.654 476.981 249.752 475.917 248.933 C 474.853 248.196 474.012 247.541 473.34 246.967 L 466.397 257.21 Z M 482.915 244.425 C 482.021 243.688 481.125 245.327 481.963 246.227 C 482.244 246.64 482.804 247.294 483.53 248.196 C 484.708 249.834 485.38 251.882 485.491 254.341 C 485.491 254.751 485.491 255.161 485.548 255.571 L 485.548 256.963 C 485.548 257.703 485.829 258.11 486.333 258.11 C 486.836 258.11 487.06 257.703 487.06 257.703 C 486.836 250.162 486.89 250.162 482.915 245.163 L 482.915 244.425 Z M 486.723 261.471 C 486.723 260.736 486.444 260.323 485.941 260.323 C 485.435 260.323 485.211 260.736 485.211 260.736 L 485.211 261.061 C 484.987 261.636 485.044 262.126 485.38 262.456 C 486.051 263.52 486.723 262.126 486.723 260.736 L 486.723 261.471 Z" style="fill: rgb(255, 0, 0); stroke: rgb(255, 0, 0); stroke-width: 1.11433px; white-space: pre;"/>
  <path d="M 519.507 198.613 C 516.147 198.533 513.124 200.419 510.491 204.271 L 499.572 220.331 C 496.717 224.593 494.646 230.33 493.468 237.624 C 491.06 252.21 493.077 266.798 500.469 276.058 C 507.86 285.319 521.131 282.45 526.787 274.174 L 537.82 258.03 C 542.523 251.145 544.316 240.82 542.69 232.952 C 541.067 225.086 535.972 219.84 526.787 223.2 C 523.202 224.593 516.653 231.067 512.619 236.969 L 505.284 247.703 C 502.54 237.541 503.043 225.003 505.788 215.087 C 506.46 214.842 507.357 214.678 508.476 214.678 L 519.507 198.613 Z M 496.549 222.791 C 497.5 221.889 496.494 220.25 495.653 220.988 C 493.189 224.921 490.556 234.181 490.556 239.345 C 490.164 240 490.445 241.721 491.397 241.065 C 491.845 240.82 492.18 239.918 492.404 238.279 C 492.797 235.084 493.637 229.182 495.429 224.921 C 495.764 224.185 496.156 223.529 496.549 222.791 Z M 509.373 257.21 C 508.644 256.063 508.027 254.998 507.525 253.931 L 512.061 247.294 C 509.82 247.294 508.868 246.227 509.204 244.178 C 511.836 241.638 514.076 240.081 515.811 239.345 C 530.315 234.019 534.573 250.325 531.156 264.093 C 529.979 264.749 528.748 265.157 527.517 265.241 C 522.309 266.143 517.771 265.077 513.907 262.208 L 521.076 251.636 C 520.684 250.654 519.957 249.752 518.892 248.933 C 517.827 248.196 516.987 247.541 516.317 246.967 L 509.373 257.21 Z M 525.893 244.425 C 524.995 243.688 524.1 245.327 524.938 246.227 C 525.22 246.64 525.78 247.294 526.507 248.196 C 527.683 249.834 528.355 251.882 528.466 254.341 C 528.466 254.751 528.466 255.161 528.524 255.571 L 528.524 256.963 C 528.524 257.703 528.803 258.11 529.308 258.11 C 529.813 258.11 530.036 257.703 530.036 257.703 C 529.813 250.162 529.868 250.162 525.893 245.163 L 525.893 244.425 Z M 529.699 261.471 C 529.699 260.736 529.42 260.323 528.916 260.323 C 528.41 260.323 528.187 260.736 528.187 260.736 L 528.187 261.061 C 527.964 261.636 528.02 262.126 528.355 262.456 C 529.027 263.52 529.699 262.126 529.699 260.736 L 529.699 261.471 Z" style="fill: rgb(255, 0, 0); stroke: rgb(255, 0, 0); stroke-width: 1.11433px; white-space: pre;"/>
</svg>