<?xml version="1.0" encoding="utf-8"?>
<svg viewBox="78 48 310 210" width="310" height="210" xmlns="http://www.w3.org/2000/svg">
  <path d="M 386 216.2 C 386 229.8 355.4 217.6 318.8 217.6 C 282.2 217.6 253.5 229.8 253.5 216.2 C 253.5 202.7 285.8 179.2 322.3 179.2 C 358.9 179.2 386 202.7 386 216.2 Z" style="fill: rgba(255, 255, 255, 0.5); transform-origin: 320px 200px;" transform="matrix(0.8, 0.56, -0.56, 0.8, 0, 0)"/>
  <g style="transform-origin: 187.25px 80px;" transform="matrix(0.857210099697, -0.51497989893, 0.51497989893, 0.857210099697, -20.220162137027, 63.480224070024)">
    <path d="M 127.9 83.8 C 160.3 60.2 257.2 76 246.6 83.8 C 255.3 99.5 143.5 126 127.9 83.8 Z" style="fill: rgb(124, 124, 124); transform-box: fill-box; transform-origin: 50% 50%;"/>
    <g style="transform-origin: 47.4px 95.05px;" transform="matrix(1, 0, 0, 1, 139.61739, -51.29385)">
      <path d="M 47.4 110.2 L 47.4 139.4 L 47.4 110.2 Z" style="fill: rgb(216, 216, 216); stroke-linecap: round; stroke-width: 11.9999px; stroke: rgb(51, 51, 51); stroke-linejoin: bevel;"/>
      <path d="M 20.3 83.1 C 20.3 68.1 32.4 56 47.4 56 C 62.4 56 74.5 68.1 74.5 83.1 C 74.5 98.1 62.4 110.2 47.4 110.2" style="fill: none; stroke-linecap: round; stroke-linejoin: round; stroke-width: 12px; stroke: rgb(51, 51, 51);"/>
    </g>
    <path d="M 127.9 83.8 C 125.8 103.3 244 107.8 246.6 83.8 L 246.6 140.2 C 246.6 140.2 233.3 117.1 217 117.1 C 200.5 117.1 187.2 140.2 187.2 140.2 C 187.2 140.2 173.9 117.1 157.6 117.1 C 141.2 117.1 127.9 140.2 127.9 140.2 L 127.9 83.8 Z" style="fill: rgb(216, 216, 216); transform-origin: 187.2px 112px;" transform="matrix(1, 0, 0, 1, 0, 0)"/>
  </g>
</svg>