# Blender v3.2.2 OBJ File: ''
# www.blender.org
mtllib coin.mtl
o Cylinder.002_Cylinder.005
v 0.342020 0.939693 -0.200000
v 0.000000 1.000000 0.200000
v 0.000000 1.000000 -0.200000
v 0.642788 0.766044 -0.200000
v 0.342020 0.939693 0.200000
v 0.866025 0.500000 -0.200000
v 0.642788 0.766044 0.200000
v 0.984808 0.173648 -0.200000
v 0.866025 0.500000 0.200000
v 0.984808 -0.173648 -0.200000
v 0.984808 0.173648 0.200000
v 0.866025 -0.500000 -0.200000
v 0.984808 -0.173648 0.200000
v 0.642788 -0.766044 -0.200000
v 0.866025 -0.500000 0.200000
v 0.342020 -0.939693 -0.200000
v 0.642788 -0.766044 0.200000
v 0.000000 -1.000000 -0.200000
v 0.342020 -0.939693 0.200000
v -0.342020 -0.939693 -0.200000
v 0.000000 -1.000000 0.200000
v -0.642787 -0.766045 -0.200000
v -0.342020 -0.939693 0.200000
v -0.866025 -0.500000 -0.200000
v -0.642787 -0.766045 0.200000
v -0.984808 -0.173649 -0.200000
v -0.866025 -0.500000 0.200000
v -0.984808 0.173648 -0.200000
v -0.984808 -0.173649 0.200000
v -0.866026 0.499999 -0.200000
v -0.984808 0.173648 0.200000
v -0.642788 0.766044 -0.200000
v -0.866026 0.499999 0.200000
v -0.273617 0.751754 0.200000
v -0.642788 0.766044 0.200000
v -0.342021 0.939692 0.200000
v -0.342021 0.939692 -0.200000
v 0.000000 -0.800000 -0.200000
v 0.273616 -0.751754 0.100000
v 0.514230 -0.612836 0.200000
v 0.273616 -0.751754 0.200000
v 0.692820 -0.400000 0.200000
v 0.000000 -0.800000 0.200000
v -0.692820 -0.400000 0.200000
v 0.692820 0.400000 0.200000
v -0.692821 0.400000 0.200000
v 0.000000 0.800000 0.200000
v -0.273616 -0.751754 0.200000
v 0.514230 0.612836 0.200000
v -0.787846 -0.138919 0.200000
v 0.787846 0.138918 0.200000
v -0.514230 0.612835 0.200000
v 0.273616 0.751754 0.200000
v -0.514230 -0.612836 0.200000
v -0.787846 0.138918 0.200000
v 0.787846 0.138918 -0.100000
v 0.787846 -0.138919 -0.200000
v 0.787846 0.138918 -0.200000
v 0.273616 0.751754 -0.200000
v -0.787846 -0.138919 -0.200000
v -0.692821 0.400000 -0.200000
v 0.000000 0.800000 -0.200000
v 0.514230 -0.612836 -0.200000
v -0.273616 -0.751754 -0.200000
v 0.514230 0.612836 -0.200000
v -0.514230 0.612835 -0.200000
v 0.273616 -0.751754 -0.200000
v -0.514230 -0.612836 -0.200000
v 0.692820 0.400000 -0.200000
v -0.787846 0.138918 -0.200000
v 0.692820 -0.400000 -0.200000
v 0.787846 0.138918 0.100000
v -0.692820 -0.400000 0.100000
v -0.514230 0.612835 0.100000
v -0.273617 0.751754 0.100000
v 0.692820 -0.400000 0.100000
v 0.787846 -0.138919 0.200000
v -0.692821 0.400000 0.100000
v 0.514230 0.612836 0.100000
v -0.787846 -0.138919 0.100000
v -0.514230 -0.612836 0.100000
v 0.000000 -0.800000 0.100000
v 0.000000 0.800000 0.100000
v 0.514230 -0.612836 0.100000
v 0.787846 -0.138919 0.100000
v 0.692820 0.400000 0.100000
v -0.787846 0.138918 0.100000
v 0.273616 0.751754 0.100000
v -0.273616 -0.751754 0.100000
v -0.514230 -0.612836 -0.100000
v 0.514230 -0.612836 -0.100000
v 0.692820 0.400000 -0.100000
v -0.692821 0.400000 -0.100000
v 0.514230 0.612836 -0.100000
v -0.787846 -0.138919 -0.100000
v 0.000000 0.800000 -0.100000
v -0.692820 -0.400000 -0.200000
v 0.000000 -0.800000 -0.100000
v -0.514230 0.612835 -0.100000
v -0.273617 0.751754 -0.200000
v 0.787846 -0.138919 -0.100000
v -0.787846 0.138918 -0.100000
v 0.273616 0.751754 -0.100000
v -0.692820 -0.400000 -0.100000
v -0.273616 -0.751754 -0.100000
v 0.273616 -0.751754 -0.100000
v -0.273617 0.751754 -0.100000
v 0.692820 -0.400000 -0.100000
vt 0.660354 0.059431
vt 0.500000 0.031157
vt 0.500000 0.031157
vt 0.801367 0.140846
vt 0.660354 0.059431
vt 0.906030 0.265578
vt 0.801367 0.140846
vt 0.961721 0.418587
vt 0.906030 0.265578
vt 0.961721 0.581414
vt 0.961721 0.418587
vt 0.906030 0.734422
vt 0.961721 0.581414
vt 0.801367 0.859154
vt 0.906030 0.734422
vt 0.660354 0.940569
vt 0.801367 0.859154
vt 0.500000 0.968843
vt 0.660354 0.940569
vt 0.339646 0.940569
vt 0.500000 0.968843
vt 0.198633 0.859156
vt 0.339646 0.940569
vt 0.093970 0.734422
vt 0.198633 0.859156
vt 0.038279 0.581414
vt 0.093970 0.734422
vt 0.038279 0.418587
vt 0.038279 0.581414
vt 0.093970 0.265578
vt 0.038279 0.418587
vt 0.198633 0.140846
vt 0.093970 0.265579
vt 0.365184 0.129596
vt 0.183286 0.122555
vt 0.331480 0.036995
vt 0.339646 0.059431
vt 0.339646 0.059431
vt 0.198633 0.140846
vt 0.500000 0.894176
vt 0.331480 0.963005
vt 0.500000 0.992719
vt 0.636942 0.876245
vt 0.757367 0.806718
vt 0.636942 0.876245
vt 0.841366 0.697088
vt 0.985234 0.585560
vt 0.926707 0.746360
vt 0.500000 0.894176
vt 0.668520 0.963005
vt 0.500000 0.992719
vt 0.158634 0.697088
vt 0.183286 0.877445
vt 0.073292 0.746360
vt 0.985234 0.414440
vt 0.841366 0.302912
vt 0.926707 0.253640
vt 0.158634 0.302912
vt 0.014766 0.414440
vt 0.073292 0.253641
vt 0.500000 0.105824
vt 0.500000 0.007281
vt 0.816714 0.877445
vt 0.365184 0.870404
vt 0.331480 0.963005
vt 0.753371 0.198044
vt 0.668520 0.036995
vt 0.816714 0.122555
vt 0.111813 0.568448
vt 0.014766 0.585561
vt 0.888187 0.431552
vt 0.246628 0.198044
vt 0.634816 0.129596
vt 0.634816 0.870404
vt 0.246628 0.801956
vt 0.111813 0.431552
vt 0.889496 0.432238
vt 0.889496 0.567763
vt 0.889496 0.432238
vt 0.634816 0.129596
vt 0.816714 0.122555
vt 0.668520 0.036995
vt 0.073292 0.746360
vt 0.111813 0.568448
vt 0.014766 0.585561
vt 0.888187 0.431552
vt 0.985234 0.585560
vt 0.985234 0.414440
vt 0.158634 0.302912
vt 0.183286 0.122555
vt 0.073292 0.253641
vt 0.500000 0.105824
vt 0.500000 0.007281
vt 0.753371 0.801956
vt 0.668520 0.963005
vt 0.816714 0.877445
vt 0.365184 0.870404
vt 0.183286 0.877445
vt 0.753371 0.198044
vt 0.926707 0.253640
vt 0.014766 0.414440
vt 0.246628 0.198044
vt 0.331480 0.036995
vt 0.888187 0.568448
vt 0.926707 0.746360
vt 0.634816 0.870404
vt 0.246628 0.801956
vt 0.841366 0.302912
vt 0.111813 0.431552
vt 0.841366 0.697088
vt 0.891643 0.430943
vt 0.155595 0.698842
vt 0.244373 0.195357
vt 0.363057 0.123755
vt 0.242633 0.193283
vt 0.363057 0.123755
vt 0.846749 0.700196
vt 0.894309 0.569528
vt 0.846749 0.700196
vt 0.894309 0.430473
vt 0.846749 0.299804
vt 0.894309 0.430473
vt 0.153250 0.299804
vt 0.105691 0.430473
vt 0.153250 0.299804
vt 0.757367 0.193282
vt 0.636942 0.123755
vt 0.757367 0.193282
vt 0.105691 0.569528
vt 0.153251 0.700196
vt 0.105691 0.569528
vt 0.242633 0.806718
vt 0.363058 0.876245
vt 0.242633 0.806718
vt 0.500000 0.900391
vt 0.500000 0.900391
vt 0.500000 0.099609
vt 0.500000 0.099609
vt 0.757367 0.806718
vt 0.894309 0.569528
vt 0.242633 0.193283
vt 0.846749 0.299804
vt 0.105691 0.430473
vt 0.636942 0.123755
vt 0.153251 0.700196
vt 0.363058 0.876245
vt 0.244373 0.804644
vt 0.755627 0.804644
vt 0.844405 0.301158
vt 0.157483 0.304885
vt 0.245774 0.201066
vt 0.157483 0.304885
vt 0.754225 0.201065
vt 0.842517 0.304885
vt 0.754225 0.201065
vt 0.110504 0.567763
vt 0.110504 0.432238
vt 0.110504 0.567763
vt 0.500000 0.109769
vt 0.635270 0.133303
vt 0.500000 0.109769
vt 0.245774 0.798935
vt 0.157483 0.695116
vt 0.245774 0.798935
vt 0.500000 0.890231
vt 0.364730 0.866697
vt 0.500000 0.890231
vt 0.754225 0.798935
vt 0.635270 0.866697
vt 0.754225 0.798935
vt 0.245774 0.201066
vt 0.364729 0.133303
vt 0.889496 0.567763
vt 0.842517 0.695116
vt 0.842517 0.304885
vt 0.110504 0.432238
vt 0.635270 0.133303
vt 0.157483 0.695116
vt 0.364730 0.866697
vt 0.635270 0.866697
vt 0.364729 0.133303
vt 0.842517 0.695116
vt 0.888187 0.568448
vt 0.753371 0.801956
vt 0.158634 0.697088
vt 0.365184 0.129596
vt 0.500000 0.102315
vt 0.636016 0.126299
vt 0.755627 0.195356
vt 0.844405 0.301158
vt 0.891643 0.569058
vt 0.844405 0.698842
vt 0.755627 0.804644
vt 0.636016 0.873701
vt 0.500000 0.897685
vt 0.363984 0.873701
vt 0.244373 0.804644
vt 0.108357 0.569058
vt 0.108357 0.430943
vt 0.155594 0.301158
vt 0.363983 0.126299
vt 0.636016 0.126299
vt 0.500000 0.102315
vt 0.363983 0.126299
vt 0.244373 0.195357
vt 0.155594 0.301158
vt 0.108357 0.430943
vt 0.108357 0.569058
vt 0.155595 0.698842
vt 0.363984 0.873701
vt 0.500000 0.897685
vt 0.636016 0.873701
vt 0.844405 0.698842
vt 0.891643 0.569058
vt 0.891643 0.430943
vt 0.755627 0.195356
vn -0.1736 -0.9848 -0.0000
vn -0.5000 -0.8660 -0.0000
vn -0.7660 -0.6428 -0.0000
vn -0.9397 -0.3420 -0.0000
vn -1.0000 0.0000 0.0000
vn -0.9397 0.3420 0.0000
vn -0.7660 0.6428 0.0000
vn -0.5000 0.8660 0.0000
vn -0.1736 0.9848 0.0000
vn 0.1736 0.9848 0.0000
vn 0.5000 0.8660 0.0000
vn 0.7660 0.6428 0.0000
vn 0.9397 0.3420 0.0000
vn 1.0000 0.0000 0.0000
vn 0.9397 -0.3420 -0.0000
vn 0.7660 -0.6428 -0.0000
vn 0.0000 0.0000 -1.0000
vn 0.1736 -0.9848 -0.0000
vn 0.5000 -0.8660 -0.0000
vn -0.0000 -0.0000 1.0000
usemtl Material.003
s 1
f 1/1/1 2/2/1 3/3/1
f 4/4/2 5/5/2 1/1/2
f 6/6/3 7/7/3 4/4/3
f 8/8/4 9/9/4 6/6/4
f 10/10/5 11/11/5 8/8/5
f 12/12/6 13/13/6 10/10/6
f 14/14/7 15/15/7 12/12/7
f 16/16/8 17/17/8 14/14/8
f 18/18/9 19/19/9 16/16/9
f 20/20/10 21/21/10 18/18/10
f 22/22/11 23/23/11 20/20/11
f 24/24/12 25/25/12 22/22/12
f 26/26/13 27/27/13 24/24/13
f 28/28/14 29/29/14 26/26/14
f 30/30/15 31/31/15 28/28/15
f 32/32/16 33/33/16 30/30/16
f 34/34/17 35/35/17 36/36/17
f 3/3/18 36/37/18 37/38/18
f 37/38/19 35/39/19 32/32/19
f 38/40/20 20/41/20 18/42/20
f 39/43/19 40/44/19 41/45/19
f 42/46/17 13/47/17 15/48/17
f 43/49/17 19/50/17 21/51/17
f 44/52/17 25/53/17 27/54/17
f 11/55/17 45/56/17 9/57/17
f 46/58/17 31/59/17 33/60/17
f 47/61/17 36/36/17 2/62/17
f 17/63/17 42/46/17 15/48/17
f 48/64/17 21/51/17 23/65/17
f 49/66/17 5/67/17 7/68/17
f 50/69/17 27/54/17 29/70/17
f 13/47/17 51/71/17 11/55/17
f 52/72/17 33/60/17 35/35/17
f 53/73/17 2/62/17 5/67/17
f 41/74/17 17/63/17 19/50/17
f 54/75/17 23/65/17 25/53/17
f 9/57/17 49/66/17 7/68/17
f 55/76/17 29/70/17 31/59/17
f 56/77/14 57/78/14 58/79/14
f 59/80/20 4/81/20 1/82/20
f 24/83/20 60/84/20 26/85/20
f 58/86/20 10/87/20 8/88/20
f 61/89/20 32/90/20 30/91/20
f 62/92/20 1/82/20 3/93/20
f 63/94/20 16/95/20 14/96/20
f 64/97/20 22/98/20 20/41/20
f 65/99/20 6/100/20 4/81/20
f 60/84/20 28/101/20 26/85/20
f 66/102/20 37/103/20 32/90/20
f 57/104/20 12/105/20 10/87/20
f 67/106/20 18/42/20 16/95/20
f 68/107/20 24/83/20 22/98/20
f 69/108/20 8/88/20 6/100/20
f 70/109/20 30/91/20 28/101/20
f 37/103/20 62/92/20 3/93/20
f 71/110/20 14/96/20 12/105/20
f 72/111/17 73/112/17 74/113/17
f 75/114/8 52/115/8 34/116/8
f 76/117/15 77/118/15 42/119/15
f 72/120/13 45/121/13 51/122/13
f 78/123/6 55/124/6 46/125/6
f 79/126/11 53/127/11 49/128/11
f 80/129/4 44/130/4 50/131/4
f 81/132/2 48/133/2 54/134/2
f 82/135/18 41/45/18 43/136/18
f 83/137/9 34/116/9 47/138/9
f 84/139/16 42/119/16 40/44/16
f 85/140/14 51/122/14 77/118/14
f 74/141/7 46/125/7 52/115/7
f 86/142/12 49/128/12 45/121/12
f 87/143/5 50/131/5 55/124/5
f 88/144/10 47/138/10 53/127/10
f 73/145/3 54/134/3 44/130/3
f 89/146/1 43/136/1 48/133/1
f 90/147/20 91/148/20 92/149/20
f 93/150/7 66/151/7 61/152/7
f 94/153/12 69/154/12 65/155/12
f 95/156/5 70/157/5 60/158/5
f 96/159/10 59/160/10 62/161/10
f 90/162/3 97/163/3 68/164/3
f 98/165/1 64/166/1 38/167/1
f 91/168/19 67/169/19 63/170/19
f 99/171/8 100/172/8 66/151/8
f 101/173/15 71/174/15 57/78/15
f 92/175/13 58/79/13 69/154/13
f 102/176/6 61/152/6 70/157/6
f 103/177/11 65/155/11 59/160/11
f 104/178/4 60/158/4 97/163/4
f 105/179/2 68/164/2 64/166/2
f 106/180/18 38/167/18 67/169/18
f 107/181/9 62/161/9 100/172/9
f 108/182/16 63/170/16 71/174/16
f 1/1/1 5/5/1 2/2/1
f 4/4/2 7/7/2 5/5/2
f 6/6/3 9/9/3 7/7/3
f 8/8/4 11/11/4 9/9/4
f 10/10/5 13/13/5 11/11/5
f 12/12/6 15/15/6 13/13/6
f 14/14/7 17/17/7 15/15/7
f 16/16/8 19/19/8 17/17/8
f 18/18/9 21/21/9 19/19/9
f 20/20/10 23/23/10 21/21/10
f 22/22/11 25/25/11 23/23/11
f 24/24/12 27/27/12 25/25/12
f 26/26/13 29/29/13 27/27/13
f 28/28/14 31/31/14 29/29/14
f 30/30/15 33/33/15 31/31/15
f 32/32/16 35/39/16 33/33/16
f 34/34/17 52/72/17 35/35/17
f 3/3/18 2/2/18 36/37/18
f 37/38/19 36/37/19 35/39/19
f 38/40/20 64/97/20 20/41/20
f 39/43/19 84/139/19 40/44/19
f 42/46/17 77/183/17 13/47/17
f 43/49/17 41/74/17 19/50/17
f 44/52/17 54/75/17 25/53/17
f 11/55/17 51/71/17 45/56/17
f 46/58/17 55/76/17 31/59/17
f 47/61/17 34/34/17 36/36/17
f 17/63/17 40/184/17 42/46/17
f 48/64/17 43/49/17 21/51/17
f 49/66/17 53/73/17 5/67/17
f 50/69/17 44/52/17 27/54/17
f 13/47/17 77/183/17 51/71/17
f 52/72/17 46/58/17 33/60/17
f 53/73/17 47/61/17 2/62/17
f 41/74/17 40/184/17 17/63/17
f 54/75/17 48/64/17 23/65/17
f 9/57/17 45/56/17 49/66/17
f 55/76/17 50/69/17 29/70/17
f 56/77/14 101/173/14 57/78/14
f 59/80/20 65/99/20 4/81/20
f 24/83/20 97/185/20 60/84/20
f 58/86/20 57/104/20 10/87/20
f 61/89/20 66/102/20 32/90/20
f 62/92/20 59/80/20 1/82/20
f 63/94/20 67/106/20 16/95/20
f 64/97/20 68/107/20 22/98/20
f 65/99/20 69/108/20 6/100/20
f 60/84/20 70/109/20 28/101/20
f 66/102/20 100/186/20 37/103/20
f 57/104/20 71/110/20 12/105/20
f 67/106/20 38/40/20 18/42/20
f 68/107/20 97/185/20 24/83/20
f 69/108/20 58/86/20 8/88/20
f 70/109/20 61/89/20 30/91/20
f 37/103/20 100/186/20 62/92/20
f 71/110/20 63/94/20 14/96/20
f 83/187/17 88/188/17 79/189/17
f 79/189/17 86/190/17 72/111/17
f 72/111/17 85/191/17 76/192/17
f 76/192/17 84/193/17 39/194/17
f 39/194/17 82/195/17 89/196/17
f 89/196/17 81/197/17 73/112/17
f 73/112/17 80/198/17 87/199/17
f 87/199/17 78/200/17 73/112/17
f 78/200/17 74/113/17 73/112/17
f 74/113/17 75/201/17 83/187/17
f 83/187/17 79/189/17 74/113/17
f 79/189/17 72/111/17 74/113/17
f 72/111/17 76/192/17 39/194/17
f 39/194/17 89/196/17 72/111/17
f 89/196/17 73/112/17 72/111/17
f 75/114/8 74/141/8 52/115/8
f 76/117/15 85/140/15 77/118/15
f 72/120/13 86/142/13 45/121/13
f 78/123/6 87/143/6 55/124/6
f 79/126/11 88/144/11 53/127/11
f 80/129/4 73/145/4 44/130/4
f 81/132/2 89/146/2 48/133/2
f 82/135/18 39/43/18 41/45/18
f 83/137/9 75/114/9 34/116/9
f 84/139/16 76/117/16 42/119/16
f 85/140/14 72/120/14 51/122/14
f 74/141/7 78/123/7 46/125/7
f 86/142/12 79/126/12 49/128/12
f 87/143/5 80/129/5 50/131/5
f 88/144/10 83/137/10 47/138/10
f 73/145/3 81/132/3 54/134/3
f 89/146/1 82/135/1 43/136/1
f 103/202/20 96/203/20 107/204/20
f 107/204/20 99/205/20 93/206/20
f 93/206/20 102/207/20 95/208/20
f 95/208/20 104/209/20 90/147/20
f 90/147/20 105/210/20 98/211/20
f 98/211/20 106/212/20 90/147/20
f 106/212/20 91/148/20 90/147/20
f 91/148/20 108/213/20 101/214/20
f 101/214/20 56/215/20 91/148/20
f 56/215/20 92/149/20 91/148/20
f 92/149/20 94/216/20 93/206/20
f 94/216/20 103/202/20 93/206/20
f 103/202/20 107/204/20 93/206/20
f 93/206/20 95/208/20 90/147/20
f 93/206/20 90/147/20 92/149/20
f 93/150/7 99/171/7 66/151/7
f 94/153/12 92/175/12 69/154/12
f 95/156/5 102/176/5 70/157/5
f 96/159/10 103/177/10 59/160/10
f 90/162/3 104/178/3 97/163/3
f 98/165/1 105/179/1 64/166/1
f 91/168/19 106/180/19 67/169/19
f 99/171/8 107/181/8 100/172/8
f 101/173/15 108/182/15 71/174/15
f 92/175/13 56/77/13 58/79/13
f 102/176/6 93/150/6 61/152/6
f 103/177/11 94/153/11 65/155/11
f 104/178/4 95/156/4 60/158/4
f 105/179/2 90/162/2 68/164/2
f 106/180/18 98/165/18 38/167/18
f 107/181/9 96/159/9 62/161/9
f 108/182/16 91/168/16 63/170/16
