# Blender v3.0.1 OBJ File: 'OvO_Flag.blend'
# www.blender.org
mtllib OvO_Flag4.mtl
o Plane.001
v 0.200028 -2.100000 1.600000
v 0.200028 -0.900000 1.600000
v -0.000000 -2.100000 0.000000
v 0.000000 -0.900000 0.000000
v 0.032134 -2.100000 0.800000
v 0.200028 -1.500000 1.600000
v 0.032134 -0.900000 0.800000
v 0.000000 -1.500000 0.000000
v 0.032134 -1.500000 0.800000
v 0.164990 -2.100000 1.200000
v 0.200028 -1.200000 1.600000
v 0.200028 -0.900000 0.400000
v -0.000000 -1.800000 0.000000
v 0.200028 -2.100000 0.400000
v 0.200028 -1.800000 1.600000
v 0.164990 -0.900000 1.200000
v 0.000000 -1.200000 0.000000
v 0.200028 -1.500000 0.400000
v 0.164990 -1.500000 1.200000
v 0.032134 -1.800000 0.800000
v 0.032134 -1.200000 0.800000
v 0.164990 -1.200000 1.200000
v 0.164990 -1.800000 1.200000
v 0.200028 -1.800000 0.400000
v 0.200028 -1.200000 0.400000
v 0.212304 -2.100000 1.400000
v 0.200028 -1.050000 1.600000
v 0.212304 -0.900000 0.200000
v -0.000000 -1.950000 0.000000
v 0.132483 -2.100000 0.600000
v 0.200028 -1.650000 1.600000
v 0.074346 -0.900000 1.000000
v 0.000000 -1.350000 0.000000
v 0.212304 -1.500000 0.200000
v 0.074346 -1.500000 1.000000
v 0.032134 -1.950000 0.800000
v 0.032134 -1.350000 0.800000
v 0.074346 -2.100000 1.000000
v 0.200028 -1.350000 1.600000
v 0.132483 -0.900000 0.600000
v -0.000000 -1.650000 0.000000
v 0.212304 -2.100000 0.200000
v 0.200028 -1.950000 1.600000
v 0.212304 -0.900000 1.400000
v 0.000000 -1.050000 0.000000
v 0.132483 -1.500000 0.600000
v 0.212304 -1.500000 1.400000
v 0.032134 -1.650000 0.800000
v 0.032134 -1.050000 0.800000
v 0.074346 -1.200000 1.000000
v 0.212304 -1.200000 1.400000
v 0.164990 -1.350000 1.200000
v 0.164990 -1.050000 1.200000
v 0.074346 -1.800000 1.000000
v 0.212304 -1.800000 1.400000
v 0.164990 -1.950000 1.200000
v 0.164990 -1.650000 1.200000
v 0.212304 -1.800000 0.200000
v 0.132483 -1.800000 0.600000
v 0.200028 -1.950000 0.400000
v 0.200028 -1.650000 0.400000
v 0.212304 -1.200000 0.200000
v 0.132483 -1.200000 0.600000
v 0.200028 -1.350000 0.400000
v 0.200028 -1.050000 0.400000
v 0.132483 -1.050000 0.600000
v 0.132483 -1.350000 0.600000
v 0.212304 -1.350000 0.200000
v 0.132483 -1.650000 0.600000
v 0.132483 -1.950000 0.600000
v 0.212304 -1.950000 0.200000
v 0.212304 -1.650000 1.400000
v 0.212304 -1.950000 1.400000
v 0.074346 -1.950000 1.000000
v 0.212304 -1.050000 1.400000
v 0.212304 -1.350000 1.400000
v 0.074346 -1.350000 1.000000
v 0.074346 -1.050000 1.000000
v 0.074346 -1.650000 1.000000
v 0.212304 -1.650000 0.200000
v 0.212304 -1.050000 0.200000
vt 0.875000 0.875000
vt 1.000000 0.875000
vt 1.000000 1.000000
vt 0.875000 1.000000
vt 0.375000 0.875000
vt 0.500000 0.875000
vt 0.500000 1.000000
vt 0.375000 1.000000
vt 0.375000 0.375000
vt 0.500000 0.375000
vt 0.500000 0.500000
vt 0.375000 0.500000
vt 0.875000 0.375000
vt 1.000000 0.375000
vt 1.000000 0.500000
vt 0.875000 0.500000
vt 0.625000 0.375000
vt 0.750000 0.375000
vt 0.750000 0.500000
vt 0.625000 0.500000
vt 0.625000 0.125000
vt 0.750000 0.125000
vt 0.750000 0.250000
vt 0.625000 0.250000
vt 0.875000 0.125000
vt 1.000000 0.125000
vt 1.000000 0.250000
vt 0.875000 0.250000
vt 0.125000 0.375000
vt 0.250000 0.375000
vt 0.250000 0.500000
vt 0.125000 0.500000
vt 0.125000 0.125000
vt 0.250000 0.125000
vt 0.250000 0.250000
vt 0.125000 0.250000
vt 0.375000 0.125000
vt 0.500000 0.125000
vt 0.500000 0.250000
vt 0.375000 0.250000
vt 0.125000 0.875000
vt 0.250000 0.875000
vt 0.250000 1.000000
vt 0.125000 1.000000
vt 0.125000 0.625000
vt 0.250000 0.625000
vt 0.250000 0.750000
vt 0.125000 0.750000
vt 0.375000 0.625000
vt 0.500000 0.625000
vt 0.500000 0.750000
vt 0.375000 0.750000
vt 0.625000 0.875000
vt 0.750000 0.875000
vt 0.750000 1.000000
vt 0.625000 1.000000
vt 0.625000 0.625000
vt 0.750000 0.625000
vt 0.750000 0.750000
vt 0.625000 0.750000
vt 0.875000 0.625000
vt 1.000000 0.625000
vt 1.000000 0.750000
vt 0.875000 0.750000
vt 0.000000 0.625000
vt 0.000000 0.750000
vt 0.000000 0.500000
vt 0.000000 0.875000
vt 0.000000 1.000000
vt 0.250000 0.000000
vt 0.375000 0.000000
vt 0.500000 0.000000
vt 0.000000 0.125000
vt 0.000000 0.250000
vt 0.000000 0.000000
vt 0.125000 0.000000
vt 0.000000 0.375000
vt 0.750000 0.000000
vt 0.875000 0.000000
vt 1.000000 0.000000
vt 0.625000 0.000000
vn -0.9298 0.0000 0.3681
vn -0.6857 0.0000 0.7279
vn -0.9502 0.0000 0.3115
vn -0.9917 0.0000 -0.1281
vn -0.9963 0.0000 0.0854
vn -0.9464 0.0000 0.3230
vn -0.9228 0.0000 -0.3851
vn -0.9813 0.0000 -0.1923
vn -0.9981 0.0000 -0.0613
usemtl Material.001
s 1
f 81/1/1 28/2/1 4/3/2 45/4/2
f 80/5/1 34/6/1 8/7/2 41/8/2
f 79/9/3 35/10/3 9/11/4 48/12/4
f 78/13/3 32/14/3 7/15/4 49/16/4
f 77/17/3 50/18/3 21/19/4 37/20/4
f 76/21/5 51/22/5 22/23/6 52/24/6
f 75/25/5 44/26/5 16/27/6 53/28/6
f 74/29/3 54/30/3 20/31/4 36/32/4
f 73/33/5 55/34/5 23/35/6 56/36/6
f 72/37/5 47/38/5 19/39/6 57/40/6
f 71/41/1 58/42/1 13/43/2 29/44/2
f 70/45/7 59/46/7 24/47/8 60/48/8
f 69/49/7 46/50/7 18/51/8 61/52/8
f 68/53/1 62/54/1 17/55/2 33/56/2
f 67/57/7 63/58/7 25/59/8 64/60/8
f 66/61/7 40/62/7 12/63/8 65/64/8
f 63/58/7 66/61/7 65/64/8 25/59/8
f 21/19/4 49/16/4 66/61/7 63/58/7
f 49/16/4 7/15/4 40/62/7 66/61/7
f 46/50/7 67/57/7 64/60/8 18/51/8
f 9/11/4 37/20/4 67/57/7 46/50/7
f 37/20/4 21/19/4 63/58/7 67/57/7
f 34/6/1 68/53/1 33/56/2 8/7/2
f 18/51/8 64/60/8 68/53/1 34/6/1
f 64/60/8 25/59/8 62/54/1 68/53/1
f 59/46/7 69/49/7 61/52/8 24/47/8
f 20/31/4 48/12/4 69/49/7 59/46/7
f 48/12/4 9/11/4 46/50/7 69/49/7
f 30/65/7 70/45/7 60/48/8 14/66/8
f 5/67/4 36/32/4 70/45/7 30/65/7
f 36/32/4 20/31/4 59/46/7 70/45/7
f 42/68/1 71/41/1 29/44/2 3/69/2
f 14/66/8 60/48/8 71/41/1 42/68/1
f 60/48/8 24/47/8 58/42/1 71/41/1
f 55/34/5 72/37/5 57/40/6 23/35/6
f 15/70/9 31/71/9 72/37/5 55/34/5
f 31/71/9 6/72/9 47/38/5 72/37/5
f 26/73/5 73/33/5 56/36/6 10/74/6
f 1/75/9 43/76/9 73/33/5 26/73/5
f 43/76/9 15/70/9 55/34/5 73/33/5
f 38/77/3 74/29/3 36/32/4 5/67/4
f 10/74/6 56/36/6 74/29/3 38/77/3
f 56/36/6 23/35/6 54/30/3 74/29/3
f 51/22/5 75/25/5 53/28/6 22/23/6
f 11/78/9 27/79/9 75/25/5 51/22/5
f 27/79/9 2/80/9 44/26/5 75/25/5
f 47/38/5 76/21/5 52/24/6 19/39/6
f 6/72/9 39/81/9 76/21/5 47/38/5
f 39/81/9 11/78/9 51/22/5 76/21/5
f 35/10/3 77/17/3 37/20/4 9/11/4
f 19/39/6 52/24/6 77/17/3 35/10/3
f 52/24/6 22/23/6 50/18/3 77/17/3
f 50/18/3 78/13/3 49/16/4 21/19/4
f 22/23/6 53/28/6 78/13/3 50/18/3
f 53/28/6 16/27/6 32/14/3 78/13/3
f 54/30/3 79/9/3 48/12/4 20/31/4
f 23/35/6 57/40/6 79/9/3 54/30/3
f 57/40/6 19/39/6 35/10/3 79/9/3
f 58/42/1 80/5/1 41/8/2 13/43/2
f 24/47/8 61/52/8 80/5/1 58/42/1
f 61/52/8 18/51/8 34/6/1 80/5/1
f 62/54/1 81/1/1 45/4/2 17/55/2
f 25/59/8 65/64/8 81/1/1 62/54/1
f 65/64/8 12/63/8 28/2/1 81/1/1
