# Blender v3.0.1 OBJ File: 'assets_no_outline.blend'
# www.blender.org
mtllib nico_rocketlauncher_base_centered.mtl
o RocketLauncher_Base_Circle.001
v -0.200883 0.788339 -0.662647
v -0.200883 -0.108999 -0.662647
v 0.002477 -0.224811 -0.662647
v 0.208939 -0.113136 -0.662647
v 0.208939 0.788339 -0.662647
v -0.200883 0.788339 -0.537622
v -0.200883 -0.108999 -0.537622
v 0.002477 -0.224811 -0.537622
v 0.208939 -0.113136 -0.537622
v 0.208939 0.788339 -0.537622
v -0.200883 0.788339 0.662647
v -0.200883 -0.108999 0.662647
v 0.002477 -0.224811 0.662647
v 0.208940 -0.113136 0.662647
v 0.208940 0.788339 0.662647
v -0.200883 0.788339 0.537623
v -0.200883 -0.108999 0.537623
v 0.002477 -0.224811 0.537622
v 0.208940 -0.113136 0.537622
v 0.208940 0.788339 0.537622
vt 0.134653 0.956361
vt 0.134653 0.635648
vt 0.082858 0.985501
vt 0.030274 0.635648
vt 0.030274 0.957402
vt 0.134653 0.956361
vt 0.082858 0.985501
vt 0.134653 0.635648
vt 0.030274 0.957402
vt 0.030274 0.635648
vt 0.134653 0.956361
vt 0.082858 0.985501
vt 0.134653 0.635648
vt 0.030273 0.957402
vt 0.030273 0.635648
vt 0.134653 0.956361
vt 0.134653 0.635648
vt 0.082858 0.985501
vt 0.030274 0.635648
vt 0.030274 0.957402
vn 0.0000 0.0000 -1.0000
vn 0.0000 0.0000 1.0000
vn -0.0109 -0.9999 -0.0000
vn 0.8590 -0.5120 -0.0000
vn 1.0000 0.0000 -0.0000
vn -1.0000 0.0000 0.0000
vn -0.8645 -0.5026 -0.0000
usemtl cannon
s 1
f 2/1/1 1/2/1 3/3/1
f 3/3/1 5/4/1 4/5/1
f 5/4/1 3/3/1 1/2/1
f 7/6/2 8/7/2 6/8/2
f 8/7/2 9/9/2 10/10/2
f 10/10/2 6/8/2 8/7/2
f 3/3/3 4/5/4 9/9/4
f 4/5/4 5/4/5 10/10/5
f 1/2/6 2/1/7 7/6/7
f 2/1/7 3/3/3 8/7/3
f 3/3/3 9/9/4 8/7/3
f 4/5/4 10/10/5 9/9/4
f 1/2/6 7/6/7 6/8/6
f 2/1/7 8/7/3 7/6/7
f 12/11/2 13/12/2 11/13/2
f 13/12/2 14/14/2 15/15/2
f 15/15/2 11/13/2 13/12/2
f 17/16/1 16/17/1 18/18/1
f 18/18/1 20/19/1 19/20/1
f 20/19/1 18/18/1 16/17/1
f 13/12/3 19/20/4 14/14/4
f 14/14/4 20/19/5 15/15/5
f 11/13/6 17/16/7 12/11/7
f 12/11/7 18/18/3 13/12/3
f 13/12/3 18/18/3 19/20/4
f 14/14/4 19/20/4 20/19/5
f 11/13/6 16/17/6 17/16/7
f 12/11/7 17/16/7 18/18/3
