# Blender v3.0.1 OBJ File: 'default3d_nooutlines.blend'
# www.blender.org
mtllib skin_default_body.mtl
o OvO.001_Cube.010
v -0.163605 0.281103 -0.086501
v -0.163605 -0.234723 -0.086501
v -0.163605 0.281103 0.086501
v -0.163605 -0.234723 0.086501
v -0.131104 0.281103 -0.071091
v -0.131104 0.281103 0.071091
v 0.000000 0.281103 0.000000
v 0.163605 0.281103 -0.086501
v 0.163605 -0.234723 -0.086501
v 0.163605 0.281103 0.086501
v 0.163605 -0.234723 0.086501
v 0.131104 0.281103 -0.071091
v 0.131104 0.281103 0.071091
vt 0.459384 0.442314
vt 0.550769 0.433254
vt 0.541197 0.442314
vt 0.550769 0.671747
vt 0.449812 0.494085
vt 0.550769 0.494085
vt 0.500291 0.464335
vt 0.541197 0.487333
vt 0.459384 0.487333
vt 0.449812 0.433254
vt 0.393995 0.922033
vt 0.449812 0.734120
vt 0.449812 0.922033
vt 0.550769 0.734120
vt 0.449812 0.671747
vt 0.606586 0.922033
vt 0.550769 0.922033
vt 0.393995 0.734120
vt 0.606586 0.734120
vn 0.0000 1.0000 0.0000
vn 0.5774 0.5774 0.5774
vn 0.5774 -0.5774 -0.5774
vn -0.5774 0.5774 -0.5774
vn 0.5774 0.5774 -0.5774
vn -0.5774 0.5774 0.5774
vn -0.5774 -0.5774 0.5774
vn 0.5774 -0.5774 0.5774
vn -0.5774 -0.5774 -0.5774
usemtl frank3Dtex
s 1
f 6/1/1 10/2/2 13/3/1
f 9/4/3 1/5/4 8/6/5
f 7/7/1 12/8/1 5/9/1
f 6/1/1 1/5/4 3/10/6
f 5/9/1 6/1/1 7/7/1
f 1/11/4 4/12/7 3/13/6
f 11/14/8 3/13/6 4/12/7
f 9/4/3 4/12/7 2/15/9
f 13/3/1 7/7/1 6/1/1
f 8/6/5 13/3/1 10/2/2
f 12/8/1 7/7/1 13/3/1
f 11/14/8 8/16/5 10/17/2
f 12/8/1 1/5/4 5/9/1
f 6/1/1 3/10/6 10/2/2
f 9/4/3 2/15/9 1/5/4
f 6/1/1 5/9/1 1/5/4
f 1/11/4 2/18/9 4/12/7
f 11/14/8 10/17/2 3/13/6
f 9/4/3 11/14/8 4/12/7
f 8/6/5 12/8/1 13/3/1
f 11/14/8 9/19/3 8/16/5
f 12/8/1 8/6/5 1/5/4
