# Blender v3.0.1 OBJ File: 'default3d_nooutlines.blend'
# www.blender.org
mtllib skin_default_rightarm.mtl
o OvO.002_Cube.015
v 0.132553 -0.284176 -0.086501
v -0.001972 -0.284176 -0.086501
v 0.132553 -0.284176 0.086501
v -0.001972 -0.284176 0.086501
v 0.132553 -0.002177 -0.086501
v -0.001972 -0.002177 -0.086501
v 0.132553 -0.002177 0.086501
v -0.001972 -0.002177 0.086501
vt 0.606586 0.922033
vt 0.698535 0.870940
vt 0.606586 0.870940
vt 0.606586 0.985945
vt 0.550769 0.922033
vt 0.550769 0.985945
vt 0.606586 0.817044
vt 0.698535 0.817024
vt 0.698535 0.985945
vt 0.606586 0.766134
vt 0.753298 0.985945
vt 0.698535 0.922033
vt 0.698535 0.766134
vt 0.753298 0.922033
vn -0.5774 -0.5774 0.5774
vn -0.5774 0.5774 -0.5774
vn -0.5774 -0.5774 -0.5774
vn 0.5774 -0.5774 0.5774
vn 0.5774 -0.5774 -0.5774
vn 0.5774 0.5774 -0.5774
vn 0.5774 0.5774 0.5774
vn -0.5774 0.5774 0.5774
usemtl frank3Dtex
s 1
f 4/1/1 6/2/2 2/3/3
f 3/4/4 2/5/3 1/6/5
f 1/7/5 6/2/2 5/8/6
f 7/9/7 4/1/1 3/4/4
f 5/8/6 3/10/4 1/7/5
f 5/11/6 8/12/8 7/9/7
f 4/1/1 8/12/8 6/2/2
f 3/4/4 4/1/1 2/5/3
f 1/7/5 2/3/3 6/2/2
f 7/9/7 8/12/8 4/1/1
f 5/8/6 7/13/7 3/10/4
f 5/11/6 6/14/2 8/12/8
