# Blender v3.0.1 OBJ File: 'ancient3d_nooutlines.blend'
# www.blender.org
mtllib ancient_leftarm.mtl
o Ancient_LeftArm_Cube.017
v 0.007447 -0.274176 -0.086501
v 0.141972 -0.274176 -0.086501
v 0.007447 -0.274176 0.086501
v 0.141972 -0.274176 0.086501
v 0.074710 0.009154 -0.086501
v 0.074710 0.009154 0.086501
v 0.041078 -0.274176 -0.086501
v 0.074710 -0.231069 -0.086501
v 0.108341 -0.274176 -0.086501
v 0.041078 -0.274176 0.086501
v 0.074710 -0.231069 0.086501
v 0.108341 -0.274176 0.086501
v 0.008328 -0.144031 0.086501
v 0.008328 -0.144031 -0.086501
v 0.074710 -0.133176 -0.086501
v 0.074710 -0.133176 0.086501
v 0.141091 -0.137219 -0.086501
v 0.141091 -0.137219 0.086501
v 0.159410 -0.022318 -0.109207
v -0.006291 -0.018588 0.109207
v 0.074710 -0.026425 -0.109207
v -0.006291 -0.018588 -0.109207
v 0.074710 -0.026425 0.109208
v 0.159410 -0.022318 0.109207
vt 0.394195 0.830518
vt 0.348021 0.817034
vt 0.352169 0.845160
vt 0.324976 0.955487
vt 0.307288 0.954654
vt 0.325034 0.985945
vt 0.307288 0.766303
vt 0.325034 0.817029
vt 0.325034 0.766303
vt 0.348021 0.923673
vt 0.394195 0.870940
vt 0.348021 0.870940
vt 0.394195 0.969967
vt 0.449425 0.985945
vt 0.449425 0.969967
vt 0.394195 0.923673
vt 0.449425 0.938011
vt 0.449425 0.923673
vt 0.394195 0.938011
vt 0.449425 0.953989
vt 0.394195 0.953989
vt 0.325034 0.923673
vt 0.352169 0.954987
vt 0.394195 0.857466
vt 0.348021 0.766303
vt 0.394195 0.817044
vt 0.394195 0.766303
vt 0.348021 0.985945
vt 0.394195 0.985945
vt 0.327108 0.845160
vt 0.325034 0.870940
vt 0.394195 0.846232
vt 0.307288 0.845160
vn 0.3440 -0.7048 -0.6204
vn -0.7087 -0.1060 -0.6975
vn 0.0061 -0.1119 -0.9937
vn 0.0065 0.1686 0.9857
vn 0.0139 0.9237 0.3830
vn -0.6571 0.4002 0.6387
vn -0.6571 0.4002 -0.6387
vn 0.7051 -0.1291 0.6973
vn 0.5794 -0.5757 -0.5770
vn 0.7051 -0.1291 -0.6973
vn 0.3440 -0.7048 0.6204
vn -0.5795 -0.5756 -0.5770
vn 0.5794 -0.5757 0.5770
vn -0.3440 -0.7048 -0.6204
vn -0.3440 -0.7048 0.6204
vn -0.0000 -0.3632 -0.9317
vn 0.0000 -0.3632 0.9317
vn 0.6718 0.3723 0.6404
vn 0.0061 -0.1119 0.9937
vn -0.7087 -0.1060 0.6975
vn -0.5795 -0.5756 0.5770
vn 0.0065 0.1686 -0.9857
vn 0.6718 0.3723 -0.6404
vn 0.0139 0.9237 -0.3830
usemtl frank3Dtex
s 1
f 7/1/1 14/2/2 15/3/3
f 23/4/4 6/5/5 20/6/6
f 6/7/5 22/8/7 20/9/6
f 18/10/8 2/11/9 17/12/10
f 10/13/11 1/14/12 7/15/1
f 4/16/13 9/17/14 2/18/9
f 12/19/15 8/20/16 9/17/14
f 11/21/17 7/15/1 8/20/16
f 24/22/18 6/5/5 23/4/4
f 12/19/15 16/23/19 11/21/17
f 11/21/17 16/23/19 10/13/11
f 17/12/10 9/24/14 15/3/3
f 13/25/20 1/26/12 3/27/21
f 10/13/11 13/28/20 3/29/21
f 21/30/22 14/2/2 22/8/7
f 17/12/10 21/30/22 19/31/23
f 18/10/8 12/19/15 4/16/13
f 24/22/18 17/12/10 19/31/23
f 15/3/3 9/24/14 8/32/16
f 15/3/3 8/32/16 7/1/1
f 6/5/5 19/31/23 5/33/24
f 5/33/24 19/31/23 21/30/22
f 5/33/24 21/30/22 22/8/7
f 18/10/8 23/4/4 16/23/19
f 20/9/6 14/2/2 13/25/20
f 23/4/4 13/28/20 16/23/19
f 7/1/1 1/26/12 14/2/2
f 6/7/5 5/33/24 22/8/7
f 18/10/8 4/16/13 2/11/9
f 10/13/11 3/29/21 1/14/12
f 4/16/13 12/19/15 9/17/14
f 12/19/15 11/21/17 8/20/16
f 11/21/17 10/13/11 7/15/1
f 17/12/10 2/11/9 9/24/14
f 13/25/20 14/2/2 1/26/12
f 10/13/11 16/23/19 13/28/20
f 21/30/22 15/3/3 14/2/2
f 17/12/10 15/3/3 21/30/22
f 18/10/8 16/23/19 12/19/15
f 24/22/18 18/10/8 17/12/10
f 6/5/5 24/22/18 19/31/23
f 18/10/8 24/22/18 23/4/4
f 20/9/6 22/8/7 14/2/2
f 23/4/4 20/6/6 13/28/20
