# Blender v3.0.1 OBJ File: 'darkknight3D_nooutlines.blend'
# www.blender.org
mtllib skin_darkknight_leftarm.mtl
o DarkKnight.007_Cube.017
v -0.002553 -0.284176 -0.086501
v 0.131972 -0.284176 -0.086501
v -0.002553 -0.284176 0.086501
v 0.131972 -0.284176 0.086501
v -0.002553 -0.002177 -0.086501
v 0.131972 -0.002177 -0.086501
v -0.002553 -0.002177 0.086501
v 0.131972 -0.002177 0.086501
vt 0.302046 0.870940
vt 0.393995 0.922033
vt 0.393995 0.870940
vt 0.449812 0.922033
vt 0.393995 0.985945
vt 0.449812 0.985945
vt 0.393995 0.817044
vt 0.302046 0.817024
vt 0.302046 0.985945
vt 0.393995 0.766134
vt 0.302046 0.922033
vt 0.247283 0.985945
vt 0.302046 0.766134
vt 0.247283 0.922033
vn 0.5774 0.5774 -0.5774
vn 0.5774 -0.5774 0.5774
vn 0.5774 -0.5774 -0.5774
vn -0.5774 -0.5774 0.5774
vn -0.5774 -0.5774 -0.5774
vn -0.5774 0.5774 -0.5774
vn -0.5774 0.5774 0.5774
vn 0.5774 0.5774 0.5774
usemtl frank3Dtex
s 1
f 6/1/1 4/2/2 2/3/3
f 2/4/3 3/5/4 1/6/5
f 6/1/1 1/7/5 5/8/6
f 4/2/2 7/9/7 3/5/4
f 3/10/4 5/8/6 1/7/5
f 8/11/8 5/12/6 7/9/7
f 6/1/1 8/11/8 4/2/2
f 2/4/3 4/2/2 3/5/4
f 6/1/1 2/3/3 1/7/5
f 4/2/2 8/11/8 7/9/7
f 3/10/4 7/13/7 5/8/6
f 8/11/8 6/14/1 5/12/6
