# Blender v3.0.1 OBJ File: 'zerosuit3d_nooutlines.blend'
# www.blender.org
mtllib skin_zerosuit_rightleg.mtl
o ZeroSuit.007_Cube.003
v 0.111258 0.001043 0.061819
v 0.003379 0.001043 0.061819
v 0.111258 0.001043 -0.061819
v 0.003380 0.001043 -0.061819
v 0.137905 -0.280956 0.086501
v -0.023399 -0.280956 0.086501
v 0.137905 -0.280956 -0.086501
v -0.023399 -0.280956 -0.086501
v 0.003380 -0.205831 -0.061819
v 0.111258 -0.205831 0.061819
v 0.111258 -0.205831 -0.061819
v 0.003379 -0.205831 0.061819
v 0.137905 -0.236453 -0.086501
v 0.137905 -0.236453 0.086501
v 0.003379 -0.169106 0.061819
v 0.111258 -0.169106 -0.061819
v 0.003380 -0.169106 -0.061819
v 0.111258 -0.169106 0.061819
vt 0.776567 0.766134
vt 0.722190 0.839241
vt 0.776567 0.839241
vt 0.722190 0.661294
vt 0.776567 0.588320
vt 0.722190 0.588320
vt 0.722190 0.766134
vt 0.776567 0.711481
vt 0.722190 0.711481
vt 0.683860 0.697074
vt 0.683860 0.680984
vt 0.644249 0.697074
vt 0.683860 0.661294
vt 0.606200 0.766134
vt 0.644247 0.711481
vt 0.606200 0.711481
vt 0.519722 0.148008
vt 0.975145 0.021938
vt 0.975145 0.148008
vt 0.519722 0.148008
vt 0.975145 0.021938
vt 0.975145 0.148008
vt 0.606200 0.661294
vt 0.644255 0.661294
vt 0.722190 0.697074
vt 0.722190 0.680984
vt 0.776567 0.661294
vt 0.975145 0.148008
vt 0.519722 0.021938
vt 0.975145 0.021938
vt 0.975145 0.148008
vt 0.519722 0.021938
vt 0.975145 0.021938
vt 0.683860 0.711481
vt 0.683860 0.766134
vt 0.644239 0.766134
vt 0.776567 0.697074
vt 0.519722 0.021938
vt 0.519722 0.021938
vt 0.606200 0.697074
vt 0.519722 0.148008
vt 0.519722 0.148008
vn -0.5774 0.5774 0.5774
vn 0.5774 0.5774 -0.5774
vn -0.5774 0.5774 -0.5774
vn 0.5774 -0.5774 0.5774
vn -0.6667 -0.4169 -0.6178
vn 0.5774 -0.5774 -0.5774
vn 0.5774 0.5774 0.5774
vn -0.7071 -0.0000 0.7071
vn 0.7071 -0.0000 0.7071
vn 0.5965 0.5177 -0.6134
vn 0.6535 0.3656 -0.6628
vn -0.6971 0.2724 -0.6632
vn -0.7071 0.0000 -0.7071
vn 0.7071 0.0000 -0.7071
vn -0.6667 -0.4169 0.6178
vn 0.5965 0.5177 0.6134
vn 0.6535 0.3656 0.6628
vn -0.6971 0.2724 0.6632
usemtl frank3Dtex
s 1
f 2/1/1 3/2/2 4/3/3
f 5/4/4 8/5/5 7/6/6
f 1/7/7 15/8/8 18/9/9
f 11/10/10 13/11/11 9/12/12
f 13/11/11 5/4/4 7/13/6
f 2/14/1 17/15/13 15/16/8
f 18/17/9 11/18/10 16/19/14
f 16/20/14 9/21/12 17/22/13
f 6/23/15 9/12/12 8/24/5
f 10/25/16 13/11/11 11/10/10
f 5/4/4 14/26/17 6/27/15
f 18/28/9 12/29/18 10/30/16
f 15/31/8 9/32/12 12/33/18
f 1/7/7 16/34/14 3/35/2
f 3/35/2 17/15/13 4/36/3
f 14/26/17 10/25/16 12/37/18
f 13/11/11 8/24/5 9/12/12
f 6/27/15 14/26/17 12/37/18
f 8/24/5 13/11/11 7/13/6
f 2/1/1 1/7/7 3/2/2
f 5/4/4 6/27/15 8/5/5
f 1/7/7 2/1/1 15/8/8
f 13/11/11 14/26/17 5/4/4
f 2/14/1 4/36/3 17/15/13
f 18/17/9 10/38/16 11/18/10
f 16/20/14 11/39/10 9/21/12
f 6/23/15 12/40/18 9/12/12
f 10/25/16 14/26/17 13/11/11
f 18/28/9 15/41/8 12/29/18
f 15/31/8 17/42/13 9/32/12
f 1/7/7 18/9/9 16/34/14
f 3/35/2 16/34/14 17/15/13
