# Blender v3.0.1 OBJ File: 'zerosuit3d_nooutlines.blend'
# www.blender.org
mtllib skin_zerosuit_body.mtl
o ZeroSuit.002_Cube.010
v -0.163605 0.281103 -0.086501
v -0.142204 -0.234723 -0.086501
v -0.163605 0.281103 0.086501
v -0.142204 -0.234723 0.086501
v -0.131104 0.281103 -0.071091
v -0.131104 0.281103 0.071091
v 0.000000 0.281103 0.000000
v 0.163605 0.281103 -0.086501
v 0.139947 -0.234723 -0.086501
v 0.163605 0.281103 0.086501
v 0.139947 -0.234723 0.086501
v 0.131104 0.281103 -0.071091
v 0.131104 0.281103 0.071091
v 0.000000 0.281103 -0.071091
v 0.000000 0.281103 0.071091
v 0.000000 0.085715 0.086501
v 0.000000 0.085715 -0.086501
v 0.000000 0.281103 -0.086501
v -0.001129 -0.234723 0.086501
v 0.000000 0.281103 0.086501
v -0.001129 -0.234723 -0.086501
v 0.163605 0.085715 -0.086501
v 0.163605 0.085715 0.086501
v -0.163605 0.085715 -0.086501
v -0.163605 0.085715 0.086501
v -0.142204 -0.085289 -0.086501
v 0.139947 -0.085289 -0.086501
v 0.139947 -0.085289 0.086501
v -0.142204 -0.085289 0.086501
v -0.001129 -0.085289 0.086501
v -0.001129 -0.085289 -0.086501
v -0.093975 0.085715 0.086501
v -0.040119 -0.085289 0.086501
v -0.039802 0.023229 0.086501
v -0.038203 -0.085289 -0.086501
v -0.091812 0.085715 -0.086501
v -0.041024 0.023229 -0.086501
v -0.154548 0.014085 0.086501
v -0.154249 0.014085 -0.086501
v -0.144250 -0.068944 0.086501
v -0.064004 0.014085 0.086501
v -0.061868 -0.068944 0.086501
v -0.110308 0.066212 0.086501
v -0.061448 0.014085 -0.086501
v -0.144205 -0.069303 -0.086501
v -0.161290 0.066212 -0.086501
v -0.098878 0.066212 -0.086501
v -0.060235 -0.066222 -0.086501
v -0.160845 0.066212 0.086501
vt 0.500291 0.433254
vt 0.541197 0.442314
vt 0.500291 0.442314
vt 0.541197 0.487333
vt 0.550769 0.433254
vt 0.550769 0.494085
vt 0.500291 0.464335
vt 0.500291 0.487333
vt 0.606586 0.788558
vt 0.550769 0.850854
vt 0.550769 0.788558
vt 0.459384 0.487333
vt 0.459384 0.442314
vt 0.500291 0.850854
vt 0.500291 0.922033
vt 0.471296 0.850854
vt 0.500291 0.734120
vt 0.449812 0.671747
vt 0.500291 0.671747
vt 0.471963 0.561381
vt 0.449812 0.494085
vt 0.500291 0.494085
vt 0.449812 0.433254
vt 0.393995 0.734120
vt 0.449812 0.788558
vt 0.393995 0.788558
vt 0.500291 0.788558
vt 0.488010 0.825899
vt 0.488358 0.788558
vt 0.393995 0.850854
vt 0.449812 0.922033
vt 0.393995 0.922033
vt 0.500291 0.561381
vt 0.550769 0.561381
vt 0.550769 0.620279
vt 0.500291 0.620279
vt 0.486964 0.585558
vt 0.550769 0.734120
vt 0.550769 0.671747
vt 0.550769 0.922033
vt 0.606586 0.850854
vt 0.449812 0.620279
vt 0.487025 0.620279
vt 0.606586 0.734120
vt 0.414455 0.046025
vt 0.458429 0.089999
vt 0.414455 0.089999
vt 0.449812 0.850854
vt 0.449812 0.734120
vt 0.989111 0.023967
vt 0.651947 0.023967
vt 0.624140 0.023967
vt 0.449812 0.561381
vt 0.606586 0.922033
vt 0.989111 0.023967
vt 0.620764 0.108352
vt 0.504193 0.128691
vt 0.908569 0.023967
vt 0.504193 0.023967
vt 0.458429 0.046025
vt 0.414455 0.089999
vt 0.414455 0.046025
vt 0.414455 0.046025
vt 0.458429 0.089999
vt 0.414455 0.089999
vt 0.458429 0.046025
vt 0.414455 0.089999
vt 0.414455 0.046025
vt 0.908754 0.023967
vt 0.504193 0.124789
vt 0.504193 0.023967
vt 0.414455 0.046025
vt 0.458429 0.089999
vt 0.414455 0.089999
vt 0.458429 0.046025
vt 0.414455 0.089999
vt 0.414455 0.046025
vt 0.618421 0.124683
vt 0.458429 0.046025
vt 0.414455 0.089999
vt 0.414455 0.046025
vt 0.414455 0.089999
vt 0.414455 0.046025
vt 0.414455 0.046025
vt 0.458429 0.089999
vt 0.458429 0.046025
vt 0.414455 0.089999
vt 0.414455 0.046025
vt 0.458429 0.046025
vt 0.989111 0.124789
vt 0.896332 0.125883
vt 0.458429 0.089999
vt 0.458429 0.046025
vt 0.910975 0.125154
vt 0.458429 0.089999
vt 0.989111 0.128691
vt 0.458429 0.089999
vt 0.458429 0.089999
vt 0.458429 0.046025
vt 0.458429 0.089999
vn 0.0000 0.7071 0.7071
vn 0.0000 1.0000 0.0000
vn 0.5774 0.5774 0.5774
vn 0.5774 0.5774 -0.5774
vn 0.6893 -0.0475 -0.7229
vn 0.7202 -0.0496 0.6920
vn 0.6893 -0.0475 0.7229
vn 0.0000 0.0000 1.0000
vn 0.0000 -0.7071 0.7071
vn -0.5774 -0.5774 -0.5774
vn 0.0000 -0.7071 -0.7071
vn -0.0000 0.0000 -1.0000
vn -0.5774 0.5774 -0.5774
vn 0.0000 0.7071 -0.7071
vn -0.5774 0.5774 0.5774
vn -0.6912 -0.0431 0.7214
vn -0.6912 -0.0431 -0.7214
vn -0.7187 -0.0425 -0.6941
vn 0.7202 -0.0496 -0.6920
vn 0.5774 -0.5774 0.5774
vn 0.5774 -0.5774 -0.5774
vn -0.7201 -0.0501 0.6921
vn -0.5774 -0.5774 0.5774
vn -0.7001 -0.0889 -0.7085
vn -0.6984 -0.0925 0.7097
vn -0.7037 -0.0898 -0.7048
vn -0.7028 -0.0860 0.7061
vn -0.7023 -0.0863 -0.7066
vn -0.7021 -0.0871 0.7068
usemtl frank3Dtex
s 1
f 20/1/1 13/2/2 15/3/2
f 12/4/2 10/5/3 8/6/4
f 7/7/2 12/4/2 14/8/2
f 27/9/5 23/10/6 28/11/7
f 5/12/2 6/13/2 7/7/2
f 16/14/8 20/15/1 32/16/8
f 19/17/9 2/18/10 21/19/11
f 36/20/12 1/21/13 18/22/14
f 13/2/2 7/7/2 15/3/2
f 5/12/2 3/23/15 6/13/2
f 12/4/2 7/7/2 13/2/2
f 2/24/10 29/25/16 26/26/17
f 18/22/14 5/12/2 14/8/2
f 30/27/8 34/28/8 33/29/8
f 24/30/18 3/31/15 1/32/13
f 17/33/12 8/6/4 22/34/19
f 28/11/7 16/14/8 30/27/8
f 27/35/5 17/33/12 22/34/19
f 31/36/12 37/37/12 17/33/12
f 11/38/20 21/19/11 9/39/21
f 12/4/2 18/22/14 14/8/2
f 6/13/2 20/1/1 15/3/2
f 14/8/2 5/12/2 7/7/2
f 15/3/2 7/7/2 6/13/2
f 10/40/3 16/14/8 23/10/6
f 22/41/19 10/40/3 23/10/6
f 2/18/10 26/42/17 35/43/12
f 21/19/11 27/35/5 9/39/21
f 28/11/7 19/17/9 11/38/20
f 19/17/9 30/27/8 33/29/8
f 9/44/21 28/11/7 11/38/20
f 34/45/8 42/46/8 33/47/8
f 34/28/8 16/14/8 32/16/8
f 32/16/8 3/31/15 25/48/22
f 33/29/8 4/49/23 19/17/9
f 20/1/1 10/5/3 13/2/2
f 17/33/12 37/37/12 36/20/12
f 39/50/24 49/51/25 46/52/26
f 12/4/2 13/2/2 10/5/3
f 27/9/5 22/41/19 23/10/6
f 19/17/9 4/49/23 2/18/10
f 18/22/14 17/33/12 36/20/12
f 36/20/12 24/53/18 1/21/13
f 5/12/2 1/21/13 3/23/15
f 2/24/10 4/49/23 29/25/16
f 18/22/14 1/21/13 5/12/2
f 30/27/8 16/14/8 34/28/8
f 24/30/18 25/48/22 3/31/15
f 17/33/12 18/22/14 8/6/4
f 28/11/7 23/10/6 16/14/8
f 27/35/5 31/36/12 17/33/12
f 31/36/12 35/43/12 37/37/12
f 11/38/20 19/17/9 21/19/11
f 12/4/2 8/6/4 18/22/14
f 6/13/2 3/23/15 20/1/1
f 10/40/3 20/15/1 16/14/8
f 22/41/19 8/54/4 10/40/3
f 31/36/12 21/19/11 35/43/12
f 21/19/11 2/18/10 35/43/12
f 21/19/11 31/36/12 27/35/5
f 28/11/7 30/27/8 19/17/9
f 9/44/21 27/9/5 28/11/7
f 38/55/27 43/56/8 49/51/25
f 32/16/8 20/15/1 3/31/15
f 33/29/8 29/25/16 4/49/23
f 44/57/12 45/58/28 39/59/24
f 29/60/16 45/61/28 26/62/17
f 37/63/12 47/64/12 36/65/12
f 42/66/8 29/67/16 33/68/8
f 40/69/29 41/70/8 38/71/27
f 32/72/8 41/73/8 34/74/8
f 47/75/12 24/76/18 36/77/12
f 47/78/12 39/50/24 46/52/26
f 48/79/12 26/80/17 45/81/28
f 48/79/12 37/82/12 35/83/12
f 40/69/29 39/59/24 45/58/28
f 46/84/26 25/85/22 24/76/18
f 43/86/8 25/87/22 49/88/25
f 34/45/8 41/89/8 42/46/8
f 39/50/24 38/55/27 49/51/25
f 38/55/27 41/90/8 43/56/8
f 44/57/12 48/91/12 45/58/28
f 29/60/16 40/92/29 45/61/28
f 37/63/12 44/93/12 47/64/12
f 42/66/8 40/92/29 29/67/16
f 40/69/29 42/94/8 41/70/8
f 32/72/8 43/86/8 41/73/8
f 47/75/12 46/95/26 24/76/18
f 47/78/12 44/96/12 39/50/24
f 48/79/12 35/97/12 26/80/17
f 48/79/12 44/98/12 37/82/12
f 40/69/29 38/71/27 39/59/24
f 46/84/26 49/99/25 25/85/22
f 43/86/8 32/100/8 25/87/22
