# Blender v3.0.1 OBJ File: 'darkknight3D_nooutlines.blend'
# www.blender.org
mtllib skin_darkknight_leftfoot.mtl
o DarkKnight_Cube.021
v -0.002383 -0.283988 -0.086501
v 0.132143 -0.283988 -0.086501
v -0.002383 -0.283988 0.086501
v 0.132143 -0.283988 0.086501
v -0.002383 -0.001989 -0.086501
v 0.165498 -0.001989 -0.086501
v -0.002383 -0.001989 0.086501
v 0.165498 -0.001989 0.086501
v 0.132143 -0.098960 -0.086501
v -0.002383 -0.098960 0.086501
v -0.002383 -0.098960 -0.086501
v 0.132143 -0.098960 0.086501
vt 0.097777 0.713714
vt 0.059446 0.661294
vt 0.097777 0.661294
vt 0.059446 0.588320
vt 0.005070 0.661294
vt 0.005070 0.588320
vt 0.059446 0.713714
vt 0.005070 0.766134
vt 0.005070 0.713714
vt 0.175437 0.713714
vt 0.137398 0.766134
vt 0.137390 0.713714
vt 0.059446 0.766134
vt 0.005070 0.839241
vt 0.097777 0.766134
vt 0.137382 0.661294
vt 0.175437 0.661294
vt 0.175437 0.766134
vt 0.059446 0.839241
vn 0.6566 -0.1098 -0.7462
vn 0.5774 -0.5774 0.5774
vn 0.5774 -0.5774 -0.5774
vn -0.5774 -0.5774 0.5774
vn -0.5774 -0.5774 -0.5774
vn 0.6566 -0.1098 0.7462
vn -0.5774 0.5774 0.5774
vn -0.7071 -0.0000 0.7071
vn -0.5774 0.5774 -0.5774
vn -0.7071 0.0000 -0.7071
vn 0.6734 0.4805 0.5619
vn 0.6734 0.4805 -0.5619
usemtl frank3Dtex
s 1
f 9/1/1 4/2/2 2/3/3
f 2/4/3 3/5/4 1/6/5
f 12/7/6 7/8/7 10/9/8
f 10/10/8 5/11/9 11/12/10
f 8/13/11 5/14/9 7/8/7
f 9/1/1 5/11/9 6/15/12
f 2/4/3 4/2/2 3/5/4
f 12/7/6 3/5/4 4/2/2
f 9/1/1 12/7/6 4/2/2
f 10/10/8 1/16/5 3/17/4
f 6/15/12 12/7/6 9/1/1
f 2/3/3 11/12/10 9/1/1
f 12/7/6 8/13/11 7/8/7
f 10/10/8 7/18/7 5/11/9
f 8/13/11 6/19/12 5/14/9
f 9/1/1 11/12/10 5/11/9
f 12/7/6 10/9/8 3/5/4
f 10/10/8 11/12/10 1/16/5
f 6/15/12 8/13/11 12/7/6
f 2/3/3 1/16/5 11/12/10
