# Blender v3.0.1 OBJ File: 'andre3d_nooutlines.blend'
# www.blender.org
mtllib skin_andre_leftfoot.mtl
o Andre_leftfoot_Cube.002
v -0.003383 -0.282988 -0.086501
v 0.216460 -0.282988 -0.086501
v -0.003383 -0.282988 0.086501
v 0.216460 -0.282988 0.086501
v -0.003383 -0.000989 -0.086501
v 0.131143 -0.000989 -0.086501
v -0.003383 -0.000989 0.086501
v 0.131143 -0.000989 0.086501
v 0.131143 -0.203407 -0.086501
v 0.131143 -0.203407 0.086501
v 0.195912 -0.232552 0.086501
v 0.195912 -0.232552 -0.086501
vt 0.059446 0.718665
vt 0.097777 0.660671
vt 0.097777 0.718665
vt 0.059446 0.660140
vt 0.005070 0.588320
vt 0.059446 0.588320
vt 0.059446 0.660140
vt 0.005070 0.766134
vt 0.005070 0.660140
vt 0.175437 0.660140
vt 0.137398 0.766134
vt 0.137390 0.660140
vt 0.059446 0.839241
vt 0.005070 0.839241
vt 0.097777 0.660140
vt 0.097777 0.766134
vt 0.059446 0.660140
vt 0.059446 0.766134
vt 0.097777 0.660140
vt 0.097777 0.766475
vt 0.097777 0.660140
vt 0.059446 0.660671
vt 0.175437 0.766134
vt 0.059446 0.766475
vn 0.5576 0.5379 0.6323
vn 0.6877 -0.4624 -0.5597
vn 0.5576 0.5379 -0.6323
vn 0.6877 -0.4624 0.5597
vn -0.5774 -0.5774 -0.5774
vn 0.4399 0.2844 0.8518
vn -0.5774 0.5774 0.5774
vn -0.5774 -0.5774 0.5774
vn -0.5774 0.5774 -0.5774
vn 0.5774 0.5774 -0.5774
vn 0.4399 0.2844 -0.8518
vn 0.5774 0.5774 0.5774
usemtl andre3Dtex
s 1
f 11/1/1 2/2/2 12/3/3
f 4/4/4 1/5/5 2/6/2
f 10/7/6 7/8/7 3/9/8
f 3/10/8 5/11/9 1/12/5
f 7/8/7 6/13/10 5/14/9
f 9/15/11 5/11/9 6/16/10
f 4/4/4 11/17/1 3/9/8
f 8/18/12 9/15/11 6/16/10
f 9/15/11 12/19/3 1/12/5
f 9/20/11 11/1/1 12/3/3
f 3/9/8 11/17/1 10/7/6
f 1/12/5 12/19/3 2/21/2
f 11/1/1 4/22/4 2/2/2
f 4/4/4 3/9/8 1/5/5
f 10/7/6 8/18/12 7/8/7
f 3/10/8 7/23/7 5/11/9
f 7/8/7 8/18/12 6/13/10
f 9/15/11 1/12/5 5/11/9
f 8/18/12 10/7/6 9/15/11
f 9/20/11 10/24/6 11/1/1
