# Blender v3.0.1 OBJ File: 'soothe3d_nooutline.blend'
# www.blender.org
mtllib skin_soothe_body.mtl
o OvO.020_Cube.014
v -0.148522 0.266021 -0.071418
v -0.148522 -0.219640 -0.071418
v -0.148522 0.266021 0.071418
v -0.148522 -0.219640 0.071418
v -0.131104 0.254980 -0.071091
v -0.131104 0.254980 0.071091
v 0.000000 0.254980 0.000000
v 0.148522 0.266021 -0.071418
v 0.148522 -0.219640 -0.071418
v 0.148522 0.266021 0.071418
v 0.148522 -0.219640 0.071418
v 0.131104 0.254980 -0.071091
v 0.131104 0.254980 0.071091
vt 0.315967 0.338823
vt 0.715350 0.350819
vt 0.690471 0.338823
vt 0.715350 -0.176852
vt 0.291088 0.350819
vt 0.715350 0.350819
vt 0.503219 0.338823
vt 0.690471 0.338823
vt 0.315967 0.338823
vt 0.291088 0.350819
vt 0.291088 -0.176852
vt 0.715350 -0.176852
vt 0.291088 -0.176852
vn 0.2105 0.7404 -0.6383
vn 0.4048 0.7293 0.5516
vn -0.2105 0.7404 -0.6383
vn 0.5774 -0.5774 -0.5774
vn -0.4048 0.7293 -0.5516
vn 0.4048 0.7293 -0.5516
vn 0.0000 1.0000 0.0000
vn -0.2105 0.7404 0.6383
vn 0.2105 0.7404 0.6383
vn -0.4048 0.7293 0.5516
vn -0.5774 -0.5774 0.5774
vn 0.5774 -0.5774 0.5774
vn -0.5774 -0.5774 -0.5774
usemtl frank3Dtex3
s 1
f 6/1/1 10/2/2 13/3/3
f 9/4/4 1/5/5 8/6/6
f 7/7/7 12/8/8 5/9/9
f 6/1/1 1/5/5 3/10/10
f 5/9/9 6/1/1 7/7/7
f 1/5/5 4/11/11 3/10/10
f 11/12/12 3/10/10 4/11/11
f 9/4/4 4/11/11 2/13/13
f 13/3/3 7/7/7 6/1/1
f 8/6/6 13/3/3 10/2/2
f 12/8/8 7/7/7 13/3/3
f 11/12/12 8/6/6 10/2/2
f 12/8/8 1/5/5 5/9/9
f 6/1/1 3/10/10 10/2/2
f 9/4/4 2/13/13 1/5/5
f 6/1/1 5/9/9 1/5/5
f 1/5/5 2/13/13 4/11/11
f 11/12/12 10/2/2 3/10/10
f 9/4/4 11/12/12 4/11/11
f 8/6/6 12/8/8 13/3/3
f 11/12/12 9/4/4 8/6/6
f 12/8/8 8/6/6 1/5/5
