# Blender v3.0.1 OBJ File: 'pulse3d_nooutline.blend'
# www.blender.org
mtllib pulse3d_leftfoot.mtl
o Pulse.006_Cube.021
v -0.003123 -0.283988 -0.057814
v 0.092883 -0.283988 -0.057814
v -0.003123 -0.283988 0.102902
v 0.092883 -0.283988 0.102902
v -0.003123 -0.001989 -0.057814
v 0.092883 -0.001989 -0.057814
v -0.003123 -0.001989 0.059368
v 0.092883 -0.001989 0.059368
v 0.092883 -0.193748 0.059368
v -0.003123 -0.193748 0.059368
vt 0.097777 0.661162
vt 0.059446 0.694843
vt 0.059446 0.661162
vt 0.059446 0.661294
vt 0.005070 0.588320
vt 0.059446 0.588320
vt 0.059446 0.766134
vt 0.005070 0.694843
vt 0.137398 0.766134
vt 0.097777 0.766134
vt 0.005070 0.839241
vt 0.005070 0.766134
vt 0.175437 0.694843
vt 0.137387 0.661162
vt 0.005070 0.661162
vt 0.175437 0.661162
vt 0.005070 0.661294
vt 0.059446 0.839241
vt 0.175437 0.766134
vn 0.5774 -0.5774 -0.5774
vn 0.7609 0.1446 0.6326
vn 0.5573 -0.4415 0.7032
vn -0.5774 -0.5774 -0.5774
vn 0.5774 0.5774 0.5774
vn -0.7609 0.1446 0.6326
vn -0.5774 0.5774 -0.5774
vn 0.5774 0.5774 -0.5774
vn -0.5774 0.5774 0.5774
vn -0.5573 -0.4415 0.7032
usemtl frank3Dtex
s 1
f 2/1/1 9/2/2 4/3/3
f 4/4/3 1/5/4 2/6/1
f 8/7/5 10/8/6 9/2/2
f 2/1/1 5/9/7 6/10/8
f 8/7/5 5/11/7 7/12/9
f 10/13/6 5/9/7 1/14/4
f 9/2/2 3/15/10 4/3/3
f 3/16/10 10/13/6 1/14/4
f 6/10/8 9/2/2 2/1/1
f 4/4/3 3/17/10 1/5/4
f 8/7/5 7/12/9 10/8/6
f 2/1/1 1/14/4 5/9/7
f 8/7/5 6/18/8 5/11/7
f 10/13/6 7/19/9 5/9/7
f 9/2/2 10/8/6 3/15/10
f 6/10/8 8/7/5 9/2/2
