# Blender v3.0.1 OBJ File: 'ancient3d_nooutlines.blend'
# www.blender.org
mtllib ancient_leftleg.mtl
o Ancient_LeftLeg_Cube.003
v -0.002352 -0.260732 -0.083347
v 0.132174 -0.260732 -0.083347
v -0.002352 -0.260732 0.083353
v 0.132174 -0.260732 0.083353
v 0.064879 0.022597 -0.068943
v 0.064879 0.022597 0.068949
v -0.001470 -0.130588 0.083353
v -0.001470 -0.130588 -0.083347
v 0.064911 -0.127859 -0.083347
v 0.064911 -0.127859 0.083353
v 0.131292 -0.129193 -0.083347
v 0.131292 -0.129193 0.083353
v 0.131525 -0.005489 -0.087042
v -0.002445 -0.005144 0.087048
v 0.064879 -0.012982 -0.087042
v -0.002445 -0.005144 -0.087042
v 0.064879 -0.012982 0.087048
v 0.131525 -0.005489 0.087048
vt 0.352169 0.845160
vt 0.393888 0.869867
vt 0.393888 0.817044
vt 0.324976 0.955487
vt 0.307288 0.954654
vt 0.325034 0.985945
vt 0.325034 0.817029
vt 0.325034 0.766303
vt 0.307288 0.766303
vt 0.348021 0.870940
vt 0.348021 0.922878
vt 0.452138 0.985945
vt 0.452138 0.922878
vt 0.393888 0.922878
vt 0.307288 0.845160
vt 0.393888 0.985945
vt 0.348021 0.817034
vt 0.325034 0.922878
vt 0.348021 0.766303
vt 0.393888 0.766303
vt 0.352169 0.954987
vt 0.327108 0.845160
vt 0.325034 0.870940
vt 0.348021 0.985945
vn 0.0005 -0.0160 -0.9999
vn 0.5795 -0.5756 -0.5770
vn -0.5795 -0.5756 -0.5770
vn 0.0009 0.2006 0.9797
vn 0.0034 0.9104 0.4137
vn -0.6429 0.4530 0.6176
vn -0.6429 0.4530 -0.6176
vn 0.7094 -0.0087 -0.7047
vn 0.7094 -0.0087 0.7047
vn 0.5795 -0.5756 0.5770
vn 0.0034 0.9104 -0.4137
vn -0.5795 -0.5756 0.5770
vn -0.7088 -0.0111 -0.7053
vn 0.6424 0.4517 0.6191
vn -0.7088 -0.0111 0.7053
vn 0.0005 -0.0160 0.9999
vn 0.0009 0.2006 -0.9797
vn 0.6424 0.4517 -0.6191
usemtl frank3Dtex
s 1
f 9/1/1 2/2/2 1/3/3
f 17/4/4 6/5/5 14/6/6
f 16/7/7 14/8/6 6/9/5
f 2/2/2 11/10/8 12/11/9
f 1/12/3 2/13/2 4/14/10
f 16/7/7 6/9/5 5/15/11
f 1/12/3 4/14/10 3/16/12
f 9/1/1 1/3/3 8/17/13
f 2/2/2 12/11/9 4/14/10
f 18/18/14 6/5/5 17/4/4
f 11/10/8 2/2/2 9/1/1
f 1/3/3 7/19/15 8/17/13
f 1/3/3 3/20/12 7/19/15
f 3/16/12 4/14/10 10/21/16
f 15/22/17 9/1/1 8/17/13
f 13/23/18 11/10/8 9/1/1
f 4/14/10 12/11/9 10/21/16
f 11/10/8 13/23/18 18/18/14
f 5/15/11 6/5/5 18/18/14
f 5/15/11 13/23/18 15/22/17
f 5/15/11 15/22/17 16/7/7
f 10/21/16 12/11/9 18/18/14
f 8/17/13 7/19/15 14/8/6
f 7/24/15 10/21/16 17/4/4
f 3/16/12 10/21/16 7/24/15
f 15/22/17 8/17/13 16/7/7
f 13/23/18 9/1/1 15/22/17
f 11/10/8 18/18/14 12/11/9
f 5/15/11 18/18/14 13/23/18
f 10/21/16 18/18/14 17/4/4
f 8/17/13 14/8/6 16/7/7
f 7/24/15 17/4/4 14/6/6
