# Blender v3.0.1 OBJ File: 'ancient3d_nooutlines.blend'
# www.blender.org
mtllib ancient_righhand.mtl
o Ancient_RightHand_Cube.016
v -0.001972 0.000153 0.086501
v 0.132553 0.000153 0.086501
v -0.001972 0.000153 -0.086501
v 0.132553 0.000153 -0.086501
v -0.001972 -0.281845 0.086501
v 0.132553 -0.281845 0.086501
v -0.001972 -0.281845 -0.086501
v 0.132553 -0.281845 -0.086501
vt 0.825145 0.817044
vt 0.917094 0.870940
vt 0.917094 0.817024
vt 0.825145 0.766134
vt 0.971857 0.985945
vt 0.917094 0.922033
vt 0.917094 0.985945
vt 0.825145 0.985945
vt 0.769328 0.922033
vt 0.769328 0.985945
vt 0.825145 0.922033
vt 0.825145 0.870940
vt 0.917094 0.766134
vt 0.971857 0.922033
vn 0.5774 -0.5774 -0.5774
vn -0.5774 0.5774 -0.5774
vn 0.5774 0.5774 -0.5774
vn 0.5774 -0.5774 0.5774
vn -0.5774 0.5774 0.5774
vn 0.5774 0.5774 0.5774
vn -0.5774 -0.5774 -0.5774
vn -0.5774 -0.5774 0.5774
usemtl frank3Dtex
s 1
f 8/1/1 3/2/2 4/3/3
f 4/3/3 6/4/4 8/1/1
f 4/5/3 1/6/5 2/7/6
f 6/8/4 7/9/7 8/10/1
f 2/7/6 5/11/8 6/8/4
f 5/11/8 3/2/2 7/12/7
f 8/1/1 7/12/7 3/2/2
f 4/3/3 2/13/6 6/4/4
f 4/5/3 3/14/2 1/6/5
f 6/8/4 5/11/8 7/9/7
f 2/7/6 1/6/5 5/11/8
f 5/11/8 1/6/5 3/2/2
