# Blender v3.0.1 OBJ File: 'pulse3d_nooutline.blend'
# www.blender.org
mtllib pulse3d_leftarm.mtl
o Pulse.002_Cube.001
v -0.041412 -0.280840 -0.136473
v 0.170831 -0.280840 -0.136473
v -0.041412 -0.280840 0.136473
v 0.170831 -0.280840 0.136473
v -0.002553 -0.002177 -0.086501
v 0.131972 -0.002177 -0.086501
v -0.002553 -0.002177 0.086501
v 0.131972 -0.002177 0.086501
vt 0.393716 0.922033
vt 0.393716 0.870940
vt 0.301767 0.870940
vt 0.393716 0.985945
vt 0.449533 0.985945
vt 0.449533 0.922033
vt 0.393716 0.817044
vt 0.301767 0.817024
vt 0.301767 0.985945
vt 0.393716 0.766134
vt 0.247004 0.985945
vt 0.301767 0.922033
vt 0.301767 0.766134
vt 0.247004 0.922033
vn 0.6078 -0.4949 0.6211
vn 0.6078 -0.4949 -0.6211
vn 0.5395 0.6591 -0.5240
vn -0.6078 -0.4949 0.6211
vn -0.6078 -0.4949 -0.6211
vn -0.5395 0.6591 -0.5240
vn -0.5395 0.6591 0.5240
vn 0.5395 0.6591 0.5240
usemtl frank3Dtex
s 1
f 4/1/1 2/2/2 6/3/3
f 3/4/4 1/5/5 2/6/2
f 1/7/5 5/8/6 6/3/3
f 7/9/7 3/4/4 4/1/1
f 5/8/6 1/7/5 3/10/4
f 5/11/6 7/9/7 8/12/8
f 4/1/1 6/3/3 8/12/8
f 3/4/4 2/6/2 4/1/1
f 1/7/5 6/3/3 2/2/2
f 7/9/7 4/1/1 8/12/8
f 5/8/6 3/10/4 7/13/7
f 5/11/6 8/12/8 6/14/3
