# Blender v3.0.1 OBJ File: 'andre3d_nooutlines.blend'
# www.blender.org
mtllib skin_andre_rightfoot.mtl
o Andre_rightfoot_Cube.001
v 0.217700 -0.283988 -0.086501
v -0.002143 -0.283988 -0.086501
v 0.217700 -0.283988 0.086501
v -0.002143 -0.283988 0.086501
v 0.132383 -0.001989 -0.086501
v -0.002143 -0.001989 -0.086501
v 0.132383 -0.001989 0.086501
v -0.002143 -0.001989 0.086501
v 0.132383 -0.204407 0.086501
v 0.132383 -0.204407 -0.086501
v 0.197152 -0.233552 -0.086501
v 0.197152 -0.233552 0.086501
vt 0.941135 0.661854
vt 0.995512 0.588320
vt 0.995512 0.661854
vt 0.825145 0.718665
vt 0.863199 0.766475
vt 0.863193 0.718665
vt 0.995512 0.661854
vt 0.995512 0.661854
vt 0.995512 0.766134
vt 0.941135 0.839241
vt 0.941135 0.766134
vt 0.902805 0.766134
vt 0.902805 0.661854
vt 0.863199 0.661854
vt 0.863193 0.661854
vt 0.825145 0.766134
vt 0.863193 0.661854
vt 0.863183 0.766134
vt 0.863193 0.660671
vt 0.941135 0.588320
vt 0.825145 0.766475
vt 0.995512 0.839241
vt 0.825145 0.661854
vt 0.825145 0.660671
vn -0.5774 -0.5774 0.5774
vn 0.6877 -0.4624 -0.5597
vn 0.6877 -0.4624 0.5597
vn 0.5576 0.5379 0.6323
vn 0.5576 0.5379 -0.6323
vn 0.4399 0.2844 0.8518
vn 0.5774 0.5774 0.5774
vn -0.5774 0.5774 -0.5774
vn -0.5774 0.5774 0.5774
vn -0.5774 -0.5774 -0.5774
vn 0.4399 0.2844 -0.8518
vn 0.5774 0.5774 -0.5774
usemtl andre3Dtex
s 1
f 4/1/1 1/2/2 3/3/3
f 12/4/4 1/5/2 11/6/5
f 9/7/6 4/1/1 12/8/4
f 7/9/7 6/10/8 8/11/9
f 4/1/1 6/12/8 2/13/10
f 1/14/2 2/13/10 11/15/5
f 8/11/9 9/7/6 7/9/7
f 7/16/7 10/17/11 5/18/12
f 10/17/11 6/12/8 5/18/12
f 10/19/11 12/4/4 11/6/5
f 12/8/4 4/1/1 3/3/3
f 11/15/5 2/13/10 10/17/11
f 4/1/1 2/20/10 1/2/2
f 12/4/4 3/21/3 1/5/2
f 7/9/7 5/22/12 6/10/8
f 4/1/1 8/11/9 6/12/8
f 8/11/9 4/1/1 9/7/6
f 7/16/7 9/23/6 10/17/11
f 10/17/11 2/13/10 6/12/8
f 10/19/11 9/24/6 12/4/4
