# Blender v3.0.1 OBJ File: 'batter3d_nooutlines.blend'
# www.blender.org
mtllib skin_batter_rightarm.mtl
o Batter_rightarm_Cube.003
v 0.144984 -0.276053 -0.102486
v -0.014403 -0.276053 -0.102486
v 0.144984 -0.276053 0.102487
v -0.014403 -0.276053 0.102487
v 0.132553 -0.002177 -0.086501
v -0.001972 -0.002177 -0.086501
v 0.132553 -0.002177 0.086501
v -0.001972 -0.002177 0.086501
v 0.144984 -0.086222 -0.102486
v -0.014403 -0.086222 0.102487
v 0.144984 -0.086222 0.102487
v -0.014403 -0.086222 -0.102486
vt 0.673779 0.922033
vt 0.606586 0.870940
vt 0.606586 0.922033
vt 0.673779 0.817029
vt 0.606586 0.817044
vt 0.698535 0.766134
vt 0.698535 0.817024
vt 0.698535 0.985945
vt 0.673779 0.985945
vt 0.550769 0.985945
vt 0.606586 0.985945
vt 0.673779 0.870940
vt 0.673779 0.766134
vt 0.753298 0.922033
vt 0.753298 0.985945
vt 0.698535 0.922033
vt 0.550769 0.922033
vt 0.698535 0.870940
vt 0.606586 0.766134
vn -0.6989 0.1115 0.7064
vn -0.5774 -0.5774 -0.5774
vn -0.5774 -0.5774 0.5774
vn 0.6989 0.1115 -0.7064
vn 0.5774 -0.5774 -0.5774
vn 0.5370 0.6638 0.5206
vn 0.5370 0.6638 -0.5206
vn 0.6989 0.1115 0.7064
vn 0.5774 -0.5774 0.5774
vn -0.6989 0.1115 -0.7064
vn -0.5370 0.6638 -0.5206
vn -0.5370 0.6638 0.5206
usemtl frank3Dtex
s 1
f 10/1/1 2/2/2 4/3/3
f 2/2/2 9/4/4 1/5/5
f 7/6/6 9/4/4 5/7/7
f 7/8/6 10/1/1 11/9/8
f 4/3/3 1/10/5 3/11/9
f 12/12/10 5/7/7 9/4/4
f 10/1/1 3/11/9 11/9/8
f 11/13/8 1/5/5 9/4/4
f 6/14/11 7/8/6 5/15/7
f 8/16/12 12/12/10 10/1/1
f 10/1/1 12/12/10 2/2/2
f 2/2/2 12/12/10 9/4/4
f 7/6/6 11/13/8 9/4/4
f 7/8/6 8/16/12 10/1/1
f 4/3/3 2/17/2 1/10/5
f 12/12/10 6/18/11 5/7/7
f 10/1/1 4/3/3 3/11/9
f 11/13/8 3/19/9 1/5/5
f 6/14/11 8/16/12 7/8/6
f 8/16/12 6/18/11 12/12/10
