# Blender v3.0.1 OBJ File: 'gfcock3D_nooutlines.blend'
# www.blender.org
mtllib skin_grandfather_rightfoot.mtl
o GFClock.012_Cube.011
v 0.131493 -0.289010 0.001419
v -0.003032 -0.289010 0.001419
v 0.131493 -0.004014 0.001419
v -0.003033 -0.004014 0.001419
v 0.131493 -0.289010 -0.001703
v -0.003032 -0.289010 -0.001703
v 0.131493 -0.004014 -0.001703
v -0.003033 -0.004014 -0.001703
vt 0.810311 0.554213
vt 0.987760 0.445032
vt 0.987760 0.554213
vt 0.810311 0.445032
vt 0.810311 0.554213
vt 0.987760 0.554213
vt 0.987760 0.445032
vt 0.810311 0.445032
vn 0.0000 0.0000 1.0000
vn 0.0000 0.0000 -1.0000
usemtl gfcock3dtex
s 1
f 3/1/1 2/2/1 1/3/1
f 3/1/1 4/4/1 2/2/1
f 7/5/2 5/6/2 6/7/2
f 7/5/2 6/7/2 8/8/2
