# Blender v3.0.1 OBJ File: 'astronaut3d_nooutlines.blend'
# www.blender.org
mtllib skin_astronaut_leftfoot.mtl
o Astronaut_leftfoot_Cube.021
v 0.024697 -0.283988 -0.056688
v 0.131877 -0.283988 -0.056688
v 0.024697 -0.283988 0.056688
v 0.131877 -0.283988 0.056688
v -0.002383 -0.001989 -0.086501
v 0.132143 -0.001989 -0.086501
v -0.002383 -0.001989 0.086501
v 0.132143 -0.001989 0.086501
v 0.108732 -0.213488 -0.058069
v 0.023939 -0.231113 0.057724
v 0.108732 -0.213488 0.058069
v 0.023939 -0.231113 -0.057724
v 0.132143 -0.142989 0.086501
v -0.002383 -0.142989 -0.086501
v -0.002383 -0.142989 0.086501
v 0.132143 -0.142989 -0.086501
v 0.137539 -0.236019 -0.057379
v 0.137539 -0.236019 0.057379
v 0.023746 -0.160614 0.057987
v 0.108671 -0.160614 -0.057987
v 0.023746 -0.160614 -0.057987
v 0.108671 -0.160614 0.057987
vt 0.059446 0.676462
vt 0.097777 0.661294
vt 0.097777 0.676462
vt 0.059446 0.661294
vt 0.005070 0.588320
vt 0.059446 0.588320
vt 0.059446 0.766134
vt 0.005070 0.724144
vt 0.059446 0.724144
vt 0.097777 0.724144
vt 0.137398 0.766134
vt 0.097777 0.766134
vt 0.005070 0.766134
vt 0.059446 0.839241
vt 0.005070 0.839241
vt 0.175437 0.724144
vt 0.137390 0.724144
vt 0.137385 0.685545
vt 0.005070 0.707741
vt 0.059446 0.707741
vt 0.059446 0.692356
vt 0.005070 0.681760
vt 0.137389 0.707741
vt 0.175437 0.707741
vt 0.175437 0.685545
vt 0.097777 0.692356
vt 0.005070 0.661294
vt 0.097777 0.707741
vt 0.137382 0.661294
vt 0.175437 0.661294
vt 0.175437 0.766134
vn 0.7321 0.2981 0.6126
vn 0.5404 -0.6111 -0.5784
vn 0.7321 0.2981 -0.6126
vn 0.5404 -0.6111 0.5784
vn -0.5738 -0.5862 -0.5719
vn 0.5774 0.5774 0.5774
vn -0.6290 -0.4523 0.6323
vn 0.6289 -0.4465 0.6364
vn 0.6289 -0.4465 -0.6364
vn -0.5774 0.5774 -0.5774
vn 0.5774 0.5774 -0.5774
vn -0.5774 0.5774 0.5774
vn -0.6290 -0.4523 -0.6323
vn -0.7069 -0.0150 -0.7071
vn -0.5198 -0.6939 0.4983
vn 0.5426 -0.6784 0.4953
vn 0.5147 0.2360 0.8242
vn -0.7069 -0.0150 0.7071
vn -0.5198 -0.6939 -0.4983
vn 0.5147 0.2360 -0.8242
vn -0.5738 -0.5862 0.5719
vn 0.5426 -0.6784 -0.4953
usemtl frank3Dtex
s 1
f 18/1/1 2/2/2 17/3/3
f 4/4/4 1/5/5 2/6/2
f 8/7/6 15/8/7 13/9/8
f 16/10/9 5/11/10 6/12/11
f 7/13/12 6/14/11 5/15/10
f 15/16/7 5/11/10 14/17/13
f 2/2/2 12/18/14 17/3/3
f 13/9/8 19/19/15 22/20/16
f 11/21/17 19/19/15 10/22/18
f 18/1/1 11/21/17 10/22/18
f 15/16/7 21/23/19 19/24/15
f 6/12/11 13/9/8 16/10/9
f 19/24/15 12/18/14 10/25/18
f 9/26/20 18/1/1 17/3/3
f 9/26/20 17/3/3 12/18/14
f 4/4/4 10/22/18 3/27/21
f 16/10/9 21/23/19 14/17/13
f 13/9/8 20/28/22 16/10/9
f 9/26/20 21/23/19 20/28/22
f 10/25/18 1/29/5 3/30/21
f 20/28/22 11/21/17 9/26/20
f 18/1/1 4/4/4 2/2/2
f 4/4/4 3/27/21 1/5/5
f 8/7/6 7/13/12 15/8/7
f 16/10/9 14/17/13 5/11/10
f 7/13/12 8/7/6 6/14/11
f 15/16/7 7/31/12 5/11/10
f 2/2/2 1/29/5 12/18/14
f 13/9/8 15/8/7 19/19/15
f 11/21/17 22/20/16 19/19/15
f 15/16/7 14/17/13 21/23/19
f 6/12/11 8/7/6 13/9/8
f 19/24/15 21/23/19 12/18/14
f 9/26/20 11/21/17 18/1/1
f 4/4/4 18/1/1 10/22/18
f 16/10/9 20/28/22 21/23/19
f 13/9/8 22/20/16 20/28/22
f 9/26/20 12/18/14 21/23/19
f 10/25/18 12/18/14 1/29/5
f 20/28/22 22/20/16 11/21/17
