# Blender v3.0.1 OBJ File: 'batter3d_nooutlines.blend'
# www.blender.org
mtllib skin_batter_leftfoot.mtl
o Batter_leftfoot_Cube.011
v 0.001395 -0.235100 0.065574
v 0.152423 -0.217583 -0.065574
v 0.152423 -0.217583 0.065574
v 0.001395 -0.235100 -0.065574
v 0.103565 -0.204177 -0.065574
v 0.103565 -0.204177 0.065574
v 0.153281 -0.283988 -0.065574
v 0.001395 -0.283988 -0.065574
v 0.153281 -0.283988 0.065574
v 0.001395 -0.283988 0.065574
v 0.103565 -0.001989 -0.065574
v 0.001395 -0.001989 -0.065574
v 0.103565 -0.001989 0.065574
v 0.001395 -0.001989 0.065574
vt 0.059451 0.661294
vt 0.005074 0.588320
vt 0.005074 0.661294
vt 0.137388 0.673411
vt 0.175441 0.661294
vt 0.137386 0.661294
vt 0.137390 0.692762
vt 0.097781 0.766134
vt 0.137403 0.766134
vt 0.097781 0.679469
vt 0.059451 0.679469
vt 0.005074 0.673411
vt 0.059451 0.766134
vt 0.175441 0.766134
vt 0.005074 0.839241
vt 0.005074 0.766134
vt 0.005074 0.692762
vt 0.097781 0.661294
vt 0.175441 0.692762
vt 0.059451 0.588320
vt 0.175441 0.673411
vt 0.059451 0.839241
vn -0.5774 -0.5774 0.5774
vn 0.5814 -0.5739 -0.5767
vn 0.5814 -0.5739 0.5767
vn 0.6368 0.4921 -0.5936
vn 0.3896 0.2971 -0.8717
vn -0.5774 0.5774 -0.5774
vn 0.5774 0.5774 -0.5774
vn -0.7071 0.0000 -0.7071
vn -0.7071 -0.0000 0.7071
vn 0.6368 0.4921 0.5936
vn -0.5774 0.5774 0.5774
vn 0.5774 0.5774 0.5774
vn 0.3896 0.2971 0.8717
vn -0.5774 -0.5774 -0.5774
usemtl frank3Dtex
s 1
f 10/1/1 7/2/2 9/3/3
f 2/4/4 9/5/3 7/6/2
f 5/7/5 12/8/6 11/9/7
f 2/4/4 4/10/8 5/7/5
f 1/11/9 9/3/3 3/12/10
f 14/13/11 4/10/8 1/11/9
f 13/14/12 5/7/5 11/9/7
f 11/15/7 14/13/11 13/16/12
f 14/13/11 6/17/13 13/16/12
f 1/11/9 8/18/14 10/1/1
f 6/17/13 1/11/9 3/12/10
f 7/6/2 4/10/8 2/4/4
f 6/19/13 2/4/4 5/7/5
f 10/1/1 8/20/14 7/2/2
f 2/4/4 3/21/10 9/5/3
f 5/7/5 4/10/8 12/8/6
f 1/11/9 10/1/1 9/3/3
f 14/13/11 12/8/6 4/10/8
f 13/14/12 6/19/13 5/7/5
f 11/15/7 12/22/6 14/13/11
f 14/13/11 1/11/9 6/17/13
f 1/11/9 4/10/8 8/18/14
f 7/6/2 8/18/14 4/10/8
f 6/19/13 3/21/10 2/4/4
