# Blender v3.0.1 OBJ File: 'batter3d_nooutlines.blend'
# www.blender.org
mtllib skin_batter_rightleg.mtl
o Batter_rightleg.001_Cube.010
v -0.002143 0.001043 0.086501
v 0.132383 0.001043 0.086501
v -0.002143 0.001043 -0.086501
v 0.132383 0.001043 -0.086501
v -0.010512 -0.280956 0.093961
v 0.140752 -0.280956 0.093961
v -0.010512 -0.280956 -0.093961
v 0.140752 -0.280956 -0.093961
v 0.147845 -0.219233 0.106385
v -0.017605 -0.219233 -0.106385
v 0.147845 -0.219233 -0.106385
v -0.017605 -0.219233 0.106385
v -0.002143 -0.169398 -0.086501
v 0.132383 -0.169398 0.086501
v 0.132383 -0.169398 -0.086501
v -0.002143 -0.169398 0.086501
vt 0.722576 0.704167
vt 0.684246 0.684241
vt 0.722576 0.684241
vt 0.606586 0.704167
vt 0.644637 0.684241
vt 0.644634 0.704167
vt 0.776953 0.661294
vt 0.776953 0.684241
vt 0.684246 0.704167
vt 0.644624 0.766134
vt 0.722576 0.661294
vt 0.776953 0.588320
vt 0.776953 0.704167
vt 0.722576 0.766134
vt 0.776953 0.766134
vt 0.606586 0.766134
vt 0.684246 0.766134
vt 0.684246 0.661294
vt 0.722576 0.839241
vt 0.606586 0.684241
vt 0.644641 0.661294
vt 0.722576 0.588320
vt 0.776953 0.839241
vt 0.606586 0.661294
vn -0.6964 0.2566 0.6702
vn -0.6877 0.1069 -0.7181
vn -0.6877 0.1069 0.7181
vn 0.6964 0.2566 0.6702
vn 0.6877 0.1069 -0.7181
vn 0.6964 0.2566 -0.6702
vn 0.5490 -0.6578 0.5156
vn 0.6877 0.1069 0.7181
vn -0.6964 0.2566 -0.6702
vn 0.5774 0.5774 -0.5774
vn -0.5490 -0.6578 0.5156
vn 0.5490 -0.6578 -0.5156
vn -0.5774 0.5774 0.5774
vn 0.5774 0.5774 0.5774
vn -0.5774 0.5774 -0.5774
vn -0.5490 -0.6578 -0.5156
usemtl frank3Dtex
s 1
f 16/1/1 10/2/2 12/3/3
f 14/4/4 11/5/5 15/6/6
f 12/3/3 6/7/7 9/8/8
f 13/9/9 4/10/10 15/6/6
f 5/11/11 8/12/12 6/7/7
f 14/13/4 12/3/3 9/8/8
f 1/14/13 14/13/4 2/15/14
f 2/16/14 15/6/6 4/10/10
f 10/2/2 15/6/6 11/5/5
f 16/1/1 3/17/15 13/9/9
f 5/11/11 10/2/2 7/18/16
f 2/15/14 3/19/15 1/14/13
f 9/20/8 8/21/12 11/5/5
f 7/18/16 11/5/5 8/21/12
f 16/1/1 13/9/9 10/2/2
f 14/4/4 9/20/8 11/5/5
f 12/3/3 5/11/11 6/7/7
f 13/9/9 3/17/15 4/10/10
f 5/11/11 7/22/16 8/12/12
f 14/13/4 16/1/1 12/3/3
f 1/14/13 16/1/1 14/13/4
f 2/16/14 14/4/4 15/6/6
f 10/2/2 13/9/9 15/6/6
f 16/1/1 1/14/13 3/17/15
f 5/11/11 12/3/3 10/2/2
f 2/15/14 4/23/10 3/19/15
f 9/20/8 6/24/7 8/21/12
f 7/18/16 10/2/2 11/5/5
