# Blender v3.0.1 OBJ File: 'darkknight3D_nooutlines.blend'
# www.blender.org
mtllib skin_darkknight_lefthand.mtl
o DarkKnight.006_Cube.018
v 0.161345 0.000153 0.124274
v -0.031926 0.000153 0.124274
v 0.161345 0.000153 -0.124274
v -0.031926 0.000153 -0.124274
v 0.131972 -0.281845 0.086501
v -0.002553 -0.281845 0.086501
v 0.131972 -0.281845 -0.086501
v -0.002553 -0.281845 -0.086501
v 0.131972 -0.151909 -0.086501
v 0.131972 -0.151909 0.086501
v -0.002553 -0.151909 0.086501
v -0.002553 -0.151909 -0.086501
vt 0.083488 0.766134
vt 0.129462 0.817034
vt 0.129462 0.766134
vt 0.028725 0.922033
vt 0.083488 0.985945
vt 0.083488 0.922033
vt 0.175437 0.922033
vt 0.231254 0.985945
vt 0.231254 0.922033
vt 0.129462 0.985945
vt 0.129462 0.922033
vt 0.175437 0.870940
vt 0.129462 0.870940
vt 0.175437 0.817044
vt 0.175437 0.766134
vt 0.175437 0.985945
vt 0.083488 0.870940
vt 0.083488 0.817024
vt 0.028725 0.985945
vn -0.6173 0.4647 0.6348
vn -0.7055 -0.1615 -0.6901
vn -0.7055 -0.1615 0.6901
vn 0.6173 0.4647 -0.6348
vn 0.6173 0.4647 0.6348
vn 0.5774 -0.5774 0.5774
vn -0.5774 -0.5774 -0.5774
vn 0.5774 -0.5774 -0.5774
vn 0.7055 -0.1615 0.6901
vn 0.7055 -0.1615 -0.6901
vn -0.5774 -0.5774 0.5774
vn -0.6173 0.4647 -0.6348
usemtl frank3Dtex
s 1
f 2/1/1 12/2/2 11/3/3
f 3/4/4 2/5/1 1/6/5
f 5/7/6 8/8/7 7/9/8
f 1/6/5 11/10/3 10/11/9
f 10/11/9 7/12/8 9/13/10
f 11/3/3 8/14/7 6/15/11
f 10/11/9 6/16/11 5/7/6
f 3/17/4 10/11/9 9/13/10
f 9/13/10 4/18/12 3/17/4
f 7/12/8 12/2/2 9/13/10
f 2/1/1 4/18/12 12/2/2
f 3/4/4 4/19/12 2/5/1
f 5/7/6 6/16/11 8/8/7
f 1/6/5 2/5/1 11/10/3
f 10/11/9 5/7/6 7/12/8
f 11/3/3 12/2/2 8/14/7
f 10/11/9 11/10/3 6/16/11
f 3/17/4 1/6/5 10/11/9
f 9/13/10 12/2/2 4/18/12
f 7/12/8 8/14/7 12/2/2
