# Blender v3.0.1 OBJ File: 'egg3d_nooutlines.blend'
# www.blender.org
mtllib skin_egg_body.mtl
o Egg_Sphere
v -0.000000 0.519995 -0.223121
v -0.000000 0.257289 -0.314550
v -0.000000 -0.342550 -0.353128
v -0.000000 -0.619512 -0.148197
v 0.056699 0.674492 -0.106983
v 0.109515 0.519285 -0.206637
v 0.154423 0.256308 -0.291374
v 0.179939 -0.064275 -0.339517
v 0.173015 -0.342927 -0.326454
v 0.133959 -0.524803 -0.252760
v 0.072563 -0.619697 -0.136916
v 0.104993 0.673967 -0.082058
v 0.203521 0.517588 -0.159064
v 0.287115 0.253981 -0.224397
v 0.333753 -0.065845 -0.260848
v 0.320159 -0.343814 -0.250223
v 0.247583 -0.525584 -0.193501
v 0.134080 -0.620141 -0.104791
v 0.137472 0.673447 -0.044504
v 0.267400 0.515914 -0.086566
v 0.377387 0.251709 -0.122172
v 0.437667 -0.067368 -0.141687
v 0.418883 -0.344663 -0.135606
v 0.323548 -0.526334 -0.104743
v 0.175183 -0.620583 -0.056712
v 0.148928 0.673232 0.000000
v 0.290088 0.515227 0.000000
v 0.409470 0.250783 0.000000
v 0.474423 -0.067984 0.000000
v 0.453642 -0.345002 0.000000
v 0.350231 -0.526635 0.000000
v 0.189617 -0.620766 0.000000
v 0.137472 0.673447 0.044504
v 0.267400 0.515914 0.086566
v 0.377387 0.251709 0.122172
v 0.437666 -0.067368 0.141687
v 0.418883 -0.344663 0.135606
v 0.323548 -0.526334 0.104743
v 0.175183 -0.620583 0.056713
v 0.104993 0.673967 0.082058
v 0.203521 0.517588 0.159064
v 0.287115 0.253981 0.224397
v 0.333753 -0.065845 0.260848
v 0.320159 -0.343814 0.250223
v 0.247583 -0.525584 0.193501
v 0.134080 -0.620141 0.104791
v 0.056699 0.674492 0.106983
v 0.109515 0.519285 0.206638
v 0.154423 0.256308 0.291374
v 0.179939 -0.064275 0.339517
v 0.173015 -0.342927 0.326454
v 0.133959 -0.524803 0.252760
v 0.072563 -0.619697 0.136916
v -0.000000 0.723887 0.000000
v -0.000000 0.674710 0.115693
v -0.000000 0.519995 0.223121
v -0.000000 0.257289 0.314550
v -0.000000 -0.063612 0.366894
v -0.000000 -0.342550 0.353128
v -0.000000 -0.524470 0.273556
v -0.000000 -0.619512 0.148197
v -0.056699 0.674492 0.106983
v -0.109515 0.519285 0.206638
v -0.154424 0.256308 0.291374
v -0.179939 -0.064275 0.339517
v -0.173016 -0.342927 0.326454
v -0.133959 -0.524803 0.252760
v -0.072563 -0.619697 0.136916
v -0.104993 0.673967 0.082058
v -0.203521 0.517588 0.159064
v -0.287115 0.253981 0.224397
v -0.333753 -0.065845 0.260848
v -0.320159 -0.343814 0.250223
v -0.247583 -0.525584 0.193501
v -0.134080 -0.620141 0.104791
v -0.000000 -0.649306 0.000000
v -0.137472 0.673447 0.044504
v -0.267400 0.515914 0.086566
v -0.377387 0.251709 0.122172
v -0.437666 -0.067368 0.141687
v -0.418883 -0.344663 0.135606
v -0.323548 -0.526334 0.104743
v -0.175183 -0.620583 0.056712
v -0.148928 0.673232 0.000000
v -0.290088 0.515227 -0.000000
v -0.409469 0.250783 -0.000000
v -0.474423 -0.067984 -0.000000
v -0.453641 -0.345002 -0.000000
v -0.350231 -0.526634 -0.000000
v -0.189617 -0.620766 -0.000000
v -0.137472 0.673447 -0.044504
v -0.267400 0.515914 -0.086566
v -0.377387 0.251709 -0.122172
v -0.437666 -0.067368 -0.141687
v -0.418883 -0.344663 -0.135606
v -0.323548 -0.526334 -0.104743
v -0.175183 -0.620583 -0.056713
v -0.104993 0.673967 -0.082058
v -0.203521 0.517588 -0.159064
v -0.287115 0.253981 -0.224397
v -0.333753 -0.065845 -0.260848
v -0.320159 -0.343814 -0.250223
v -0.247583 -0.525584 -0.193501
v -0.134079 -0.620141 -0.104791
v -0.056699 0.674492 -0.106983
v -0.109514 0.519285 -0.206637
v -0.154423 0.256308 -0.291374
v -0.179938 -0.064275 -0.339517
v -0.173015 -0.342926 -0.326454
v -0.133959 -0.524803 -0.252760
v -0.072563 -0.619697 -0.136916
v 0.000000 0.674710 -0.115693
v 0.000000 -0.063612 -0.366894
v 0.000000 -0.524470 -0.273556
vt 0.171735 0.752123
vt 0.204704 0.857289
vt 0.218224 0.751729
vt 0.171735 0.919677
vt 0.171735 0.939416
vt 0.188804 0.919589
vt 0.171735 0.388214
vt 0.171735 0.400173
vt 0.193580 0.400099
vt 0.171735 0.511346
vt 0.212063 0.438190
vt 0.171735 0.438323
vt 0.171735 0.623313
vt 0.225905 0.623046
vt 0.171735 0.857574
vt 0.223821 0.511195
vt 0.246270 0.437876
vt 0.258171 0.750795
vt 0.272212 0.622416
vt 0.203343 0.919378
vt 0.233005 0.856607
vt 0.212100 0.399921
vt 0.268119 0.510839
vt 0.224474 0.399743
vt 0.297840 0.510498
vt 0.252236 0.855935
vt 0.285348 0.749883
vt 0.213121 0.919169
vt 0.269139 0.437575
vt 0.303495 0.621805
vt 0.308304 0.510362
vt 0.259066 0.855659
vt 0.295006 0.749511
vt 0.216570 0.919083
vt 0.228819 0.399670
vt 0.277172 0.437454
vt 0.314560 0.621558
vt 0.224474 0.399743
vt 0.297840 0.510498
vt 0.269139 0.437575
vt 0.303495 0.621805
vt 0.252236 0.855935
vt 0.285348 0.749883
vt 0.213121 0.919169
vt 0.272212 0.622416
vt 0.233005 0.856607
vt 0.246270 0.437876
vt 0.212100 0.399921
vt 0.268119 0.510839
vt 0.258171 0.750795
vt 0.203343 0.919378
vt 0.212063 0.438190
vt 0.193580 0.400099
vt 0.225905 0.623047
vt 0.223821 0.511195
vt 0.218224 0.751729
vt 0.188804 0.919589
vt 0.204704 0.857289
vt 0.171735 0.752123
vt 0.171735 0.919677
vt 0.171735 0.400173
vt 0.171735 0.511346
vt 0.171735 0.438323
vt 0.171735 0.623313
vt 0.171735 0.857574
vt 0.149889 0.400099
vt 0.131406 0.438190
vt 0.125245 0.751729
vt 0.117564 0.623047
vt 0.154665 0.919589
vt 0.138765 0.857289
vt 0.119648 0.511195
vt 0.140126 0.919378
vt 0.110464 0.856607
vt 0.131370 0.399921
vt 0.075350 0.510839
vt 0.085298 0.750795
vt 0.097199 0.437876
vt 0.071258 0.622416
vt 0.118995 0.399743
vt 0.045629 0.510498
vt 0.091234 0.855935
vt 0.058122 0.749883
vt 0.130349 0.919169
vt 0.074330 0.437575
vt 0.039975 0.621805
vt 0.126900 0.919083
vt 0.114650 0.399670
vt 0.066297 0.437454
vt 0.048463 0.749511
vt 0.028909 0.621558
vt 0.084403 0.855659
vt 0.035165 0.510362
vt 0.045629 0.510498
vt 0.074330 0.437575
vt 0.039975 0.621805
vt 0.091234 0.855935
vt 0.118995 0.399743
vt 0.058122 0.749883
vt 0.130349 0.919169
vt 0.097200 0.437876
vt 0.131370 0.399921
vt 0.071258 0.622416
vt 0.075350 0.510839
vt 0.085298 0.750795
vt 0.140126 0.919378
vt 0.110464 0.856607
vt 0.117564 0.623046
vt 0.119648 0.511195
vt 0.125245 0.751729
vt 0.154665 0.919589
vt 0.149889 0.400099
vt 0.131406 0.438190
vt 0.138765 0.857289
vn 0.0000 0.2442 -0.9697
vn 0.2755 0.4595 -0.8443
vn 0.2975 0.2509 -0.9211
vn 0.0000 0.7630 -0.6463
vn 0.0000 1.0000 0.0000
vn 0.1996 0.7700 -0.6059
vn 0.0000 -1.0000 0.0000
vn 0.0000 -0.9033 -0.4290
vn 0.1238 -0.9071 -0.4022
vn 0.0000 -0.2249 -0.9744
vn 0.2429 -0.6166 -0.7488
vn 0.0000 -0.6068 -0.7948
vn 0.0000 0.0551 -0.9985
vn 0.3087 0.0555 -0.9495
vn 0.0000 0.4491 -0.8935
vn 0.3035 -0.2318 -0.9242
vn 0.4729 -0.6419 -0.6035
vn 0.5936 0.2694 -0.7583
vn 0.6179 0.0571 -0.7842
vn 0.3830 0.7876 -0.4827
vn 0.5409 0.4871 -0.6856
vn 0.2379 -0.9171 -0.3198
vn 0.6025 -0.2503 -0.7578
vn 0.3251 -0.9283 -0.1808
vn 0.8541 -0.2722 -0.4432
vn 0.7571 0.5190 -0.3968
vn 0.8463 0.2916 -0.4456
vn 0.5238 0.8065 -0.2740
vn 0.6563 -0.6702 -0.3465
vn 0.8845 0.0598 -0.4625
vn 0.9593 -0.2824 0.0000
vn 0.8457 0.5336 0.0000
vn 0.9532 0.3022 0.0000
vn 0.5795 0.8149 0.0000
vn 0.3592 -0.9333 0.0000
vn 0.7305 -0.6829 0.0000
vn 0.9981 0.0613 0.0000
vn 0.3251 -0.9283 0.1808
vn 0.8541 -0.2722 0.4432
vn 0.6563 -0.6702 0.3465
vn 0.8845 0.0598 0.4625
vn 0.7571 0.5190 0.3968
vn 0.8463 0.2916 0.4456
vn 0.5238 0.8065 0.2740
vn 0.6179 0.0571 0.7842
vn 0.5409 0.4871 0.6856
vn 0.4729 -0.6419 0.6035
vn 0.2379 -0.9171 0.3198
vn 0.6025 -0.2503 0.7578
vn 0.5936 0.2694 0.7583
vn 0.3830 0.7876 0.4827
vn 0.2429 -0.6166 0.7488
vn 0.1238 -0.9071 0.4022
vn 0.3087 0.0555 0.9495
vn 0.3035 -0.2318 0.9242
vn 0.2975 0.2509 0.9211
vn 0.1996 0.7700 0.6059
vn 0.2755 0.4595 0.8443
vn 0.0000 0.2442 0.9697
vn 0.0000 0.7630 0.6463
vn 0.0000 -0.9033 0.4290
vn 0.0000 -0.2249 0.9744
vn 0.0000 -0.6068 0.7948
vn 0.0000 0.0551 0.9985
vn 0.0000 0.4491 0.8935
vn -0.1238 -0.9071 0.4022
vn -0.2429 -0.6166 0.7488
vn -0.2975 0.2509 0.9211
vn -0.3087 0.0555 0.9495
vn -0.1996 0.7700 0.6059
vn -0.2755 0.4595 0.8443
vn -0.3035 -0.2318 0.9242
vn -0.3830 0.7876 0.4827
vn -0.5409 0.4871 0.6856
vn -0.2379 -0.9171 0.3198
vn -0.6025 -0.2503 0.7578
vn -0.5936 0.2694 0.7583
vn -0.4729 -0.6419 0.6035
vn -0.6179 0.0571 0.7842
vn -0.3251 -0.9283 0.1808
vn -0.8541 -0.2722 0.4432
vn -0.7571 0.5190 0.3968
vn -0.8463 0.2916 0.4456
vn -0.5238 0.8065 0.2740
vn -0.6563 -0.6702 0.3465
vn -0.8845 0.0598 0.4625
vn -0.5795 0.8149 0.0000
vn -0.3592 -0.9333 0.0000
vn -0.7305 -0.6829 0.0000
vn -0.9532 0.3022 0.0000
vn -0.9981 0.0613 0.0000
vn -0.8457 0.5336 0.0000
vn -0.9593 -0.2824 0.0000
vn -0.8541 -0.2722 -0.4432
vn -0.6563 -0.6702 -0.3465
vn -0.8845 0.0598 -0.4625
vn -0.7571 0.5190 -0.3968
vn -0.3251 -0.9283 -0.1808
vn -0.8463 0.2916 -0.4456
vn -0.5238 0.8065 -0.2740
vn -0.4729 -0.6419 -0.6035
vn -0.2379 -0.9171 -0.3198
vn -0.6179 0.0571 -0.7842
vn -0.6025 -0.2503 -0.7578
vn -0.5936 0.2694 -0.7583
vn -0.3830 0.7876 -0.4827
vn -0.5409 0.4871 -0.6856
vn -0.3087 0.0555 -0.9495
vn -0.3035 -0.2318 -0.9242
vn -0.2975 0.2509 -0.9211
vn -0.1996 0.7700 -0.6060
vn -0.1238 -0.9071 -0.4022
vn -0.2429 -0.6166 -0.7488
vn -0.2755 0.4595 -0.8443
usemtl egg3Dtex
s 1
f 2/1/1 6/2/2 7/3/3
f 112/4/4 54/5/5 5/6/6
f 76/7/7 4/8/8 11/9/9
f 3/10/10 10/11/11 114/12/12
f 113/13/13 7/3/3 8/14/14
f 1/15/15 5/6/6 6/2/2
f 114/12/12 11/9/9 4/8/8
f 113/13/13 9/16/16 3/10/10
f 9/16/16 17/17/17 10/11/11
f 8/14/14 14/18/18 15/19/19
f 6/2/2 12/20/20 13/21/21
f 10/11/11 18/22/22 11/9/9
f 8/14/14 16/23/23 9/16/16
f 7/3/3 13/21/21 14/18/18
f 5/6/6 54/5/5 12/20/20
f 76/7/7 11/9/9 18/22/22
f 17/17/17 25/24/24 18/22/22
f 15/19/19 23/25/25 16/23/23
f 14/18/18 20/26/26 21/27/27
f 12/20/20 54/5/5 19/28/28
f 76/7/7 18/22/22 25/24/24
f 16/23/23 24/29/29 17/17/17
f 15/19/19 21/27/27 22/30/30
f 13/21/21 19/28/28 20/26/26
f 22/30/30 30/31/31 23/25/25
f 21/27/27 27/32/32 28/33/33
f 19/28/28 54/5/5 26/34/34
f 76/7/7 25/24/24 32/35/35
f 23/25/25 31/36/36 24/29/29
f 22/30/30 28/33/33 29/37/37
f 20/26/26 26/34/34 27/32/32
f 24/29/29 32/35/35 25/24/24
f 76/7/7 32/35/35 39/38/38
f 31/36/36 37/39/39 38/40/40
f 28/33/33 36/41/41 29/37/37
f 26/34/34 34/42/42 27/32/32
f 32/35/35 38/40/40 39/38/38
f 30/31/31 36/41/41 37/39/39
f 27/32/32 35/43/43 28/33/33
f 26/34/34 54/5/5 33/44/44
f 35/43/43 43/45/45 36/41/41
f 33/44/44 41/46/46 34/42/42
f 39/38/38 45/47/47 46/48/48
f 37/39/39 43/45/45 44/49/49
f 34/42/42 42/50/50 35/43/43
f 33/44/44 54/5/5 40/51/51
f 76/7/7 39/38/38 46/48/48
f 38/40/40 44/49/49 45/47/47
f 46/48/48 52/52/52 53/53/53
f 44/49/49 50/54/54 51/55/55
f 41/46/46 49/56/56 42/50/50
f 40/51/51 54/5/5 47/57/57
f 76/7/7 46/48/48 53/53/53
f 45/47/47 51/55/55 52/52/52
f 42/50/50 50/54/54 43/45/45
f 40/51/51 48/58/58 41/46/46
f 48/58/58 57/59/59 49/56/56
f 47/57/57 54/5/5 55/60/60
f 76/7/7 53/53/53 61/61/61
f 52/52/52 59/62/62 60/63/63
f 49/56/56 58/64/64 50/54/54
f 47/57/57 56/65/65 48/58/58
f 53/53/53 60/63/63 61/61/61
f 51/55/55 58/64/64 59/62/62
f 76/7/7 61/61/61 68/66/66
f 59/62/62 67/67/67 60/63/63
f 58/64/64 64/68/68 65/69/69
f 56/65/65 62/70/70 63/71/71
f 60/63/63 68/66/66 61/61/61
f 58/64/64 66/72/72 59/62/62
f 57/59/59 63/71/71 64/68/68
f 55/60/60 54/5/5 62/70/70
f 63/71/71 69/73/73 70/74/74
f 67/67/67 75/75/75 68/66/66
f 65/69/69 73/76/76 66/72/72
f 64/68/68 70/74/74 71/77/77
f 62/70/70 54/5/5 69/73/73
f 76/7/7 68/66/66 75/75/75
f 66/72/72 74/78/78 67/67/67
f 65/69/69 71/77/77 72/79/79
f 74/78/78 83/80/80 75/75/75
f 72/79/79 81/81/81 73/76/76
f 71/77/77 78/82/82 79/83/83
f 69/73/73 54/5/5 77/84/84
f 76/7/7 75/75/75 83/80/80
f 73/76/76 82/85/85 74/78/78
f 72/79/79 79/83/83 80/86/86
f 70/74/74 77/84/84 78/82/82
f 77/84/84 54/5/5 84/87/87
f 76/7/7 83/80/80 90/88/88
f 81/81/81 89/89/89 82/85/85
f 80/86/86 86/90/90 87/91/91
f 78/82/82 84/87/87 85/92/92
f 82/85/85 90/88/88 83/80/80
f 80/86/86 88/93/93 81/81/81
f 79/83/83 85/92/92 86/90/90
f 89/89/89 95/94/94 96/95/95
f 86/90/90 94/96/96 87/91/91
f 84/87/87 92/97/97 85/92/92
f 90/88/88 96/95/95 97/98/98
f 88/93/93 94/96/96 95/94/94
f 85/92/92 93/99/99 86/90/90
f 84/87/87 54/5/5 91/100/100
f 76/7/7 90/88/88 97/98/98
f 97/98/98 103/101/101 104/102/102
f 95/94/94 101/103/103 102/104/104
f 92/97/97 100/105/105 93/99/99
f 91/100/100 54/5/5 98/106/106
f 76/7/7 97/98/98 104/102/102
f 96/95/95 102/104/104 103/101/101
f 93/99/99 101/103/103 94/96/96
f 91/100/100 99/107/107 92/97/97
f 102/104/104 108/108/108 109/109/109
f 99/107/107 107/110/110 100/105/105
f 98/106/106 54/5/5 105/111/111
f 76/7/7 104/102/102 111/112/112
f 103/101/101 109/109/109 110/113/113
f 100/105/105 108/108/108 101/103/103
f 98/106/106 106/114/114 99/107/107
f 104/102/102 110/113/113 111/112/112
f 76/7/7 111/112/112 4/8/8
f 110/113/113 3/10/10 114/12/12
f 107/110/110 113/13/13 108/108/108
f 105/111/111 1/15/15 106/114/114
f 111/112/112 114/12/12 4/8/8
f 109/109/109 113/13/13 3/10/10
f 106/114/114 2/1/1 107/110/110
f 105/111/111 54/5/5 112/4/4
f 2/1/1 1/15/15 6/2/2
f 3/10/10 9/16/16 10/11/11
f 113/13/13 2/1/1 7/3/3
f 1/15/15 112/4/4 5/6/6
f 114/12/12 10/11/11 11/9/9
f 113/13/13 8/14/14 9/16/16
f 9/16/16 16/23/23 17/17/17
f 8/14/14 7/3/3 14/18/18
f 6/2/2 5/6/6 12/20/20
f 10/11/11 17/17/17 18/22/22
f 8/14/14 15/19/19 16/23/23
f 7/3/3 6/2/2 13/21/21
f 17/17/17 24/29/29 25/24/24
f 15/19/19 22/30/30 23/25/25
f 14/18/18 13/21/21 20/26/26
f 16/23/23 23/25/25 24/29/29
f 15/19/19 14/18/18 21/27/27
f 13/21/21 12/20/20 19/28/28
f 22/30/30 29/37/37 30/31/31
f 21/27/27 20/26/26 27/32/32
f 23/25/25 30/31/31 31/36/36
f 22/30/30 21/27/27 28/33/33
f 20/26/26 19/28/28 26/34/34
f 24/29/29 31/36/36 32/35/35
f 31/36/36 30/31/31 37/39/39
f 28/33/33 35/43/43 36/41/41
f 26/34/34 33/44/44 34/42/42
f 32/35/35 31/36/36 38/40/40
f 30/31/31 29/37/37 36/41/41
f 27/32/32 34/42/42 35/43/43
f 35/43/43 42/50/50 43/45/45
f 33/44/44 40/51/51 41/46/46
f 39/38/38 38/40/40 45/47/47
f 37/39/39 36/41/41 43/45/45
f 34/42/42 41/46/46 42/50/50
f 38/40/40 37/39/39 44/49/49
f 46/48/48 45/47/47 52/52/52
f 44/49/49 43/45/45 50/54/54
f 41/46/46 48/58/58 49/56/56
f 45/47/47 44/49/49 51/55/55
f 42/50/50 49/56/56 50/54/54
f 40/51/51 47/57/57 48/58/58
f 48/58/58 56/65/65 57/59/59
f 52/52/52 51/55/55 59/62/62
f 49/56/56 57/59/59 58/64/64
f 47/57/57 55/60/60 56/65/65
f 53/53/53 52/52/52 60/63/63
f 51/55/55 50/54/54 58/64/64
f 59/62/62 66/72/72 67/67/67
f 58/64/64 57/59/59 64/68/68
f 56/65/65 55/60/60 62/70/70
f 60/63/63 67/67/67 68/66/66
f 58/64/64 65/69/69 66/72/72
f 57/59/59 56/65/65 63/71/71
f 63/71/71 62/70/70 69/73/73
f 67/67/67 74/78/78 75/75/75
f 65/69/69 72/79/79 73/76/76
f 64/68/68 63/71/71 70/74/74
f 66/72/72 73/76/76 74/78/78
f 65/69/69 64/68/68 71/77/77
f 74/78/78 82/85/85 83/80/80
f 72/79/79 80/86/86 81/81/81
f 71/77/77 70/74/74 78/82/82
f 73/76/76 81/81/81 82/85/85
f 72/79/79 71/77/77 79/83/83
f 70/74/74 69/73/73 77/84/84
f 81/81/81 88/93/93 89/89/89
f 80/86/86 79/83/83 86/90/90
f 78/82/82 77/84/84 84/87/87
f 82/85/85 89/89/89 90/88/88
f 80/86/86 87/91/91 88/93/93
f 79/83/83 78/82/82 85/92/92
f 89/89/89 88/93/93 95/94/94
f 86/90/90 93/99/99 94/96/96
f 84/87/87 91/100/100 92/97/97
f 90/88/88 89/89/89 96/95/95
f 88/93/93 87/91/91 94/96/96
f 85/92/92 92/97/97 93/99/99
f 97/98/98 96/95/95 103/101/101
f 95/94/94 94/96/96 101/103/103
f 92/97/97 99/107/107 100/105/105
f 96/95/95 95/94/94 102/104/104
f 93/99/99 100/105/105 101/103/103
f 91/100/100 98/106/106 99/107/107
f 102/104/104 101/103/103 108/108/108
f 99/107/107 106/114/114 107/110/110
f 103/101/101 102/104/104 109/109/109
f 100/105/105 107/110/110 108/108/108
f 98/106/106 105/111/111 106/114/114
f 104/102/102 103/101/101 110/113/113
f 110/113/113 109/109/109 3/10/10
f 107/110/110 2/1/1 113/13/13
f 105/111/111 112/4/4 1/15/15
f 111/112/112 110/113/113 114/12/12
f 109/109/109 108/108/108 113/13/13
f 106/114/114 1/15/15 2/1/1
