# Blender v3.0.1 OBJ File: 'ancient3d_nooutlines.blend'
# www.blender.org
mtllib ancient_body.mtl
o Ancient_Body_Cube.010
v -0.155543 0.278425 -0.075538
v -0.153468 -0.234063 -0.075719
v -0.155543 0.278425 0.075538
v -0.153468 -0.234063 0.075719
v 0.000332 0.308133 0.000000
v 0.153492 0.281230 -0.075320
v 0.154132 -0.234063 -0.075719
v 0.153492 0.281230 0.075320
v 0.154132 -0.234063 0.075719
v -0.194871 0.176006 0.092161
v -0.194871 0.176006 -0.092161
v 0.151394 0.111566 0.073119
v 0.151394 0.111566 -0.073119
v -0.151953 0.071494 -0.072552
v -0.151953 0.071494 0.072552
vt 0.499850 0.471334
vt 0.455156 0.500595
vt 0.455156 0.439765
vt 0.545162 0.857255
vt 0.451465 0.916173
vt 0.455490 0.871713
vt 0.550697 0.745839
vt 0.455156 0.678909
vt 0.544545 0.678909
vt 0.600119 0.916173
vt 0.550697 0.916173
vt 0.544545 0.500595
vt 0.544545 0.439765
vt 0.544545 0.565339
vt 0.402043 0.745839
vt 0.455490 0.842798
vt 0.402043 0.842798
vt 0.402043 0.871713
vt 0.402043 0.916173
vt 0.455156 0.575129
vt 0.455156 0.545758
vt 0.451465 0.745839
vt 0.600119 0.745839
vt 0.600119 0.857255
vn -0.0079 1.0000 0.0000
vn -0.4764 0.6557 -0.5857
vn -0.4764 0.6557 0.5857
vn 0.7104 -0.0056 0.7038
vn -0.7277 -0.0051 0.6859
vn 0.5792 -0.5730 0.5798
vn -0.5784 -0.5733 -0.5803
vn 0.5792 -0.5730 -0.5798
vn 0.6063 0.5262 -0.5962
vn 0.6063 0.5262 0.5962
vn 0.7104 -0.0056 -0.7038
vn -0.6560 -0.1995 0.7279
vn -0.6560 -0.1995 -0.7279
vn -0.7277 -0.0051 -0.6859
vn -0.5784 -0.5733 0.5803
usemtl frank3Dtex
s 1
f 5/1/1 1/2/2 3/3/3
f 12/4/4 3/5/3 10/6/5
f 9/7/6 2/8/7 7/9/8
f 12/4/4 6/10/9 8/11/10
f 6/12/9 5/1/1 8/13/10
f 13/14/11 1/2/2 6/12/9
f 5/1/1 3/3/3 8/13/10
f 5/1/1 6/12/9 1/2/2
f 2/15/7 15/16/12 14/17/13
f 11/18/14 3/5/3 1/19/2
f 13/14/11 14/20/13 11/21/14
f 12/4/4 8/11/10 3/5/3
f 12/4/4 10/6/5 15/16/12
f 9/7/6 15/16/12 4/22/15
f 7/23/8 12/4/4 9/7/6
f 7/9/8 14/20/13 13/14/11
f 11/18/14 15/16/12 10/6/5
f 9/7/6 4/22/15 2/8/7
f 12/4/4 13/24/11 6/10/9
f 13/14/11 11/21/14 1/2/2
f 2/15/7 4/22/15 15/16/12
f 11/18/14 10/6/5 3/5/3
f 9/7/6 12/4/4 15/16/12
f 7/23/8 13/24/11 12/4/4
f 7/9/8 2/8/7 14/20/13
f 11/18/14 14/17/13 15/16/12
