# Blender v3.0.1 OBJ File: 'default3d_nooutlines.blend'
# www.blender.org
mtllib skin_default_rightfoot.mtl
o OvO.009_Cube.022
v 0.132383 -0.283988 -0.086501
v -0.002143 -0.283988 -0.086501
v 0.132383 -0.283988 0.086501
v -0.002143 -0.283988 0.086501
v 0.132383 -0.001989 -0.086501
v -0.002143 -0.001989 -0.086501
v 0.132383 -0.001989 0.086501
v -0.002143 -0.001989 0.086501
vt 0.863183 0.766134
vt 0.825145 0.661294
vt 0.863199 0.661294
vt 0.902805 0.766134
vt 0.995512 0.661294
vt 0.941135 0.588320
vt 0.995512 0.588320
vt 0.941135 0.661294
vt 0.902805 0.661294
vt 0.995512 0.766134
vt 0.941135 0.839241
vt 0.941135 0.766134
vt 0.825145 0.766134
vt 0.995512 0.839241
vn 0.5774 0.5774 -0.5774
vn 0.5774 -0.5774 0.5774
vn 0.5774 -0.5774 -0.5774
vn -0.5774 0.5774 -0.5774
vn -0.5774 -0.5774 -0.5774
vn -0.5774 -0.5774 0.5774
vn 0.5774 0.5774 0.5774
vn -0.5774 0.5774 0.5774
usemtl frank3Dtex
s 1
f 5/1/1 3/2/2 1/3/3
f 1/3/3 6/4/4 5/1/1
f 3/5/2 2/6/5 1/7/3
f 4/8/6 6/4/4 2/9/5
f 7/10/7 4/8/6 3/5/2
f 7/10/7 6/11/4 8/12/8
f 5/1/1 7/13/7 3/2/2
f 1/3/3 2/9/5 6/4/4
f 3/5/2 4/8/6 2/6/5
f 4/8/6 8/12/8 6/4/4
f 7/10/7 8/12/8 4/8/6
f 7/10/7 5/14/1 6/11/4
