# Blender v3.0.1 OBJ File: 'pulse3d_nooutline.blend'
# www.blender.org
mtllib pulse3d_righthand.mtl
o Pulse.003_Cube.016
v -0.001972 0.000153 0.086501
v 0.132553 0.000153 0.086501
v -0.001972 0.000153 -0.086501
v 0.132553 0.000153 -0.086501
v -0.001972 -0.281845 0.086501
v 0.132554 -0.281845 0.086501
v -0.001972 -0.281845 -0.086501
v 0.132553 -0.281845 -0.086501
v 0.156767 -0.199931 -0.117639
v 0.156767 -0.199931 0.117639
v -0.026186 -0.199931 0.117639
v -0.026186 -0.199931 -0.117639
v -0.001972 -0.220085 0.086501
v 0.132553 -0.220085 -0.086501
v 0.132553 -0.220085 0.086501
v -0.001972 -0.220085 -0.086501
vt 0.845282 0.766134
vt 0.825145 0.817044
vt 0.845282 0.817039
vt 0.971857 0.922033
vt 0.917094 0.985945
vt 0.971857 0.985945
vt 0.825145 0.922033
vt 0.769328 0.985945
vt 0.825145 0.985945
vt 0.845282 0.922033
vt 0.845282 0.985945
vt 0.917094 0.922033
vt 0.851854 0.870940
vt 0.851854 0.922033
vt 0.845282 0.870940
vt 0.851854 0.985945
vt 0.917094 0.766134
vt 0.851854 0.817038
vt 0.917094 0.817024
vt 0.825145 0.870940
vt 0.851854 0.766134
vt 0.825145 0.766134
vt 0.769328 0.922033
vt 0.917094 0.870940
vn 0.5614 -0.6593 0.5001
vn 0.5774 -0.5774 -0.5774
vn 0.5614 -0.6593 -0.5001
vn -0.5448 0.6486 -0.5315
vn 0.5448 0.6486 0.5315
vn 0.5448 0.6486 -0.5315
vn -0.5774 -0.5774 0.5774
vn 0.5774 -0.5773 0.5774
vn -0.5614 -0.6593 0.5001
vn -0.5448 0.6486 0.5315
vn -0.6504 -0.3562 -0.6709
vn -0.6504 -0.3562 0.6709
vn -0.5614 -0.6593 -0.5001
vn 0.6504 -0.3562 0.6709
vn 0.6504 -0.3562 -0.6709
vn -0.5774 -0.5774 -0.5774
usemtl frank3Dtex
s 1
f 15/1/1 8/2/2 14/3/3
f 3/4/4 2/5/5 4/6/6
f 5/7/7 8/8/2 6/9/8
f 13/10/9 6/9/8 15/11/1
f 1/12/10 12/13/11 11/14/12
f 11/14/12 16/15/13 13/10/9
f 1/12/10 10/16/14 2/5/5
f 2/17/5 9/18/15 4/19/6
f 16/15/13 9/18/15 14/3/3
f 12/13/11 4/19/6 9/18/15
f 7/20/16 14/3/3 8/2/2
f 13/10/9 7/20/16 5/7/7
f 11/14/12 15/11/1 10/16/14
f 10/21/14 14/3/3 9/18/15
f 15/1/1 6/22/8 8/2/2
f 3/4/4 1/12/10 2/5/5
f 5/7/7 7/23/16 8/8/2
f 13/10/9 5/7/7 6/9/8
f 1/12/10 3/24/4 12/13/11
f 11/14/12 12/13/11 16/15/13
f 1/12/10 11/14/12 10/16/14
f 2/17/5 10/21/14 9/18/15
f 16/15/13 12/13/11 9/18/15
f 12/13/11 3/24/4 4/19/6
f 7/20/16 16/15/13 14/3/3
f 13/10/9 16/15/13 7/20/16
f 11/14/12 13/10/9 15/11/1
f 10/21/14 15/1/1 14/3/3
