# Blender v2.81 (sub 16) OBJ File: ''
# www.blender.org
mtllib skin_grandfather_lefthand.mtl
o GFClock.008_Cube.005
v -0.002553 -0.004972 0.083204
v -0.002553 -0.336924 0.083204
v 0.131972 -0.336924 0.083204
v 0.131972 -0.004972 0.083204
v -0.002553 -0.004972 0.080082
v 0.131972 -0.336924 0.080082
v -0.002553 -0.336924 0.080082
v 0.131972 -0.004972 0.080082
vt 0.810311 0.554213
vt 0.987760 0.554213
vt 0.987760 0.445032
vt 0.810311 0.445032
vt 0.810311 0.554213
vt 0.987760 0.445032
vt 0.987760 0.554213
vt 0.810311 0.445032
vn 0.0000 -0.0000 1.0000
vn 0.0000 0.0000 -1.0000
usemtl gfcock3dtex.001
s 1
f 1/1/1 2/2/1 3/3/1
f 1/1/1 3/3/1 4/4/1
f 5/5/2 6/6/2 7/7/2
f 5/5/2 8/8/2 6/6/2
