# Blender v3.0.1 OBJ File: 'astronaut3d_nooutlines.blend'
# www.blender.org
mtllib skin_astronaut_lefthand.mtl
o Astronaut_lefthand_Cube.002
v 0.131972 0.000153 0.086501
v -0.002553 0.000153 0.086501
v 0.131972 0.000153 -0.086501
v -0.002553 0.000153 -0.086501
v 0.064710 -0.287494 0.000000
v 0.014032 -0.205636 0.065172
v 0.115387 -0.205636 -0.065172
v 0.014032 -0.205636 -0.065172
v 0.115387 -0.205636 0.065172
v -0.002553 -0.195076 -0.086501
v -0.002553 -0.195076 0.086501
v 0.131972 -0.195076 0.086501
v 0.131972 -0.195076 -0.086501
v 0.107730 -0.265297 0.055325
v 0.021689 -0.265297 -0.055325
v 0.107730 -0.265297 -0.055325
v 0.021689 -0.265297 0.055325
vt 0.851287 0.922033
vt 0.836228 0.922033
vt 0.836228 0.870957
vt 0.875276 0.922033
vt 0.851287 0.870957
vt 0.836228 0.985509
vt 0.826695 0.870957
vt 0.917094 0.766134
vt 0.917094 0.818378
vt 0.875276 0.818378
vt 0.875276 0.870957
vt 0.851287 0.818378
vt 0.917094 0.922033
vt 0.836228 0.818378
vt 0.851287 0.766134
vt 0.917094 0.985509
vt 0.875276 0.985509
vt 0.875276 0.766134
vt 0.971857 0.922033
vt 0.971857 0.985509
vt 0.851287 0.985509
vt 0.836228 0.766134
vt 0.917094 0.870957
vn 0.4731 -0.7736 0.4216
vn 0.5828 -0.5728 0.5764
vn 0.5828 -0.5728 -0.5764
vn 0.6202 -0.4691 0.6287
vn 0.4731 -0.7736 -0.4216
vn -0.5828 -0.5728 0.5764
vn 0.0000 -1.0000 0.0000
vn -0.5774 0.5774 0.5774
vn -0.5774 0.5774 -0.5774
vn -0.6202 -0.4691 -0.6287
vn 0.6202 -0.4691 -0.6287
vn -0.4731 -0.7736 -0.4216
vn 0.5774 0.5774 0.5774
vn -0.5828 -0.5728 -0.5764
vn -0.4731 -0.7736 0.4216
vn -0.6202 -0.4691 0.6287
vn 0.5774 0.5774 -0.5774
usemtl frank3Dtex
s 1
f 9/1/1 14/2/2 16/3/3
f 12/4/4 9/1/1 7/5/5
f 17/6/6 5/7/7 14/2/2
f 2/8/8 4/9/9 10/10/10
f 13/11/11 10/10/10 4/9/9
f 7/5/5 8/12/12 10/10/10
f 1/13/13 12/4/4 13/11/11
f 16/3/3 15/14/14 8/12/12
f 6/15/15 8/12/12 15/14/14
f 1/13/13 2/16/8 11/17/16
f 11/18/16 10/10/10 8/12/12
f 3/19/17 4/20/9 2/16/8
f 12/4/4 11/17/16 6/21/15
f 14/2/2 5/7/7 16/3/3
f 15/14/14 5/7/7 17/22/6
f 5/7/7 15/14/14 16/3/3
f 9/1/1 6/21/15 17/6/6
f 9/1/1 16/3/3 7/5/5
f 12/4/4 7/5/5 13/11/11
f 2/8/8 10/10/10 11/18/16
f 13/11/11 4/9/9 3/23/17
f 7/5/5 10/10/10 13/11/11
f 1/13/13 13/11/11 3/23/17
f 16/3/3 8/12/12 7/5/5
f 6/15/15 15/14/14 17/22/6
f 1/13/13 11/17/16 12/4/4
f 11/18/16 8/12/12 6/15/15
f 3/19/17 2/16/8 1/13/13
f 12/4/4 6/21/15 9/1/1
f 9/1/1 17/6/6 14/2/2
