<?xml version="1.0" encoding="utf-8"?>
<!-- Generator: Adobe Illustrator 23.0.6, SVG Export Plug-In . SVG Version: 6.00 Build 0)  -->
<svg version="1.1" id="Ebene_1" xmlns="http://www.w3.org/2000/svg" xmlns:xlink="http://www.w3.org/1999/xlink" x="0px" y="0px"
	 viewBox="0 0 256 256" style="enable-background:new 0 0 256 256;" xml:space="preserve">
<style type="text/css">
	.st0{display:none;fill:#33B679;}
	.st1{fill:#FFC600;}
	.st2{display:none;fill:none;}
</style>
<g>
	<path class="st0" d="M94.7,47.5l27.6,7.5l26-11.7l17.9,22.3l28.1,5.8l1.3,28.6l19.3,21.2l-15.7,23.9l3.1,28.4l-26.8,10.2
		l-14.2,24.8l-27.6-7.5l-26,11.7l-17.9-22.3l-28.1-5.8L60.4,156l-19.3-21.2l15.7-23.9l-3.1-28.4l26.8-10.2L94.7,47.5z"/>
	<path class="st0" d="M174.1,54.1l10,26.8l24.6,14.3l-7.7,27.5l11.6,26.2l-22.5,17.7l-6,28l-28.6,1.1l-21.3,19L110.3,199l-28.4,2.9
		l-10-26.8l-24.6-14.3l7.7-27.5L43.4,107l22.5-17.7l6-28l28.6-1.1l21.3-19L145.7,57L174.1,54.1z"/>
	<path class="st1" d="M140.1,129.6v-6.5c7.8,0,13.9-2.2,18.2-6.6c4.7-4.9,6.1-11.3,6.6-15.1H153v-6.5h18.5l0.1,3.1
		c0,0.6,0.4,13.7-8.6,22.9C157.4,126.7,149.8,129.6,140.1,129.6L140.1,129.6z M114,129.6v-6.5c-7.8,0-13.9-2.2-18.2-6.6
		c-4.7-4.9-6.1-11.3-6.6-15.1h11.9v-6.5H82.7L82.6,98c0,0.6-0.4,13.7,8.6,22.9C96.6,126.7,104.3,129.6,114,129.6z M119.3,129.6h14.3
		v26.8h-14.3V129.6z M157.3,102.4v-7.5H96.6v7.5c0,0-1.9,40.5,30.3,40.5C159.2,142.9,157.3,102.4,157.3,102.4z"/>
	<path class="st1" d="M126.9,95H93.2c0,0-2.1,48,33.7,48C126.9,143,126.9,95,126.9,95z"/>
	<path class="st1" d="M126.9,94.9h33.7c0,0,2.1,48-33.7,48C126.9,142.9,126.9,94.9,126.9,94.9z"/>
	<path class="st1" d="M150.5,177.7c0-7.3-10.6-13.3-23.6-13.3s-23.6,6-23.6,13.3H150.5z"/>
	<path class="st1" d="M139.8,168.2c0-8.9-5.8-16.1-12.9-16.1s-12.9,7.2-12.9,16.1H139.8z"/>
	<path class="st2" d="M103.4,177.7l54.5-95.2l49.7,49.7l7.3-11L195.6,100l-1.3-28.6l-28.1-5.8l-17.9-22.3l-26,11.7l-27.6-7.5
		L80.5,72.3L53.7,82.5l3.1,28.4l-15.7,23.9L60.4,156l1.3,28.6l28.1,5.8l17.9,22.3l21.2-9.5L103.4,177.7z M0,0h256v256H0V0z"/>
</g>
</svg>
